<svg id="Layer_1" data-name="Layer 1" xmlns="http://www.w3.org/2000/svg" viewBox="0 0 1024 498"><defs><style>.cls-1{opacity:0.52;}.cls-2,.cls-3,.cls-4,.cls-5{fill:#fff;}.cls-3{opacity:0.5;}.cls-4{opacity:0.33;}.cls-5{opacity:0.4;}.cls-6,.cls-7{fill:#a2d8f0;}.cls-10,.cls-7{opacity:0.29;}.cls-8{fill:#73c5e9;}.cls-10,.cls-9{fill:#169eda;}</style></defs><title>city</title><g class="cls-1"><rect class="cls-2" x="179.53" y="397.58" width="2.54" height="2.54"/><rect class="cls-2" x="184.63" y="397.58" width="2.54" height="2.54"/><rect class="cls-2" x="179.53" y="403.54" width="2.54" height="2.54"/><rect class="cls-2" x="184.63" y="403.54" width="2.54" height="2.54"/><rect class="cls-2" x="179.53" y="409.3" width="2.54" height="2.54"/><rect class="cls-2" x="190.29" y="397.58" width="2.54" height="2.54"/></g><rect class="cls-3" x="365.24" y="321.36" width="1.73" height="9.58"/><rect class="cls-3" x="371.21" y="321.36" width="1.73" height="9.58"/><rect class="cls-3" x="377.17" y="321.36" width="1.73" height="9.58"/><rect class="cls-3" x="383.14" y="321.36" width="1.73" height="9.58"/><rect class="cls-3" x="389.1" y="321.36" width="1.73" height="9.58"/><rect class="cls-3" x="395.07" y="321.36" width="1.73" height="9.58"/><rect class="cls-3" x="401.03" y="321.36" width="1.73" height="9.58"/><rect class="cls-3" x="407" y="321.36" width="1.73" height="9.58"/><rect class="cls-3" x="412.96" y="321.36" width="1.73" height="9.58"/><rect class="cls-3" x="418.93" y="321.36" width="1.73" height="9.58"/><rect class="cls-3" x="424.89" y="321.36" width="1.73" height="9.58"/><rect class="cls-3" x="365.24" y="334.7" width="1.73" height="9.58"/><rect class="cls-3" x="371.21" y="334.7" width="1.73" height="9.58"/><rect class="cls-3" x="377.17" y="334.7" width="1.73" height="9.58"/><rect class="cls-3" x="383.14" y="334.7" width="1.73" height="9.58"/><rect class="cls-3" x="389.1" y="334.7" width="1.73" height="9.58"/><rect class="cls-3" x="395.07" y="334.7" width="1.73" height="9.58"/><rect class="cls-3" x="401.03" y="334.7" width="1.73" height="9.58"/><rect class="cls-3" x="407" y="334.7" width="1.73" height="9.58"/><rect class="cls-3" x="412.96" y="334.7" width="1.73" height="9.58"/><rect class="cls-3" x="418.93" y="334.7" width="1.73" height="9.58"/><rect class="cls-3" x="424.89" y="334.7" width="1.73" height="9.58"/><rect class="cls-3" x="365.24" y="348.04" width="1.73" height="9.58"/><rect class="cls-3" x="371.21" y="348.04" width="1.73" height="9.58"/><rect class="cls-3" x="377.17" y="348.04" width="1.73" height="9.58"/><rect class="cls-3" x="383.14" y="348.04" width="1.73" height="9.58"/><rect class="cls-3" x="389.1" y="348.04" width="1.73" height="9.58"/><rect class="cls-3" x="395.07" y="348.04" width="1.73" height="9.58"/><rect class="cls-3" x="401.03" y="348.04" width="1.73" height="9.58"/><rect class="cls-3" x="407" y="348.04" width="1.73" height="9.58"/><rect class="cls-3" x="412.96" y="348.04" width="1.73" height="9.58"/><rect class="cls-3" x="418.93" y="348.04" width="1.73" height="9.58"/><rect class="cls-3" x="424.89" y="348.04" width="1.73" height="9.58"/><rect class="cls-3" x="383.14" y="361.37" width="1.73" height="9.58"/><rect class="cls-3" x="389.1" y="361.37" width="1.73" height="9.58"/><rect class="cls-3" x="395.07" y="361.37" width="1.73" height="9.58"/><rect class="cls-3" x="401.03" y="361.37" width="1.73" height="9.58"/><rect class="cls-3" x="407" y="361.37" width="1.73" height="9.58"/><rect class="cls-3" x="412.96" y="361.37" width="1.73" height="9.58"/><rect class="cls-3" x="418.93" y="361.37" width="1.73" height="9.58"/><rect class="cls-3" x="424.89" y="361.37" width="1.73" height="9.58"/><rect class="cls-3" x="389.1" y="375.45" width="1.73" height="9.58"/><rect class="cls-3" x="395.07" y="375.45" width="1.73" height="9.58"/><rect class="cls-3" x="401.03" y="375.45" width="1.73" height="9.58"/><rect class="cls-3" x="407" y="375.45" width="1.73" height="9.58"/><rect class="cls-3" x="412.96" y="375.45" width="1.73" height="9.58"/><rect class="cls-3" x="418.93" y="375.45" width="1.73" height="9.58"/><rect class="cls-3" x="424.89" y="375.45" width="1.73" height="9.58"/><rect class="cls-4" x="480.55" y="345.14" width="4.09" height="10.37"/><rect class="cls-4" x="480.55" y="364.98" width="4.09" height="10.37"/><rect class="cls-4" x="480.55" y="384.81" width="4.09" height="10.37"/><rect class="cls-4" x="480.55" y="404.65" width="4.09" height="10.37"/><rect class="cls-4" x="480.55" y="423.35" width="4.09" height="10.37"/><rect class="cls-4" x="480.55" y="443.19" width="4.09" height="10.37"/><rect class="cls-4" x="498.09" y="345.14" width="4.09" height="10.37"/><rect class="cls-4" x="498.09" y="364.98" width="4.09" height="10.37"/><rect class="cls-4" x="498.09" y="384.81" width="4.09" height="10.37"/><rect class="cls-4" x="498.09" y="404.65" width="4.09" height="10.37"/><rect class="cls-4" x="498.09" y="423.35" width="4.09" height="10.37"/><rect class="cls-4" x="498.09" y="443.19" width="4.09" height="10.37"/><rect class="cls-4" x="515.62" y="345.14" width="4.09" height="10.37"/><rect class="cls-4" x="515.62" y="364.98" width="4.09" height="10.37"/><rect class="cls-4" x="515.62" y="384.81" width="4.09" height="10.37"/><rect class="cls-4" x="515.62" y="404.65" width="4.09" height="10.37"/><rect class="cls-4" x="515.62" y="423.35" width="4.09" height="10.37"/><rect class="cls-4" x="515.62" y="443.19" width="4.09" height="10.37"/><rect class="cls-4" x="533.15" y="345.14" width="4.09" height="10.37"/><rect class="cls-4" x="533.15" y="364.98" width="4.09" height="10.37"/><rect class="cls-4" x="533.15" y="384.81" width="4.09" height="10.37"/><rect class="cls-4" x="533.15" y="404.65" width="4.09" height="10.37"/><rect class="cls-4" x="533.15" y="423.35" width="4.09" height="10.37"/><rect class="cls-4" x="533.15" y="443.19" width="4.09" height="10.37"/><rect class="cls-3" x="414.69" y="200.52" width="3.4" height="9.08"/><rect class="cls-3" x="423.09" y="200.52" width="3.4" height="9.08"/><rect class="cls-3" x="431.48" y="200.52" width="3.4" height="9.08"/><rect class="cls-3" x="439.88" y="200.52" width="3.4" height="9.08"/><rect class="cls-3" x="414.69" y="215.63" width="3.4" height="9.08"/><rect class="cls-3" x="423.09" y="215.63" width="3.4" height="9.08"/><rect class="cls-3" x="431.48" y="215.63" width="3.4" height="9.08"/><rect class="cls-3" x="439.88" y="215.63" width="3.4" height="9.08"/><rect class="cls-3" x="414.69" y="230.75" width="3.4" height="9.08"/><rect class="cls-3" x="423.09" y="230.75" width="3.4" height="9.08"/><rect class="cls-3" x="449.4" y="200.52" width="3.4" height="9.08"/><rect class="cls-5" x="188.13" y="292.47" width="2.16" height="8.32"/><rect class="cls-5" x="195.76" y="292.47" width="2.16" height="8.32"/><rect class="cls-5" x="204.69" y="292.47" width="2.16" height="8.32"/><rect class="cls-5" x="212.33" y="292.47" width="2.16" height="8.32"/><rect class="cls-5" x="171.17" y="292.47" width="2.16" height="8.32"/><rect class="cls-5" x="178.8" y="292.47" width="2.16" height="8.32"/><rect class="cls-5" x="188.13" y="306.91" width="2.16" height="8.32"/><rect class="cls-5" x="195.76" y="306.91" width="2.16" height="8.32"/><rect class="cls-5" x="204.69" y="306.91" width="2.16" height="8.32"/><rect class="cls-5" x="212.33" y="306.91" width="2.16" height="8.32"/><rect class="cls-5" x="171.17" y="306.91" width="2.16" height="8.32"/><rect class="cls-5" x="178.8" y="306.91" width="2.16" height="8.32"/><rect class="cls-5" x="188.13" y="321.36" width="2.16" height="8.32"/><rect class="cls-5" x="195.76" y="321.36" width="2.16" height="8.32"/><rect class="cls-5" x="204.69" y="321.36" width="2.16" height="8.32"/><rect class="cls-5" x="212.33" y="321.36" width="2.16" height="8.32"/><rect class="cls-5" x="171.17" y="321.36" width="2.16" height="8.32"/><rect class="cls-5" x="178.8" y="321.36" width="2.16" height="8.32"/><rect class="cls-3" x="591.88" y="356.23" width="3.35" height="12.9"/><rect class="cls-3" x="602.14" y="356.23" width="3.35" height="12.9"/><rect class="cls-3" x="611.8" y="356.23" width="3.35" height="12.9"/><rect class="cls-4" x="822.87" y="358.91" width="2.54" height="7.26"/><rect class="cls-4" x="830.84" y="358.91" width="2.54" height="7.26"/><rect class="cls-4" x="822.87" y="358.91" width="2.54" height="7.26"/><rect class="cls-4" x="830.84" y="358.91" width="2.54" height="7.26"/><rect class="cls-4" x="838.38" y="358.91" width="2.54" height="7.26"/><rect class="cls-4" x="846.36" y="358.91" width="2.54" height="7.26"/><rect class="cls-4" x="822.87" y="371.92" width="2.54" height="7.26"/><rect class="cls-4" x="830.84" y="371.92" width="2.54" height="7.26"/><rect class="cls-4" x="822.87" y="371.92" width="2.54" height="7.26"/><rect class="cls-4" x="830.84" y="371.92" width="2.54" height="7.26"/><rect class="cls-4" x="838.38" y="371.92" width="2.54" height="7.26"/><rect class="cls-4" x="846.36" y="371.92" width="2.54" height="7.26"/><rect class="cls-4" x="822.87" y="385.77" width="2.54" height="7.26"/><rect class="cls-4" x="830.84" y="385.77" width="2.54" height="7.26"/><rect class="cls-4" x="822.87" y="385.77" width="2.54" height="7.26"/><rect class="cls-4" x="830.84" y="385.77" width="2.54" height="7.26"/><rect class="cls-4" x="838.38" y="385.77" width="2.54" height="7.26"/><rect class="cls-4" x="846.36" y="385.77" width="2.54" height="7.26"/><rect class="cls-4" x="855.07" y="358.91" width="2.54" height="7.26"/><rect class="cls-4" x="855.07" y="371.92" width="2.54" height="7.26"/><rect class="cls-4" x="863.05" y="358.91" width="2.54" height="7.26"/><rect class="cls-4" x="624.14" y="337.38" width="2.73" height="11.31"/><rect class="cls-4" x="637.75" y="337.38" width="2.73" height="11.31"/><rect class="cls-4" x="651.35" y="337.38" width="2.73" height="11.31"/><rect class="cls-4" x="664.95" y="337.38" width="2.73" height="11.31"/><rect class="cls-4" x="624.14" y="360.66" width="2.73" height="11.31"/><rect class="cls-4" x="637.75" y="360.66" width="2.73" height="11.31"/><rect class="cls-4" x="651.35" y="360.66" width="2.73" height="11.31"/><rect class="cls-4" x="664.95" y="360.66" width="2.73" height="11.31"/><rect class="cls-4" x="624.14" y="384.52" width="2.73" height="11.31"/><rect class="cls-4" x="637.75" y="384.52" width="2.73" height="11.31"/><rect class="cls-4" x="651.35" y="384.52" width="2.73" height="11.31"/><rect class="cls-4" x="664.95" y="384.52" width="2.73" height="11.31"/><rect class="cls-4" x="624.14" y="408.38" width="2.73" height="11.31"/><rect class="cls-4" x="637.75" y="408.38" width="2.73" height="11.31"/><rect class="cls-4" x="651.35" y="408.38" width="2.73" height="11.31"/><rect class="cls-4" x="664.95" y="408.38" width="2.73" height="11.31"/><rect class="cls-4" x="624.14" y="430.06" width="2.73" height="11.31"/><rect class="cls-4" x="637.75" y="430.06" width="2.73" height="11.31"/><rect class="cls-4" x="651.35" y="430.06" width="2.73" height="11.31"/><rect class="cls-4" x="624.14" y="454.24" width="2.73" height="11.31"/><rect class="cls-4" x="637.75" y="454.24" width="2.73" height="11.31"/><rect class="cls-4" x="651.35" y="454.24" width="2.73" height="11.31"/><rect class="cls-4" x="664.95" y="430.06" width="2.73" height="11.31"/><rect class="cls-4" x="933.33" y="397.18" width="2.79" height="6.49"/><rect class="cls-4" x="933.33" y="407.67" width="2.79" height="6.49"/><rect class="cls-4" x="940.5" y="397.18" width="2.79" height="6.49"/><rect class="cls-6" x="279.72" y="142.73" width="45.19" height="179.86"/><rect class="cls-6" x="287.1" y="129.84" width="30.42" height="75.58"/><rect class="cls-6" x="293.87" y="121.66" width="16.87" height="41.92"/><polygon class="cls-6" points="308.06 143.2 296.56 143.2 296.56 114.63 300.71 114.63 304.82 114.63 308.06 114.63 308.06 143.2"/><polygon class="cls-6" points="301.55 130.76 300.31 130.76 300.31 102.19 300.76 102.19 301.2 102.19 301.55 102.19 301.55 130.76"/><polygon class="cls-6" points="304.32 120.88 303.07 120.88 303.07 92.31 303.52 92.31 303.96 92.31 304.32 92.31 304.32 120.88"/><rect class="cls-6" x="278.51" y="142.27" width="47.6" height="1.91"/><rect class="cls-6" x="285.99" y="128.91" width="32.64" height="1.84"/><rect class="cls-6" x="292.65" y="120.88" width="18.81" height="1.41"/><rect class="cls-7" x="289.9" y="132.9" width="1.41" height="7.92"/><rect class="cls-7" x="293.81" y="132.9" width="1.41" height="7.92"/><rect class="cls-7" x="297.72" y="132.9" width="1.41" height="7.92"/><rect class="cls-7" x="301.64" y="132.9" width="1.41" height="7.92"/><rect class="cls-7" x="305.55" y="132.9" width="1.41" height="7.92"/><rect class="cls-7" x="309.46" y="132.9" width="1.41" height="7.92"/><rect class="cls-7" x="313.38" y="132.9" width="1.41" height="7.92"/><rect class="cls-6" x="283.68" y="149.9" width="3.42" height="9.4"/><rect class="cls-7" x="290.45" y="149.9" width="3.42" height="9.4"/><rect class="cls-6" x="297.22" y="149.9" width="3.42" height="9.4"/><rect class="cls-6" x="303.99" y="149.9" width="3.42" height="9.4"/><rect class="cls-6" x="310.75" y="149.9" width="3.42" height="9.4"/><rect class="cls-6" x="317.52" y="149.9" width="3.42" height="9.4"/><rect class="cls-6" x="283.68" y="164.55" width="3.42" height="9.4"/><rect class="cls-6" x="290.45" y="164.55" width="3.42" height="9.4"/><rect class="cls-6" x="297.22" y="164.55" width="3.42" height="9.4"/><rect class="cls-7" x="303.99" y="164.55" width="3.42" height="9.4"/><rect class="cls-6" x="310.75" y="164.55" width="3.42" height="9.4"/><rect class="cls-6" x="317.52" y="164.55" width="3.42" height="9.4"/><rect class="cls-6" x="283.68" y="179.19" width="3.42" height="9.4"/><rect class="cls-6" x="290.45" y="179.19" width="3.42" height="9.4"/><rect class="cls-6" x="297.22" y="179.19" width="3.42" height="9.4"/><rect class="cls-6" x="303.99" y="179.19" width="3.42" height="9.4"/><rect class="cls-7" x="310.75" y="179.19" width="3.42" height="9.4"/><rect class="cls-7" x="317.52" y="179.19" width="3.42" height="9.4"/><rect class="cls-7" x="283.68" y="193.84" width="3.42" height="9.4"/><rect class="cls-6" x="290.45" y="193.84" width="3.42" height="9.4"/><rect class="cls-6" x="297.22" y="193.84" width="3.42" height="9.4"/><rect class="cls-6" x="303.99" y="193.84" width="3.42" height="9.4"/><rect class="cls-6" x="310.75" y="193.84" width="3.42" height="9.4"/><rect class="cls-6" x="317.52" y="193.84" width="3.42" height="9.4"/><rect class="cls-6" x="283.68" y="208.49" width="3.42" height="9.4"/><rect class="cls-7" x="290.45" y="208.49" width="3.42" height="9.4"/><rect class="cls-6" x="297.22" y="208.49" width="3.42" height="9.4"/><rect class="cls-7" x="303.99" y="208.49" width="3.42" height="9.4"/><rect class="cls-6" x="310.75" y="208.49" width="3.42" height="9.4"/><rect class="cls-6" x="317.52" y="208.49" width="3.42" height="9.4"/><rect class="cls-6" x="283.68" y="223.13" width="3.42" height="9.4"/><rect class="cls-6" x="290.45" y="223.13" width="3.42" height="9.4"/><rect class="cls-6" x="297.22" y="223.13" width="3.42" height="9.4"/><rect class="cls-6" x="303.99" y="223.13" width="3.42" height="9.4"/><rect class="cls-6" x="310.75" y="223.13" width="3.42" height="9.4"/><rect class="cls-7" x="317.52" y="223.13" width="3.42" height="9.4"/><rect class="cls-6" x="283.68" y="237.78" width="3.42" height="9.4"/><rect class="cls-7" x="290.45" y="237.78" width="3.42" height="9.4"/><rect class="cls-7" x="297.22" y="237.78" width="3.42" height="9.4"/><rect class="cls-6" x="303.99" y="237.78" width="3.42" height="9.4"/><rect class="cls-6" x="310.75" y="237.78" width="3.42" height="9.4"/><rect class="cls-6" x="317.52" y="237.78" width="3.42" height="9.4"/><rect class="cls-6" x="283.68" y="252.42" width="3.42" height="9.4"/><rect class="cls-6" x="290.45" y="252.42" width="3.42" height="9.4"/><rect class="cls-6" x="297.22" y="252.42" width="3.42" height="9.4"/><rect class="cls-6" x="303.99" y="252.42" width="3.42" height="9.4"/><rect class="cls-7" x="310.75" y="252.42" width="3.42" height="9.4"/><rect class="cls-6" x="317.52" y="252.42" width="3.42" height="9.4"/><rect class="cls-6" x="283.68" y="267.07" width="3.42" height="9.4"/><rect class="cls-7" x="290.45" y="267.07" width="3.42" height="9.4"/><rect class="cls-6" x="297.22" y="267.07" width="3.42" height="9.4"/><rect class="cls-6" x="303.99" y="267.07" width="3.42" height="9.4"/><rect class="cls-6" x="310.75" y="267.07" width="3.42" height="9.4"/><rect class="cls-6" x="317.52" y="267.07" width="3.42" height="9.4"/><rect class="cls-6" x="283.68" y="281.72" width="3.42" height="9.4"/><rect class="cls-6" x="290.45" y="281.72" width="3.42" height="9.4"/><rect class="cls-6" x="297.22" y="281.72" width="3.42" height="9.4"/><rect class="cls-7" x="303.99" y="281.72" width="3.42" height="9.4"/><rect class="cls-6" x="310.75" y="281.72" width="3.42" height="9.4"/><rect class="cls-7" x="317.52" y="281.72" width="3.42" height="9.4"/><rect class="cls-7" x="283.68" y="296.36" width="3.42" height="9.4"/><rect class="cls-6" x="290.45" y="296.36" width="3.42" height="9.4"/><rect class="cls-7" x="297.22" y="296.36" width="3.42" height="9.4"/><rect class="cls-6" x="303.99" y="296.36" width="3.42" height="9.4"/><rect class="cls-6" x="310.75" y="296.36" width="3.42" height="9.4"/><rect class="cls-6" x="317.52" y="296.36" width="3.42" height="9.4"/><rect class="cls-6" x="148.49" y="149.57" width="72.64" height="151.52"/><rect class="cls-6" x="146.42" y="146.97" width="76.77" height="4.28"/><rect class="cls-6" x="150.93" y="141.48" width="67.75" height="20.36"/><rect class="cls-6" x="156.11" y="133.16" width="26.83" height="22.24"/><polygon class="cls-6" points="171.64 139.42 156.12 139.42 156.12 127.72 167.25 127.72 171.64 139.42"/><rect class="cls-6" x="162.37" y="118" width="1.51" height="26.08"/><path class="cls-6" d="M164.48,116.65a1.36,1.36,0,1,1-1.35-1.36A1.36,1.36,0,0,1,164.48,116.65Z"/><polygon class="cls-6" points="822.63 312.62 743.12 312.62 733.2 89.85 822.63 108.42 822.63 312.62"/><polygon class="cls-6" points="475.74 185.4 475.74 110.92 463.27 110.92 463.27 90.97 458.81 90.97 458.81 61.71 434.27 61.71 434.27 40.21 432.09 40.21 432.09 61.71 427.28 61.71 427.28 34.8 425.09 34.8 425.09 61.71 409.58 61.71 409.58 110.92 401.56 110.92 401.56 185.4 394.69 185.4 394.69 321.05 480.57 321.05 480.57 185.4 475.74 185.4"/><rect class="cls-6" x="46.97" y="309.86" width="950.01" height="22.6"/><polygon class="cls-6" points="606.18 326.92 564.11 326.92 580.5 242.68 606.18 242.68 606.18 326.92"/><rect class="cls-8" x="12.89" y="330.2" width="997.47" height="35.63"/><polygon class="cls-8" points="571.7 171.03 571.7 133.7 558.2 133.7 558.2 119.49 550.97 119.49 550.97 107.55 548.43 107.55 548.43 87.09 547.78 87.09 547.78 107.55 545.24 107.55 545.24 119.49 538.01 119.49 538.01 133.7 524.61 133.7 524.61 171.03 521.82 171.03 521.82 238.81 501.04 238.81 501.04 316.06 521.82 316.06 542.61 316.06 574.38 316.06 574.38 171.03 571.7 171.03"/><polygon class="cls-8" points="649.33 213.91 583.95 213.91 583.95 215.1 586.91 215.1 586.91 325.65 646.37 325.65 646.37 215.1 649.33 215.1 649.33 213.91"/><rect class="cls-8" x="293.23" y="241.45" width="57.97" height="92.09"/><rect class="cls-8" x="184.81" y="288.63" width="99.69" height="44.91"/><rect class="cls-8" x="238.24" y="188.3" width="21.89" height="110.28"/><rect class="cls-8" x="243.07" y="158.88" width="1.14" height="59.97"/><rect class="cls-8" x="246.77" y="163.43" width="1.14" height="59.97"/><rect class="cls-8" x="239.93" y="181.48" width="13.38" height="14.78"/><rect class="cls-8" x="280.59" y="257.94" width="38.09" height="75.61"/><rect class="cls-8" x="360.59" y="177.93" width="71.5" height="155.62"/><rect class="cls-8" x="367.62" y="172.58" width="57.45" height="25.92"/><rect class="cls-8" x="355.05" y="181.18" width="82.58" height="1.82"/><rect class="cls-8" x="347.64" y="254.95" width="33.69" height="78.59"/><rect class="cls-8" x="106.36" y="251.97" width="38.66" height="81.58"/><rect class="cls-8" x="118.86" y="229.8" width="77.03" height="103.75"/><rect class="cls-8" x="114.37" y="225.82" width="83.51" height="3.98"/><rect class="cls-8" x="122.27" y="215.02" width="33.85" height="21.03"/><rect class="cls-8" x="167.18" y="215.02" width="5.68" height="12.79"/><rect class="cls-8" x="178.55" y="215.02" width="6.25" height="12.79"/><rect class="cls-8" x="85.32" y="301.99" width="40.36" height="31.55"/><rect class="cls-8" x="70.08" y="288.63" width="19.11" height="44.91"/><rect class="cls-8" x="46.97" y="317.77" width="32.66" height="15.77"/><rect class="cls-8" x="425.07" y="298.58" width="402.49" height="34.96"/><path class="cls-8" d="M795.41,201.8a4.83,4.83,0,0,0-4.81,4.43l-5.67-.18c0-.55,0-1.11,0-1.67A59.71,59.71,0,0,0,781.41,184l4.73-1.74a4.83,4.83,0,1,0-.4-1.92,5.13,5.13,0,0,0,.21,1.42l-4.73,1.74A59.32,59.32,0,0,0,769,163.83l3.7-3.47a4.73,4.73,0,1,0-.37-.39l-3.7,3.47c-.38-.41-.77-.81-1.16-1.2a59.64,59.64,0,0,0-19.24-12.92l2-5a4.83,4.83,0,1,0-.5-.19l-2,5a59.48,59.48,0,0,0-20.2-4.3l.22-6.78h.15a4.84,4.84,0,1,0-.68-.05l-.23,6.81c-.55,0-1.11,0-1.66,0a59.46,59.46,0,0,0-19.57,3.28l-1.95-5.54a4.79,4.79,0,1,0-.51.18l1.95,5.53a59.35,59.35,0,0,0-20.48,12.48l-3.53-3.77a5,5,0,1,0-.39.37l3.53,3.77-1.2,1.16a59.68,59.68,0,0,0-11.88,16.91l-4.49-2.08a4.85,4.85,0,1,0-.2.5l4.46,2.06a59.33,59.33,0,0,0-5.3,22.55L660,202a4.79,4.79,0,1,0,0,.54l5.76.19c0,.55,0,1.11,0,1.66a59.43,59.43,0,0,0,3.55,20.35l-4.74,1.75a4.83,4.83,0,1,0,.4,1.92,4.74,4.74,0,0,0-.21-1.42l4.73-1.74a59.48,59.48,0,0,0,12.19,19.7l-3.7,3.47a4.77,4.77,0,1,0,.37.39l3.7-3.47,1.16,1.2a60,60,0,0,0,12.48,9.57l-29.16,53.76h-5.24v1.53h-2.56v3.06H792v-3.06h-2.56v-1.53h-5.23L755,256.1a59.11,59.11,0,0,0,10.89-8l4.73,5a4.83,4.83,0,1,0,3.18-1.19,4.76,4.76,0,0,0-2.76.86l-4.76-5.08c.41-.38.8-.77,1.2-1.16a59.62,59.62,0,0,0,11.88-16.91l5.27,2.43a4.6,4.6,0,0,0-.15,1.18,4.83,4.83,0,1,0,.31-1.7l-5.2-2.4a59.48,59.48,0,0,0,5.31-22.54l5.66.18a4.84,4.84,0,1,0,4.83-5Zm-12.07,2.58c0,.54,0,1.08,0,1.62l-16.69-.54c0-.36,0-.72,0-1.08a41.18,41.18,0,0,0-2.45-14l15.69-5.78A58,58,0,0,1,783.34,204.38Zm-17.51,1.05-37.23-1.21a3.2,3.2,0,0,0-.11-.7l35-12.87a40.32,40.32,0,0,1,2.4,13.73C765.84,204.73,765.84,205.08,765.83,205.43Zm-81-2.09,37.23,1.21a3.29,3.29,0,0,0,.11.7l-35,12.87a40.37,40.37,0,0,1-2.4-13.74C684.87,204,684.88,203.68,684.88,203.34Zm43-1,27.17-25.45a40.58,40.58,0,0,1,8.18,13.23L728.3,203A2.92,2.92,0,0,0,727.9,202.36Zm-.36-.39a3.34,3.34,0,0,0-.7-.48L741,167a40.62,40.62,0,0,1,13.72,9.48Zm-1.2-.69a4.13,4.13,0,0,0-.61-.13l1.21-37.22a40.5,40.5,0,0,1,13.55,2.9Zm-1.15-.15a3.64,3.64,0,0,0-.66.11l-12.38-35.13a40.37,40.37,0,0,1,13.21-2.21h1Zm-1.16.29a3.4,3.4,0,0,0-.69.41l-25.45-27.16a40.55,40.55,0,0,1,13.75-8.38Zm-1.09.78a2.9,2.9,0,0,0-.41.58l-33.81-15.61A40.6,40.6,0,0,1,697.49,175Zm-.64,1.07a3,3,0,0,0-.17.74L684.9,202.8a40.19,40.19,0,0,1,3.59-15.14Zm.11,2.48a2.54,2.54,0,0,0,.31.53l-.22.41-26.85,25.16a40.33,40.33,0,0,1-8.19-13.23Zm-.72,2.44-16.86,31.07a40.76,40.76,0,0,1-8.82-7Zm1.83-1.12.36.21-14.15,34.45a40.4,40.4,0,0,1-4-1.93Zm.85.41a2.55,2.55,0,0,0,.61.13l-1.21,37.22a39.91,39.91,0,0,1-13.54-2.9Zm1,37.39-1.05,0,1.21-37.22a3.5,3.5,0,0,0,.66-.1l12.38,35.12A40.1,40.1,0,0,1,725.36,244.87Zm1.33-37.52a4.91,4.91,0,0,0,.5-.28L745,239.8a40.59,40.59,0,0,1-5.88,2.68Zm3,2,23.16,24.71a40.77,40.77,0,0,1-6.94,5.17Zm-1-1.86-.67-1.24a2.23,2.23,0,0,0,.2-.3L762,221.59a40.72,40.72,0,0,1-8.78,12.14Zm-.25-2a3.2,3.2,0,0,0,.18-.74L765.81,206a40.19,40.19,0,0,1-3.59,15.14Zm-19,37L703.07,258a56.88,56.88,0,0,1-5.67-2.74l8-14.7A40.7,40.7,0,0,0,709.42,242.47Zm.5.21a41.08,41.08,0,0,0,13.83,3l-.55,16.69a57.68,57.68,0,0,1-19.63-4.18Zm14.36,3h1.08a41.2,41.2,0,0,0,13.47-2.25l5.56,15.77a58.1,58.1,0,0,1-19,3.18l-1.62,0Zm15.06-2.42a42.75,42.75,0,0,0,6-2.73l8,14.7a56.92,56.92,0,0,1-8.43,3.8Zm40.37-59.15L764,189.86a41.37,41.37,0,0,0-8.36-13.5l12.2-11.43A57.55,57.55,0,0,1,779.71,184.09Zm-13.35-20.71c.38.38.76.77,1.13,1.16L755.29,176a41.52,41.52,0,0,0-14-9.68l6.35-15.47A57.75,57.75,0,0,1,766.36,163.38Zm-19.21-12.77-6.36,15.48a40.78,40.78,0,0,0-13.82-3l.54-16.7A58,58,0,0,1,747.15,150.61Zm-21.79-4.21c.54,0,1.07,0,1.61,0l-.54,16.69-1.07,0a41.22,41.22,0,0,0-13.48,2.26l-5.56-15.77A57.9,57.9,0,0,1,725.36,146.4Zm-19.54,3.35,5.56,15.78a41.37,41.37,0,0,0-14,8.56l-11.43-12.2A57.63,57.63,0,0,1,705.82,149.75Zm-21.47,13.63,1.16-1.13,11.43,12.2a41.73,41.73,0,0,0-9,12.38l-15.19-7A58.19,58.19,0,0,1,684.35,163.38Zm-11.78,16.93,15.19,7a41,41,0,0,0-3.66,15.45l-16.69-.54A57.63,57.63,0,0,1,672.57,180.31Zm-5.2,24.07c0-.54,0-1.08,0-1.61l16.69.54c0,.36,0,.71,0,1.07a41.24,41.24,0,0,0,2.45,14l-15.69,5.78A58,58,0,0,1,667.37,204.38Zm3.64,20.3,15.69-5.78a41.26,41.26,0,0,0,8.36,13.5l-12.2,11.44A57.62,57.62,0,0,1,671,224.68Zm13.34,20.71-1.12-1.16,12.19-11.43a41.45,41.45,0,0,0,9,7.17l-8,14.71A58.61,58.61,0,0,1,684.35,245.39ZM783,309.86H667.75l28.88-53.23a56.81,56.81,0,0,0,5.83,2.81l-2,5a4.76,4.76,0,0,0-1.47-.23,4.84,4.84,0,1,0,2,.42l2-4.95a59.24,59.24,0,0,0,20.2,4.3L723,269a4.86,4.86,0,1,0,.53,0l.17-5.07,1.67,0a59.7,59.7,0,0,0,19.56-3.27l1.74,4.93a4.83,4.83,0,1,0,2.05-.46,5,5,0,0,0-1.55.26l-1.73-4.91a59,59,0,0,0,8.66-3.9Zm-28.71-55.18-8-14.71a41.41,41.41,0,0,0,7.11-5.29l11.43,12.2A58.06,58.06,0,0,1,754.25,254.68Zm12.11-9.29c-.38.38-.77.75-1.16,1.12l-11.43-12.2a41.43,41.43,0,0,0,9-12.38l15.19,7A58.24,58.24,0,0,1,766.36,245.39Zm11.78-16.93-15.19-7A40.78,40.78,0,0,0,766.61,206l16.69.55A57.53,57.53,0,0,1,778.14,228.46Z"/><rect class="cls-8" x="807.09" y="242.48" width="62.15" height="91.07"/><rect class="cls-8" x="860.15" y="277.88" width="62.15" height="55.15"/><rect class="cls-8" x="619.12" y="269.78" width="34.87" height="46.28"/><rect class="cls-8" x="838.16" y="155.87" width="43.96" height="177.67"/><polygon class="cls-8" points="954.51 333.54 896.53 333.54 896.53 229.8 940.49 229.8 954.51 333.54"/><rect class="cls-8" x="929.12" y="309.86" width="50.78" height="23.68"/><rect class="cls-8" x="870.76" y="118.76" width="1.52" height="48.28"/><rect class="cls-8" x="875.87" y="129.12" width="1.52" height="48.28"/><rect class="cls-8" x="866.11" y="135.78" width="1.52" height="48.28"/><rect class="cls-8" x="898.8" y="221.41" width="20.75" height="16.34"/><rect class="cls-8" x="901.08" y="215.58" width="16.2" height="9.19"/><rect class="cls-8" x="927.79" y="226.2" width="3.98" height="6.6"/><rect class="cls-8" x="933.18" y="220.18" width="5.68" height="12.62"/><rect class="cls-9" x="618.94" y="195.95" width="52.7" height="169.88"/><rect class="cls-9" x="615" y="196.96" width="60.58" height="1.72"/><rect class="cls-9" x="616.64" y="220.82" width="57.3" height="1.72"/><rect class="cls-9" x="616.64" y="243.93" width="57.3" height="1.72"/><rect class="cls-9" x="616.64" y="267.04" width="57.3" height="1.72"/><rect class="cls-9" x="616.64" y="290.15" width="57.3" height="1.72"/><rect class="cls-9" x="616.64" y="313.26" width="57.3" height="1.72"/><rect class="cls-9" x="616.64" y="336.36" width="57.3" height="1.72"/><rect class="cls-9" x="613" y="192.26" width="64.58" height="4.69"/><rect class="cls-10" x="623.68" y="204.26" width="5.48" height="13.57"/><rect class="cls-9" x="635.93" y="204.26" width="5.48" height="13.57"/><rect class="cls-9" x="648.18" y="204.26" width="5.48" height="13.57"/><rect class="cls-9" x="660.43" y="204.26" width="5.48" height="13.57"/><rect class="cls-9" x="623.68" y="226.45" width="5.48" height="13.57"/><rect class="cls-10" x="635.93" y="226.45" width="5.48" height="13.57"/><rect class="cls-9" x="648.18" y="226.45" width="5.48" height="13.57"/><rect class="cls-9" x="660.43" y="226.45" width="5.48" height="13.57"/><rect class="cls-9" x="623.68" y="249.56" width="5.48" height="13.57"/><rect class="cls-9" x="635.93" y="249.56" width="5.48" height="13.57"/><rect class="cls-9" x="648.18" y="249.56" width="5.48" height="13.57"/><rect class="cls-10" x="660.43" y="249.56" width="5.48" height="13.57"/><rect class="cls-9" x="623.68" y="272.66" width="5.48" height="13.57"/><rect class="cls-10" x="635.93" y="272.66" width="5.48" height="13.57"/><rect class="cls-10" x="648.18" y="272.66" width="5.48" height="13.57"/><rect class="cls-9" x="660.43" y="272.66" width="5.48" height="13.57"/><rect class="cls-10" x="623.68" y="295.77" width="5.48" height="13.57"/><rect class="cls-9" x="635.93" y="295.77" width="5.48" height="13.57"/><rect class="cls-9" x="648.18" y="295.77" width="5.48" height="13.57"/><rect class="cls-9" x="660.43" y="295.77" width="5.48" height="13.57"/><rect class="cls-9" x="623.68" y="318.88" width="5.48" height="13.57"/><rect class="cls-9" x="635.93" y="318.88" width="5.48" height="13.57"/><rect class="cls-10" x="648.18" y="318.88" width="5.48" height="13.57"/><rect class="cls-9" x="660.43" y="318.88" width="5.48" height="13.57"/><rect class="cls-9" x="623.68" y="341.99" width="5.48" height="13.57"/><rect class="cls-10" x="635.93" y="341.99" width="5.48" height="13.57"/><rect class="cls-9" x="648.18" y="341.99" width="5.48" height="13.57"/><rect class="cls-10" x="660.43" y="341.99" width="5.48" height="13.57"/><rect class="cls-9" x="622.27" y="185.79" width="17.92" height="8.82"/><rect class="cls-9" x="621.05" y="185.54" width="20.36" height="1.51"/><polygon class="cls-9" points="543.4 365.83 473.2 365.83 473.2 204.42 543.4 187.25 543.4 365.83"/><rect class="cls-9" x="470.11" y="201.58" width="6.17" height="164.25"/><rect class="cls-9" x="487.67" y="196.95" width="6.17" height="168.87"/><rect class="cls-9" x="505.22" y="192.14" width="6.17" height="173.68"/><rect class="cls-9" x="522.77" y="188.23" width="6.17" height="177.6"/><rect class="cls-9" x="540.32" y="184.06" width="6.17" height="181.76"/><rect class="cls-10" x="477.88" y="215.36" width="8.19" height="12.47"/><rect class="cls-10" x="495.43" y="215.36" width="8.19" height="12.47"/><rect class="cls-9" x="512.98" y="215.36" width="8.19" height="12.47"/><rect class="cls-10" x="530.53" y="215.36" width="8.19" height="12.47"/><rect class="cls-9" x="477.88" y="237.08" width="8.19" height="12.47"/><rect class="cls-9" x="495.43" y="237.08" width="8.19" height="12.47"/><rect class="cls-10" x="512.98" y="237.08" width="8.19" height="12.47"/><rect class="cls-10" x="530.53" y="237.08" width="8.19" height="12.47"/><rect class="cls-10" x="477.88" y="258.8" width="8.19" height="12.47"/><rect class="cls-10" x="495.43" y="258.8" width="8.19" height="12.47"/><rect class="cls-10" x="512.98" y="258.8" width="8.19" height="12.47"/><rect class="cls-9" x="530.53" y="258.8" width="8.19" height="12.47"/><rect class="cls-10" x="477.88" y="280.52" width="8.19" height="12.47"/><rect class="cls-9" x="495.43" y="280.52" width="8.19" height="12.47"/><rect class="cls-10" x="512.98" y="280.52" width="8.19" height="12.47"/><rect class="cls-10" x="530.53" y="280.52" width="8.19" height="12.47"/><rect class="cls-10" x="477.88" y="302.24" width="8.19" height="12.47"/><rect class="cls-10" x="495.43" y="302.24" width="8.19" height="12.47"/><rect class="cls-9" x="512.98" y="302.24" width="8.19" height="12.47"/><rect class="cls-10" x="530.53" y="302.24" width="8.19" height="12.47"/><rect class="cls-9" x="477.88" y="323.96" width="8.19" height="12.47"/><rect class="cls-9" x="495.43" y="323.96" width="8.19" height="12.47"/><rect class="cls-10" x="512.98" y="323.96" width="8.19" height="12.47"/><rect class="cls-10" x="530.53" y="323.96" width="8.19" height="12.47"/><rect class="cls-10" x="477.88" y="345.68" width="8.19" height="12.47"/><rect class="cls-9" x="495.43" y="345.68" width="8.19" height="12.47"/><rect class="cls-10" x="512.98" y="345.68" width="8.19" height="12.47"/><rect class="cls-9" x="530.53" y="345.68" width="8.19" height="12.47"/><polygon class="cls-9" points="272.93 212.15 272.93 213.83 271.26 213.83 271.26 218.6 300.64 218.6 300.64 365.83 252.43 365.83 252.43 226.29 252.43 218.6 252.43 213.83 250.68 213.83 250.68 212.15 272.93 212.15"/><rect class="cls-9" x="355.05" y="279.03" width="41.29" height="86.8"/><rect class="cls-9" x="175.09" y="259.13" width="33.56" height="106.7"/><rect class="cls-9" x="202" y="281.36" width="36.58" height="84.47"/><rect class="cls-9" x="187.16" y="254.84" width="14.84" height="12.77"/><rect class="cls-9" x="204.52" y="279.97" width="38.99" height="3.12"/><rect class="cls-9" x="234.65" y="317.59" width="41.01" height="48.24"/><rect class="cls-9" x="102.12" y="278.35" width="33.36" height="87.48"/><rect class="cls-9" x="73.17" y="321.94" width="43.88" height="43.88"/><rect class="cls-9" x="24.85" y="314.77" width="27.45" height="51.06"/><rect class="cls-9" x="46.97" y="349.83" width="64.88" height="15.99"/><rect class="cls-9" y="344.67" width="33.25" height="21.16"/><rect class="cls-9" x="135.48" y="333.54" width="51.69" height="32.28"/><rect class="cls-9" x="287.1" y="351.92" width="80.52" height="13.91"/><rect class="cls-9" x="429.86" y="351.92" width="80.52" height="13.91"/><polygon class="cls-9" points="364.48 311.09 333.88 311.09 320.94 358.87 364.48 358.87 364.48 311.09"/><rect class="cls-9" x="378.63" y="241.56" width="0.85" height="53.01"/><rect class="cls-9" x="382.89" y="259.5" width="1.14" height="31.28"/><rect class="cls-9" x="376.8" y="265.04" width="15.48" height="15.48"/><rect class="cls-9" x="374.19" y="263.84" width="20.51" height="1.39"/><rect class="cls-9" x="388.83" y="321.05" width="50.03" height="44.77"/><rect class="cls-9" x="429.29" y="271.77" width="32.14" height="86.39"/><rect class="cls-9" x="554.82" y="288.01" width="51.35" height="77.82"/><rect class="cls-9" x="538.72" y="337.15" width="58.55" height="28.67"/><rect class="cls-9" x="603.33" y="355.56" width="38.07" height="10.26"/><rect class="cls-9" x="661.98" y="337.15" width="61.9" height="28.67"/><rect class="cls-9" x="686.64" y="262.08" width="77.03" height="103.75" transform="translate(1450.3 627.91) rotate(180)"/><rect class="cls-9" x="684.65" y="258.1" width="83.51" height="3.98" transform="translate(1452.81 520.18) rotate(180)"/><rect class="cls-9" x="726.4" y="247.3" width="33.85" height="21.03" transform="translate(1486.66 515.63) rotate(180)"/><rect class="cls-9" x="709.66" y="247.3" width="5.68" height="12.79" transform="translate(1425 507.39) rotate(180)"/><rect class="cls-9" x="697.72" y="247.3" width="6.25" height="12.79" transform="translate(1401.7 507.39) rotate(180)"/><rect class="cls-9" x="816.62" y="214.31" width="60.97" height="151.52" transform="translate(1694.2 580.14) rotate(180)"/><rect class="cls-9" x="814.88" y="211.71" width="64.44" height="4.28" transform="translate(1694.2 427.69) rotate(180)"/><rect class="cls-9" x="818.67" y="206.22" width="56.87" height="20.36" transform="translate(1694.2 432.8) rotate(180)"/><rect class="cls-9" x="848.66" y="197.89" width="22.52" height="22.24" transform="translate(1719.85 418.03) rotate(180)"/><polygon class="cls-9" points="858.15 204.16 871.18 204.16 871.18 192.46 861.84 192.46 858.15 204.16"/><rect class="cls-9" x="864.67" y="182.74" width="1.26" height="26.08" transform="translate(1730.6 391.55) rotate(180)"/><path class="cls-9" d="M864.17,181.39A1.15,1.15,0,1,0,865.3,180,1.25,1.25,0,0,0,864.17,181.39Z"/><rect class="cls-9" x="869.24" y="303.28" width="27.29" height="62.55"/><rect class="cls-9" x="791.52" y="272.78" width="31.12" height="93.04"/><polygon class="cls-9" points="807.09 365.83 763.25 365.83 763.25 316.06 800.25 332.45 807.09 365.83"/><rect class="cls-9" x="887.57" y="338.8" width="66.94" height="27.03"/><rect class="cls-9" x="929.78" y="257.94" width="38.89" height="107.89"/><rect class="cls-9" x="959.57" y="345.68" width="64.43" height="20.14"/><rect class="cls-9" x="927.79" y="255.96" width="42.66" height="3.54"/><rect class="cls-9" x="962.61" y="240.74" width="0.85" height="21.74"/><rect class="cls-9" x="956.92" y="243.49" width="0.85" height="17.44"/><polygon class="cls-9" points="983.07 298.58 965.73 298.58 965.73 348.01 990.46 348.01 983.07 298.58"/><g class="cls-1"><rect class="cls-2" x="178.55" y="264.53" width="2.54" height="2.54"/><rect class="cls-2" x="183.66" y="264.53" width="2.54" height="2.54"/><rect class="cls-2" x="178.55" y="270.5" width="2.54" height="2.54"/><rect class="cls-2" x="183.66" y="270.5" width="2.54" height="2.54"/><rect class="cls-2" x="178.55" y="276.27" width="2.54" height="2.54"/><rect class="cls-2" x="189.33" y="264.53" width="2.54" height="2.54"/></g><rect class="cls-3" x="364.48" y="188.23" width="1.73" height="9.59"/><rect class="cls-3" x="370.46" y="188.23" width="1.73" height="9.59"/><rect class="cls-3" x="376.43" y="188.23" width="1.73" height="9.59"/><rect class="cls-3" x="382.4" y="188.23" width="1.73" height="9.59"/><rect class="cls-3" x="388.37" y="188.23" width="1.73" height="9.59"/><rect class="cls-3" x="394.34" y="188.23" width="1.73" height="9.59"/><rect class="cls-3" x="400.31" y="188.23" width="1.73" height="9.59"/><rect class="cls-3" x="406.28" y="188.23" width="1.73" height="9.59"/><rect class="cls-3" x="412.26" y="188.23" width="1.73" height="9.59"/><rect class="cls-3" x="418.23" y="188.23" width="1.73" height="9.59"/><rect class="cls-3" x="424.2" y="188.23" width="1.73" height="9.59"/><rect class="cls-3" x="364.48" y="201.58" width="1.73" height="9.59"/><rect class="cls-3" x="370.46" y="201.58" width="1.73" height="9.59"/><rect class="cls-3" x="376.43" y="201.58" width="1.73" height="9.59"/><rect class="cls-3" x="382.4" y="201.58" width="1.73" height="9.59"/><rect class="cls-3" x="388.37" y="201.58" width="1.73" height="9.59"/><rect class="cls-3" x="394.34" y="201.58" width="1.73" height="9.59"/><rect class="cls-3" x="400.31" y="201.58" width="1.73" height="9.59"/><rect class="cls-3" x="406.28" y="201.58" width="1.73" height="9.59"/><rect class="cls-3" x="412.26" y="201.58" width="1.73" height="9.59"/><rect class="cls-3" x="418.23" y="201.58" width="1.73" height="9.59"/><rect class="cls-3" x="424.2" y="201.58" width="1.73" height="9.59"/><rect class="cls-3" x="364.48" y="214.93" width="1.73" height="9.59"/><rect class="cls-3" x="370.46" y="214.93" width="1.73" height="9.59"/><rect class="cls-3" x="376.43" y="214.93" width="1.73" height="9.59"/><rect class="cls-3" x="382.4" y="214.93" width="1.73" height="9.59"/><rect class="cls-3" x="388.37" y="214.93" width="1.73" height="9.59"/><rect class="cls-3" x="394.34" y="214.93" width="1.73" height="9.59"/><rect class="cls-3" x="400.31" y="214.93" width="1.73" height="9.59"/><rect class="cls-3" x="406.28" y="214.93" width="1.73" height="9.59"/><rect class="cls-3" x="412.26" y="214.93" width="1.73" height="9.59"/><rect class="cls-3" x="418.23" y="214.93" width="1.73" height="9.59"/><rect class="cls-3" x="424.2" y="214.93" width="1.73" height="9.59"/><rect class="cls-3" x="382.4" y="228.29" width="1.73" height="9.59"/><rect class="cls-3" x="388.37" y="228.29" width="1.73" height="9.59"/><rect class="cls-3" x="394.34" y="228.29" width="1.73" height="9.59"/><rect class="cls-3" x="400.31" y="228.29" width="1.73" height="9.59"/><rect class="cls-3" x="406.28" y="228.29" width="1.73" height="9.59"/><rect class="cls-3" x="412.26" y="228.29" width="1.73" height="9.59"/><rect class="cls-3" x="418.23" y="228.29" width="1.73" height="9.59"/><rect class="cls-3" x="424.2" y="228.29" width="1.73" height="9.59"/><rect class="cls-3" x="388.37" y="242.38" width="1.73" height="9.59"/><rect class="cls-3" x="394.34" y="242.38" width="1.73" height="9.59"/><rect class="cls-3" x="400.31" y="242.38" width="1.73" height="9.59"/><rect class="cls-3" x="406.28" y="242.38" width="1.73" height="9.59"/><rect class="cls-3" x="412.26" y="242.38" width="1.73" height="9.59"/><rect class="cls-3" x="418.23" y="242.38" width="1.73" height="9.59"/><rect class="cls-3" x="424.2" y="242.38" width="1.73" height="9.59"/><rect class="cls-4" x="479.93" y="212.03" width="4.09" height="10.38"/><rect class="cls-4" x="479.93" y="231.89" width="4.09" height="10.38"/><rect class="cls-4" x="479.93" y="251.75" width="4.09" height="10.38"/><rect class="cls-4" x="479.93" y="271.61" width="4.09" height="10.38"/><rect class="cls-4" x="479.93" y="290.33" width="4.09" height="10.38"/><rect class="cls-4" x="479.93" y="310.19" width="4.09" height="10.38"/><rect class="cls-4" x="497.48" y="212.03" width="4.09" height="10.38"/><rect class="cls-4" x="497.48" y="231.89" width="4.09" height="10.38"/><rect class="cls-4" x="497.48" y="251.75" width="4.09" height="10.38"/><rect class="cls-4" x="497.48" y="271.61" width="4.09" height="10.38"/><rect class="cls-4" x="497.48" y="290.33" width="4.09" height="10.38"/><rect class="cls-4" x="497.48" y="310.19" width="4.09" height="10.38"/><rect class="cls-4" x="515.03" y="212.03" width="4.09" height="10.38"/><rect class="cls-4" x="515.03" y="231.89" width="4.09" height="10.38"/><rect class="cls-4" x="515.03" y="251.75" width="4.09" height="10.38"/><rect class="cls-4" x="515.03" y="271.61" width="4.09" height="10.38"/><rect class="cls-4" x="515.03" y="290.33" width="4.09" height="10.38"/><rect class="cls-4" x="515.03" y="310.19" width="4.09" height="10.38"/><rect class="cls-4" x="532.58" y="212.03" width="4.09" height="10.38"/><rect class="cls-4" x="532.58" y="231.89" width="4.09" height="10.38"/><rect class="cls-4" x="532.58" y="251.75" width="4.09" height="10.38"/><rect class="cls-4" x="532.58" y="271.61" width="4.09" height="10.38"/><rect class="cls-4" x="532.58" y="290.33" width="4.09" height="10.38"/><rect class="cls-4" x="532.58" y="310.19" width="4.09" height="10.38"/><rect class="cls-3" x="413.99" y="67.24" width="3.41" height="9.09"/><rect class="cls-3" x="422.39" y="67.24" width="3.41" height="9.09"/><rect class="cls-3" x="430.8" y="67.24" width="3.41" height="9.09"/><rect class="cls-3" x="439.2" y="67.24" width="3.41" height="9.09"/><rect class="cls-3" x="413.99" y="82.38" width="3.41" height="9.09"/><rect class="cls-3" x="422.39" y="82.38" width="3.41" height="9.09"/><rect class="cls-3" x="430.8" y="82.38" width="3.41" height="9.09"/><rect class="cls-3" x="439.2" y="82.38" width="3.41" height="9.09"/><rect class="cls-3" x="413.99" y="97.51" width="3.41" height="9.09"/><rect class="cls-3" x="422.39" y="97.51" width="3.41" height="9.09"/><rect class="cls-3" x="448.73" y="67.24" width="3.41" height="9.09"/><rect class="cls-5" x="187.16" y="159.3" width="2.17" height="8.33"/><rect class="cls-5" x="194.81" y="159.3" width="2.17" height="8.33"/><rect class="cls-5" x="203.75" y="159.3" width="2.17" height="8.33"/><rect class="cls-5" x="211.39" y="159.3" width="2.17" height="8.33"/><rect class="cls-5" x="170.18" y="159.3" width="2.17" height="8.33"/><rect class="cls-5" x="177.83" y="159.3" width="2.17" height="8.33"/><rect class="cls-5" x="187.16" y="173.76" width="2.17" height="8.33"/><rect class="cls-5" x="194.81" y="173.76" width="2.17" height="8.33"/><rect class="cls-5" x="203.75" y="173.76" width="2.17" height="8.33"/><rect class="cls-5" x="211.39" y="173.76" width="2.17" height="8.33"/><rect class="cls-5" x="170.18" y="173.76" width="2.17" height="8.33"/><rect class="cls-5" x="177.83" y="173.76" width="2.17" height="8.33"/><rect class="cls-5" x="187.16" y="188.22" width="2.17" height="8.33"/><rect class="cls-5" x="194.81" y="188.22" width="2.17" height="8.33"/><rect class="cls-5" x="203.75" y="188.22" width="2.17" height="8.33"/><rect class="cls-5" x="211.39" y="188.22" width="2.17" height="8.33"/><rect class="cls-5" x="170.18" y="188.22" width="2.17" height="8.33"/><rect class="cls-5" x="177.83" y="188.22" width="2.17" height="8.33"/><rect class="cls-3" x="591.39" y="223.13" width="3.36" height="12.92"/><rect class="cls-3" x="601.66" y="223.13" width="3.36" height="12.92"/><rect class="cls-3" x="611.32" y="223.13" width="3.36" height="12.92"/><rect class="cls-4" x="822.63" y="225.82" width="2.55" height="7.26"/><rect class="cls-4" x="830.62" y="225.82" width="2.55" height="7.26"/><rect class="cls-4" x="822.63" y="225.82" width="2.55" height="7.26"/><rect class="cls-4" x="830.62" y="225.82" width="2.55" height="7.26"/><rect class="cls-4" x="838.16" y="225.82" width="2.55" height="7.26"/><rect class="cls-4" x="846.15" y="225.82" width="2.55" height="7.26"/><rect class="cls-4" x="822.63" y="238.84" width="2.55" height="7.26"/><rect class="cls-4" x="830.62" y="238.84" width="2.55" height="7.26"/><rect class="cls-4" x="822.63" y="238.84" width="2.55" height="7.26"/><rect class="cls-4" x="830.62" y="238.84" width="2.55" height="7.26"/><rect class="cls-4" x="838.16" y="238.84" width="2.55" height="7.26"/><rect class="cls-4" x="846.15" y="238.84" width="2.55" height="7.26"/><rect class="cls-4" x="822.63" y="252.71" width="2.55" height="7.26"/><rect class="cls-4" x="830.62" y="252.71" width="2.55" height="7.26"/><rect class="cls-4" x="822.63" y="252.71" width="2.55" height="7.26"/><rect class="cls-4" x="830.62" y="252.71" width="2.55" height="7.26"/><rect class="cls-4" x="838.16" y="252.71" width="2.55" height="7.26"/><rect class="cls-4" x="846.15" y="252.71" width="2.55" height="7.26"/><rect class="cls-4" x="854.88" y="225.82" width="2.55" height="7.26"/><rect class="cls-4" x="854.88" y="238.84" width="2.55" height="7.26"/><rect class="cls-4" x="862.86" y="225.82" width="2.55" height="7.26"/><rect class="cls-4" x="623.68" y="204.26" width="2.74" height="11.33"/><rect class="cls-4" x="637.3" y="204.26" width="2.74" height="11.33"/><rect class="cls-4" x="650.92" y="204.26" width="2.74" height="11.33"/><rect class="cls-4" x="664.53" y="204.26" width="2.74" height="11.33"/><rect class="cls-4" x="623.68" y="227.57" width="2.74" height="11.33"/><rect class="cls-4" x="637.3" y="227.57" width="2.74" height="11.33"/><rect class="cls-4" x="650.92" y="227.57" width="2.74" height="11.33"/><rect class="cls-4" x="664.53" y="227.57" width="2.74" height="11.33"/><rect class="cls-4" x="623.68" y="251.46" width="2.74" height="11.33"/><rect class="cls-4" x="637.3" y="251.46" width="2.74" height="11.33"/><rect class="cls-4" x="650.92" y="251.46" width="2.74" height="11.33"/><rect class="cls-4" x="664.53" y="251.46" width="2.74" height="11.33"/><rect class="cls-4" x="623.68" y="275.35" width="2.74" height="11.33"/><rect class="cls-4" x="637.3" y="275.35" width="2.74" height="11.33"/><rect class="cls-4" x="650.92" y="275.35" width="2.74" height="11.33"/><rect class="cls-4" x="664.53" y="275.35" width="2.74" height="11.33"/><rect class="cls-4" x="623.68" y="297.05" width="2.74" height="11.33"/><rect class="cls-4" x="637.3" y="297.05" width="2.74" height="11.33"/><rect class="cls-4" x="650.92" y="297.05" width="2.74" height="11.33"/><rect class="cls-4" x="623.68" y="321.25" width="2.74" height="11.33"/><rect class="cls-4" x="637.3" y="321.25" width="2.74" height="11.33"/><rect class="cls-4" x="650.92" y="321.25" width="2.74" height="11.33"/><rect class="cls-4" x="664.53" y="297.05" width="2.74" height="11.33"/><rect class="cls-4" x="933.23" y="264.14" width="2.8" height="6.5"/><rect class="cls-4" x="933.23" y="274.63" width="2.8" height="6.5"/><rect class="cls-4" x="940.4" y="264.14" width="2.8" height="6.5"/><rect class="cls-9" y="358" width="1024" height="140"/></svg>