<svg id="Layer_1" data-name="Layer 1" xmlns="http://www.w3.org/2000/svg" viewBox="0 0 922.87 330.91"><defs><style>.cls-1{fill:#252526;}.cls-2{fill:#189cc2;}.cls-2,.cls-3,.cls-4{fill-rule:evenodd;}.cls-3{fill:#0a7fa7;}.cls-4{fill:#169eda;}</style></defs><title>paycation-2-dark</title><path class="cls-1" d="M84.38,167.31c0,24.31-16,43.39-39.51,43.39C32.38,210.7,22.59,204.79,16,196v47.27H.13V125.1H16v13.51c6.59-8.78,16.38-14.69,28.87-14.69C68.34,123.92,84.38,143,84.38,167.31Zm-16.38,0c0-15.53-10.64-28-25.83-28S16,152.45,16,167.31s11,27.86,26.17,27.86S68,182.67,68,167.31Z"/><path class="cls-1" d="M183.3,125.1v84.42H167.43V196c-6.58,8.78-16.37,14.69-28.87,14.69-23.46,0-39.5-19.08-39.5-43.39s16-43.39,39.5-43.39c12.5,0,22.29,5.91,28.87,14.69V125.1Zm-15.87,42.21c0-14.86-11-27.86-26.17-27.86s-25.82,12.5-25.82,27.86c0,15.53,10.63,28,25.82,28S167.43,182.17,167.43,167.31Z"/><path class="cls-1" d="M283.24,125.1,233.78,243.28H217.57l14.85-34.44L197.31,125.1h17.22L240.36,191,266,125.1Z"/><path class="cls-1" d="M287.63,167.31c0-23.47,16.88-43.56,43.05-43.56,11.65,0,19.75,3.21,26.33,8.44V150.6a34,34,0,0,0-25-11c-16.72,0-28.2,12.33-28.2,27.69,0,15.19,11.48,27.69,28.2,27.69a34,34,0,0,0,25-11v18.4c-6.58,5.24-14.68,8.45-26.33,8.45C304.51,210.87,287.63,190.78,287.63,167.31Z"/><path class="cls-1" d="M457.29,125.1v84.42H441.42V196c-6.58,8.78-16.37,14.69-28.87,14.69-23.46,0-39.5-19.08-39.5-43.39s16-43.39,39.5-43.39c12.5,0,22.29,5.91,28.87,14.69V125.1Zm-15.87,42.21c0-14.86-11-27.86-26.17-27.86s-25.83,12.5-25.83,27.86c0,15.53,10.64,28,25.83,28S441.42,182.17,441.42,167.31Z"/><path class="cls-1" d="M519.08,140.3H501.69v69.22H485.82V140.3H475V125.1h10.81V102.48h15.87V125.1h17.39Z"/><path class="cls-1" d="M534.1,98.26a10.81,10.81,0,1,1,10.8,11A10.52,10.52,0,0,1,534.1,98.26ZM537,125.1h15.87v84.42H537Z"/><path class="cls-1" d="M575.63,167.31c0-23.47,17.56-43.56,43-43.56s43.05,20.09,43.05,43.56-17.56,43.56-43.05,43.56S575.63,190.78,575.63,167.31Zm69.72-.17c0-14.86-10.47-27.52-26.67-27.52-15.87,0-26.85,12.66-26.85,27.52,0,15,11,27.86,26.85,27.86C634.88,195,645.35,182.17,645.35,167.14Z"/><path class="cls-1" d="M754.41,161.06v48.46H738.54V163.43c0-16.72-8.61-25.5-20.6-25.5-11.82,0-20.6,8.78-20.6,25.5v46.09H681.48V125.1h15.86v11.82c4.9-7.93,13.85-13.5,25.5-13.5C739.38,123.42,754.41,135.91,754.41,161.06Z"/><path class="cls-2" d="M855.51,134.75l.4-.25c-6.16-18.42,19.48-49.56,67-101.63Q865.28,40,833.71,62.16,836.79,107.42,855.51,134.75Z"/><path class="cls-3" d="M855.51,134.75l.4-.25a17.3,17.3,0,0,1-.51-1.91q-9-34.23-7.3-79.08a121,121,0,0,0-14.39,8.65Q836.79,107.42,855.51,134.75Z"/><path class="cls-4" d="M871.34,161.16c10.16,5.2,18.57,7.89,26,6.6Q822.19,138.3,835,8c-18,3.54-32.61,11.77-42.79,25.5-8.86,12-6,27.15,1.25,47.42,1,2.72,2.15,17.38-3.92,22.83-2.23,2-5.82.41-8.92-1.61q-16-9.08-26.57.18Q724.85,97.42,711.75,97c12.45,3.92,26.83,8,43,12.66,6.89,2,12.81,6.74,17.47,13.91,9.54,14.66,36.57,22.62,62.76,26.39A118.79,118.79,0,0,1,871.34,161.16Z"/></svg>
