<svg id="Layer_1" data-name="Layer 1" xmlns="http://www.w3.org/2000/svg" viewBox="0 0 600 120"><defs><style>.cls-1{fill:#fff;}</style></defs><title>apurva-v-light</title><path class="cls-1" d="M130.06,52.63h-2a4.06,4.06,0,0,1-2,2.4,2.62,2.62,0,0,1-3.36-.85,2.64,2.64,0,0,1-3.37.85,4.06,4.06,0,0,1-2-2.4h-2.11L114,58.81h17.35Z"/><polygon class="cls-1" points="122.72 54.2 122.74 54.22 122.76 54.2 122.72 54.2"/><path class="cls-1" d="M115.73,86.81H113.9V104h17.77V86.81h-1.83c0-.23,0-.41.1-.47v-.16a3.81,3.81,0,0,0,.24-1.53,3.53,3.53,0,0,0-.34-1.31,4.57,4.57,0,0,0,.16-.82A8,8,0,0,0,126.94,75a7.94,7.94,0,0,0-.72-.58A2.92,2.92,0,0,0,127.55,72,2.52,2.52,0,0,0,126,69.54a1.84,1.84,0,0,0-1.41.42.91.91,0,0,0-.22-.5.89.89,0,0,0-.45-.26,2,2,0,0,0,.47-1.31c0-1.11-1.17-2-1.53-1.75h0c-.39-.22-1.49.64-1.53,1.75a1.85,1.85,0,0,0,.46,1.31.79.79,0,0,0-.66.76,1.91,1.91,0,0,0-1.41-.42A2.51,2.51,0,0,0,118.11,72a2.93,2.93,0,0,0,1.33,2.42,6.88,6.88,0,0,0-.73.58,9.12,9.12,0,0,0-3,4.59,8.82,8.82,0,0,0-.12,2.9,3.49,3.49,0,0,0,.16.82,3.55,3.55,0,0,0-.32,1.31,3.67,3.67,0,0,0,.22,1.51A2.3,2.3,0,0,0,115.73,86.81Zm14,15.53H115.85V88.42h1.47v10.8h0v1.65h10.93V88.42h1.47ZM119.23,72.16c0-.55.35-1.17.73-1.23s.38.32.94.5c.23,0,.71.22.95,0a1,1,0,0,0,.14-.8,1.33,1.33,0,0,0,.54-.61,2.06,2.06,0,0,0,.21-1h.18a1.74,1.74,0,0,0,.18,1,1.67,1.67,0,0,0,.54.61,1,1,0,0,0,.14.8c.26.28.73.12,1,0,.58-.18.66-.52.94-.5s.73.68.73,1.23A1.54,1.54,0,0,1,125,73.62c-.2-.14-.48-.26-.72-.4s.1-.2.16-.2,0,.14.2.2a.61.61,0,0,0,.76-.48.89.89,0,0,0-.42-.87,1.23,1.23,0,0,0-1.65.45v.36l-.44-.2h-.12l-.37.2v-.36a1.23,1.23,0,0,0-1.65-.45.94.94,0,0,0-.42.87c0,.38.56.6.77.48s.12-.2.2-.2.14.1.16.2l-.73.4a1.57,1.57,0,0,1-1.53-1.55Zm-.6,5a8,8,0,0,1,3-2.46l.16-.1a8.43,8.43,0,0,1,1-.38,3.06,3.06,0,0,1,1,.38l.16.1a7.92,7.92,0,0,1,3,2.38,8.15,8.15,0,0,1,1.81,5,2.64,2.64,0,0,0-.72-.49,2.25,2.25,0,0,0-.85-.2A6.63,6.63,0,0,0,126,76.6a5.07,5.07,0,0,0-3.12-1.91h0a5,5,0,0,0-3.22,1.91,6.53,6.53,0,0,0-1.13,4.79,2.4,2.4,0,0,0-.87.2c-.48.25-.64.53-.72.49a8.27,8.27,0,0,1,1.65-5ZM117,84.07a2.23,2.23,0,0,1,2.56-1.25,1.21,1.21,0,0,1,.88.93c.08.6-.14.92-.5,1a.7.7,0,0,1-.73-.4.49.49,0,0,0,.43,0,.76.76,0,0,0,.14-.9,1,1,0,0,0-1.39-.16l-.06,0a2,2,0,0,0,0,2.42,1.87,1.87,0,0,0,2.64,0l0,0a2.76,2.76,0,0,0,.35-3.28,2.41,2.41,0,0,0-1.55-1,4.49,4.49,0,0,1,.18-2.85,2.81,2.81,0,0,1,5.55,0,4.78,4.78,0,0,1,.18,2.85,2.31,2.31,0,0,0-1.55,1,2.76,2.76,0,0,0,.33,3.28,1.88,1.88,0,0,0,2.67,0l0,0a2,2,0,0,0,0-2.42,1,1,0,0,0-1.42.07l0,0a.8.8,0,0,0,.17.9c.16.12.38,0,.4,0a.68.68,0,0,1-.73.4c-.36,0-.54-.64-.48-1s.72-.87.87-.93a2.21,2.21,0,0,1,2.55,1.25,3.2,3.2,0,0,1,0,2.64.54.54,0,0,1-.1.18h-1.05l-.88,1.55h0V99.3h-7.37V88.42h0l-.88-1.55h-1.07l-.1-.18A3.34,3.34,0,0,1,117,84Z"/><path class="cls-1" d="M112.53,107.21H135V83.57h-4.45a1.79,1.79,0,0,1,0,.92c-.14.46.39.71.29.79H133v20.3H112.53V85.28h2.34c-.1,0,.42-.33.26-.79a2.84,2.84,0,0,1,0-.92h-4.45v23.64Z"/><path class="cls-1" d="M181.9,118v-1.45H162.64v-1.43H177.9v-1.71H160.67v-1.43h12.82v-1.71H160.67V108.8h8.74v-1.71h-8.74v-1.43h4.51V104h-4.55v-.84a3.25,3.25,0,0,0,1.75-1.45,6.3,6.3,0,0,1,.55-3.26A4.93,4.93,0,0,1,165.4,96,4.48,4.48,0,0,0,163,94.11a4.25,4.25,0,0,0-2.64,0,6.23,6.23,0,0,0-.71-3.36,5.63,5.63,0,0,0-2-2.21,4.14,4.14,0,0,0,.12-3.24,3.08,3.08,0,0,0-6,0,4.2,4.2,0,0,0,.14,3.28,6,6,0,0,0-2,2.21,6.53,6.53,0,0,0-.7,3.36,4.19,4.19,0,0,0-2.62,0,4.35,4.35,0,0,0-1.55.91h-5.73V82.54h7.4a4.55,4.55,0,0,1-1.22-2.68c0-.76,1-1,1.73-1.89a6.48,6.48,0,0,0,1.39-5.17,7.45,7.45,0,0,0-1.05-2.56,5,5,0,0,0-3.8-2.15,4,4,0,0,0-3.3,1,3.36,3.36,0,0,0-.73,2.79,2.64,2.64,0,0,1,2.19-.6A2,2,0,0,1,143.46,73a2.3,2.3,0,0,1-1.68,2.8l-.17,0a3.18,3.18,0,0,1-3.68-1.33,7.61,7.61,0,0,1-1-2,8.26,8.26,0,0,1-.34-1.77,3.6,3.6,0,0,1,.73-3A3.23,3.23,0,0,1,139,66.9l-.45-.76h0l-1.2-2.24h-2.86V62.09h.82c.37,1.15,1.13,1.63,3.85-.28a7.33,7.33,0,0,1,2.59-.38h0a4.25,4.25,0,0,1-1.14-2.52c0-.72.62-.9,1.26-1.71A6,6,0,0,0,143,52.31a5.45,5.45,0,0,0-.8-1.85A5,5,0,0,0,138.84,48a3.1,3.1,0,0,0-2.84.72,3.38,3.38,0,0,0-.69,2.64,2.34,2.34,0,0,1,2-.77,2.3,2.3,0,0,1,1.75,1.55,2.8,2.8,0,0,1-2,3.28,2.87,2.87,0,0,1-3.14-1.81c-.5-1-1.18-2.29-1.69-3.26v-.24h0c-.12-.38-.28-.79-.46-1.35a1.36,1.36,0,0,1,0-.8h1.57a6.76,6.76,0,0,1,2-3.14,3.52,3.52,0,0,1,2.56-.71c-.24-.54-.56-1.49-.83-2V42h-5V40.28h1.57a1.19,1.19,0,0,0,.53,0h.46v-.14a6.74,6.74,0,0,0,1.51-.89,5.94,5.94,0,0,1,2.13-.3h0a3.86,3.86,0,0,1-.94-2c0-.61.52-.75,1-1.41a5.22,5.22,0,0,0,.26-5.7,4.28,4.28,0,0,0-2.77-1.89,2.58,2.58,0,0,0-2.36.6,2.65,2.65,0,0,0-.54,2.2,2,2,0,0,1,1.69-.46,1.42,1.42,0,0,1,1.21,1.16,2,2,0,0,1-1.51,2.42l-.08,0A2,2,0,0,1,132,32.59c-.3-.56-.68-1.25-1.06-1.87l-1.31-7.41h-2.4A2,2,0,0,0,126,22a2.52,2.52,0,0,1,.4-.76,3.66,3.66,0,0,0,1.27.28c1.36.1,2-1.65,2-1.65a7.76,7.76,0,0,1,.48-3.44,4.73,4.73,0,0,1,2.24-2.56,4.27,4.27,0,0,0-2.16-2,3.28,3.28,0,0,0-2.35,0,7.33,7.33,0,0,0-.65-3.54A5.58,5.58,0,0,0,125.43,6a5.12,5.12,0,0,0,.1-3.41,2.72,2.72,0,0,0-5.41,0A5.12,5.12,0,0,0,120.24,6a6,6,0,0,0-1.85,2.33,7.68,7.68,0,0,0-.63,3.54,3.34,3.34,0,0,0-2.37,0,4.18,4.18,0,0,0-2.13,2,4.68,4.68,0,0,1,2.21,2.56,7.48,7.48,0,0,1,.5,3.44s.71,1.75,2,1.65a3.66,3.66,0,0,0,1.26-.28,2.55,2.55,0,0,1,.41.76,2,2,0,0,0-1.19,1.27h-2.4l-1.2,7.15c-.37.64-.77,1.3-1.05,1.87a2.08,2.08,0,0,1-4-1l0-.1A1.46,1.46,0,0,1,111.08,30a2,2,0,0,1,1.69.47,2.76,2.76,0,0,0-.56-2.2,2.51,2.51,0,0,0-2.33-.6,4.36,4.36,0,0,0-2.8,1.89,5.64,5.64,0,0,0-.63,1.67,5.2,5.2,0,0,0,.89,4c.52.66,1,.8,1,1.41a3.66,3.66,0,0,1-1,2h0a5.7,5.7,0,0,1,2.13.3,7.82,7.82,0,0,0,1.53.89v.4h.45a1.23,1.23,0,0,0,.54,0h1.55v1.55h-5V42c-.24.58-.57,1.53-.81,2a3.61,3.61,0,0,1,2.56.7A6.87,6.87,0,0,1,112.05,47a4.67,4.67,0,0,1,.26.8H114a1.59,1.59,0,0,1,0,.81l-.4,1.33h0l-1.81,3.52A2.72,2.72,0,0,1,106.56,52a2.25,2.25,0,0,1,1.77-1.55,2.29,2.29,0,0,1,2,.77,3.22,3.22,0,0,0-.67-2.64,3.16,3.16,0,0,0-2.85-.73,5,5,0,0,0-3.34,2.52,5.51,5.51,0,0,0-.83,1.85,6,6,0,0,0,1.09,4.89c.62.81,1.19,1,1.27,1.71a4.64,4.64,0,0,1-1.15,2.52h0a7.33,7.33,0,0,1,2.59.38c2.7,2,3.49,1.43,3.85.28h.82v1.81h-2.85L107,66h0l-.44.76a3.23,3.23,0,0,1,1.69.79,3.63,3.63,0,0,1,.74,3,9.46,9.46,0,0,1-.2,1.91,7.68,7.68,0,0,1-1,2,3.16,3.16,0,0,1-3.68,1.33,2.29,2.29,0,0,1-1.87-2.65,1.06,1.06,0,0,1,0-.19,2,2,0,0,1,1.55-1.71,2.64,2.64,0,0,1,2.21.6,3.48,3.48,0,0,0-.74-2.79,4,4,0,0,0-3.28-1,5,5,0,0,0-3.81,2.15,7.06,7.06,0,0,0-1,2.56A6.37,6.37,0,0,0,98.61,78c.68.87,1.63,1.13,1.73,1.89a4.59,4.59,0,0,1-1.25,2.68h7.38V95h-5.71a4.35,4.35,0,0,0-1.55-.91,4.25,4.25,0,0,0-2.64,0,6.32,6.32,0,0,0-.7-3.36,5.7,5.7,0,0,0-2-2.21A4.19,4.19,0,0,0,94,85.3a3.08,3.08,0,0,0-6,0,4.28,4.28,0,0,0,0,3.28,5.93,5.93,0,0,0-2,2.21,6.54,6.54,0,0,0-.71,3.36,4.16,4.16,0,0,0-2.61,0A4.55,4.55,0,0,0,80.17,96a4.88,4.88,0,0,1,2.5,2.4,6.19,6.19,0,0,1,.56,3.26A3.13,3.13,0,0,0,85,103.13V104H80.41v1.69H85v1.43H76.25v1.71H85v1.43H72.16v1.71H85v1.43H67.73v1.71H83v1.43H63.73V118H58.07v2H187.64v-2ZM144.73,75.58A4,4,0,0,0,143.49,70a4.07,4.07,0,0,0-1.09-.48,3.82,3.82,0,0,1,2.65.92,3.61,3.61,0,0,1,1.43,2.6,4.7,4.7,0,0,1-.16,2c-.28.79-.4,1.13-1,1.41-.21,0-.61.38-.77.34a2.24,2.24,0,0,0-1.15,0A3.41,3.41,0,0,0,144.73,75.58Zm-3.06,2.93a1.16,1.16,0,0,0,.73-.16,1,1,0,0,1,1.26.66,1,1,0,0,1,.05.35,1.22,1.22,0,0,1-.81,1.19,4.51,4.51,0,0,1-.9,0,7.21,7.21,0,0,0,0-.93,2.83,2.83,0,0,0-.73-1.19A.8.8,0,0,0,141.67,78.51Zm-1.55-23.82a3.46,3.46,0,0,0,.35-3.12,4.47,4.47,0,0,0-2.62-2.42,3.79,3.79,0,0,1,2.37,1.11,3.43,3.43,0,0,1,1.17,2.23,5,5,0,0,1,0,1.73,2.62,2.62,0,0,1-.68,1.43.57.57,0,0,1-.76.26l0,0c-.38-.24-.78,0-1.12,0a4.15,4.15,0,0,0,1.32-1.18Zm-2.93,2.94c.32,0,.5.18.6.12.72-.45,1.09-.39,1.39.32s-.3,1.49-.75,1.85a2.62,2.62,0,0,1-1.53.66,7,7,0,0,0,.51-2,2.32,2.32,0,0,0-.63-1,1.23,1.23,0,0,0,.41.13Zm-31.44-1.74a.54.54,0,0,1-.8-.24,2.64,2.64,0,0,1-.69-1.43,6.27,6.27,0,0,1,0-1.73,3.64,3.64,0,0,1,1.17-2.23,3.81,3.81,0,0,1,2.39-1.11,4.28,4.28,0,0,0-2.61,2.42,3.43,3.43,0,0,0,.34,3.12A4.2,4.2,0,0,0,106.94,56c-.4-.06-.83-.28-1.19,0Zm2.94,4.69a2.71,2.71,0,0,1-1.55-.66c-.44-.36-1-1.19-.75-1.85s.69-.77,1.39-.32a1.69,1.69,0,0,0,.63-.12,1.87,1.87,0,0,0,.4-.13,2.25,2.25,0,0,0-.64,1,6.07,6.07,0,0,0,.52,2.05ZM100.32,76.5c-.55-.28-.69-.62-.95-1.41a4.56,4.56,0,0,1-.18-2,3.63,3.63,0,0,1,1.45-2.59,3.79,3.79,0,0,1,2.55-.91,4.06,4.06,0,0,0-2.33,6.06,3.27,3.27,0,0,0,1.39,1.16,2.24,2.24,0,0,0-1.15,0C100.92,76.8,100.54,76.5,100.32,76.5Zm3.3,3.16a4.82,4.82,0,0,0,0,.93,4.61,4.61,0,0,1-.91,0,1.19,1.19,0,0,1-.8-1.19,1,1,0,0,1,.9-1.06,1,1,0,0,1,.4,0,1.19,1.19,0,0,0,.71.17,1.1,1.1,0,0,0,.44-.15,2.63,2.63,0,0,0-.74,1.17Zm54.52,21.15A3.94,3.94,0,0,0,157,98.44a3.47,3.47,0,0,0-1.89-.87h-.53a3.47,3.47,0,0,0-1.89.87,4,4,0,0,0-1.21,2.37,5.28,5.28,0,0,1,1-4.61,4.07,4.07,0,0,1,2-1.12h.69a4.07,4.07,0,0,1,2,1.12A5.32,5.32,0,0,1,158.14,100.81Zm-5.5.71c.83-1.29.89-2,1.53-2.24l.58-.28h0l.63.3c.64.29.7,1,1.53,2.24a5.65,5.65,0,0,0,.64.82h-5.61A6.24,6.24,0,0,0,152.64,101.52Zm-1.71,2.59h.95V115h-.95Zm6.76,0h1V115h-1Zm3.46-8.61a3.07,3.07,0,0,1,2,.5,6,6,0,0,0-1.53,2,6.21,6.21,0,0,0-.47,3.16,1,1,0,0,1-.54.44,1.34,1.34,0,0,1-1.11,0,5.84,5.84,0,0,0,.41-2.58,6.07,6.07,0,0,0-.79-2.41A3.16,3.16,0,0,1,161.15,95.5Zm-10.06-3.72a5.21,5.21,0,0,1,2.84-2.68,2.74,2.74,0,0,1-.93-2.23,2.65,2.65,0,0,1,1.63-2.2H155a2.65,2.65,0,0,1,1.61,2.2,2.81,2.81,0,0,1-.91,2.23,5.21,5.21,0,0,1,2.84,2.68,5.6,5.6,0,0,1,.14,4.2,5.26,5.26,0,0,0-3.6-2.53h-.59a5.52,5.52,0,0,0-2.23,1A6.13,6.13,0,0,0,150.93,96,5.65,5.65,0,0,1,151.09,91.78Zm-2.53,3.72a3,3,0,0,1,2,1,6,6,0,0,0-.3,5.07,1.34,1.34,0,0,1-1.11,0,1.3,1.3,0,0,1-.54-.44,6.21,6.21,0,0,0-.47-3.16,5.62,5.62,0,0,0-1.53-2,3.18,3.18,0,0,1,1.9-.5Zm-3.87.74a4.77,4.77,0,0,1,2,2.18,6.2,6.2,0,0,1,.57,3.26,3.13,3.13,0,0,0,1.73,1.45V115h-1v-1.47h0v-1.71h-.1v-1.61H143V108.8h4.89v-1.71h-8.61v-1.43h8.51V104H139.3v-1.83h7.1l-.44-1.51H139.3V99.3h6.48L145.05,98H139.3V96.24Zm-38.58,14.09h33.45v1.47H106.07Zm38.24,3.18V115H101.2v-1.47ZM132.54,63.82h-2.6V62h2.6Zm-19.85-4,2-8.76h3a3.1,3.1,0,0,0,2.5,2.68A2,2,0,0,0,122.45,52a2,2,0,0,0-.22-1.17,1.32,1.32,0,0,0-1.81-.48,1,1,0,0,0-.44,1,.64.64,0,0,0,.82.54c.23-.14.12-.2.23-.2s.22.18.2.32-.45.34-.71.36a1.73,1.73,0,0,1-1.61-1.63c0-.62.38-1.31.79-1.37s.42.35,1,.57c.24,0,.75.24,1,0a1.17,1.17,0,0,0,.16-.91,1.48,1.48,0,0,0,.58-.68,2,2,0,0,0,0-1.65c-.14-.28-.32-.43-.28-.61s.26-.18.43-.36h0c.16.18.38.16.42.36s-.14.33-.26.61a2,2,0,0,0,0,1.65,1.64,1.64,0,0,0,.6.68,1.26,1.26,0,0,0,.14.91c.28.3.81.14,1,0,.62-.22.7-.61,1-.57s.79.75.77,1.37a1.69,1.69,0,0,1-1.61,1.63c-.26,0-.67-.14-.71-.36s0-.32.23-.32.1.14.22.2a.7.7,0,0,0,.82-.54,1,1,0,0,0-.46-1,1.31,1.31,0,0,0-1.79.48h0a2,2,0,0,0,0,2,2,2,0,0,0,2,.94,3.09,3.09,0,0,0,2.48-2.68H131l2,8.74Zm6,2.23v1.81H117.3V62Zm1.71,0h1.43v1.81h-1.43Zm3.16,1.63V62H125v1.81H123.6ZM126.74,62h1.41v1.81h-1.41Zm8.65-4a1.65,1.65,0,0,1,.65,1,1.4,1.4,0,0,1,0,.81h-1.75l-.38-1.73a1.57,1.57,0,0,1,1.54-.12Zm-13.52-16.1V40.28h1.73v1.55Zm3.14,0V40.28h1.73v1.55Zm-4.51-1.63v1.55h-1.61V40.28Zm9.44,1.55h-1.73V40.28h1.73Zm6.94-8.31a3,3,0,0,0,.2-2.7,3.48,3.48,0,0,0-2.15-2,2.85,2.85,0,0,1,2,.92,3.09,3.09,0,0,1,.79,1.77,6.46,6.46,0,0,1,0,1.39,1.78,1.78,0,0,1-.5,1c-.13.16-.47.56-.59.54a3.54,3.54,0,0,0-.92,0,3.08,3.08,0,0,0,1.16-.92Zm-2.49,2.35c.26,0,.42.12.5,0a.75.75,0,0,1,1,.35l0,.07c.24.57-.32,1-.71,1.27a1,1,0,0,1-.92.26,3.34,3.34,0,0,0,.3-1.29,2.12,2.12,0,0,0-.52-.86.74.74,0,0,0,.32.16Zm-4.55-.54h-2a6.78,6.78,0,0,0,.44-1.13,2.73,2.73,0,0,0,0-.7,1.34,1.34,0,0,0-.14-.53l-.2-.34a1.09,1.09,0,0,1,.12-.56,5.72,5.72,0,0,0-.1-2,6.74,6.74,0,0,0-2-3.36,6,6,0,0,0-1.09-.72h.08a2.54,2.54,0,0,0,1.73-.95H128Zm-7.47-11.49a1.45,1.45,0,0,0-1.65-.39.74.74,0,0,0-.3.73c0,.3.46.48.65.38s.2-.14.28-.14,0,0,0,.2-.24.2-.53.16a1.26,1.26,0,0,1-.56-.2V23.17H120l.12-.1c.12-.1.38,0,.89.12.2,0,.62.18.84,0a.69.69,0,0,0,.2-.56,1.25,1.25,0,0,0,.48-.46.28.28,0,0,1-.08-.39.29.29,0,0,1,.39-.09.28.28,0,0,1,.08.39l-.08.09a1.25,1.25,0,0,0,.48.46.69.69,0,0,0,.2.56c.24.22.66.1.87,0,.5-.14.62-.2.86-.12s0,0,.14.1h-.16v1.39a1.4,1.4,0,0,1-.62.22c-.3,0-.53,0-.55-.16a.43.43,0,0,1,0-.2.33.33,0,0,1,.27.14.56.56,0,0,0,.66-.38.69.69,0,0,0-.32-.73,1.43,1.43,0,0,0-1.63.39,1.28,1.28,0,0,0,0,1.38l-.42-.2h0l-.45.2a1.26,1.26,0,0,0,.16-1.42Zm.43-2.38a1.3,1.3,0,0,0-.1-.52c-.13-.2-.35-.32-.31-.47s.22-.12.35-.24h0c.14.12.3.12.34.24s-.18.27-.28.47a.79.79,0,0,0,0,.48Zm-3-2.6a6.34,6.34,0,0,1,.88-4.87,3.41,3.41,0,0,1,1.81-1.16h.63A3.46,3.46,0,0,1,124.93,14a6.29,6.29,0,0,1,.86,4.87,4.27,4.27,0,0,0-1.06-2.49,2.8,2.8,0,0,0-1.71-.91h-.47a2.94,2.94,0,0,0-1.71.91,4.41,4.41,0,0,0-1.06,2.45Zm8.67-5.59a2.45,2.45,0,0,1,1.75.52,6.23,6.23,0,0,0-1.37,2.2,7.58,7.58,0,0,0-.42,3.34,1.23,1.23,0,0,1-.48.48,1.12,1.12,0,0,1-1,0,7.06,7.06,0,0,0,.36-2.7,7.23,7.23,0,0,0-.62-2.63,2.63,2.63,0,0,1,1.79-1.25Zm-9-3.92A5.16,5.16,0,0,1,122,6.51a3.15,3.15,0,0,1-.82-2.36,2.71,2.71,0,0,1,1.46-2.29h.31a2.74,2.74,0,0,1,1.45,2.29,3.06,3.06,0,0,1-.83,2.36,5.14,5.14,0,0,1,2.56,2.84,7,7,0,0,1,.14,4.42A5.67,5.67,0,0,0,125,12.14a4.51,4.51,0,0,0-2-1h-.53a4.51,4.51,0,0,0-2,1,5.61,5.61,0,0,0-1.23,1.63,6.82,6.82,0,0,1,.21-4.46Zm-1.76,10.46a1.53,1.53,0,0,1-.5-.48,7.29,7.29,0,0,0-.4-3.34,6.37,6.37,0,0,0-1.37-2.2,2.36,2.36,0,0,1,1.75-.52,2.68,2.68,0,0,1,1.79,1.11,7,7,0,0,0-.64,2.63,7.7,7.7,0,0,0,.36,2.7,1.05,1.05,0,0,1-1,.06Zm3.18-.2c.75-1.35.81-2,1.39-2.38l.53-.28h0l.56.28c.56.31.62,1,1.37,2.38a4.3,4.3,0,0,0,.8,1.05,1.79,1.79,0,0,0-.48.7,1.58,1.58,0,0,0-.1.48,2.33,2.33,0,0,0-.52.2.67.67,0,0,0-.21-.36.59.59,0,0,0-.34-.2,1.61,1.61,0,0,0,.4-1.05c0-.86-1.12-1.42-1.44-1.26h-.1c-.33-.16-1.39.4-1.43,1.26a1.41,1.41,0,0,0,.4,1.05.57.57,0,0,0-.36.2.76.76,0,0,0-.2.36,1.87,1.87,0,0,0-.51-.2.87.87,0,0,0-.1-.48,2.08,2.08,0,0,0-.48-.7,4.22,4.22,0,0,0,.88-1.09ZM117.56,25h1.33a2.5,2.5,0,0,0,1.71.95h.3a6.13,6.13,0,0,0-1.1.72,6.83,6.83,0,0,0-2,3.36,6.22,6.22,0,0,0,0,2,3.5,3.5,0,0,0,.13.56,2.39,2.39,0,0,0-.21.34,2.33,2.33,0,0,0-.16.53,2.06,2.06,0,0,0,0,.7,5,5,0,0,0,.43,1.11h-2Zm-5,11.13a1.51,1.51,0,0,1,1.85.42h5.9l-.82-.8a3.44,3.44,0,0,1-.57-.64,2.15,2.15,0,0,1-.2-1.88,1.72,1.72,0,0,1,2-1.06s.61.22.67.68a.74.74,0,0,1-.38.77.54.54,0,0,1-.55-.31.33.33,0,0,0,.32,0,.6.6,0,0,0,.1-.68.93.93,0,0,0-1.26,0,1.37,1.37,0,0,0,0,1.73,1.69,1.69,0,0,0,2.23,0,2,2,0,0,0,.34-2.49,2.64,2.64,0,0,0-1.14-1,2.53,2.53,0,0,0-1,0,1.13,1.13,0,0,0-.54.16c-.33.16-.41.28-.47.26a4.29,4.29,0,0,1,1-2.9,5.61,5.61,0,0,1,2.6-1.87h0a5.52,5.52,0,0,1,2.59,1.87,4.08,4.08,0,0,1,1,2.9,4.4,4.4,0,0,0-.44-.26,1.34,1.34,0,0,0-.55-.16,2.58,2.58,0,0,0-1,0,2.66,2.66,0,0,0-1.15,1,2.14,2.14,0,0,0,.34,2.49,1.71,1.71,0,0,0,2.26,0,1.4,1.4,0,0,0,0-1.73.94.94,0,0,0-1.27,0,.65.65,0,0,0,.12.68c.12.08.3,0,.32,0a.58.58,0,0,1-.56.31.75.75,0,0,1-.39-.77c0-.46.63-.66.69-.68a1.71,1.71,0,0,1,2,1.06,2.22,2.22,0,0,1-.18,1.88,3,3,0,0,1-.58.64l-.81.8h5.9a1.5,1.5,0,0,1,1.85-.42,1.55,1.55,0,0,1,.52.85,1.13,1.13,0,0,1-.3,1.08H112.37a1.16,1.16,0,0,1-.28-1.08,1.34,1.34,0,0,1,.52-.89ZM109,34.4c-.12,0-.44-.38-.56-.54a1.62,1.62,0,0,1-.51-1,6.46,6.46,0,0,1,0-1.39,3,3,0,0,1,.81-1.77,2.81,2.81,0,0,1,2-.92,3.53,3.53,0,0,0-2.15,2,2.64,2.64,0,0,0,1.22,3.55l.21.09a3.25,3.25,0,0,0-1-.1Zm.66,2a.75.75,0,0,1,.95-.45l.08,0h.5a1.12,1.12,0,0,0,.35-.12,2,2,0,0,0-.53.87,3.33,3.33,0,0,0,.3,1.28,1.08,1.08,0,0,1-.94-.26c-.36-.46-1-.86-.71-1.51Zm6,3.91h1.71v1.55h-1.71Zm1.57,7.56a3.59,3.59,0,0,1,.65-1.18,3.12,3.12,0,0,1,2.15-1.05,45.49,45.49,0,0,0-5.72,0,5.61,5.61,0,0,0-.64-1,5.73,5.73,0,0,0-.56-.54h19.38a5.62,5.62,0,0,0-.55.54,6.38,6.38,0,0,0-.66,1,50.71,50.71,0,0,0-6,0,3.12,3.12,0,0,1,2.15,1.05,3.59,3.59,0,0,1,.65,1.18h2a7.85,7.85,0,0,0,0,1,7.08,7.08,0,0,0,.22.75h-2.51a2.29,2.29,0,0,0-1.53-1.7,2,2,0,0,0-1.53.47.92.92,0,0,0-.73-.85,2.2,2.2,0,0,0,.51-1.45c0-1.22-1.27-2.19-1.67-2h0c-.41-.24-1.61.73-1.67,2a2.26,2.26,0,0,0,.52,1.45,1,1,0,0,0-.5.28,1.31,1.31,0,0,0-.29.53,2,2,0,0,0-1.53-.47,2.3,2.3,0,0,0-1.52,1.7h-2.46a7.08,7.08,0,0,0,.22-.75,5.24,5.24,0,0,0,0-1ZM110.16,58a1.61,1.61,0,0,1,1.59.1l-.41,1.71h-1.75a1.25,1.25,0,0,1,0-.81,1.73,1.73,0,0,1,.53-1Zm2.92,4h2.61v1.81h-2.61Zm1.79,20.57a3.09,3.09,0,0,1-.14-1.09,1.94,1.94,0,0,1,.14-.92h-9.76a2.35,2.35,0,0,1,0-.53c0-.46.18-.94.76-1s1.19,0,1.79,0h6.44l.18-1.07a7.92,7.92,0,0,1,.83-2.15c.58-1,1.27-1.27,1.73-1.73a3.44,3.44,0,0,1-.38-1.29,3.34,3.34,0,0,1,.14-1.37h-3.75l-1.06,6H109.9l1.2-6.42a8.57,8.57,0,0,0,.29-1.51h5.85a3.15,3.15,0,0,1,.36-1.15,2.8,2.8,0,0,1,1.05-1.08h-7.59a4.7,4.7,0,0,0-.44-1l-.12-.14h24.75a.93.93,0,0,0-.14.14,4.64,4.64,0,0,0-.42,1h-8.43a2.79,2.79,0,0,1,1.1,1.08,3.17,3.17,0,0,1,.41,1.15h6.58a7.73,7.73,0,0,0,.28,1.51l1.21,6.42H134l-1.07-6h-3.72a4.24,4.24,0,0,1,.14,1.37,3.64,3.64,0,0,1-.39,1.29c.47.46,1.15.7,1.71,1.73a8,8,0,0,1,.85,2.15l.16,1.07h8.23c.81,0,.75.5.77,1a1.57,1.57,0,0,1,0,.53h-9.74a3,3,0,0,1,.12.94,4.4,4.4,0,0,1-.14,1.09h6V108.7H108.83V82.54ZM101,96.29h5.39V98h-5.81l-.71,1.34h6.46v1.31H99.67l-.42,1.51h7.08V104H97.8v1.69h8.49v1.43H97.68v1.71h4.89v1.43H97.68v1.61h0v1.71h0V115h-.93V103.13a3.27,3.27,0,0,0,1.76-1.45,6.19,6.19,0,0,1,.54-3.26,4.82,4.82,0,0,1,1.89-2.18Zm-6.26,7.82V115h-1V104.11Zm-.52-3.3A3.94,3.94,0,0,0,93,98.44a3.41,3.41,0,0,0-1.89-.87h-.52a3.47,3.47,0,0,0-1.9.87,4,4,0,0,0-1.2,2.37,5.28,5.28,0,0,1,1-4.61,4.06,4.06,0,0,1,2-1.12h.7a4,4,0,0,1,2,1.12,5.26,5.26,0,0,1,.91,4.61Zm-5.5.71c.83-1.29.89-2,1.53-2.24l.59-.28h0l.62.3c.65.29.71,1,1.53,2.24a5.71,5.71,0,0,0,.65.82H88a6.09,6.09,0,0,0,.68-.84ZM87,104.11H88V115H87ZM97.08,95.5a3,3,0,0,1,2,.5,6,6,0,0,0-1.53,2,6.1,6.1,0,0,0-.46,3.16,1.09,1.09,0,0,1-.55.44,1.32,1.32,0,0,1-1.1,0,6,6,0,0,0-.31-5.07A3.2,3.2,0,0,1,97.08,95.5ZM87,91.78a5.21,5.21,0,0,1,2.84-2.68,2.7,2.7,0,0,1-.92-2.23,2.64,2.64,0,0,1,1.63-2.2H91a2.65,2.65,0,0,1,1.61,2.2,2.78,2.78,0,0,1-.91,2.23,5.18,5.18,0,0,1,2.84,2.68,5.6,5.6,0,0,1,.14,4.2A5.26,5.26,0,0,0,91,93.45h-.58a5.57,5.57,0,0,0-2.24,1A6.13,6.13,0,0,0,86.85,96a5.7,5.7,0,0,1,.2-4.2ZM84,98.1a5.85,5.85,0,0,0-1.53-2,3.1,3.1,0,0,1,2-.5,3,3,0,0,1,2,1,6,6,0,0,0-.3,5.07,1.34,1.34,0,0,1-1.11,0,1.23,1.23,0,0,1-.54-.44,6.23,6.23,0,0,0-.5-3.16Zm-1,18.65h79.53V118H83Z"/><path class="cls-1" d="M213.7,30.79a8.58,8.58,0,0,0-1.15-3.47c-1.18-1.18-3.33-1.22-4.9-1.22H205.9c-.07,5.87-.15,11.77-.15,17.64,0,3.25,1.37,3.22,4.11,3.49v1.09H198.34V47.23c1-.13,2.62,0,3.29-1A7.63,7.63,0,0,0,202.1,43c0-3.14.08-6.33.08-9.47V26.17h-4c-2.4.14-3.45,2.61-4.27,4.54a9.27,9.27,0,0,1-1-.29l1.67-6.65h.54c.62,1.08,1.55,1.15,2.65,1.15h14.16a2.33,2.33,0,0,0,2.22-1.18h.51c.21,2.43.21,4.64.21,6.94A5.78,5.78,0,0,1,213.7,30.79Z"/><path class="cls-1" d="M226.93,48.36v-.91c.61,0,2.07,0,2.4-.63a21.78,21.78,0,0,0,.47-5.22c0-2.94.32-7.2-3.8-7.2a7.79,7.79,0,0,0-3.65,1.37v9.15c0,2.74.58,2.19,2.75,2.46v.91h-8.23v-.91c.71,0,2.29,0,2.51-.91a8.35,8.35,0,0,0,0-1.87V24.81a19.62,19.62,0,0,0-2.26-1.1v-.26l5.22-2.31v.38c0,4.11-.14,8.23-.14,12.34V35c1.94-1.37,2.94-2.74,5.49-2.74a4.58,4.58,0,0,1,3,1.37c1.83,1.82,1.8,4,1.8,6.43,0,1.87-.22,3.69-.22,5.49,0,2.07,1,1.67,2.62,1.85v.9Z"/><path class="cls-1" d="M243.8,48.82a7.53,7.53,0,0,1-7.18-7.58,9.47,9.47,0,0,1,2.57-6.86A7.24,7.24,0,0,1,244,32.31a5.84,5.84,0,0,1,6,5.49c-3.5.14-7,.29-10.48.29a6.37,6.37,0,0,0,0,1.07v.53a6.24,6.24,0,0,0,5.91,6.55h.14a6.47,6.47,0,0,0,4.29-2.33l.54.46A8.36,8.36,0,0,1,243.8,48.82Zm2.54-14a3,3,0,0,0-2.89-1.6c-2.12,0-3.34,2.29-3.65,4.11a44.41,44.41,0,0,0,7.09-.57A4.14,4.14,0,0,0,246.34,34.86Z"/><path class="cls-1" d="M273.68,48.36v-1c1.47,0,2.94-.11,3.49-1.29A3.86,3.86,0,0,0,277,44c-.43-1.56-1.11-3.71-1.87-5.93H268.3c-.65,1.64-1.16,3.15-1.69,4.69a9.63,9.63,0,0,0-.71,3c.06,1.54,2.11,1.37,3.25,1.54v1h-8.37v-1c1.21,0,1.58-.29,1.93-.72a10.36,10.36,0,0,0,1.85-3.18c1.83-4.11,4.12-10.23,6.12-15.25a5.83,5.83,0,0,0,.58-2.49,7.37,7.37,0,0,0,2.74-2.4h.18c2.33,7.4,4,12.87,5.91,18.56a31,31,0,0,0,1.49,3.9,3.58,3.58,0,0,0,3.23,1.58v1ZM272,27.9c-.49,1.18-1.45,3.89-3.29,8.9h6.09C273.59,32.86,272.77,29.9,272,27.9Z"/><path class="cls-1" d="M293.34,48.21h-.94a6.27,6.27,0,0,1-1.37,0v6.43c.14,1.71,1.85,1.29,3,1.51V57h-8.72v-.86c1.29-.1,2.74-.14,2.74-1.83V35.15a15,15,0,0,0-2.42-1.07v-.46c1.75-.72,3.47-1.38,5.25-2v2.94c1.37-.85,3.22-2.25,4.94-2.25A7.32,7.32,0,0,1,301.21,35a8.41,8.41,0,0,1,1.64,4.76C302.92,44.74,298.05,48,293.34,48.21Zm2.74-13.46a5.65,5.65,0,0,0-2-.45,5.41,5.41,0,0,0-3.18,1.14v9.27a4.77,4.77,0,0,0,4.12,2.5,3.69,3.69,0,0,0,1.86-.54,6.85,6.85,0,0,0,2.92-6.07,6,6,0,0,0-3.69-5.85Z"/><path class="cls-1" d="M317.12,49l-.18-.15c0-.72-.15-1.47-.15-2.18a.37.37,0,0,0-.14-.32h-.07c-.33,0-3.4,2.54-5.58,2.54-4.11,0-4.33-4.5-4.33-7.54,0-1.9.13-3.8.13-5.7s-1-1.5-2.31-1.78v-.73c1.75-.27,3.51-.45,5.25-.64v10.7c0,2.19.53,3.84,3,3.84a6.57,6.57,0,0,0,3.94-2c0-3.14.07-6.29.07-9.43a1,1,0,0,0-.25-.83,10.07,10.07,0,0,0-2.74-.82v-.64c1.93-.25,3.86-.43,5.8-.61,0,4.12-.08,8.37-.08,12.55a7.59,7.59,0,0,0,.08,1.07,10.85,10.85,0,0,0,2.54.47v.64Z"/><path class="cls-1" d="M335.48,36.15a8.63,8.63,0,0,0-3-1.22,2.89,2.89,0,0,0-2.58,2.75v7.65a2.51,2.51,0,0,0,.31,1.37c.47.71,2.36.78,3.16.85v.9h-9.2v-.9c1.37,0,2.74,0,2.74-1.82V35.3a21.92,21.92,0,0,0-2.43-1.08v-.47c1.76-.67,3.61-1.29,5.36-2v3.79c.47-.54.94-1,1.38-1.57a4.19,4.19,0,0,1,3-1.86,3.67,3.67,0,0,1,2.43,1.58C336.32,34.55,335.89,35.37,335.48,36.15Z"/><path class="cls-1" d="M352.53,36.15c-1.51,2.94-2.91,5.94-4.3,8.92a23.69,23.69,0,0,0-1.37,3.75H346a29.29,29.29,0,0,0-1.67-4.53c-.87-2.27-1.8-4.45-2.75-6.67a25.7,25.7,0,0,0-1.37-3.25,2,2,0,0,0-1.86-.78v-.91h8v.87c-.82.11-2.58,0-2.58,1.25,0,.61,2.25,6.26,2.61,7.15s.68,1.83,1,2.75c.67-1.18,4.11-8.77,4.11-9.73,0-1.22-1.79-1.37-2.64-1.37v-.86h6.58v.9C353.88,33.66,353.13,34.93,352.53,36.15Z"/><path class="cls-1" d="M366.9,48.74c-1,0-1.51-1.64-1.8-2.38-1.37.74-4.68,2.42-6.29,2.42s-1.83-2-1.83-3.25c0-1.68.18-2.64,1.83-3.4s4.37-1.37,6.29-2V37.51c0-1.85-.53-3.61-3.22-3.61A2.29,2.29,0,0,0,359.59,35a6.87,6.87,0,0,0-.29,2.16h-2.85a1.38,1.38,0,0,1,.49-1.29,25.59,25.59,0,0,1,4-3,6.17,6.17,0,0,1,2.74-.93A4.41,4.41,0,0,1,368,36.53V43.9c0,.93-.22,2.54,1.15,2.54a4.19,4.19,0,0,0,1.71-.65l.32.54C370.33,47,367.9,48.74,366.9,48.74ZM365.1,41c-1.37.32-4.29,1-5.14,2.18a2.5,2.5,0,0,0-.44,1.37,2.38,2.38,0,0,0,2.15,2.25,7.91,7.91,0,0,0,3.43-1.37Z"/><path class="cls-1" d="M401.43,48.91c-1.72,0-3.43,0-5.16.07v-1c.51,0,2.29.08,2.29-.74s-.89-1.37-1.29-1.87c-1.71-1.89-3.43-3.71-5.15-5.62-.39-.43-1.38-1.61-1.9-1.74a.81.81,0,0,0-.31,0,8,8,0,0,0-1,0v7.18a3.23,3.23,0,0,0,.36,1.83c.62.82,2.11.89,3.09,1v1c-2,0-4-.07-5.94-.07-1.37,0-2.91,0-4.34.07v-1c.87-.1,2.4,0,3-.74a8,8,0,0,0,.36-3.29V35c0-1.37.18-7.09-.47-7.87s-2.29-.57-3.11-.68v-1h10.48v1c-.9.08-2.14-.14-2.9.43s-.51,2.5-.53,3.32V36.9h.24c1.72,0,2.87-1.62,3.94-2.74S398,29,398,27.61c0-1-1.87-1-2.58-1.08v-1h9.23v1c-3.18.19-3.12.44-5.3,2.55-1.11,1.07-2.14,2.32-3.22,3.43s-2,2.33-3.11,3.47c1.22,1.18,2.37,2.51,3.51,3.76l4.72,5A23.3,23.3,0,0,0,404,47.39a4,4,0,0,0,1.86.53v1Z"/><path class="cls-1" d="M414.35,49.38a7.54,7.54,0,0,1-7.19-7.59,9.6,9.6,0,0,1,2.58-6.85,7.12,7.12,0,0,1,4.83-2.07,5.82,5.82,0,0,1,6,5.48c-3.5.15-7,.29-10.48.29a6.37,6.37,0,0,0,0,1.07v.55A6.24,6.24,0,0,0,416,46.79h.12a6.41,6.41,0,0,0,4.29-2.33l.54.46A8.31,8.31,0,0,1,414.35,49.38Zm2.48-14a3.06,3.06,0,0,0-2.91-1.62c-2.11,0-3.32,2.29-3.65,4.12a41,41,0,0,0,7.09-.58A4.19,4.19,0,0,0,416.83,35.43Z"/><path class="cls-1" d="M442.35,48.91V48c.67,0,2.18-.11,2.65-.69a4.08,4.08,0,0,0,.39-2.07c.07-1.57.21-3.15.21-4.71a10,10,0,0,0-.54-3.76A3.53,3.53,0,0,0,441.88,35a6.35,6.35,0,0,0-3.71,1.37,10.59,10.59,0,0,1,0,1.38v8.47a2.23,2.23,0,0,0,.22,1.08c.31.65,1.85.68,2.46.72v.86h-8.44V48c.64,0,2.33,0,2.64-.75a23,23,0,0,0,.29-4.61V39.33a9.79,9.79,0,0,0-.29-2.75,3.52,3.52,0,0,0-3.19-1.78,6.5,6.5,0,0,0-3.75,1.37c-.11,0-.17.11-.17.28v9.22a3.66,3.66,0,0,0,.2,1.51c.43.76,1.89.72,2.65.78v.95h-8.48V48c2.18-.15,2.65,0,2.65-2.36v-10a17.51,17.51,0,0,0-2.43-1.06v-.47l5.49-2v3.43c.74-.43,1.37-1,2.1-1.5A7,7,0,0,1,434,32.52a4.52,4.52,0,0,1,3.31,2,7,7,0,0,1,.69,1.37c1.93-1.37,3.33-3.18,5.94-3.18a4.83,4.83,0,0,1,3.36,2,7.63,7.63,0,0,1,1.37,4.9c0,2.15-.29,4.33-.29,6.47s1,1.75,2.74,2v.88Z"/><path class="cls-1" d="M459.56,48.77h-.93a5.24,5.24,0,0,1-1.37,0v6.5c.15,1.72,1.86,1.29,3,1.5v.89h-8.73v-.85c1.28-.11,2.74-.15,2.74-1.82V35.79a14.68,14.68,0,0,0-2.44-1.07v-.47c1.75-.71,3.48-1.37,5.26-2v2.94c1.44-.87,3.23-2.27,4.95-2.27a7.39,7.39,0,0,1,5.37,2.75,8.48,8.48,0,0,1,1.64,4.75C469.15,45.3,464.28,48.6,459.56,48.77Zm2.74-13.45a4.77,4.77,0,0,0-5.15.67v9.27a4.76,4.76,0,0,0,4.11,2.51,3.85,3.85,0,0,0,1.87-.53,6.87,6.87,0,0,0,2.93-6.09,6,6,0,0,0-3.72-5.83Z"/><path class="cls-1" d="M475.87,48.91H474.4c-1.37,0-2.65,0-4,.07v-.89c2.75-.25,2.86-.25,2.86-3.16V36.46c0-.11,0-.25-.1-.32-.47-.26-1.86-.86-2.4-1.11v-.35l5.49-2.16V45.11c0,2.75.26,2.75,2.9,3v.82Zm-1.29-19.2a1.83,1.83,0,1,1,1.86-1.82A1.85,1.85,0,0,1,474.58,29.71Z"/><path class="cls-1" d="M491.07,48.91V48c.69,0,2.23-.11,2.75-.69a4.2,4.2,0,0,0,.4-2.07c0-1.64.17-3.25.17-4.89a9.25,9.25,0,0,0-.55-3.76,3.53,3.53,0,0,0-3.18-1.76A6,6,0,0,0,487,36.32c-.18.14-.18.25-.18.47-.14,2.85,0,5.79,0,8.65,0,2.47.71,2.29,2.74,2.58v.89H481V48c.82,0,2.29,0,2.6-1,.14-.5.11-3.9.11-4.58V35.7c-.79-.42-1.62-.71-2.44-1.06v-.47l5.49-2v3.43c.75-.43,1.37-1.11,2.11-1.58a6.82,6.82,0,0,1,3.87-1.47,4.88,4.88,0,0,1,3.29,2,7.68,7.68,0,0,1,1.37,4.89c0,2.23-.29,4.45-.29,6.65s1,1.76,2.74,2v.89Z"/><path class="cls-1" d="M510.58,48a6.59,6.59,0,0,1-4.12,1.37,16.76,16.76,0,0,1-3.93-.53c-.18-1.38-.4-2.75-.58-4l1-.22c.86,1.61,1.51,3.9,3.73,3.9a2.67,2.67,0,0,0,2.89-2.42V46c0-4.36-7.4-3.8-7.4-8.8,0-2.75,2.64-4.37,5.11-4.37a15,15,0,0,1,3.05.43h.24a2.18,2.18,0,0,0,.83-.22c.24,1.37.46,2.74.6,4.11l-.89.21c-.71-1.65-1.89-3.65-3.94-3.65a2.36,2.36,0,0,0-2.59,2.1,1.86,1.86,0,0,0,0,.41c0,1.51.93,2,2,2.74,2.29,1.54,5.48,2.47,5.48,5.85A5.33,5.33,0,0,1,510.58,48Z"/><path class="cls-1" d="M513.88,48.91V48c.71,0,2.15.14,2.36-.75a11.42,11.42,0,0,0,.18-2.47c.08-4.76.11-9.45.11-14.21V25.47a21,21,0,0,0-2.22-1.13v-.25c1.71-.8,3.47-1.55,5.22-2.33v.35c0,2.12-.07,4.19-.11,6.3-.07,5-.14,10-.14,15v2.36c0,2.29.61,2.25,2.57,2.36v.82Zm9.6,0v-.82c.54,0,2,0,2-.76,0-.56-4-4.67-4.72-5.36l-1.37-1.25a23.08,23.08,0,0,0,4.12-3.26c.39-.38,1.82-1.82,1.82-2.36,0-.75-1.47-.85-2-.89v-.89h7.41v.89A6.88,6.88,0,0,0,526.62,36c-1.49,1.17-2.93,2.46-4.4,3.67,1.82,2,3.62,3.94,5.48,5.84.69.67,1.38,1.47,2.16,2.11a2.4,2.4,0,0,0,1.64.43v.89Z"/><path class="cls-1" d="M538.65,48.91h-1.46c-1.37,0-2.64,0-4,.07v-.89c2.74-.25,2.87-.25,2.87-3.16V36.46c0-.11,0-.25-.11-.32-.47-.26-1.87-.86-2.4-1.11v-.35L539,32.52V45.11c0,2.75.25,2.75,2.9,3v.82Zm-1.29-19.2a1.83,1.83,0,0,1,.08-3.65,1.83,1.83,0,0,1-.07,3.65Z"/><path class="cls-1" d="M352,88.34a7.87,7.87,0,0,1,2.27.18,2.54,2.54,0,0,1,1.84,2.39,2.06,2.06,0,0,1-1.75,2.18,2.86,2.86,0,0,1,.35,5.48,6.12,6.12,0,0,1-2.33.28h-4.11V88.34Zm-1.8,4.12h2c1.25,0,1.85-.39,1.85-1.16s-.75-1.3-1.88-1.3h-2Zm0,4.62h2.55c1.15,0,1.82-.4,1.82-1.44S353.9,94,352.33,94H350.2Z"/><path class="cls-1" d="M359.59,98.85l4.47-10.52h1.87l4.43,10.52h-2.24l-.93-2.39h-4.48l-.92,2.39Zm3.78-4.12h3.16l-1.57-4Z"/><path class="cls-1" d="M376.15,97.09h4.43v1.76h-6.39V88.33h2Z"/><path class="cls-1" d="M384.55,88.33h2V98.85h-2Z"/><rect class="cls-1" x="192.84" y="70.51" width="349.08" height="0.97"/></svg>