<svg id="Layer_1" data-name="Layer 1" xmlns="http://www.w3.org/2000/svg" viewBox="0 0 360 360"><title>apurva-h-dark</title><g id="Artwork"><path d="M188,58.08h-2.22a4.43,4.43,0,0,1-2.22,2.65,2.91,2.91,0,0,1-3.71-.93,2.91,2.91,0,0,1-3.71.93,4.43,4.43,0,0,1-2.22-2.65h-2.34l-1.31,6.83h19.16Z"/><polygon points="179.84 59.82 179.87 59.84 179.89 59.82 179.84 59.82"/><path d="M172.13,95.81h-2v19h19.62v-19h-2c0-.24,0-.44.11-.51v-.17a4.08,4.08,0,0,0,.27-1.69,3.9,3.9,0,0,0-.38-1.45,5.63,5.63,0,0,0,.18-.91,9.31,9.31,0,0,0-.14-3.2,9.69,9.69,0,0,0-3.24-5.06,7.1,7.1,0,0,0-.8-.65,3.19,3.19,0,0,0,1.47-2.67,2.78,2.78,0,0,0-1.74-2.75,2,2,0,0,0-1.55.47.9.9,0,0,0-.25-.56,1,1,0,0,0-.48-.29,2.28,2.28,0,0,0,.51-1.44c0-1.22-1.29-2.22-1.69-1.94h0c-.42-.24-1.65.72-1.69,1.94a2.06,2.06,0,0,0,.51,1.44.9.9,0,0,0-.73.85,2.11,2.11,0,0,0-1.56-.47,2.76,2.76,0,0,0-1.75,2.75,3.25,3.25,0,0,0,1.46,2.67,8.12,8.12,0,0,0-.8.65,10,10,0,0,0-3.29,5.06,9.56,9.56,0,0,0-.13,3.2,3.55,3.55,0,0,0,.18.91,4.06,4.06,0,0,0-.11,3.11A2.71,2.71,0,0,0,172.13,95.81ZM187.58,113H172.27V97.59h1.62v11.93h0v1.83H186V97.59h1.62ZM176,79.64c0-.6.38-1.29.8-1.36s.42.36,1,.56c.25,0,.78.24,1,0A1.08,1.08,0,0,0,179,78a1.44,1.44,0,0,0,.6-.67,2.17,2.17,0,0,0,.23-1.09h.2a2.06,2.06,0,0,0,.2,1.12,1.8,1.8,0,0,0,.6.66,1.08,1.08,0,0,0,.15.89c.29.31.8.13,1,0,.64-.2.73-.58,1-.55s.8.75.8,1.35a1.71,1.71,0,0,1-1.51,1.6,8.45,8.45,0,0,0-.8-.44c-.27-.16.11-.23.18-.23s0,.16.22.23a.67.67,0,0,0,.84-.54,1,1,0,0,0-.46-1,1.35,1.35,0,0,0-1.82.49v.4l-.49-.23h-.14l-.4.23v-.4a1.35,1.35,0,0,0-1.82-.49,1,1,0,0,0-.47,1c0,.42.63.67.85.54s.13-.23.22-.23.16.11.18.23l-.8.44A1.73,1.73,0,0,1,176,79.55Zm-.67,5.51a9,9,0,0,1,3.34-2.71l.17-.11a9.13,9.13,0,0,1,1.09-.43,3.4,3.4,0,0,1,1.09.43l.18.11a8.81,8.81,0,0,1,3.31,2.62,9,9,0,0,1,2,5.53,2.83,2.83,0,0,0-.8-.53,2.31,2.31,0,0,0-.93-.22,7.31,7.31,0,0,0-1.27-5.29,5.52,5.52,0,0,0-3.44-2.11h0a5.53,5.53,0,0,0-3.56,2.11,7.25,7.25,0,0,0-1.24,5.29,2.45,2.45,0,0,0-1,.22c-.53.27-.71.58-.8.53a9.19,9.19,0,0,1,1.82-5.53Zm-1.82,7.64a2.46,2.46,0,0,1,2.82-1.37,1.33,1.33,0,0,1,1,1c.09.66-.15,1-.55,1.13a.78.78,0,0,1-.8-.44.51.51,0,0,0,.46,0,.85.85,0,0,0,.16-1,1.09,1.09,0,0,0-1.53-.18A.23.23,0,0,0,175,92a2.22,2.22,0,0,0,0,2.66,2.07,2.07,0,0,0,2.92.06l.06-.06a3,3,0,0,0,.37-3.62,2.63,2.63,0,0,0-1.71-1.13,5,5,0,0,1,.2-3.16,3.12,3.12,0,0,1,6.14,0,5.41,5.41,0,0,1,.2,3.16,2.56,2.56,0,0,0-1.72,1.13,3,3,0,0,0,.36,3.62,2.09,2.09,0,0,0,2.95,0l.05,0a2.22,2.22,0,0,0,0-2.66,1.11,1.11,0,0,0-1.57.07l0,0a.87.87,0,0,0,.18,1c.18.13.42,0,.44,0a.75.75,0,0,1-.8.44c-.4,0-.6-.71-.53-1.13s.8-1,.95-1a2.45,2.45,0,0,1,2.83,1.37,3.6,3.6,0,0,1,0,2.91.56.56,0,0,1-.12.2H185l-1,1.71h0v12h-8.13v-12h0l-1-1.71h-1.18l-.11-.2a3.72,3.72,0,0,1-.11-3Z"/><path d="M168.6,118.35h24.8V92.24h-4.91a2.2,2.2,0,0,1,0,1c-.16.51.42.78.31.87h2.38v22.42H168.6V94.13h2.58c-.11,0,.47-.36.29-.87a2.91,2.91,0,0,1,0-1h-4.91v26.11Z"/><path d="M245.19,130.21v-1.6H223.93V127h16.84v-1.88h-19v-1.58h14.16v-1.89H221.75V120.1h9.65v-1.89h-9.65v-1.57h5v-1.87h-5v-.93a3.54,3.54,0,0,0,1.93-1.6,7,7,0,0,1,.6-3.6A5.46,5.46,0,0,1,227,106a5,5,0,0,0-2.62-2.07,4.67,4.67,0,0,0-2.91,0,6.94,6.94,0,0,0-.78-3.71,6.14,6.14,0,0,0-2.22-2.44,4.55,4.55,0,0,0,.13-3.58,3.4,3.4,0,0,0-6.66,0,4.73,4.73,0,0,0,.15,3.62,6.84,6.84,0,0,0-2.22,2.44,7.37,7.37,0,0,0-.78,3.72,4.58,4.58,0,0,0-2.88,0,4.8,4.8,0,0,0-1.72,1h-6.33V91.1h8.18A5,5,0,0,1,205,88.15c0-.85,1.16-1.13,1.91-2.09a7.1,7.1,0,0,0,1.54-5.71,8,8,0,0,0-1.16-2.82,5.55,5.55,0,0,0-4.2-2.38,4.4,4.4,0,0,0-3.64,1.07,3.69,3.69,0,0,0-.8,3.08,2.87,2.87,0,0,1,2.42-.66,2.21,2.21,0,0,1,1.73,1.89,2.55,2.55,0,0,1-1.86,3.09l-.18,0a3.51,3.51,0,0,1-4.07-1.47A8.25,8.25,0,0,1,195.58,80a8.63,8.63,0,0,1-.38-2,4,4,0,0,1,.8-3.31,3.52,3.52,0,0,1,1.87-.87l-.49-.85h0L196,70.53h-3.15v-2h.91c.4,1.26,1.24,1.8,4.24-.31a8.27,8.27,0,0,1,2.87-.43h0A4.71,4.71,0,0,1,199.64,65c0-.8.69-1,1.4-1.89a6.65,6.65,0,0,0,1.18-5.4,6.24,6.24,0,0,0-.89-2A5.51,5.51,0,0,0,197.64,53a3.39,3.39,0,0,0-3.13.8,3.7,3.7,0,0,0-.76,2.91,2.57,2.57,0,0,1,2.23-.85,2.51,2.51,0,0,1,1.93,1.71,3.1,3.1,0,0,1-2.22,3.63,3.19,3.19,0,0,1-3.47-2c-.55-1.05-1.31-2.54-1.87-3.6v-.27h0c-.13-.42-.31-.87-.51-1.49a1.5,1.5,0,0,1,0-.89h1.74a7.42,7.42,0,0,1,2.22-3.46,3.85,3.85,0,0,1,2.82-.78c-.27-.6-.62-1.65-.91-2.22v-.14h-5.49V44.44H192a1.14,1.14,0,0,0,.58,0H193v-.15a8,8,0,0,0,1.67-1,6.53,6.53,0,0,1,2.36-.34h0a4.21,4.21,0,0,1-1-2.22c0-.66.58-.82,1.16-1.55a5.6,5.6,0,0,0,1-4.45,5.75,5.75,0,0,0-.68-1.84,4.74,4.74,0,0,0-3.07-2.09,2.82,2.82,0,0,0-2.6.67,2.92,2.92,0,0,0-.6,2.42,2.19,2.19,0,0,1,1.87-.51,1.57,1.57,0,0,1,1.33,1.29,2.21,2.21,0,0,1-1.66,2.66l-.1,0A2.22,2.22,0,0,1,190,36c-.33-.62-.75-1.37-1.17-2.06l-1.45-8.18h-2.64a2.22,2.22,0,0,0-1.29-1.4,3,3,0,0,1,.44-.85,4.26,4.26,0,0,0,1.4.32c1.51.11,2.22-1.83,2.22-1.83a8.5,8.5,0,0,1,.54-3.8,5.2,5.2,0,0,1,2.46-2.82,4.66,4.66,0,0,0-2.37-2.22,3.64,3.64,0,0,0-2.6,0,8.21,8.21,0,0,0-.71-3.91,6.41,6.41,0,0,0-2-2.58A5.62,5.62,0,0,0,183,2.87a3,3,0,0,0-6,0,5.62,5.62,0,0,0,.13,3.75,6.68,6.68,0,0,0-2,2.58,8.34,8.34,0,0,0-.69,3.91,3.7,3.7,0,0,0-2.62,0,4.6,4.6,0,0,0-2.36,2.22,5.14,5.14,0,0,1,2.45,2.82,8.5,8.5,0,0,1,.55,3.8s.78,1.94,2.22,1.83a4.2,4.2,0,0,0,1.4-.32,2.78,2.78,0,0,1,.45.85,2.2,2.2,0,0,0-1.31,1.4h-2.65l-1.33,7.89c-.4.71-.85,1.44-1.16,2.06a2.29,2.29,0,0,1-4.4-1.15l0-.11A1.58,1.58,0,0,1,167,33.11a2.19,2.19,0,0,1,1.87.51,3.09,3.09,0,0,0-.62-2.42,2.78,2.78,0,0,0-2.58-.67,4.76,4.76,0,0,0-3.09,2.09,6.12,6.12,0,0,0-.69,1.84,5.68,5.68,0,0,0,1,4.45c.58.73,1.09.89,1.15,1.55a4,4,0,0,1-1,2.23h0a6.23,6.23,0,0,1,2.35.33A8.65,8.65,0,0,0,167,44v.44h.49a1.22,1.22,0,0,0,.6,0h1.71v1.71h-5.49v.14c-.26.64-.62,1.68-.88,2.22a3.88,3.88,0,0,1,2.82.78,7.53,7.53,0,0,1,1.8,2.55,7.11,7.11,0,0,1,.29.89h1.84a1.68,1.68,0,0,1,0,.89l-.44,1.46h0l-2,3.89A3,3,0,0,1,162,57.35a2.51,2.51,0,0,1,2-1.71,2.56,2.56,0,0,1,2.22.84,3.56,3.56,0,0,0-.73-2.91,3.5,3.5,0,0,0-3.16-.8,5.5,5.5,0,0,0-3.69,2.78,5.91,5.91,0,0,0-.91,2.05,6.7,6.7,0,0,0,1.2,5.4c.69.88,1.31,1.08,1.4,1.88A4.92,4.92,0,0,1,159,67.66h0a8.19,8.19,0,0,1,2.87.42c3,2.23,3.84,1.58,4.24.31h.92v2h-3.16l-1.36,2.47h0l-.48.85a3.44,3.44,0,0,1,1.86.86,4,4,0,0,1,.82,3.31,10,10,0,0,1-.22,2.11,8.55,8.55,0,0,1-1.09,2.23,3.48,3.48,0,0,1-4.06,1.46,2.53,2.53,0,0,1-2.07-2.92,1.6,1.6,0,0,1,.05-.21,2.21,2.21,0,0,1,1.71-1.89,2.9,2.9,0,0,1,2.44.67,3.91,3.91,0,0,0-.82-3.09,4.44,4.44,0,0,0-3.62-1.07,5.52,5.52,0,0,0-4.2,2.38,7.59,7.59,0,0,0-1.16,2.82,7,7,0,0,0,1.53,5.71c.76,1,1.8,1.25,1.92,2.09a5.16,5.16,0,0,1-1.38,3h8.15v13.75H155.6a4.76,4.76,0,0,0-1.71-1,4.67,4.67,0,0,0-2.91,0,6.94,6.94,0,0,0-.78-3.71A6.21,6.21,0,0,0,148,97.73a4.59,4.59,0,0,0,.13-3.58,3.4,3.4,0,0,0-6.66,0,4.69,4.69,0,0,0,0,3.62,6.75,6.75,0,0,0-2.22,2.44,7.26,7.26,0,0,0-.78,3.72,4.61,4.61,0,0,0-2.89,0,5,5,0,0,0-2.64,2.06,5.44,5.44,0,0,1,2.76,2.65,7,7,0,0,1,.62,3.6,3.47,3.47,0,0,0,1.91,1.6v.93h-5v1.87h5v1.57h-9.62v1.89h9.62v1.58H124v1.89h14.13v1.58h-19V127H136v1.58H114.72v1.6h-6.25v2.22H251.53v-2.22Zm-41-46.79a4.45,4.45,0,0,0-1.37-6.14,4.77,4.77,0,0,0-1.2-.53,4.25,4.25,0,0,1,2.93,1,4,4,0,0,1,1.58,2.87,5.56,5.56,0,0,1-.18,2.22c-.31.87-.45,1.24-1.07,1.56-.22,0-.66.42-.84.37a2.49,2.49,0,0,0-1.27,0A3.81,3.81,0,0,0,204.15,83.42Zm-3.37,3.24a1.43,1.43,0,0,0,.8-.18,1.11,1.11,0,0,1,1.39.73,1,1,0,0,1,.05.38,1.33,1.33,0,0,1-.89,1.31,4.18,4.18,0,0,1-1,0,5.79,5.79,0,0,0,0-1,3.06,3.06,0,0,0-.8-1.31A1.13,1.13,0,0,0,200.78,86.66Zm-1.71-26.31a3.78,3.78,0,0,0,.37-3.44,4.88,4.88,0,0,0-2.89-2.67,4.15,4.15,0,0,1,2.63,1.22,3.82,3.82,0,0,1,1.29,2.47,6.12,6.12,0,0,1,0,1.91,3,3,0,0,1-.76,1.58.62.62,0,0,1-.83.28l0,0c-.42-.26-.86,0-1.24,0a4.84,4.84,0,0,0,1.47-1.31Zm-3.25,3.25c.36,0,.56.2.67.13.8-.49,1.2-.42,1.53.35s-.33,1.65-.82,2a2.88,2.88,0,0,1-1.69.73,7.79,7.79,0,0,0,.56-2.22,2.56,2.56,0,0,0-.69-1.16,1.41,1.41,0,0,0,.44.14Zm-34.71-1.92a.61.61,0,0,1-.89-.26,3,3,0,0,1-.75-1.58,6.79,6.79,0,0,1,0-1.91,4,4,0,0,1,1.29-2.47,4.17,4.17,0,0,1,2.64-1.22,4.77,4.77,0,0,0-2.89,2.67,3.82,3.82,0,0,0,.38,3.44,4.66,4.66,0,0,0,1.53,1.4c-.44-.07-.91-.31-1.31,0Zm3.25,5.18a3,3,0,0,1-1.71-.73c-.49-.4-1.14-1.31-.83-2s.76-.84,1.54-.35a1.87,1.87,0,0,0,.69-.13,1.73,1.73,0,0,0,.44-.14,2.49,2.49,0,0,0-.71,1.16,6.79,6.79,0,0,0,.58,2.26Zm-9.25,17.58c-.6-.31-.75-.69-1-1.56a5,5,0,0,1-.2-2.22,4,4,0,0,1,1.6-2.87,4.25,4.25,0,0,1,2.82-1,4.49,4.49,0,0,0-2.58,6.69,3.59,3.59,0,0,0,1.54,1.29,2.48,2.48,0,0,0-1.27,0C155.78,84.77,155.36,84.44,155.11,84.44Zm3.65,3.49a5.79,5.79,0,0,0,0,1,4.18,4.18,0,0,1-1,0,1.31,1.31,0,0,1-.89-1.31,1.08,1.08,0,0,1,1-1.17,1.09,1.09,0,0,1,.44.06,1.26,1.26,0,0,0,.78.17,1.08,1.08,0,0,0,.49-.15,2.81,2.81,0,0,0-.82,1.29ZM219,111.28a4.26,4.26,0,0,0-1.31-2.62,3.81,3.81,0,0,0-2.09-1H215a3.81,3.81,0,0,0-2.09,1,4.49,4.49,0,0,0-1.34,2.62,5.83,5.83,0,0,1,1.09-5.09,4.51,4.51,0,0,1,2.22-1.24h.76a4.43,4.43,0,0,1,2.22,1.24A5.83,5.83,0,0,1,219,111.28Zm-6.06.78c.91-1.42,1-2.22,1.69-2.47l.64-.31h0l.69.33c.71.31.78,1,1.69,2.47a6.19,6.19,0,0,0,.71.91h-6.2A6.3,6.3,0,0,0,212.89,112.06ZM211,114.92h1v12h-1Zm7.46,0h1.07v12h-1.07Zm3.83-9.51a3.36,3.36,0,0,1,2.22.56,6.56,6.56,0,0,0-1.69,2.22,6.74,6.74,0,0,0-.51,3.49,1.16,1.16,0,0,1-.6.49,1.45,1.45,0,0,1-1.22,0,6.44,6.44,0,0,0,.44-2.85,6.63,6.63,0,0,0-.87-2.66A3.5,3.5,0,0,1,222.29,105.41Zm-11.11-4.11a5.73,5.73,0,0,1,3.13-3,3,3,0,0,1-1-2.47,2.9,2.9,0,0,1,1.8-2.42h.44a2.89,2.89,0,0,1,1.78,2.42,3.11,3.11,0,0,1-1,2.47,5.73,5.73,0,0,1,3.13,3,6.24,6.24,0,0,1,.16,4.65,5.84,5.84,0,0,0-4-2.8H215a5.91,5.91,0,0,0-2.47,1.09A6.34,6.34,0,0,0,211,106,6.24,6.24,0,0,1,211.18,101.3Zm-2.8,4.11a3.37,3.37,0,0,1,2.22,1.16,6.69,6.69,0,0,0-.34,5.6,1.45,1.45,0,0,1-1.22,0,1.36,1.36,0,0,1-.6-.49,6.74,6.74,0,0,0-.51-3.49,6.44,6.44,0,0,0-1.69-2.22,3.44,3.44,0,0,1,2.09-.56Zm-4.27.83a5.27,5.27,0,0,1,2.22,2.4,6.85,6.85,0,0,1,.62,3.6,3.5,3.5,0,0,0,1.91,1.6V127h-1.08v-1.62h0v-1.89h-.12v-1.78h-5.37V120.1h5.4v-1.89h-9.51v-1.57h9.4v-1.87h-9.43v-2H206l-.49-1.67h-7.36v-1.47h7.16l-.8-1.49h-6.36v-1.88Zm-42.6,15.55h36.93v1.62h-37Zm42.22,3.51v1.62H156.09V125.3Zm-13-54.86h-2.87v-2h2.87ZM168.78,66,171,56.33h3.33a3.43,3.43,0,0,0,2.76,3A2.22,2.22,0,0,0,179.31,56a1.46,1.46,0,0,0-2-.53,1.08,1.08,0,0,0-.49,1,.71.71,0,0,0,.91.6c.25-.15.14-.22.25-.22s.24.2.22.35-.49.38-.78.4a1.91,1.91,0,0,1-1.78-1.8c0-.68.43-1.44.87-1.51s.47.38,1.16.63c.26,0,.82.26,1.13,0a1.31,1.31,0,0,0,.18-1,1.75,1.75,0,0,0,.64-.76,2.22,2.22,0,0,0,0-1.82c-.15-.31-.35-.47-.31-.67s.29-.2.47-.4h0c.18.2.42.18.46.4s-.15.36-.28.67a2.22,2.22,0,0,0,0,1.82,1.94,1.94,0,0,0,.66.76,1.35,1.35,0,0,0,.16,1c.31.33.89.15,1.15,0,.69-.25.78-.67,1.16-.63s.87.83.84,1.51a1.85,1.85,0,0,1-1.77,1.8c-.29,0-.74-.15-.78-.4s0-.35.24-.35.11.15.25.22a.77.77,0,0,0,.91-.6,1.06,1.06,0,0,0-.51-1,1.45,1.45,0,0,0-2,.52h0a2.19,2.19,0,0,0,2.22,3.27,3.4,3.4,0,0,0,2.73-3H189L191.18,66Zm6.66,2.47v2h-1.57v-2Zm1.89,0h1.58v2h-1.58Zm3.49,1.8V68.44h1.56v2h-1.56Zm3.47-1.8h1.55v2h-1.55ZM193.84,64a1.8,1.8,0,0,1,.71,1.11,1.5,1.5,0,0,1,0,.89h-1.93l-.42-1.91a1.77,1.77,0,0,1,1.71-.14ZM178.91,46.24v-1.8h1.91v1.71Zm3.47,0v-1.8h1.91v1.71Zm-5-1.8v1.71h-1.78V44.44Zm10.42,1.71h-1.91V44.44h1.91ZM195.49,37a3.28,3.28,0,0,0,.22-3,3.85,3.85,0,0,0-2.38-2.22,3.13,3.13,0,0,1,2.22,1,3.41,3.41,0,0,1,.87,2,6.61,6.61,0,0,1,0,1.54,1.88,1.88,0,0,1-.55,1.06c-.14.18-.52.62-.65.6a4.35,4.35,0,0,0-1,0,3.39,3.39,0,0,0,1.29-1Zm-2.76,2.6c.29,0,.47.14.56,0a.83.83,0,0,1,1.1.39l0,.08c.27.62-.35,1.07-.78,1.4a1.12,1.12,0,0,1-1,.29,3.51,3.51,0,0,0,.33-1.42,2.2,2.2,0,0,0-.57-1,.78.78,0,0,0,.35.18Zm-5-.6h-2.22a7.44,7.44,0,0,0,.49-1.24,3.39,3.39,0,0,0,0-.78,1.48,1.48,0,0,0-.16-.58L185.6,36a1.21,1.21,0,0,1,.13-.62,6.19,6.19,0,0,0-.11-2.23,7.33,7.33,0,0,0-2.22-3.71,6.43,6.43,0,0,0-1.2-.8h.09a2.78,2.78,0,0,0,1.91-1h1.47Zm-8.24-12.68a1.62,1.62,0,0,0-1.83-.43.83.83,0,0,0-.33.8c0,.34.51.54.71.43s.22-.16.31-.16,0,0,0,.22-.26.23-.57.18a1.4,1.4,0,0,1-.63-.22V25.55h-.24l.13-.11c.14-.11.42,0,1,.14.22,0,.69.2.93,0a.79.79,0,0,0,.23-.63,1.3,1.3,0,0,0,.53-.51.31.31,0,0,1-.1-.43.32.32,0,0,1,.43-.09.31.31,0,0,1,.1.43.28.28,0,0,1-.1.09,1.39,1.39,0,0,0,.54.51.75.75,0,0,0,.22.63c.26.24.73.11.95,0,.56-.16.69-.23,1-.14s0,0,.15.11h-.17v1.54a1.59,1.59,0,0,1-.69.24c-.34,0-.58,0-.6-.18a.54.54,0,0,1,0-.22.35.35,0,0,1,.29.16.62.62,0,0,0,.73-.43.77.77,0,0,0-.36-.8,1.58,1.58,0,0,0-1.8.43,1.45,1.45,0,0,0,0,1.53l-.46-.22h0l-.49.22a1.45,1.45,0,0,0,.18-1.58Zm.46-2.63a1.26,1.26,0,0,0-.11-.57c-.13-.23-.38-.36-.33-.51s.24-.14.38-.27h0c.15.13.33.13.37.27s-.2.28-.31.51a1.19,1.19,0,0,0,0,.53ZM176.6,20.8a7,7,0,0,1,1-5.38,3.72,3.72,0,0,1,2-1.29h.69a3.81,3.81,0,0,1,2,1.29,7,7,0,0,1,1,5.38A4.73,4.73,0,0,0,182.07,18a3.08,3.08,0,0,0-1.89-1h-.51a3.19,3.19,0,0,0-1.89,1,5,5,0,0,0-1.18,2.71Zm9.58-6.18a2.65,2.65,0,0,1,1.93.58,6.64,6.64,0,0,0-1.51,2.42,8.42,8.42,0,0,0-.47,3.69,1.35,1.35,0,0,1-.53.53,1.21,1.21,0,0,1-1.11,0,7.88,7.88,0,0,0,.4-3A8.16,8.16,0,0,0,184.2,16a2.91,2.91,0,0,1,2-1.37Zm-10-4.33A5.76,5.76,0,0,1,179,7.15a3.48,3.48,0,0,1-.91-2.59A3,3,0,0,1,179.73,2h.34a3,3,0,0,1,1.6,2.54,3.39,3.39,0,0,1-.91,2.59,5.68,5.68,0,0,1,2.82,3.14,7.72,7.72,0,0,1,.15,4.89,6.19,6.19,0,0,0-1.37-1.8,5,5,0,0,0-2.23-1.16h-.57a5,5,0,0,0-2.23,1.16,6,6,0,0,0-1.35,1.8,7.48,7.48,0,0,1,.22-4.94Zm-1.93,11.55a1.58,1.58,0,0,1-.56-.53,8.12,8.12,0,0,0-.44-3.69,7.26,7.26,0,0,0-1.51-2.42,2.63,2.63,0,0,1,1.93-.58,3,3,0,0,1,2,1.22,7.59,7.59,0,0,0-.71,2.91,8.14,8.14,0,0,0,.4,3,1.17,1.17,0,0,1-1.09.07Zm3.51-.22c.82-1.49.89-2.22,1.53-2.62l.58-.31h0l.62.31c.62.33.69,1.13,1.51,2.62a5,5,0,0,0,.89,1.16,1.94,1.94,0,0,0-.53.77,1.41,1.41,0,0,0-.11.54,1.93,1.93,0,0,0-.58.22.76.76,0,0,0-.22-.4.64.64,0,0,0-.38-.22,1.81,1.81,0,0,0,.44-1.16c0-1-1.24-1.58-1.6-1.4h-.11c-.35-.18-1.53.45-1.58,1.4a1.61,1.61,0,0,0,.45,1.16.62.62,0,0,0-.4.22.79.79,0,0,0-.22.4,1.6,1.6,0,0,0-.56-.22,1,1,0,0,0-.11-.54,2.26,2.26,0,0,0-.53-.77,4.65,4.65,0,0,0,1-1.2Zm-3.62,5.93h1.46a2.79,2.79,0,0,0,1.89,1.05h.33a6.93,6.93,0,0,0-1.22.8,7.47,7.47,0,0,0-2.22,3.71,6.37,6.37,0,0,0,0,2.22,3.25,3.25,0,0,0,.13.62,2.88,2.88,0,0,0-.22.38,2.79,2.79,0,0,0-.18.58,2,2,0,0,0,0,.78,5.49,5.49,0,0,0,.47,1.22h-2.22Zm-5.47,12.29a1.66,1.66,0,0,1,2,.47h6.51l-.91-.89a3.81,3.81,0,0,1-.62-.71,2.36,2.36,0,0,1-.22-2.07,1.92,1.92,0,0,1,2.22-1.18s.67.25.73.76a.79.79,0,0,1-.42.84.57.57,0,0,1-.6-.33.37.37,0,0,0,.36,0,.71.71,0,0,0,.11-.76,1,1,0,0,0-1.4,0,1.53,1.53,0,0,0,0,1.92,1.87,1.87,0,0,0,2.47,0,2.23,2.23,0,0,0,.37-2.76,2.84,2.84,0,0,0-1.26-1,3.09,3.09,0,0,0-1,0,1.43,1.43,0,0,0-.6.17c-.35.18-.44.32-.51.29a4.74,4.74,0,0,1,1.13-3.2,6.17,6.17,0,0,1,2.87-2.06h0a6,6,0,0,1,2.87,2.06,4.49,4.49,0,0,1,1.13,3.2,4.41,4.41,0,0,0-.49-.29,1.39,1.39,0,0,0-.6-.17,2.7,2.7,0,0,0-1.06,0,2.93,2.93,0,0,0-1.27,1,2.35,2.35,0,0,0,.38,2.76,1.9,1.9,0,0,0,2.49,0,1.56,1.56,0,0,0,0-1.92,1,1,0,0,0-1.4,0,.72.72,0,0,0,.13.76c.13.09.33,0,.35,0a.6.6,0,0,1-.62.33.79.79,0,0,1-.42-.84c0-.51.69-.73.76-.76a1.89,1.89,0,0,1,2.22,1.18,2.47,2.47,0,0,1-.2,2.07,2.93,2.93,0,0,1-.65.71l-.89.89h6.51a1.66,1.66,0,0,1,2-.47,1.76,1.76,0,0,1,.58.93,1.29,1.29,0,0,1-.34,1.2h-23a1.29,1.29,0,0,1-.31-1.2,1.45,1.45,0,0,1,.58-1Zm-4-1.89c-.13,0-.49-.42-.62-.6a1.75,1.75,0,0,1-.56-1.06,7.92,7.92,0,0,1,0-1.54,3.38,3.38,0,0,1,.89-2,3.09,3.09,0,0,1,2.22-1A3.91,3.91,0,0,0,164.25,34a2.93,2.93,0,0,0,1.35,3.92l.22.1a3.59,3.59,0,0,0-1.13-.11Zm.73,2.22a.83.83,0,0,1,1.05-.5l.09,0h.55a1.34,1.34,0,0,0,.38-.14,2.32,2.32,0,0,0-.58,1,3.65,3.65,0,0,0,.34,1.42,1.18,1.18,0,0,1-1.05-.29c-.4-.51-1-.95-.78-1.66Zm6.67,4.32H174V46.2h-1.89Zm1.73,8.35a3.88,3.88,0,0,1,.71-1.31,3.52,3.52,0,0,1,2.38-1.16,51.1,51.1,0,0,0-6.31,0,6.33,6.33,0,0,0-.71-1.06,5,5,0,0,0-.62-.6h21.4a4.25,4.25,0,0,0-.6.6,5.93,5.93,0,0,0-.74,1.06,56.91,56.91,0,0,0-6.66,0A3.5,3.5,0,0,1,185,51.53a4.2,4.2,0,0,1,.72,1.31H188a9.55,9.55,0,0,0,0,1.07,5.91,5.91,0,0,0,.24.82h-2.78a2.51,2.51,0,0,0-1.68-1.87,2.24,2.24,0,0,0-1.69.51,1,1,0,0,0-.27-.62,1.1,1.1,0,0,0-.53-.31,2.45,2.45,0,0,0,.55-1.6c0-1.35-1.4-2.42-1.84-2.22h0c-.45-.27-1.78.8-1.85,2.22a2.59,2.59,0,0,0,.58,1.6,1,1,0,0,0-.55.31,1.51,1.51,0,0,0-.32.58,2.18,2.18,0,0,0-1.68-.51,2.53,2.53,0,0,0-1.69,1.86h-2.71a7.08,7.08,0,0,0,.24-.82,6.25,6.25,0,0,0,0-1.06ZM166,64a1.79,1.79,0,0,1,1.75.11L167.29,66h-1.93a1.36,1.36,0,0,1,0-.89,1.9,1.9,0,0,1,.57-1.09Zm3.22,4.44h2.89v2H169.2Zm2,22.71a3.74,3.74,0,0,1-.16-1.2,2.26,2.26,0,0,1,.16-1H160.4a2.81,2.81,0,0,1,0-.58c0-.51.2-1,.85-1.06s1.31,0,2,0h7.11l.2-1.18a9,9,0,0,1,.92-2.38,6.8,6.8,0,0,1,1.91-1.91,3.72,3.72,0,0,1-.43-1.42,4.06,4.06,0,0,1,.16-1.51H169l-1.18,6.66h-2.09L167,78.42a8.76,8.76,0,0,0,.31-1.67h6.47a3.37,3.37,0,0,1,.4-1.27,3.11,3.11,0,0,1,1.16-1.2H167a5.94,5.94,0,0,0-.49-1.13l-.13-.16h27.33l-.16.16a5.83,5.83,0,0,0-.46,1.13h-9.31a3.2,3.2,0,0,1,1.22,1.2,3.76,3.76,0,0,1,.44,1.27h7.27a8.76,8.76,0,0,0,.31,1.67l1.33,7.08h-2.09l-1.17-6.66H187a4.28,4.28,0,0,1,.16,1.51,3.89,3.89,0,0,1-.42,1.42c.51.51,1.26.78,1.89,1.91a9.34,9.34,0,0,1,.93,2.38l.18,1.18h9.09c.89,0,.82.55.84,1.06a1.88,1.88,0,0,1,0,.58H188.87a3.36,3.36,0,0,1,.13,1.05,4.5,4.5,0,0,1-.16,1.2h6.67V120h-31V91.1Zm-15.31,15.18h5.95v1.89H155.4l-.78,1.49h7.14v1.44H154.4l-.46,1.67h7.82v2h-9.42v1.87h9.37v1.58H152.2v1.88h5.4v1.58h-5.4v1.78h0v1.89h0V127h-1V113.84a3.54,3.54,0,0,0,1.93-1.6,7,7,0,0,1,.6-3.6,5.31,5.31,0,0,1,2.09-2.4ZM149,114.92v12h-1.07v-12Zm-.58-3.64a4.31,4.31,0,0,0-1.31-2.62,3.81,3.81,0,0,0-2.09-1h-.58a3.81,3.81,0,0,0-2.09,1,4.42,4.42,0,0,0-1.33,2.62,5.8,5.8,0,0,1,1.09-5.09,4.47,4.47,0,0,1,2.22-1.24h.78a4.43,4.43,0,0,1,2.22,1.24,5.78,5.78,0,0,1,1,5.09Zm-6.07.78c.92-1.42,1-2.22,1.69-2.47l.65-.31h0l.69.33c.71.31.77,1,1.68,2.47a6.26,6.26,0,0,0,.72.91h-6.2a6.64,6.64,0,0,0,.75-.93Zm-1.88,2.86h1v12h-1Zm11.11-9.51a3.37,3.37,0,0,1,2.22.56,6.56,6.56,0,0,0-1.69,2.22,6.74,6.74,0,0,0-.51,3.49,1.16,1.16,0,0,1-.6.49,1.45,1.45,0,0,1-1.22,0,6.69,6.69,0,0,0-.34-5.6A3.5,3.5,0,0,1,151.54,105.41Zm-11.11-4.11a5.73,5.73,0,0,1,3.13-3,3,3,0,0,1-1-2.47,2.9,2.9,0,0,1,1.8-2.42h.44a2.89,2.89,0,0,1,1.78,2.42,3.11,3.11,0,0,1-1,2.47,5.73,5.73,0,0,1,3.13,3,6.24,6.24,0,0,1,.16,4.65,5.84,5.84,0,0,0-4-2.8h-.64a5.91,5.91,0,0,0-2.47,1.09,6.34,6.34,0,0,0-1.51,1.71,6.24,6.24,0,0,1,.22-4.65Zm-3.29,7a6.47,6.47,0,0,0-1.69-2.22,3.42,3.42,0,0,1,2.22-.56,3.33,3.33,0,0,1,2.22,1.16,6.66,6.66,0,0,0-.33,5.6,1.45,1.45,0,0,1-1.22,0,1.38,1.38,0,0,1-.6-.49,6.85,6.85,0,0,0-.56-3.49ZM136,128.88h87.81v1.38H136Z"/><path d="M69.34,186.12a14,14,0,0,0-1.86-5.62c-1.92-1.91-5.4-2-7.94-2H56.7c-.11,9.51-.25,19.06-.25,28.58,0,5.26,2.23,5.22,6.67,5.66v1.76H44.45v-1.76c1.69-.22,4.25,0,5.34-1.62a12.29,12.29,0,0,0,.75-5.27c0-5.09.14-10.26.14-15.35V178.63H44.12c-3.89.22-5.58,4.22-6.91,7.36a16.6,16.6,0,0,1-1.67-.47l2.72-10.78h.86c1,1.76,2.51,1.87,4.29,1.87h23A3.8,3.8,0,0,0,70,174.7h.83c.33,3.93.33,7.51.33,11.24A9.68,9.68,0,0,1,69.34,186.12Z"/><path d="M90.78,214.58v-1.46c1,0,3.36,0,3.89-1a35.88,35.88,0,0,0,.76-8.46c0-4.76.51-11.67-6.16-11.67a12.66,12.66,0,0,0-5.91,2.22V209c0,4.44.94,3.55,4.45,4v1.46H74.47V213c1.16,0,3.72,0,4.07-1.49a13.86,13.86,0,0,0,0-3V176.43a28.89,28.89,0,0,0-3.67-1.78v-.42l8.47-3.75v.62c0,6.66-.22,13.33-.22,20V193c3.13-2.22,4.75-4.45,8.89-4.45a7.37,7.37,0,0,1,4.86,2.23c3,3,2.91,6.48,2.91,10.42,0,3-.35,6-.35,8.88,0,3.36,1.62,2.72,4.24,3v1.47Z"/><path d="M118.12,215.34a12.23,12.23,0,0,1-11.65-12.29,15.35,15.35,0,0,1,4.18-11.11,11.55,11.55,0,0,1,7.82-3.35,9.42,9.42,0,0,1,9.73,8.88c-5.66.23-11.28.47-17,.47a8.34,8.34,0,0,0,0,1.73v.87a10.1,10.1,0,0,0,9.58,10.61H121a10.42,10.42,0,0,0,7-3.78l.87.76A13.56,13.56,0,0,1,118.12,215.34Zm4.11-22.62a4.91,4.91,0,0,0-4.69-2.6c-3.42,0-5.4,3.71-5.91,6.66a70.21,70.21,0,0,0,11.49-.93A6.74,6.74,0,0,0,122.23,192.72Z"/><path d="M166.53,214.58v-1.69c2.38,0,4.76-.17,5.65-2.08a6.12,6.12,0,0,0-.25-3.31c-.68-2.54-1.8-6-3-9.63H157.8c-1,2.67-1.86,5.11-2.73,7.6a15.9,15.9,0,0,0-1.16,4.94c.11,2.48,3.43,2.22,5.27,2.48v1.69H145.62v-1.69c2,0,2.56-.46,3.14-1.15a17.23,17.23,0,0,0,3-5.16c3-6.66,6.66-16.57,9.91-24.71a9.27,9.27,0,0,0,.93-4,11.84,11.84,0,0,0,4.45-3.89h.28c3.78,12,6.56,20.87,9.58,30.09a49.14,49.14,0,0,0,2.42,6.31,5.75,5.75,0,0,0,5.23,2.55v1.69Zm-2.66-33.15c-.8,1.91-2.36,6.31-5.33,14.42h9.86C166.38,189.47,165.05,184.67,163.87,181.43Z"/><path d="M198.38,214.34h-1.51a9.24,9.24,0,0,1-2.23,0v10.42c.23,2.78,3,2.09,4.91,2.44v1.45H185.42v-1.4c2.09-.16,4.45-.22,4.45-3v-31.1a23.84,23.84,0,0,0-3.94-1.74v-.75c2.85-1.16,5.62-2.23,8.51-3.31v4.75c2.23-1.38,5.23-3.64,8-3.64a11.83,11.83,0,0,1,8.69,4.44,13.75,13.75,0,0,1,2.67,7.71C213.91,208.72,206,214.05,198.38,214.34Zm4.44-21.8a9,9,0,0,0-3.2-.73,8.67,8.67,0,0,0-5.15,1.84v15a7.7,7.7,0,0,0,6.66,4.05,6.05,6.05,0,0,0,3-.87,11.12,11.12,0,0,0,4.74-9.84,9.68,9.68,0,0,0-6-9.47Z"/><path d="M236.91,215.54l-.29-.25c0-1.15-.25-2.37-.25-3.53a.56.56,0,0,0-.22-.51H236c-.53,0-5.51,4.11-9,4.11-6.67,0-7-7.29-7-12.22,0-3.07.23-6.16.23-9.22s-1.67-2.45-3.76-2.89v-1.18c2.85-.44,5.69-.73,8.51-1v17.33c0,3.55.87,6.22,4.94,6.22a10.61,10.61,0,0,0,6.37-3.27c0-5.08.11-10.19.11-15.28a1.65,1.65,0,0,0-.4-1.34,15.92,15.92,0,0,0-4.44-1.33v-1c3.13-.4,6.27-.69,9.4-1,0,6.66-.13,13.55-.13,20.33a14.23,14.23,0,0,0,.13,1.73,17.33,17.33,0,0,0,4.11.76v1Z"/><path d="M266.66,194.81a13.76,13.76,0,0,0-4.8-2,4.67,4.67,0,0,0-4.18,4.44v12.4a4.07,4.07,0,0,0,.51,2.22c.76,1.16,3.83,1.27,5.11,1.38v1.47H248.39v-1.47c2.23,0,4.45,0,4.45-3V193.43a33.67,33.67,0,0,0-3.93-1.76v-.75c2.84-1.09,5.84-2.09,8.68-3.18v6.13c.76-.86,1.51-1.66,2.23-2.53a6.79,6.79,0,0,1,4.93-3,6,6,0,0,1,3.93,2.55C268,192.21,267.33,193.54,266.66,194.81Z"/><path d="M294.28,194.81c-2.44,4.75-4.71,9.62-6.95,14.44a36.7,36.7,0,0,0-2.23,6.09h-1.44A49.56,49.56,0,0,0,281,208c-1.4-3.66-2.91-7.2-4.45-10.8a43.37,43.37,0,0,0-2.22-5.26,3.25,3.25,0,0,0-3-1.27v-1.46h12.93v1.4c-1.33.17-4.18,0-4.18,2,0,1,3.65,10.15,4.23,11.6s1.11,2.95,1.69,4.44c1.08-1.91,6.66-14.2,6.66-15.75,0-2-2.91-2.23-4.29-2.23v-1.4H299v1.47C296.48,190.76,295.26,192.83,294.28,194.81Z"/><path d="M317.57,215.21c-1.62,0-2.45-2.67-2.91-3.87-2.23,1.2-7.58,3.93-10.2,3.93s-3-3.31-3-5.26c0-2.74.29-4.29,3-5.51s7.09-2.23,10.2-3.25V197c0-3-.87-5.85-5.23-5.85a3.71,3.71,0,0,0-3.71,1.85,11.43,11.43,0,0,0-.46,3.49h-4.62a2.2,2.2,0,0,1,.8-2.09,40.83,40.83,0,0,1,6.44-4.8,9.68,9.68,0,0,1,4.44-1.51,7.14,7.14,0,0,1,7,7.32v11.94c0,1.51-.36,4.11,1.87,4.11a6.71,6.71,0,0,0,2.77-1l.52.86C323.12,212.32,319.19,215.21,317.57,215.21Zm-2.91-12.51c-2.23.51-7,1.55-8.34,3.53a4,4,0,0,0-.71,2.22,3.86,3.86,0,0,0,3.49,3.64,12.84,12.84,0,0,0,5.56-2.22Z"/><path d="M82.23,277.76c-2.78,0-5.56,0-8.36.11v-1.69c.83,0,3.72.13,3.72-1.2s-1.45-2.22-2.09-3c-2.78-3.07-5.56-6-8.36-9.11-.62-.69-2.22-2.6-3.06-2.83a1.51,1.51,0,0,0-.52,0A13.71,13.71,0,0,0,62,260v11.65a5.11,5.11,0,0,0,.57,2.95c1,1.34,3.43,1.45,5,1.56v1.58c-3.2,0-6.44-.11-9.62-.11-2.22,0-4.71,0-7,.11v-1.69c1.4-.16,3.89,0,4.82-1.2a12.73,12.73,0,0,0,.58-5.34V255.27c0-2.22.29-11.49-.75-12.76s-3.72-.93-5-1.11v-1.66h17v1.66c-1.45.14-3.47-.22-4.69.71s-.82,4-.87,5.38v10.8h.4c2.78,0,4.65-2.62,6.38-4.44s8-8.4,8-10.6c0-1.69-3-1.58-4.18-1.76v-1.66h15v1.66c-5.16.31-5,.71-8.58,4.14-1.8,1.73-3.47,3.75-5.22,5.55s-3.29,3.78-5,5.62c2,1.91,3.85,4.07,5.69,6.09,2.56,2.73,5.11,5.44,7.65,8.18a37.69,37.69,0,0,0,4.44,4.22,6.56,6.56,0,0,0,3,.87v1.6Z"/><path d="M103.16,278.51a12.21,12.21,0,0,1-11.64-12.29,15.55,15.55,0,0,1,4.18-11.11,11.65,11.65,0,0,1,7.82-3.35,9.45,9.45,0,0,1,9.73,8.89c-5.67.24-11.29.46-17,.46a10.11,10.11,0,0,0,0,1.74v.89a10.12,10.12,0,0,0,9.61,10.59h.19a10.43,10.43,0,0,0,7-3.77l.86.75A13.45,13.45,0,0,1,103.16,278.51Zm4-22.6a4.93,4.93,0,0,0-4.71-2.62c-3.42,0-5.37,3.71-5.91,6.67a66.07,66.07,0,0,0,11.49-.94A6.67,6.67,0,0,0,107.18,255.91Z"/><path d="M148.54,277.76v-1.45c1.08,0,3.53-.18,4.28-1.11a6.58,6.58,0,0,0,.65-3.35c.11-2.56.33-5.12.33-7.65a16.59,16.59,0,0,0-.86-6.09,5.76,5.76,0,0,0-5.16-2.84,10.32,10.32,0,0,0-6,2.22,13.71,13.71,0,0,1,0,2.22v13.74a3.66,3.66,0,0,0,.35,1.75c.52,1.05,3,1.09,4,1.16v1.4H132.43v-1.45c1,0,3.77,0,4.28-1.22a38.13,38.13,0,0,0,.47-7.47v-5.4a15.83,15.83,0,0,0-.47-4.44,5.72,5.72,0,0,0-5.17-2.89,10.54,10.54,0,0,0-6.07,2.22c-.18,0-.29.18-.29.45v14.95a6,6,0,0,0,.34,2.45c.68,1.22,3.06,1.15,4.28,1.26v1.54H116.07v-1.45c3.53-.24,4.29,0,4.29-3.82V256.36a29.91,29.91,0,0,0-3.93-1.74v-.75l8.89-3.29v5.56c1.2-.69,2.22-1.69,3.4-2.43a11.3,11.3,0,0,1,6.33-2.51,7.37,7.37,0,0,1,5.38,3.2,11.51,11.51,0,0,1,1.11,2.22c3.13-2.22,5.4-5.15,9.62-5.15a7.79,7.79,0,0,1,5.44,3.24,12.36,12.36,0,0,1,2.22,7.94c0,3.49-.46,7-.46,10.48s1.62,2.85,4.44,3.2v1.43Z"/><path d="M176.42,277.53h-1.51a9.16,9.16,0,0,1-2.22,0v10.54c.24,2.77,3,2.09,4.93,2.42v1.44H163.47v-1.37c2.09-.18,4.44-.25,4.44-3V256.49a24.76,24.76,0,0,0-3.95-1.73V254c2.84-1.15,5.64-2.22,8.53-3.29v4.76c2.33-1.4,5.22-3.67,8-3.67a11.93,11.93,0,0,1,8.69,4.45,13.83,13.83,0,0,1,2.67,7.71C192,271.91,184.07,277.25,176.42,277.53Zm4.45-21.79a7.74,7.74,0,0,0-8.36,1.08v15a7.7,7.7,0,0,0,6.67,4.06,6.2,6.2,0,0,0,3-.86,11.14,11.14,0,0,0,4.76-9.87,9.66,9.66,0,0,0-6-9.44Z"/><path d="M202.84,277.76h-2.37c-2.23,0-4.29,0-6.49.11v-1.45c4.44-.4,4.62-.4,4.62-5.11V257.58c0-.18,0-.4-.16-.51-.75-.42-3-1.4-3.89-1.8v-.58l8.89-3.49v20.4c0,4.45.42,4.45,4.71,4.82v1.34Zm-2.09-31.11a3,3,0,1,1,3-3A3,3,0,0,1,200.75,246.65Z"/><path d="M227.49,277.76v-1.45c1.11,0,3.59-.18,4.44-1.11a6.68,6.68,0,0,0,.64-3.35c0-2.67.29-5.27.29-7.94a15.21,15.21,0,0,0-.89-6.09,5.72,5.72,0,0,0-5.15-2.84,9.68,9.68,0,0,0-6,2.38c-.29.22-.29.4-.29.75-.22,4.63,0,9.38,0,14,0,4,1.15,3.72,4.44,4.18v1.45H211.11v-1.45c1.33,0,3.71,0,4.22-1.69.22-.8.18-6.31.18-7.42V256.36c-1.29-.69-2.62-1.16-4-1.74v-.75l8.89-3.29v5.56c1.22-.69,2.22-1.8,3.42-2.56a11,11,0,0,1,6.27-2.38,7.91,7.91,0,0,1,5.33,3.2,12.48,12.48,0,0,1,2.22,7.94c0,3.6-.46,7.19-.46,10.77s1.62,2.85,4.44,3.2v1.45Z"/><path d="M259.08,276.25a10.67,10.67,0,0,1-6.66,2.22,27.4,27.4,0,0,1-6.38-.87c-.29-2.22-.65-4.44-.93-6.49l1.55-.35c1.4,2.6,2.45,6.31,6.05,6.31a4.31,4.31,0,0,0,4.67-3.91.66.66,0,0,0,0-.14c0-7.06-12-6.15-12-14.26,0-4.45,4.29-7.07,8.29-7.07a22.89,22.89,0,0,1,4.94.69h.4a3.47,3.47,0,0,0,1.33-.36c.4,2.23.75,4.45,1,6.67l-1.45.33c-1.15-2.66-3.06-5.91-6.37-5.91a3.86,3.86,0,0,0-4.23,4.07c0,2.44,1.51,3.24,3.29,4.44,3.71,2.49,8.89,4,8.89,9.47A8.59,8.59,0,0,1,259.08,276.25Z"/><path d="M264.44,277.76v-1.45c1.15,0,3.49.22,3.82-1.22a18.5,18.5,0,0,0,.29-4c.13-7.71.18-15.31.18-23v-8.29a35.88,35.88,0,0,0-3.6-1.84v-.4c2.77-1.29,5.62-2.51,8.46-3.78v.58c0,3.42-.11,6.77-.17,10.2-.12,8.06-.23,16.17-.23,24.24v3.82c0,3.71,1,3.65,4.16,3.82v1.34Zm15.55,0v-1.34c.87,0,3.18,0,3.18-1.22,0-.91-6.49-7.58-7.64-8.69l-2.23-2A37,37,0,0,0,280,259.2c.64-.62,3-2.95,3-3.82,0-1.22-2.38-1.38-3.18-1.44v-1.45h12v1.45a11,11,0,0,0-6.67,2.84c-2.42,1.91-4.75,4-7.13,6,2.95,3.19,5.86,6.37,8.89,9.46,1.11,1.09,2.22,2.38,3.48,3.42a4,4,0,0,0,2.67.69v1.45Z"/><path d="M304.57,277.76h-2.36c-2.22,0-4.29,0-6.49.11v-1.45c4.45-.4,4.65-.4,4.65-5.11V257.58c0-.18,0-.4-.18-.51-.75-.42-3-1.4-3.89-1.8v-.58l8.89-3.49v20.4c0,4.45.4,4.45,4.69,4.82v1.34Zm-2.09-31.11a3,3,0,1,1,3-3,3,3,0,0,1-3,3Z"/><path d="M155.05,343a12.64,12.64,0,0,1,3.68.29,4.1,4.1,0,0,1,3,3.87,3.32,3.32,0,0,1-2.84,3.53,4.65,4.65,0,0,1,.58,8.89,9.89,9.89,0,0,1-3.78.44H149V343Zm-2.91,6.67h3.28c2,0,3-.62,3-1.87s-1.22-2.11-3-2.11h-3.24Zm0,7.49h4.13c1.87,0,2.95-.65,2.95-2.34s-1.08-2.6-3.64-2.6h-3.44Z"/><path d="M167.36,360l7.24-17h3l7.18,17h-3.62l-1.51-3.86H172.4L170.91,360Zm6.11-6.66h5.13L176,346.75Z"/><path d="M194.18,357.13h7.17V360H191v-17h3.18Z"/><path d="M207.8,342.93H211v17h-3.2Z"/><rect x="56.7" y="314.62" width="246.6" height="2.2"/></g></svg>