<svg id="Layer_1" data-name="Layer 1" xmlns="http://www.w3.org/2000/svg" viewBox="0 0 600 120"><title>aston-v-dark</title><path d="M287.72,96.71h1.47v6.37h7.69V96.71h1.54v15.12h-1.54v-7.28h-7.69v7.28h-1.54V96.71Z"/><path d="M309.27,96.36a7.89,7.89,0,0,1,8,8,7.87,7.87,0,0,1-7.9,7.9,7.7,7.7,0,0,1-5.67-2.3,7.55,7.55,0,0,1-2.31-5.6,8.16,8.16,0,0,1,1.05-4.06,7.72,7.72,0,0,1,2.87-2.94A8.34,8.34,0,0,1,309.27,96.36Zm.07,1.47a6.25,6.25,0,0,0-3.15.84,7,7,0,0,0-2.38,2.38,6.57,6.57,0,0,0-.84,3.29,6.45,6.45,0,0,0,6.37,6.44,6.77,6.77,0,0,0,3.29-.84,6,6,0,0,0,2.3-2.31,6.86,6.86,0,0,0,0-6.58,6.76,6.76,0,0,0-5.59-3.22Z"/><path d="M318.85,98.18V96.71h8.26v1.47h-3.36v13.65h-1.54V98.18Z"/><path d="M329.35,96.71H338v1.47h-7.14v4.76H338v1.47h-7.07v6H338v1.47h-8.61Z"/><path d="M340.61,96.71h1.54v13.65H348v1.47h-7.35Z"/><path d="M367.62,106.23l1.05,1a18.26,18.26,0,0,1-1.89,1.54c.42.35,1,.91,1.61,1.54a12.62,12.62,0,0,1,1.33,1.47h-2.1l-2-2.1a13.27,13.27,0,0,1-3.08,2,7.34,7.34,0,0,1-2.52.49,4,4,0,0,1-2.8-1,3.33,3.33,0,0,1-1.05-2.52,3.85,3.85,0,0,1,.7-2.24,14.25,14.25,0,0,1,2.94-2.87,14.48,14.48,0,0,1-1.61-2.24,3.42,3.42,0,0,1-.35-1.33,2.4,2.4,0,0,1,.84-1.89,3.91,3.91,0,0,1,2.52-.84,4.87,4.87,0,0,1,1.75.35,2.89,2.89,0,0,1,1.19,1,2.47,2.47,0,0,1,.42,1.33,3.19,3.19,0,0,1-.56,1.61,9.63,9.63,0,0,1-2.1,2.17l2.31,2.38,1.47,1.54A21.17,21.17,0,0,0,367.62,106.23Zm-6.85-1.54a14.56,14.56,0,0,0-2.52,2.31,2.77,2.77,0,0,0-.63,1.61,2.09,2.09,0,0,0,.7,1.54,2.62,2.62,0,0,0,1.82.63,4.45,4.45,0,0,0,1.61-.35,11.89,11.89,0,0,0,2.8-1.75l-2.38-2.45A16.07,16.07,0,0,1,360.77,104.69Zm.21-2a9.5,9.5,0,0,0,1.68-1.68,2,2,0,0,0,.42-1,1.1,1.1,0,0,0-.49-.91,2,2,0,0,0-1.33-.35,2,2,0,0,0-1.33.42,1.1,1.1,0,0,0-.49.91,1.41,1.41,0,0,0,.21.77A6.73,6.73,0,0,0,361,102.73Z"/><path d="M392,99.51l-1.18.91a6.4,6.4,0,0,0-2.38-2,7.25,7.25,0,0,0-3-.63,7,7,0,0,0-3.36.84,5.83,5.83,0,0,0-2.38,2.31,6.57,6.57,0,0,0-.84,3.29,6.28,6.28,0,0,0,1.89,4.62,6.44,6.44,0,0,0,4.76,1.82,6.69,6.69,0,0,0,5.32-2.52l1.18.91a7.82,7.82,0,0,1-2.79,2.24,9.34,9.34,0,0,1-3.78.77,7.74,7.74,0,0,1-6.23-2.66,8,8,0,0,1-1.89-5.39,7.55,7.55,0,0,1,2.31-5.6,7.86,7.86,0,0,1,5.81-2.24,8.85,8.85,0,0,1,3.85.84A9.1,9.1,0,0,1,392,99.51Z"/><path d="M402.19,96.36a7.89,7.89,0,0,1,8.05,8,7.55,7.55,0,0,1-2.31,5.6,8.05,8.05,0,0,1-11.27,0,7.55,7.55,0,0,1-2.31-5.6,8.16,8.16,0,0,1,1-4.06,7.72,7.72,0,0,1,2.87-2.94A8.34,8.34,0,0,1,402.19,96.36Zm.07,1.47a6.25,6.25,0,0,0-3.15.84,7,7,0,0,0-2.38,2.38,6.57,6.57,0,0,0-.84,3.29,6.45,6.45,0,0,0,6.37,6.44,6.77,6.77,0,0,0,3.29-.84,6.1,6.1,0,0,0,2.31-2.31,6.86,6.86,0,0,0,0-6.58,5.83,5.83,0,0,0-2.38-2.31A5.75,5.75,0,0,0,402.26,97.83Z"/><path d="M413.32,111.83V96.71h.35l10.07,11.62V96.71h1.47v15.12h-.35l-10-11.48v11.48Z"/><path d="M427.73,96.71h1.61l5,11.69,5.11-11.69h1.61l-6.58,15.12h-.35Z"/><path d="M443.68,96.71h8.68v1.47h-7.14v4.76h7.07v1.47h-7.07v6h7.07v1.47h-8.61Z"/><path d="M455,111.83V96.71h.35l10.08,11.62V96.71h1.47v15.12h-.35l-10-11.48v11.48Z"/><path d="M469,98.18V96.71h8.26v1.47h-3.36v13.65h-1.54V98.18Z"/><path d="M479.23,96.71h1.54v15.12h-1.54Z"/><path d="M491.41,96.36a7.89,7.89,0,0,1,8,8,7.55,7.55,0,0,1-2.31,5.6,8,8,0,0,1-11.26,0,7.55,7.55,0,0,1-2.31-5.6,8.16,8.16,0,0,1,1.05-4.06,7.72,7.72,0,0,1,2.87-2.94A8.34,8.34,0,0,1,491.41,96.36Zm.07,1.47a6.25,6.25,0,0,0-3.15.84,7,7,0,0,0-2.38,2.38,6.57,6.57,0,0,0-.84,3.29,6.45,6.45,0,0,0,6.37,6.44,6.73,6.73,0,0,0,3.28-.84,6.1,6.1,0,0,0,2.31-2.31,6.86,6.86,0,0,0,0-6.58,6.8,6.8,0,0,0-5.59-3.22Z"/><path d="M502.53,111.83V96.71h.35L513,108.33V96.71h1.47v15.12h-.35l-10-11.48v11.48Z"/><path d="M537.94,99.51l-1.19.91a6.4,6.4,0,0,0-2.38-2,7.25,7.25,0,0,0-3-.63,7,7,0,0,0-3.36.84,5.83,5.83,0,0,0-2.38,2.31,6.57,6.57,0,0,0-.84,3.29,6.28,6.28,0,0,0,1.89,4.62,6.44,6.44,0,0,0,4.76,1.82,6.69,6.69,0,0,0,5.32-2.52l1.19.91a7.94,7.94,0,0,1-2.8,2.24,9.34,9.34,0,0,1-3.78.77,7.74,7.74,0,0,1-6.23-2.66,8,8,0,0,1-1.89-5.39,7.55,7.55,0,0,1,2.31-5.6,7.86,7.86,0,0,1,5.81-2.24,8.85,8.85,0,0,1,3.85.84A9.26,9.26,0,0,1,537.94,99.51Z"/><path d="M541,96.71h8.67v1.47h-7.2v4.76h7.06v1.47h-7.06v6h7.06v1.47H541V96.71Z"/><path d="M552.28,111.83V96.71h.35l10.08,11.62V96.71h1.47v15.12h-.35l-10-11.48v11.48Z"/><path d="M566.35,98.18V96.71h8.25v1.47h-3.36v13.65h-1.53V98.18Z"/><path d="M576.84,96.71h8.68v1.47h-7.14v4.76h7.07v1.47h-7.07v6h7.07v1.47h-8.61Z"/><path d="M588.18,96.71h3a18.35,18.35,0,0,1,3.43.21,3.68,3.68,0,0,1,2.16,1.33,3.91,3.91,0,0,1,.84,2.52,4.34,4.34,0,0,1-.56,2.17,3.34,3.34,0,0,1-1.67,1.4,6.89,6.89,0,0,1-3,.49l5.45,7h-1.89l-5.45-7h-.84v7h-1.54V96.71Zm1.47,1.47v5.11h2.59a6.22,6.22,0,0,0,2.24-.28,2.4,2.4,0,0,0,1.12-.91,2.55,2.55,0,0,0-1.05-3.71,5.75,5.75,0,0,0-2.24-.28h-2.66Z"/><path d="M38.49,7.76,74.51,85H66.15L54,59.57H20.77L8.72,85H.13L36.62,7.76Zm-1,16.43-13.21,28H50.71Z"/><path d="M76.56,69.51l6.26-3.74Q89.39,78,98.08,77.93a15,15,0,0,0,7-1.7,12.7,12.7,0,0,0,5-4.62,12.13,12.13,0,0,0,1.69-6.14,12.37,12.37,0,0,0-2.51-7.25C106.91,55,102.7,51,96.62,46.41s-10-8-11.47-10.06a18.47,18.47,0,0,1-3.91-11.23,17.23,17.23,0,0,1,2.28-8.77A15.78,15.78,0,0,1,90,10.15a18.64,18.64,0,0,1,9.06-2.28,19.41,19.41,0,0,1,9.71,2.58c3,1.69,6.2,4.85,9.59,9.47l-6,4.56c-2.75-3.68-5.15-6.08-7.08-7.25a12.15,12.15,0,0,0-6.37-1.76,9.93,9.93,0,0,0-7.25,2.69,8.91,8.91,0,0,0-2.81,6.67,12.06,12.06,0,0,0,1,4.68,16.41,16.41,0,0,0,3.63,4.91q1.49,1.41,9.47,7.37c6.38,4.68,10.76,8.89,13.1,12.57a20.59,20.59,0,0,1,3.57,11.06,18.93,18.93,0,0,1-6.08,13.91,20.44,20.44,0,0,1-14.8,5.91,21.6,21.6,0,0,1-12.16-3.57C82.93,79.1,79.6,75.06,76.56,69.51Z"/><path d="M126.85,15.36V7.76h42.34v7.6H151.94v69.7H144V15.36Z"/><path d="M213.75,7.76c11.11,0,20.47,3.74,27.95,11.16A37.23,37.23,0,0,1,253,46.35a37.47,37.47,0,0,1-11.23,27.43,39.25,39.25,0,0,1-55,0A36.9,36.9,0,0,1,175.56,46.7a38.87,38.87,0,0,1,5.15-19.65A37,37,0,0,1,194.57,12.9,38,38,0,0,1,213.75,7.76ZM214.1,15a30.2,30.2,0,0,0-15.5,4.27,30.58,30.58,0,0,0-11.4,11.46,31.74,31.74,0,0,0-4.09,16.08,30.22,30.22,0,0,0,9.06,22.16,30,30,0,0,0,21.93,9A31.6,31.6,0,0,0,230,73.78a29.38,29.38,0,0,0,11.34-11.35,31.53,31.53,0,0,0,4.1-16,30.93,30.93,0,0,0-4.1-15.85A32,32,0,0,0,214.1,15Z"/><path d="M266.32,85V7.76H268L319.42,67V7.76H327V85h-1.75l-51-58.48V85Z"/><path d="M340.53,85.24V49.39H348c5.38,0,9.23.41,11.69,1.29A15.69,15.69,0,0,1,367.78,57a19.51,19.51,0,0,1,2.92,10.77,18.66,18.66,0,0,1-2.34,9.47,14.77,14.77,0,0,1-6,6c-2.45,1.29-6,1.93-10.41,1.93h-11.4Zm3.39-3.39h4.15c5,0,8.42-.29,10.29-.94a12.06,12.06,0,0,0,6.38-4.73,14.82,14.82,0,0,0,2.34-8.37,15.27,15.27,0,0,0-2.52-8.89,12.35,12.35,0,0,0-7-5c-2.23-.71-6-1-11.12-1h-2.51Z"/><path d="M378.72,49.39h20.52V52.9h-17V64.13h16.84v3.51H382.28V81.73h16.84v3.51h-20.4Z"/><path d="M406.55,85.24V49.39h.76l23.86,27.49V49.39h3.51V85.24h-.82L410.18,58.11V85.24Z"/><path d="M444.45,49.39h7.13a42.26,42.26,0,0,1,8.3.53,9.21,9.21,0,0,1,5,3.1,9.06,9.06,0,0,1,1.93,5.9,8.85,8.85,0,0,1-1.93,5.91A9.66,9.66,0,0,1,459.65,68a45.11,45.11,0,0,1-9.12.58H448V85.24h-3.56V49.39Zm3.62,3.51V65.07l6.08.05a16.83,16.83,0,0,0,5.38-.64,5.8,5.8,0,0,0,2.69-2.16,6,6,0,0,0,1-3.34,5.79,5.79,0,0,0-1-3.27,5.28,5.28,0,0,0-2.57-2.11,15.61,15.61,0,0,0-5.2-.64h-6.38Z"/><path d="M489.71,49.39l16.72,35.85h-3.86L497,73.43H481.52l-5.61,11.81h-4l17-35.85ZM489.3,57l-6.14,13h12.28Z"/><path d="M509.36,78.57l3-1.81c2.16,4,4.62,5.91,7.43,5.91a7.57,7.57,0,0,0,3.39-.82,5.67,5.67,0,0,0,2.39-2.28,6,6,0,0,0,.82-3,5.87,5.87,0,0,0-1.22-3.51,28.61,28.61,0,0,0-6.15-5.73,31,31,0,0,1-5.55-4.92,8.84,8.84,0,0,1-1.93-5.49,8.15,8.15,0,0,1,1.11-4.27,8.25,8.25,0,0,1,3.16-3,8.79,8.79,0,0,1,4.44-1.11A9.51,9.51,0,0,1,525,49.74a16.47,16.47,0,0,1,4.68,4.62l-2.93,2.23a12.59,12.59,0,0,0-3.45-3.51,5.7,5.7,0,0,0-3.1-.88,4.76,4.76,0,0,0-3.56,1.34,4.21,4.21,0,0,0-1.41,3.22,6.41,6.41,0,0,0,.47,2.28,8.26,8.26,0,0,0,1.76,2.4A56.76,56.76,0,0,0,522.11,65a25.53,25.53,0,0,1,6.37,6.14,9.75,9.75,0,0,1,1.75,5.38,9.18,9.18,0,0,1-3,6.78,9.92,9.92,0,0,1-7.19,2.87,10.49,10.49,0,0,1-5.91-1.76A16.21,16.21,0,0,1,509.36,78.57Z"/><path d="M553.63,49.39l16.72,35.85h-3.86l-5.61-11.81H545.44l-5.61,11.81h-4l17-35.85Zm-.47,7.6L547,70H559.3Z"/><path d="M577.13,49.39h7.14a46.86,46.86,0,0,1,8.07.47,9.11,9.11,0,0,1,5.2,3.16,8.78,8.78,0,0,1,2,5.9,9.49,9.49,0,0,1-1.4,5.15,8.79,8.79,0,0,1-3.92,3.33,17.6,17.6,0,0,1-7.08,1.17L600,85.24h-4.44L582.63,68.57h-2V85.24H577V49.39Zm3.57,3.51V65.07l6.2.05a15,15,0,0,0,5.32-.7,5.52,5.52,0,0,0,2.69-2.16,6,6,0,0,0,.94-3.34,5.79,5.79,0,0,0-1-3.27,5.33,5.33,0,0,0-2.57-2.11A16,16,0,0,0,587,52.9Z"/></svg>