<svg id="Layer_1" data-name="Layer 1" xmlns="http://www.w3.org/2000/svg" viewBox="0 0 360 360"><title>aston-h-dark</title><path d="M42.25,89.65l39.67,85.07H72.71l-13.4-28H22.73l-13.26,28H0L40.19,89.65Zm-1.1,18.09L26.6,138.53H55.71Z"/><path d="M84.17,157.65l6.89-4.12q7.25,13.42,16.81,13.4a16.64,16.64,0,0,0,7.66-1.87A13.92,13.92,0,0,0,121,160a13.4,13.4,0,0,0,1.87-6.76,13.69,13.69,0,0,0-2.77-8c-2.51-3.6-7.15-7.92-13.85-13s-11-8.82-12.62-11.07a20.3,20.3,0,0,1-4.32-12.37,18.92,18.92,0,0,1,2.52-9.66A17.34,17.34,0,0,1,99,92.29a20.5,20.5,0,0,1,10-2.52,21.4,21.4,0,0,1,10.69,2.84C123,94.48,126.48,98,130.22,103l-6.64,5c-3-4-5.66-6.69-7.79-8a13.37,13.37,0,0,0-7-1.93,10.92,10.92,0,0,0-8,3,9.83,9.83,0,0,0-3.09,7.34,13.16,13.16,0,0,0,1.09,5.15,18,18,0,0,0,4,5.41q1.65,1.55,10.44,8.12c7,5.15,11.85,9.79,14.42,13.84a22.65,22.65,0,0,1,3.93,12.17,20.83,20.83,0,0,1-6.7,15.33A22.47,22.47,0,0,1,108.58,175a23.87,23.87,0,0,1-13.4-3.93C91.19,168.21,87.52,163.77,84.17,157.65Z"/><path d="M139.56,98V89.65h46.62V98h-19v76.76h-8.69V98Z"/><path d="M235.26,89.65c12.23,0,22.54,4.12,30.78,12.3a41,41,0,0,1,12.43,30.2A42.24,42.24,0,0,1,236,174.72q-18.06,0-30.39-12.37a40.57,40.57,0,0,1-12.37-29.81,42.74,42.74,0,0,1,5.67-21.64,40.74,40.74,0,0,1,15.26-15.59A42,42,0,0,1,235.26,89.65Zm.38,7.92a33.21,33.21,0,0,0-17.06,4.7A33.66,33.66,0,0,0,206,114.89a35,35,0,0,0-4.51,17.71,34,34,0,0,0,34.13,34.33,34.74,34.74,0,0,0,17.45-4.58,32.27,32.27,0,0,0,12.5-12.49,34.74,34.74,0,0,0,4.51-17.65,34.62,34.62,0,0,0-34.46-34.64Z"/><path d="M293.15,174.72V89.65H295l56.61,65.23V89.65H360v85.07h-1.93l-56.16-64.4v64.4Z"/><path d="M42.12,256.06h1.35v5.86h7.08v-5.86H52V270H50.55v-6.7H43.47V270H42.05V256.06Z"/><path d="M62,255.74a7.26,7.26,0,0,1,7.41,7.34,6.94,6.94,0,0,1-2.13,5.15,7.39,7.39,0,0,1-10.36,0,6.94,6.94,0,0,1-2.13-5.15,7.45,7.45,0,0,1,1-3.74,7,7,0,0,1,2.64-2.7A7.65,7.65,0,0,1,62,255.74Zm.07,1.35a5.8,5.8,0,0,0-2.9.77,6.55,6.55,0,0,0-2.19,2.19,6.09,6.09,0,0,0-.77,3A5.94,5.94,0,0,0,62,269a6.25,6.25,0,0,0,3-.77,5.59,5.59,0,0,0,2.13-2.13,6.33,6.33,0,0,0,0-6.05A5.42,5.42,0,0,0,65,257.92,5.36,5.36,0,0,0,62,257.09Z"/><path d="M70.78,257.41v-1.35h7.6v1.35h-3.1V270H73.87V257.41Z"/><path d="M80.44,256.06h8v1.35H81.85v4.38h6.51v1.35H81.85v5.48h6.51V270H80.44Z"/><path d="M90.81,256.06h1.41v12.56h5.35V270H90.81Z"/><path d="M115.66,264.82l1,1a16.7,16.7,0,0,1-1.74,1.42c.39.32.9.84,1.48,1.42A12.54,12.54,0,0,1,117.6,270h-1.94L113.8,268a12.31,12.31,0,0,1-2.84,1.8,6.7,6.7,0,0,1-2.32.45,3.67,3.67,0,0,1-2.57-.9,3,3,0,0,1-1-2.32,3.54,3.54,0,0,1,.65-2.06,12.93,12.93,0,0,1,2.7-2.64,13.63,13.63,0,0,1-1.48-2.06,3.21,3.21,0,0,1-.32-1.23,2.21,2.21,0,0,1,.77-1.73,3.57,3.57,0,0,1,2.32-.78,4.57,4.57,0,0,1,1.61.32,2.63,2.63,0,0,1,1.09,1,2.28,2.28,0,0,1,.39,1.22,2.91,2.91,0,0,1-.52,1.49,8.76,8.76,0,0,1-1.93,2l2.13,2.19,1.35,1.42A20.84,20.84,0,0,0,115.66,264.82Zm-6.31-1.42a13.71,13.71,0,0,0-2.32,2.12,2.61,2.61,0,0,0-.58,1.49,1.93,1.93,0,0,0,.65,1.41,2.38,2.38,0,0,0,1.67.58,4.1,4.1,0,0,0,1.48-.32,10.91,10.91,0,0,0,2.58-1.61l-2.19-2.25A14.66,14.66,0,0,1,109.35,263.4Zm.2-1.8a9,9,0,0,0,1.54-1.55,1.88,1.88,0,0,0,.39-1,1,1,0,0,0-.45-.83,2.27,2.27,0,0,0-2.45.06,1,1,0,0,0-.45.84,1.3,1.3,0,0,0,.19.71A6.55,6.55,0,0,0,109.55,261.6Z"/><path d="M138.08,258.63l-1.1.84a5.83,5.83,0,0,0-2.19-1.8,6.73,6.73,0,0,0-5.86.19,5.35,5.35,0,0,0-2.19,2.13,6.08,6.08,0,0,0-.77,3,5.77,5.77,0,0,0,1.74,4.25,5.92,5.92,0,0,0,4.38,1.68,6.17,6.17,0,0,0,4.89-2.32l1.1.84a7.41,7.41,0,0,1-2.58,2.06,8.61,8.61,0,0,1-3.48.71,7.11,7.11,0,0,1-5.73-2.45,7.4,7.4,0,0,1-1.74-5,6.93,6.93,0,0,1,2.13-5.15,7.2,7.2,0,0,1,5.34-2.06,8,8,0,0,1,3.54.77A8.59,8.59,0,0,1,138.08,258.63Z"/><path d="M147.48,255.74a7.24,7.24,0,0,1,7.4,7.34,6.93,6.93,0,0,1-2.12,5.15,7.4,7.4,0,0,1-10.37,0,6.94,6.94,0,0,1-2.13-5.15,7.56,7.56,0,0,1,1-3.74,7.06,7.06,0,0,1,2.64-2.7A7.69,7.69,0,0,1,147.48,255.74Zm.06,1.35a5.83,5.83,0,0,0-2.9.77,6.55,6.55,0,0,0-2.19,2.19,6.09,6.09,0,0,0-.77,3,5.94,5.94,0,0,0,5.86,5.92,6.29,6.29,0,0,0,3-.77,5.56,5.56,0,0,0,2.12-2.13,6.26,6.26,0,0,0,0-6.05,6.22,6.22,0,0,0-5.15-3Z"/><path d="M157.72,270V256.06H158l9.27,10.69V256.06h1.36V270h-.33l-9.21-10.56V270Z"/><path d="M171,256.06h1.49l4.63,10.75,4.7-10.75h1.48L177.23,270h-.32Z"/><path d="M185.67,256.06h8v1.35h-6.57v4.38h6.51v1.35h-6.51v5.48h6.51V270h-7.92Z"/><path d="M196,270V256.06h.32l9.27,10.69V256.06H207V270h-.32l-9.21-10.56V270Z"/><path d="M209,257.41v-1.35h7.6v1.35h-3.09V270h-1.42V257.41Z"/><path d="M218.38,256.06h1.42V270h-1.42Z"/><path d="M229.59,255.74a7.24,7.24,0,0,1,7.4,7.34,6.93,6.93,0,0,1-2.12,5.15,7.4,7.4,0,0,1-10.37,0,6.93,6.93,0,0,1-2.12-5.15,7.55,7.55,0,0,1,1-3.74,7.14,7.14,0,0,1,2.64-2.7A7.69,7.69,0,0,1,229.59,255.74Zm.06,1.35a5.83,5.83,0,0,0-2.9.77,6.43,6.43,0,0,0-2.18,2.19,6,6,0,0,0-.78,3,5.94,5.94,0,0,0,5.86,5.92,6.29,6.29,0,0,0,3-.77,5.66,5.66,0,0,0,2.13-2.13,6.33,6.33,0,0,0,0-6.05,5.48,5.48,0,0,0-2.19-2.13A5.56,5.56,0,0,0,229.65,257.09Z"/><path d="M239.83,270V256.06h.32l9.27,10.69V256.06h1.36V270h-.33l-9.2-10.56V270Z"/><path d="M272.42,258.63l-1.1.84a5.83,5.83,0,0,0-2.19-1.8,6.73,6.73,0,0,0-5.86.19,5.35,5.35,0,0,0-2.19,2.13,6.08,6.08,0,0,0-.77,3,5.77,5.77,0,0,0,1.74,4.25,5.92,5.92,0,0,0,4.38,1.68,6.17,6.17,0,0,0,4.89-2.32l1.1.84a7.41,7.41,0,0,1-2.58,2.06,8.61,8.61,0,0,1-3.48.71,7.11,7.11,0,0,1-5.73-2.45,7.4,7.4,0,0,1-1.74-5,6.93,6.93,0,0,1,2.13-5.15,7.2,7.2,0,0,1,5.34-2.06,8,8,0,0,1,3.54.77A8.59,8.59,0,0,1,272.42,258.63Z"/><path d="M275.25,256.06h8v1.35H276.6v4.38h6.51v1.35H276.6v5.48h6.51V270h-7.93V256.06Z"/><path d="M285.62,270V256.06h.32l9.27,10.69V256.06h1.36V270h-.33L287,259.41V270Z"/><path d="M298.56,257.41v-1.35h7.6v1.35h-3.09V270h-1.42V257.41Z"/><path d="M308.22,256.06h8v1.35h-6.57v4.38h6.5v1.35h-6.5v5.48h6.5V270h-7.92Z"/><path d="M318.65,256.06h2.77a16.89,16.89,0,0,1,3.16.19,3.42,3.42,0,0,1,2,1.22,3.64,3.64,0,0,1,.77,2.32,3.91,3.91,0,0,1-.52,2,3,3,0,0,1-1.54,1.29,6.4,6.4,0,0,1-2.77.45l5,6.44H325.8l-5-6.44H320V270h-1.42V256.06Zm1.36,1.35v4.7h2.38a5.56,5.56,0,0,0,2.06-.26,2.23,2.23,0,0,0,1-.83,2.33,2.33,0,0,0,0-2.58,2.48,2.48,0,0,0-1-.84,5.44,5.44,0,0,0-2.07-.25H320Z"/><path d="M41.92,233.84V194.36H50.1c5.93,0,10.18.45,12.88,1.42a17.29,17.29,0,0,1,9,6.95,21.52,21.52,0,0,1,3.22,11.85A20.57,20.57,0,0,1,72.58,225,16.51,16.51,0,0,1,66,231.65c-2.71,1.42-6.57,2.12-11.47,2.12H41.92Zm3.74-3.74h4.57c5.48,0,9.28-.32,11.34-1a13.29,13.29,0,0,0,7-5.21,16.35,16.35,0,0,0,2.57-9.21,16.81,16.81,0,0,0-2.77-9.79,13.64,13.64,0,0,0-7.72-5.54c-2.45-.77-6.57-1.09-12.24-1.09H45.66Z"/><path d="M84,194.36h22.6v3.87H87.91v12.36h18.54v3.86H87.91V230h18.54v3.87H84Z"/><path d="M114.63,233.84V194.36h.84l26.28,30.27V194.36h3.86v39.48h-.9L118.63,204v29.88Z"/><path d="M156.36,194.36h7.86a46.35,46.35,0,0,1,9.15.58,10.24,10.24,0,0,1,5.54,3.41,10,10,0,0,1,2.12,6.51,9.78,9.78,0,0,1-2.12,6.5,10.62,10.62,0,0,1-5.8,3.48c-1.8.45-5.15.64-10.05.64h-2.83v18.36H156.3V194.36Zm4,3.87v13.39l6.7.07A18.54,18.54,0,0,0,173,211a6.4,6.4,0,0,0,3-2.39,6.6,6.6,0,0,0,1.1-3.67,6.4,6.4,0,0,0-1.1-3.6,5.81,5.81,0,0,0-2.83-2.32,17.21,17.21,0,0,0-5.73-.71h-7Z"/><path d="M206.21,194.36l18.42,39.48h-4.25l-6.18-13h-17l-6.18,13h-4.38l18.68-39.48Zm-.45,8.37L199,217h13.52Z"/><path d="M227.85,226.5l3.35-2c2.38,4.38,5.09,6.51,8.18,6.51a8.19,8.19,0,0,0,3.73-.91,6.17,6.17,0,0,0,2.64-2.51,6.61,6.61,0,0,0,.9-3.28,6.46,6.46,0,0,0-1.35-3.87,31.49,31.49,0,0,0-6.76-6.31c-3.28-2.51-5.35-4.31-6.12-5.41a9.78,9.78,0,0,1-2.12-6.05,8.94,8.94,0,0,1,1.22-4.7,9.19,9.19,0,0,1,3.48-3.35,9.65,9.65,0,0,1,4.89-1.22,10.52,10.52,0,0,1,5.22,1.35,17.94,17.94,0,0,1,5.15,5.09L247,202.28a14.27,14.27,0,0,0-3.8-3.86,6.31,6.31,0,0,0-3.41-1,5.25,5.25,0,0,0-3.93,1.48,4.66,4.66,0,0,0-1.55,3.55,7.09,7.09,0,0,0,.52,2.51,9.22,9.22,0,0,0,1.93,2.64c.52.51,2.19,1.8,5.09,3.93a28.31,28.31,0,0,1,7,6.76,10.74,10.74,0,0,1,1.93,5.92,10.1,10.1,0,0,1-3.28,7.47,10.92,10.92,0,0,1-7.92,3.16,11.49,11.49,0,0,1-6.51-1.93A17.86,17.86,0,0,1,227.85,226.5Z"/><path d="M276.6,194.36,295,233.84h-4.25l-6.18-13h-17l-6.18,13H257l18.68-39.48Zm-.51,8.37L269.32,217h13.53Z"/><path d="M302.49,194.36h7.86a50.34,50.34,0,0,1,8.88.52,10.07,10.07,0,0,1,5.74,3.47,9.72,9.72,0,0,1,2.19,6.51,10.41,10.41,0,0,1-1.55,5.67,9.71,9.71,0,0,1-4.31,3.67,19.56,19.56,0,0,1-7.8,1.28l14.17,18.36h-4.89l-14.24-18.36h-2.25v18.36h-3.93V194.36Zm3.93,3.87v13.39l6.83.07a16.5,16.5,0,0,0,5.86-.78,6.09,6.09,0,0,0,3-2.38,6.59,6.59,0,0,0,1-3.67,6.45,6.45,0,0,0-1.1-3.61,5.82,5.82,0,0,0-2.83-2.32,17.46,17.46,0,0,0-5.8-.7Z"/></svg>