<svg id="Layer_1" data-name="Layer 1" xmlns="http://www.w3.org/2000/svg" viewBox="0 0 600 120"><title>atanaya-v-dark</title><path d="M125.63,72H97.81l-4.12,8a6.31,6.31,0,0,0-.86,2.62c0,1.22,1,2.06,3,2.53v1.33H75.59V85.14A5.66,5.66,0,0,0,78.32,84a11,11,0,0,0,2.15-3.24L103,37.18a7.9,7.9,0,0,0,1.07-3.32c0-1.27-.87-2.19-2.6-2.74V29.79h21.71v1.33c-1.77.47-2.65,1.29-2.65,2.45a5.76,5.76,0,0,0,.85,2.74L144.69,80a14.69,14.69,0,0,0,2.6,3.8,5.87,5.87,0,0,0,3,1.35v1.33H127.76V85.14c2-.3,3-1.16,3-2.57a6.33,6.33,0,0,0-.9-2.58Zm-3.85-7.76-9.92-20.19L101.77,64.26Z"/><path d="M176.06,39.13v43a2.77,2.77,0,0,0,.62,2,4.7,4.7,0,0,0,2.25,1.08v1.33H159.82V85.14a4.61,4.61,0,0,0,2.24-1.08,2.72,2.72,0,0,0,.63-2v-43h-19a3.22,3.22,0,0,0-2.06.57,4.12,4.12,0,0,0-1.17,2.09H139V27.13h1.44a4.43,4.43,0,0,0,1.19,2.09,3.14,3.14,0,0,0,2,.57H195a3.33,3.33,0,0,0,2.1-.57,4.12,4.12,0,0,0,1.17-2.09h1.43V41.79H198.3a4.12,4.12,0,0,0-1.17-2.09,3.33,3.33,0,0,0-2.1-.57Z"/><path d="M238.85,72H211l-4.12,8a6.26,6.26,0,0,0-.85,2.62c0,1.22,1,2.06,3,2.53v1.33H188.81V85.14A5.65,5.65,0,0,0,191.55,84a11.44,11.44,0,0,0,2.15-3.24l22.51-43.56a7.8,7.8,0,0,0,1.08-3.32c0-1.27-.87-2.19-2.6-2.74V29.79h21.7v1.33c-1.76.47-2.65,1.29-2.65,2.45a5.79,5.79,0,0,0,.86,2.74L257.92,80a14.45,14.45,0,0,0,2.6,3.8,5.83,5.83,0,0,0,3,1.35v1.33H241V85.14c2-.3,3-1.16,3-2.57a6.33,6.33,0,0,0-.9-2.58ZM235,64.26l-9.93-20.19L215,64.26Z"/><path d="M278.88,47.65V82.11a2.72,2.72,0,0,0,.63,2,4.61,4.61,0,0,0,2.24,1.08v1.33h-18V85.14A4.7,4.7,0,0,0,266,84.06a2.72,2.72,0,0,0,.63-2v-48A2.67,2.67,0,0,0,266,32.2a4.79,4.79,0,0,0-2.25-1.08V29.79h20.81v1.33c-1.28.3-1.93.94-1.93,1.91a3.3,3.3,0,0,0,1.26,2.2l33.77,32.51V34.11A2.67,2.67,0,0,0,317,32.2a4.8,4.8,0,0,0-2.24-1.08V29.79h18v1.33a4.8,4.8,0,0,0-2.24,1.08,2.67,2.67,0,0,0-.63,1.91v48a2.72,2.72,0,0,0,.63,2,4.71,4.71,0,0,0,2.24,1.08v1.33H313.5V85.14c1.25-.25,1.88-.84,1.88-1.78,0-.56-.73-1.53-2.2-2.91Z"/><path d="M384.68,72H356.86l-4.12,8a6.26,6.26,0,0,0-.85,2.62c0,1.22,1,2.06,3,2.53v1.33H334.64V85.14A5.61,5.61,0,0,0,337.37,84a11.21,11.21,0,0,0,2.16-3.24L362,37.18a7.8,7.8,0,0,0,1.08-3.32c0-1.27-.87-2.19-2.61-2.74V29.79h21.71v1.33c-1.77.47-2.65,1.29-2.65,2.45a5.79,5.79,0,0,0,.86,2.74L403.75,80a14.45,14.45,0,0,0,2.6,3.8,5.83,5.83,0,0,0,3,1.35v1.33H386.82V85.14c2-.3,3-1.16,3-2.57a6.28,6.28,0,0,0-.89-2.58Zm-3.84-7.76-9.93-20.19L360.82,64.26Z"/><path d="M436.05,62.74V82.11a2.68,2.68,0,0,0,.64,2,4.86,4.86,0,0,0,2.23,1.08v1.33H419.73V85.14A5.19,5.19,0,0,0,422,84.06a2.65,2.65,0,0,0,.67-2V62.74L402.91,37a27.11,27.11,0,0,0-4-4.46,6.92,6.92,0,0,0-3.48-1.39V29.79h24.17v1.33c-2,.3-3,1.16-3,2.57,0,.5.61,1.59,1.84,3.28l11,15.17L440.81,37c1.22-1.63,1.84-2.74,1.84-3.32a2.08,2.08,0,0,0-.81-1.64,4.39,4.39,0,0,0-2.2-.89V29.79h23.68v1.33a6.92,6.92,0,0,0-3.48,1.39,27.11,27.11,0,0,0-4,4.46Z"/><path d="M499.75,72H471.92l-4.12,8a6.42,6.42,0,0,0-.85,2.62c0,1.22,1,2.06,3,2.53v1.33H449.7V85.14A5.65,5.65,0,0,0,452.44,84a11.23,11.23,0,0,0,2.15-3.24L477.1,37.18a7.8,7.8,0,0,0,1.08-3.32c0-1.27-.87-2.19-2.6-2.74V29.79h21.7v1.33c-1.76.47-2.64,1.29-2.64,2.45a5.76,5.76,0,0,0,.85,2.74L518.81,80a14.69,14.69,0,0,0,2.6,3.8,5.87,5.87,0,0,0,3,1.35v1.33H501.88V85.14c2-.3,3-1.16,3-2.57A6.33,6.33,0,0,0,504,80Zm-3.85-7.76L486,44.07,475.89,64.26Z"/><path d="M502.15,11.82H335.34V10.74H502.2Z"/><path d="M266.43,11.82H99.62V10.74H266.49Z"/><path d="M274.42.05h13.4V4.27H283.4V22.51h-4.68V4.27h-4.3Z"/><path d="M289.72.05h4.68V8.53h8.1V.05h4.66V22.51H302.5V12.66h-8.1v9.85h-4.68Z"/><path d="M311.47.05h13.24V4.24h-8.66V8.3h8.66v4.1h-8.66v5.91h8.66v4.2H311.47Z"/><path d="M243.64,98.57H246v8l9.19-8h3.09l-11,9.56,11.9,11.74h-3.06L246,110v9.92h-2.35Z"/><path d="M260.19,104.12h2.19v7.35a14.45,14.45,0,0,0,.32,3.71,4.15,4.15,0,0,0,1.79,2.29,5.74,5.74,0,0,0,3.15.84,5.61,5.61,0,0,0,3.11-.82,4.23,4.23,0,0,0,1.76-2.15,14.09,14.09,0,0,0,.33-3.87v-7.35h2.24v7.73a11.54,11.54,0,0,1-.82,4.91,6,6,0,0,1-2.47,2.58,9.61,9.61,0,0,1-8.29,0,6,6,0,0,1-2.49-2.6,12,12,0,0,1-.82-5Z"/><path d="M280.12,98.27h2.19v5.85h3.47v1.75h-3.47v14h-2.19v-14h-3v-1.75h3Z"/><path d="M304.28,104.12v15.75h-2.16v-2.71A9.24,9.24,0,0,1,299,119.5a9,9,0,0,1-3.75.78,8.64,8.64,0,0,1-6.17-2.43,7.84,7.84,0,0,1-2.55-5.9,7.69,7.69,0,0,1,2.58-5.82,8.76,8.76,0,0,1,6.2-2.42,8.61,8.61,0,0,1,3.8.83,8.3,8.3,0,0,1,3,2.48v-2.9Zm-8.75,1.55a7.07,7.07,0,0,0-3.37.83,6.36,6.36,0,0,0-2.46,2.34,6,6,0,0,0,0,6.36,6.44,6.44,0,0,0,2.47,2.36,6.83,6.83,0,0,0,3.34.85,7.22,7.22,0,0,0,3.4-.84,6,6,0,0,0,3.35-5.5,6,6,0,0,0-1.95-4.56A6.69,6.69,0,0,0,295.53,105.67Z"/><path d="M315,98.57h4.53a11.57,11.57,0,0,1,4.21.61A5,5,0,0,1,326.1,101a4.77,4.77,0,0,1,.85,2.77,4.68,4.68,0,0,1-.75,2.58,5.31,5.31,0,0,1-2.19,1.89,8.87,8.87,0,0,1,2.76,1.33,5.31,5.31,0,0,1,1.5,1.83,5.16,5.16,0,0,1,.54,2.34,5.55,5.55,0,0,1-2,4.34,8,8,0,0,1-5.44,1.77H315Zm2.25,2.09v6.82h1.31a11.23,11.23,0,0,0,3.53-.41,3.8,3.8,0,0,0,1.79-1.31,3.28,3.28,0,0,0,.65-2,2.71,2.71,0,0,0-1.1-2.3,5.94,5.94,0,0,0-3.52-.83Zm0,9v8.17h2.85a11,11,0,0,0,3.69-.46,4.05,4.05,0,0,0,1.89-1.43,3.41,3.41,0,0,0,.71-2.1,3.46,3.46,0,0,0-1-2.47,5.21,5.21,0,0,0-2.75-1.45,22.13,22.13,0,0,0-4.09-.26Z"/><path d="M348.22,104.12v15.75h-2.16v-2.71A9.24,9.24,0,0,1,343,119.5a9,9,0,0,1-3.75.78,8.64,8.64,0,0,1-6.17-2.43,7.84,7.84,0,0,1-2.55-5.9,7.69,7.69,0,0,1,2.58-5.82,8.75,8.75,0,0,1,6.2-2.42,8.54,8.54,0,0,1,3.79.83,8.24,8.24,0,0,1,3,2.48v-2.9Zm-8.75,1.55a7.07,7.07,0,0,0-3.37.83,6.36,6.36,0,0,0-2.46,2.34,6,6,0,0,0,0,6.36,6.44,6.44,0,0,0,2.47,2.36,6.83,6.83,0,0,0,3.34.85,7.25,7.25,0,0,0,3.4-.84,6,6,0,0,0,3.34-5.5,6,6,0,0,0-1.94-4.56A6.69,6.69,0,0,0,339.47,105.67Z"/><path d="M351.09,98h2.19v21.83h-2.19Z"/><path d="M356.86,97.63a1.8,1.8,0,0,1,1.27.5,1.58,1.58,0,0,1,0,2.36,1.84,1.84,0,0,1-1.27.49,1.81,1.81,0,0,1-1.26-.49,1.58,1.58,0,0,1,0-2.36A1.78,1.78,0,0,1,356.86,97.63Zm-1.09,6.49H358v15.75h-2.19Z"/></svg>