<svg id="Layer_1" data-name="Layer 1" xmlns="http://www.w3.org/2000/svg" viewBox="0 0 360 360"><defs><style>.cls-1{fill:#bcaca1;}.cls-2{fill:#667238;}.cls-3{fill:#795941;}.cls-4{fill:#e22a2f;}.cls-5{fill:#907663;}</style></defs><title>atanaya-h</title><path class="cls-1" d="M153.08,261.11H19.28v-.87H153.12Z"/><path class="cls-1" d="M342.14,261.11H208.34v-.87H342.18Z"/><path class="cls-2" d="M182.55,12.06c.78-.54,1.17.06,2.11,5.22a117.12,117.12,0,0,1,1.56,12c.54,6.93-2.23,12.52-7.19,17.29-1.79,1.72-2.5,1.12-3.47-.55-3.33-5.73-3.49-11.73-1.63-17.92a48.61,48.61,0,0,1,5.9-12c1.83-2.87,1.17-2.54,2.72-4"/><path class="cls-3" d="M238.42,154.56c-10.7,4.51-21.58,7.95-33.46,5.92-3.73-.64-6.28,1.68-8.39,4.31-3.12,3.88-3.95,8.56-4.06,13.38q-.37,16-.68,31.93c-.1,4.85,1.59,6.76,6.58,7s9.78-.06,14.61,1,9.21,2.57,12.7,6a8.65,8.65,0,0,0,6.18,2.44c8.63.34,17.25.77,25.87,1.13,4.53.18,8.92,1,12.7,3.58,2,1.37,4.13,1.15,6.22,1.23,17.82.71,35.65,1.27,53.47,2,3.55.15,7.27.36,9.9,3.39.64.73,1.63,1.77,1.48,2.46-.3,1.37-1.86,1-2.93,1-11.65.37-23.3.67-34.94,1-43.13,1.31-86.28,2.95-129.43,2.32-44.72-.66-89.43-2.37-134.14-3.55-7.28-.2-14.56,0-22.68,0,2.71-4.61,6.21-5.41,9.93-5.79,17.35-1.78,34.78-1.27,52.16-1.87,3.84-.13,7.54.17,10.83-2.86,2.19-2,5.57-2.07,8.64-2.15q15.31-.39,30.62-.9c1.4,0,2.91.29,4.08-.9,5.88-5.95,13.46-7.92,21.36-9.34,11.29-2,11.27-2.13,11.6-13.45a223.54,223.54,0,0,0-.88-31.9c-.81-7-4.7-10.41-11.71-10.07-10.68.51-21-.5-29.93-7.26l4.15-4.71a37.29,37.29,0,0,0,24.36,2.58c6.46-1.41,8.66-4.78,8.54-11.4-.23-12.1-4.57-23.31-7.22-34.88,6.56-1.53,9.48-4.6,10-10.56,2.32-2,2.21-5.16,3.71-7.56,1.29-2,2.26-4.33,4.39-5.74l.65,1.07c-7.17,12.9-8.56,26.59-5.64,40.9,1.5,7.37,3.2,14.6,8.5,20.38,2.65,2.89,5.09,3.23,7.89.13a27,27,0,0,0,5.81-9c5.91-16.8,7.74-33.54-1.28-50l1.5-1.74c1.68,4.09,3.15,8.28,5.87,11.84,1.85,2.41,3.88,4.62,7.32,4.49,1,1.36,2,2.71,3.05,4.07-1.93,8.82-5.25,17.29-6.8,26.21a39.74,39.74,0,0,0-.45,10.72c.75,7.47,4.28,11,11.69,12,6.12.83,12-.48,17.84-1.86l.33-.1,5.11-2.48A19.8,19.8,0,0,0,238.42,154.56Z"/><path class="cls-4" d="M164,95.61c-.55,6-3.47,9-10,10.56-6.31-.83-8.39-2.69-10-9l1-5.17c.83-1.75,3.09-2.37,3.5-4.45l-.09.08c.65.51,1.21.09,1.78-.17l2.81-.78C158.83,86.94,161.84,90.73,164,95.61Z"/><path class="cls-4" d="M128.27,149.87l-4.15,4.71-4.76,1.2-4.65-1a4,4,0,0,0-2.93-1.64c-.94-2.82-2.63-5.45-2.28-8.61a18.33,18.33,0,0,1,5-7.79c4.61,0,9.44-.74,12.84,3.61A13.58,13.58,0,0,1,128.27,149.87Z"/><path class="cls-4" d="M238.42,154.56a19.8,19.8,0,0,1-4.95-5.6,17.69,17.69,0,0,1,.34-7.06,10.75,10.75,0,0,1,9.51-6l2.71.41,2.26.89c2.06,2.46,4.16,4.9,4.24,8.36a13.16,13.16,0,0,1-4.34,8.51l-4,1-3.18.76C240.52,154.68,239.41,154.74,238.42,154.56Z"/><path class="cls-4" d="M189.51,84.08,188,85.82l-4.35,2c-2.64-.08-5.33.14-7.67-1.46l-3.26-3-.65-1.07a16.65,16.65,0,0,1,.59-8.49l2-3c3.21-1.25,6.42-2.55,10-1.61,2.2,1.46,4.4,2.91,5.66,5.37A13.35,13.35,0,0,1,189.51,84.08Z"/><path class="cls-4" d="M205.75,104.48c-1-1.36-2-2.71-3.05-4.07-1.52-5.33-.25-9.68,4.5-12.81l3-.85,2.53-.11,1.5.09a19,19,0,0,1,5.84,4.37,16.45,16.45,0,0,1,.58,9.37C216.85,106.09,211.72,106.86,205.75,104.48Z"/><path class="cls-2" d="M154,36.77c7.26,3.6,13.29,7,17.85,12.54,2.56,3.1,2.55,6.86,2.54,10.61,0,1.79-1.11,1.62-2.34,1.39a18,18,0,0,1-9.7-5.13C157.16,51.06,156,44.32,154,36.77Z"/><path class="cls-2" d="M243.3,129.74c-8.06-.37-15.87-8.5-15.61-15.59.05-1.2.48-1.58,1.54-1.23,4.6,1.5,9.52,2.29,13.32,5.67a10.48,10.48,0,0,1,3.7,7.93C246.3,129.06,245.62,130.54,243.3,129.74Z"/><path class="cls-2" d="M133,111.08c-1.49,11.21-6.9,16.94-15.35,17.2-2.56.07-3.34-.8-3.26-3.13.16-4.46,2.42-7.58,6.14-9.72S128.46,112.36,133,111.08Z"/><path class="cls-2" d="M190.68,40.61c2.94,9.74-.25,20-7.13,24.46-1.85,1.19-2.66,1.05-3.35-1.06a14.76,14.76,0,0,1,.55-10.49C182.86,48.36,186.84,44.71,190.68,40.61Z"/><path class="cls-2" d="M253.41,91.73c1.82,5.74,3.81,10.79,3,16.37-.54,3.91-4.39,9.05-6.55,8.85-1.71-.16-4.68-7.1-4.22-10.23C246.5,101,249.47,96.44,253.41,91.73Z"/><path class="cls-2" d="M107.18,90.72c7.93,7.91,9.59,15.54,5.57,22.65-1.3,2.29-2.39,2.4-4.25.86-3.51-2.92-4.64-6.75-4.38-11.12C104.37,98.93,105.75,95,107.18,90.72Z"/><path class="cls-2" d="M127.31,140.33c-3.4-4.35-8.23-3.62-12.84-3.61l-.72-.55c1.48.74,2.3,0,3.13-1.2,2.84-4.21,7.19-5.43,11.92-5.52,4.55-.1,8.93,1.07,14.07,2A33.41,33.41,0,0,1,127.31,140.33Z"/><path class="cls-2" d="M92.11,111.17c9.79,1.79,15.39,8.15,15.1,16.43-.08,2.46-1.09,2.89-3.15,2.68a10.38,10.38,0,0,1-8-5.23C93.49,120.84,92.8,116.07,92.11,111.17Z"/><path class="cls-2" d="M268.85,112.51c-1.55,6.11-1.63,12.41-6.7,16.84-2.12,1.86-4.92,3.35-7.44,2.14-2.27-1.08-1.11-4.1-1-6.22C254.18,119.6,260.43,114.27,268.85,112.51Z"/><path class="cls-2" d="M207.4,40.9c6.11,6.16,8.35,13.84,5.81,19.45-2,4.44-3.29,4.62-6.5,1.14A10.83,10.83,0,0,1,204.08,52,38,38,0,0,1,207.4,40.9Z"/><path class="cls-2" d="M145.22,40.7a33.16,33.16,0,0,1,6.53,12.72c.91,3.79-1.72,10.75-4,10.94-2.1.18-5.78-5.2-6.14-9.13C141.17,50.2,143.16,45.76,145.22,40.7Z"/><path class="cls-2" d="M243.32,135.91a10.75,10.75,0,0,0-9.51,6,33.16,33.16,0,0,1-16-9.15C227.13,131.75,235.94,127.6,243.32,135.91Z"/><path class="cls-2" d="M190.32,74.54c-1.26-2.46-3.46-3.91-5.66-5.37,3.28-4.9,8.12-5.53,13.31-4.53,3.19.61,6.26,1.79,10.42,3C202.42,71.9,197.28,75.46,190.32,74.54Z"/><path class="cls-2" d="M275.26,139.52c-6,2.3-10.87,5.11-16.73,3.58-2.75-.71-5.95-2.19-6-4.8,0-2.38,3.43-3.61,5.85-4.16C264.69,132.7,269.54,136.07,275.26,139.52Z"/><path class="cls-2" d="M246.27,89.94c-4.59,1.41-8.72,3.17-13.29,2.78-4.14-.35-9.26-4.14-8.74-6.41.43-1.88,7.41-4.21,10.47-3.5A24.34,24.34,0,0,1,246.27,89.94Z"/><path class="cls-2" d="M86.2,138.33c6.35-6.35,14.62-7.59,20.58-3.44,2.11,1.47,1.77,2.48.28,4-3,3-6.72,3.68-10.73,3A40.2,40.2,0,0,1,86.2,138.33Z"/><path class="cls-2" d="M113.24,90c7.5-7.16,14.49-8.5,20.48-4.58,2,1.31,2.06,2.35.62,4-2.69,3.09-6.13,4-10,3.7C120.54,92.8,117.13,91.31,113.24,90Z"/><path class="cls-2" d="M149.05,109.3c-.47,9.51-4.45,14.68-11.31,15.84-3,.51-3.49-.78-3.45-3.15.07-4,2.12-6.74,5.36-8.76A44.89,44.89,0,0,1,149.05,109.3Z"/><path class="cls-2" d="M211.38,110.66c4.79,1.7,9.1,2.83,12.3,6.15,2.43,2.52,3.65,8,2.19,9.46s-7.74-.36-9.72-2.78C213.28,120,211.94,115.85,211.38,110.66Z"/><path class="cls-2" d="M228.36,151.44l-.33.1a1,1,0,0,0-1.23-.9c-9.07,1.77-12.69-4.51-16.87-11.53,5.42.1,10.24-.32,14.51,2.4C228,143.8,229.73,147.07,228.36,151.44Z"/><path class="cls-2" d="M144.93,92.05l-1,5.17c-5.08,4.62-8.64,5.47-17.78,4.19C129.37,92.9,135.82,89.68,144.93,92.05Z"/><path class="cls-2" d="M150.07,137.74c-3.12,8.73-9,12.7-15.86,11.39-2.46-.47-2.73-1.56-2.16-3.52a9.75,9.75,0,0,1,6.27-6.57C142.09,137.61,146,137.53,150.07,137.74Z"/><path class="cls-2" d="M174.68,70.78l-2,3c-8.36,1.2-13.5-3.95-18.7-9.3C162.25,61.77,170.59,64.33,174.68,70.78Z"/><path class="cls-2" d="M214.25,86.73l-1.5-.09c-.43-3.67,1.67-6.23,4-8.47,2.94-2.77,10.08-4.91,15-4.79C227.59,80.27,223.24,86.48,214.25,86.73Z"/><path class="cls-2" d="M148.43,87.6c-10.06,1.09-14.6-5.81-19.3-13.07,11.42.35,19.41,5.91,19.21,13.15Z"/><path class="cls-2" d="M125.9,58.19c7.8,1,14.72,1.73,18.55,9.18,1.5,2.9.38,3.54-2.14,3.63a11.28,11.28,0,0,1-6.87-2.15C131.62,66.22,128.9,62.62,125.9,58.19Z"/><path class="cls-2" d="M233.91,59c-3.27,4.47-5.88,7.86-9.49,10.31a11.57,11.57,0,0,1-6,2.13c-1.42,0-3.18.33-3.94-1s.72-2.34,1.33-3.41C219.6,60.31,226.27,59.94,233.91,59Z"/><path class="cls-2" d="M248.19,154.08a13.16,13.16,0,0,0,4.34-8.51,25.51,25.51,0,0,1,13.77,6.68C260.08,154.28,254.62,158.22,248.19,154.08Z"/><path class="cls-2" d="M109.5,144.51c-.35,3.16,1.34,5.79,2.28,8.61-6.06,3.09-11.24-.2-17.48-2.36C99.11,146.83,103.62,144.13,109.5,144.51Z"/><path class="cls-2" d="M220.67,100.47a16.45,16.45,0,0,0-.58-9.37c6.09-.4,11.09,3.34,14.41,11C229.69,102.35,225.07,102.6,220.67,100.47Z"/><path class="cls-2" d="M241,155.87l3.18-.76c6.34,2.3,9.13,7,9.5,13.63C244.34,166.67,240.5,162.7,241,155.87Z"/><path class="cls-2" d="M114.71,154.76l4.65,1c-.23,6.48-3.29,9.41-12,11.47C107.1,161.23,109.69,156.81,114.71,154.76Z"/><path class="cls-5" d="M210.22,86.75l-3,.85c1.34-5.84.64-12.15,4-18.51C210.83,75.64,210.53,81.19,210.22,86.75Z"/><path class="cls-5" d="M152.93,86.73l-2.81.78c-.54-5.35-1.82-10.65-1.65-16l1.44-.22Q151.42,79,152.93,86.73Z"/><path class="cls-5" d="M248.29,137.21l-2.26-.89q.85-3.27,1.72-6.56A11.79,11.79,0,0,1,248.29,137.21Z"/><path class="cls-2" d="M183.66,87.85c-1.83,5.18-6.63,6.4-11.11,8.84-.3-4.36,1.62-7.32,3.44-10.3C178.33,88,181,87.77,183.66,87.85Z"/><path class="cls-2" d="M175,108c2.83-5.82,5.24-10.49,11.06-11.93,1-.25,2.29-1.31,3.08,0,.59,1,0,2.24-.61,3.23C185.74,104.14,181,105.87,175,108Z"/><path class="cls-3" d="M159.67,251.51h10.69v3.35h-3.53v14.55H163.1V254.86h-3.43Z"/><path class="cls-3" d="M171.87,251.51h3.73v6.75h6.46v-6.75h3.72v17.9h-3.72v-7.85H175.6v7.85h-3.73Z"/><path class="cls-3" d="M189.21,251.51h10.56v3.33h-6.9v3.24h6.9v3.27h-6.9v4.71h6.9v3.35H189.21Z"/><path class="cls-4" d="M40.14,309.39H17.82l-3.3,6.4a5,5,0,0,0-.69,2.09c0,1,.81,1.66,2.41,2V321H0v-1.06A4.45,4.45,0,0,0,2.19,319a9,9,0,0,0,1.73-2.59L22,281.45a6.36,6.36,0,0,0,.86-2.66c0-1-.69-1.76-2.09-2.2v-1.07H38.16v1.07c-1.41.37-2.12,1-2.12,2a4.68,4.68,0,0,0,.68,2.2l18.71,35a11.85,11.85,0,0,0,2.08,3,4.72,4.72,0,0,0,2.41,1.09V321H41.85v-1.06c1.59-.25,2.38-.94,2.38-2.07a5.06,5.06,0,0,0-.72-2.06Zm-3.09-6.23-8-16.19L21,303.16Z"/><path class="cls-4" d="M80.59,283v34.48a2.17,2.17,0,0,0,.5,1.56,3.71,3.71,0,0,0,1.8.87V321H67.56v-1.06a3.67,3.67,0,0,0,1.8-.87,2.17,2.17,0,0,0,.51-1.56V283H54.62a2.65,2.65,0,0,0-1.66.46,3.25,3.25,0,0,0-.93,1.68H50.88V273.39H52a3.52,3.52,0,0,0,.95,1.67,2.51,2.51,0,0,0,1.64.46H95.8a2.64,2.64,0,0,0,1.69-.46,3.22,3.22,0,0,0,.94-1.67h1.15v11.76H98.43a3.26,3.26,0,0,0-.94-1.68A2.7,2.7,0,0,0,95.8,283Z"/><path class="cls-4" d="M131,309.39H108.64l-3.31,6.4a5.1,5.1,0,0,0-.68,2.09c0,1,.8,1.66,2.41,2V321H90.82v-1.06A4.49,4.49,0,0,0,93,319a9.19,9.19,0,0,0,1.73-2.59l18.05-34.94a6.26,6.26,0,0,0,.87-2.66c0-1-.7-1.76-2.09-2.2v-1.07H129v1.07c-1.42.37-2.12,1-2.12,2a4.57,4.57,0,0,0,.68,2.2l18.7,35a11.82,11.82,0,0,0,2.09,3,4.69,4.69,0,0,0,2.41,1.09V321H132.67v-1.06c1.58-.25,2.38-.94,2.38-2.07a5.06,5.06,0,0,0-.72-2.06Zm-3.08-6.23-8-16.19-8.09,16.19Z"/><path class="cls-4" d="M163.06,289.84v27.65a2.17,2.17,0,0,0,.5,1.56,3.76,3.76,0,0,0,1.8.87V321H150.94v-1.06a3.67,3.67,0,0,0,1.79-.87,2.17,2.17,0,0,0,.51-1.56V279a2.14,2.14,0,0,0-.51-1.53,3.76,3.76,0,0,0-1.79-.86v-1.07h16.69v1.07c-1,.24-1.55.75-1.55,1.53a2.6,2.6,0,0,0,1,1.76L194.17,306V279a2.18,2.18,0,0,0-.5-1.53,3.86,3.86,0,0,0-1.8-.86v-1.07h14.42v1.07a3.86,3.86,0,0,0-1.8.86A2.18,2.18,0,0,0,204,279v38.51a2.21,2.21,0,0,0,.5,1.56,3.76,3.76,0,0,0,1.8.87V321H190.83v-1.06c1-.2,1.51-.68,1.51-1.43q0-.67-1.77-2.34Z"/><path class="cls-4" d="M247.92,309.39H225.61l-3.31,6.4a5.1,5.1,0,0,0-.68,2.09q0,1.47,2.4,2V321H207.78v-1.06A4.53,4.53,0,0,0,210,319a9,9,0,0,0,1.72-2.59l18.06-34.94a6.22,6.22,0,0,0,.86-2.66c0-1-.69-1.76-2.08-2.2v-1.07H246v1.07c-1.42.37-2.13,1-2.13,2a4.6,4.6,0,0,0,.69,2.2l18.7,35a11.57,11.57,0,0,0,2.09,3,4.69,4.69,0,0,0,2.41,1.09V321H249.63v-1.06c1.59-.25,2.39-.94,2.39-2.07a5.06,5.06,0,0,0-.72-2.06Zm-3.08-6.23-8-16.19-8.09,16.19Z"/><path class="cls-4" d="M289.12,302v15.53a2.18,2.18,0,0,0,.52,1.57,3.86,3.86,0,0,0,1.79.87V321H276v-1.06a4.09,4.09,0,0,0,1.84-.87,2.11,2.11,0,0,0,.54-1.57V302l-15.87-20.67a21.23,21.23,0,0,0-3.22-3.58,5.46,5.46,0,0,0-2.78-1.11v-1.07h19.38v1.07c-1.6.24-2.41.93-2.41,2.06a7.08,7.08,0,0,0,1.48,2.63l8.85,12.16,9.1-12.16a6.37,6.37,0,0,0,1.47-2.66,1.68,1.68,0,0,0-.64-1.32,3.5,3.5,0,0,0-1.76-.71v-1.07h19v1.07a5.5,5.5,0,0,0-2.78,1.11,21.23,21.23,0,0,0-3.22,3.58Z"/><path class="cls-4" d="M340.21,309.39H317.9l-3.31,6.4a5.1,5.1,0,0,0-.68,2.09c0,1,.8,1.66,2.41,2V321H300.08v-1.06a4.49,4.49,0,0,0,2.19-.94,9.19,9.19,0,0,0,1.73-2.59l18.05-34.94a6.26,6.26,0,0,0,.87-2.66c0-1-.7-1.76-2.09-2.2v-1.07h17.41v1.07c-1.42.37-2.12,1-2.12,2a4.57,4.57,0,0,0,.68,2.2l18.7,35a11.82,11.82,0,0,0,2.09,3,4.69,4.69,0,0,0,2.41,1.09V321H341.93v-1.06c1.58-.25,2.38-.94,2.38-2.07a5.06,5.06,0,0,0-.72-2.06Zm-3.08-6.23-8-16.19-8.09,16.19Z"/><path class="cls-5" d="M134.8,330.69h1.88v6.41l7.37-6.41h2.48l-8.86,7.67,9.55,9.41h-2.46l-8.08-7.95v7.95H134.8Z"/><path class="cls-5" d="M148.07,335.14h1.76V341a11.55,11.55,0,0,0,.25,3,3.32,3.32,0,0,0,1.44,1.84,4.68,4.68,0,0,0,2.53.67,4.49,4.49,0,0,0,2.49-.66,3.38,3.38,0,0,0,1.41-1.72,11.06,11.06,0,0,0,.27-3.1v-5.9H160v6.2a9.18,9.18,0,0,1-.66,3.94,4.82,4.82,0,0,1-2,2.07,7.75,7.75,0,0,1-6.65,0,4.78,4.78,0,0,1-2-2.09,9.51,9.51,0,0,1-.66-4Z"/><path class="cls-5" d="M164.05,330.45h1.76v4.69h2.78v1.41h-2.78v11.22h-1.76V336.55h-2.39v-1.41h2.39Z"/><path class="cls-5" d="M183.43,335.14v12.63H181.7V345.6a7.42,7.42,0,0,1-2.47,1.87,7.15,7.15,0,0,1-3,.63,6.93,6.93,0,0,1-4.95-2,6.28,6.28,0,0,1-2.05-4.73,6.19,6.19,0,0,1,2.08-4.67,7,7,0,0,1,5-1.94,6.61,6.61,0,0,1,5.43,2.65v-2.32Zm-7,1.24a5.58,5.58,0,0,0-2.71.67,5.13,5.13,0,0,0-2,1.87,4.81,4.81,0,0,0,0,5.11,5.14,5.14,0,0,0,2,1.89,5.52,5.52,0,0,0,2.67.68,5.77,5.77,0,0,0,2.73-.67,5,5,0,0,0,2-1.82,5.1,5.1,0,0,0-.86-6.25A5.35,5.35,0,0,0,176.42,336.38Z"/><path class="cls-5" d="M192.06,330.69h3.64a9.3,9.3,0,0,1,3.37.48,4.09,4.09,0,0,1,1.86,1.48,3.84,3.84,0,0,1,.69,2.22A3.79,3.79,0,0,1,201,337a4.38,4.38,0,0,1-1.76,1.51,7.11,7.11,0,0,1,2.21,1.06,4.32,4.32,0,0,1,1.21,1.48,4.21,4.21,0,0,1,.43,1.87,4.44,4.44,0,0,1-1.63,3.48,6.35,6.35,0,0,1-4.35,1.42h-5.07Zm1.81,1.67v5.47h1a8.89,8.89,0,0,0,2.83-.33,3,3,0,0,0,1.43-1,2.64,2.64,0,0,0,.53-1.59,2.19,2.19,0,0,0-.89-1.84,4.76,4.76,0,0,0-2.82-.67Zm0,7.19v6.55h2.28a9,9,0,0,0,3-.36,3.35,3.35,0,0,0,1.51-1.15,2.79,2.79,0,0,0,.57-1.68,2.83,2.83,0,0,0-.8-2,4.27,4.27,0,0,0-2.21-1.16,17.33,17.33,0,0,0-3.28-.21Z"/><path class="cls-5" d="M218.68,335.14v12.63H217V345.6a7.56,7.56,0,0,1-2.48,1.87,7.14,7.14,0,0,1-3,.63,6.92,6.92,0,0,1-4.95-2,6.25,6.25,0,0,1-2.05-4.73,6.18,6.18,0,0,1,2.07-4.67,7,7,0,0,1,5-1.94,6.75,6.75,0,0,1,3,.67,6.87,6.87,0,0,1,2.39,2v-2.32Zm-7,1.24a5.58,5.58,0,0,0-2.71.67,5.13,5.13,0,0,0-2,1.87,4.85,4.85,0,0,0-.73,2.55A4.92,4.92,0,0,0,207,344a5.14,5.14,0,0,0,2,1.89,5.53,5.53,0,0,0,2.68.68,5.8,5.8,0,0,0,2.73-.67,4.92,4.92,0,0,0,2-1.82,5.1,5.1,0,0,0-.86-6.25A5.35,5.35,0,0,0,211.66,336.38Z"/><path class="cls-5" d="M221,330.26h1.75v17.51H221Z"/><path class="cls-5" d="M225.6,329.94a1.49,1.49,0,0,1,1,.39,1.28,1.28,0,0,1,0,1.9,1.49,1.49,0,0,1-1,.39,1.45,1.45,0,0,1-1-.39,1.28,1.28,0,0,1,0-1.9A1.45,1.45,0,0,1,225.6,329.94Zm-.87,5.2h1.76v12.63h-1.76Z"/></svg>