<svg id="Layer_1" data-name="Layer 1" xmlns="http://www.w3.org/2000/svg" viewBox="0 0 360 360"><defs><style>.cls-1{fill:#fff;}</style></defs><title>atanaya-h-light</title><path class="cls-1" d="M153.08,261.11H19.28v-.87H153.12Z"/><path class="cls-1" d="M342.14,261.11H208.34v-.87H342.18Z"/><path class="cls-1" d="M173.12,83.05l3.21,3c1.83,1.25,3.95,1.28,6.21,1.31l1,0,4.15-1.94,1.38-1.6a12.72,12.72,0,0,0,.76-9.13c-1.15-2.22-3.2-3.59-5.38-5-3.27-.86-6.25.3-9.42,1.54h0L173.12,74a15.92,15.92,0,0,0-.56,8.1Z"/><path class="cls-1" d="M126.88,140.59c-2.82-3.56-6.64-3.48-10.68-3.39l-1.53,0a17.7,17.7,0,0,0-4.69,7.44c-.22,2.09.56,4,1.39,6,.27.63.54,1.29.77,2A4.5,4.5,0,0,1,115,154.3l4.39,1,4.49-1.13,4-4.51A13.09,13.09,0,0,0,126.88,140.59Z"/><path class="cls-1" d="M206.06,104.06c6.11,2.4,10.74,1.15,14.14-3.79a15.81,15.81,0,0,0-.55-8.91,18.61,18.61,0,0,0-5.54-4.14l-1.39-.08-2.42.11-2.89.81c-4.34,2.89-5.73,6.86-4.25,12.12Z"/><path class="cls-1" d="M183.76,88.36h-.3c-2,4.75-6.58,6-10.91,8.34-.29-4.15,1.44-7,3.17-9.87v0l-3.21-3c-7,12.77-8.29,26.31-5.41,40.46,1.5,7.37,3.2,14.6,8.5,20.38,2.65,2.88,5.09,3.23,7.89.13a27,27,0,0,0,5.81-9c5.86-16.66,7.7-33.25-1-49.55l0,0Zm5.37,7.74c.59,1,0,2.24-.61,3.23-2.78,4.81-7.56,6.55-13.53,8.71,2.83-5.82,5.24-10.49,11.06-11.93C187.07,95.86,188.34,94.8,189.13,96.1Z"/><path class="cls-1" d="M163.47,95.7c-2.54-5.73-5.68-8.27-10.48-8.46l-2.73.75-.18.1a2.15,2.15,0,0,1-1.37.3,6.05,6.05,0,0,1-1.83,2.18,5.8,5.8,0,0,0-1.47,1.64l-1,5c1.57,6,3.45,7.66,9.47,8.46C160.14,104.19,162.91,101.3,163.47,95.7Z"/><path class="cls-1" d="M238.65,154.09l.35,0a2.84,2.84,0,0,1,2.27,1.15l6.66-1.66a12.48,12.48,0,0,0,4.1-8.1c-.08-3.18-2-5.48-4-7.9l-2.09-.82-2.61-.4a10.24,10.24,0,0,0-9,5.67,17.42,17.42,0,0,0-.32,6.73A19.47,19.47,0,0,0,238.65,154.09Z"/><path class="cls-1" d="M179,46.53c5-4.77,7.73-10.36,7.19-17.29a117.12,117.12,0,0,0-1.56-12c-.94-5.16-1.33-5.76-2.11-5.22-1.55,1.5-.89,1.17-2.72,4a48.61,48.61,0,0,0-5.9,12c-1.86,6.19-1.7,12.19,1.63,17.92C176.53,47.65,177.24,48.25,179,46.53Z"/><path class="cls-1" d="M340.06,237.81c-2.63-3-6.35-3.24-9.9-3.39-17.82-.76-35.65-1.32-53.47-2-2.09-.08-4.23.14-6.22-1.23-3.78-2.6-8.17-3.4-12.7-3.58-8.62-.36-17.24-.79-25.87-1.13a8.65,8.65,0,0,1-6.18-2.44c-3.49-3.42-8-5-12.7-6s-9.73-.74-14.61-1-6.68-2.12-6.58-7q.33-16,.68-31.93c.11-4.82.94-9.5,4.06-13.38,2.11-2.63,4.66-4.95,8.39-4.31,11.69,2,22.41-1.3,32.95-5.71a19.59,19.59,0,0,1-4.88-5.58h0l-4.66,2.26-.33.1c-5.86,1.38-11.72,2.69-17.84,1.86-7.41-1-10.94-4.52-11.69-12a39.74,39.74,0,0,1,.45-10.72c1.52-8.76,4.74-17.08,6.68-25.73l-.07,0-.13,0-3.21-4.34a1.24,1.24,0,0,1,0-.16c-3.12-.11-5.05-2.19-6.8-4.47-2.6-3.41-4.07-7.4-5.66-11.32l-1.48,1.65c8.75,16.3,6.91,32.89,1,49.55a27,27,0,0,1-5.81,9c-2.8,3.1-5.24,2.75-7.89-.13-5.3-5.78-7-13-8.5-20.38-2.88-14.15-1.55-27.69,5.41-40.46l-.19-.18-.6-1c-1.87,1.41-2.81,3.52-4,5.45-1.41,2.26-1.4,5.21-3.33,7.2,0,.06,0,.11.07.17l.06.11,0,.13c-.56,6.14-3.67,9.43-10.4,11,2.66,11.41,6.88,22.47,7.1,34.4.12,6.62-2.08,10-8.54,11.4a37.37,37.37,0,0,1-23.9-2.37v0l-4.19,4.77c8.83,6.48,19,7.46,29.52,7,7-.34,10.9,3,11.71,10.08a223.36,223.36,0,0,1,.88,31.89c-.33,11.32-.31,11.43-11.6,13.46-7.9,1.41-15.48,3.38-21.36,9.33-1.17,1.19-2.68.86-4.08.9q-15.3.5-30.62.9c-3.07.08-6.45.14-8.64,2.15-3.29,3-7,2.73-10.83,2.86-17.38.6-34.81.09-52.16,1.87-3.72.38-7.22,1.18-9.93,5.79,8.12,0,15.4-.17,22.68,0,44.71,1.18,89.42,2.89,134.14,3.55,43.15.63,86.29-1,129.43-2.32,11.64-.35,23.29-.65,34.94-1,1.07,0,2.63.33,2.93-1C341.69,239.58,340.7,238.54,340.06,237.81Z"/><path class="cls-1" d="M164,95.61a4.27,4.27,0,0,0,.38-.36c-1.82-4.11-4.77-8.78-11.41-9h-.11l.09.49-2.81.78c0-.16,0-.33-.05-.5l-.15,0-.28.14a2.58,2.58,0,0,1-.66.23l.22-1.15-.88.77c0,.19,0,.37,0,.57h.09l-.09.08v-.07l-.73,0-.05,0,.27.22a5,5,0,0,1-1.6,1.91,6.3,6.3,0,0,0-1.75,2l0,.11.48.11-1,5.17-.42.37c1.67,6.26,3.94,8.23,10.36,9.07H154l.09,0h0l-.12-.48C160.51,104.64,163.43,101.57,164,95.61ZM144.45,97.2l1-5a5.8,5.8,0,0,1,1.47-1.64,6.05,6.05,0,0,0,1.83-2.18,2.15,2.15,0,0,0,1.37-.3l.18-.1,2.73-.75c4.8.19,7.94,2.73,10.48,8.46-.56,5.6-3.33,8.49-9.55,10C147.9,104.86,146,103.17,144.45,97.2Z"/><path class="cls-1" d="M164.47,95.66l0-.13-.06-.11c0-.06-.05-.11-.07-.17a4.27,4.27,0,0,1-.38.36c-.55,6-3.47,9-10,10.56l.12.48C160.8,105.09,163.91,101.8,164.47,95.66Z"/><path class="cls-1" d="M115.73,136.2l-1.26,0h-.2l-.11.11A1.73,1.73,0,0,0,115.73,136.2Z"/><path class="cls-1" d="M128.27,149.87c.15.08.31.14.46.21l0-.08a14,14,0,0,0-1-9.81l-.48.14c-3.4-4.35-8.23-3.62-12.84-3.61l-.4-.3a18.66,18.66,0,0,0-5.07,8v0h.5c-.35,3.16,1.34,5.79,2.28,8.61-.15.08-.31.13-.46.2l.1.3h.36a3.35,3.35,0,0,1,2.44,1.35c.16-.07.32-.15.49-.21l4.65,1c0,.18,0,.34,0,.51h0l5-1.27.14-.15c-.14-.11-.28-.19-.41-.3Zm-8.92,5.4-4.39-1a4.5,4.5,0,0,0-2.82-1.66c-.23-.67-.5-1.33-.77-2-.83-2-1.61-3.93-1.39-6a17.7,17.7,0,0,1,4.69-7.44l1.53,0c4-.09,7.86-.17,10.68,3.39a13.09,13.09,0,0,1,.93,9l-4,4.51Z"/><path class="cls-1" d="M128.73,150.08c-.15-.07-.31-.13-.46-.21l-4.15,4.71c.13.11.27.19.41.3l4.19-4.77Z"/><path class="cls-1" d="M238.42,154.56l-.51.21.19.17.1.09.13,0,.53.08c.88.13,1.4.23,1.68.92l.16.4.28-.07c0-.17,0-.34,0-.51l3.18-.76c.26.09.5.19.75.29l3.51-.87.1-.09.09-.1c-.15-.09-.29-.16-.44-.26a13.21,13.21,0,0,0,4.34-8.51l.49.1s0-.07,0-.11c-.09-3.59-2.22-6.13-4.29-8.58l-.15-.19-.19-.07c0,.16-.07.32-.11.49l-2.26-.89.12-.47-2.8-.44h0l-.41,0c.14.15.29.3.43.46a10.75,10.75,0,0,0-9.51,6l-.48-.14h0A18.35,18.35,0,0,0,233,149l.05.15.45-.22A19.8,19.8,0,0,0,238.42,154.56Zm-4.15-12.48a10.24,10.24,0,0,1,9-5.67l2.61.4,2.09.82c2,2.42,4,4.72,4,7.9a12.48,12.48,0,0,1-4.1,8.1l-6.66,1.66a2.84,2.84,0,0,0-2.27-1.15l-.35,0a19.47,19.47,0,0,1-4.7-5.28A17.42,17.42,0,0,1,234.27,142.08Z"/><path class="cls-1" d="M237.91,154.77l.51-.21a19.8,19.8,0,0,1-4.95-5.6l-.45.22h0A19.59,19.59,0,0,0,237.91,154.77Z"/><path class="cls-1" d="M172.73,83.38c-.08.14-.15.29-.23.44l3.21,3v0l.27-.43c2.34,1.6,5,1.38,7.67,1.46-.06.18-.14.33-.2.5h.3l4.46-2.09,0,0-.23-.43,1.5-1.74.21.52.17-.19.07-.12a13.88,13.88,0,0,0,.87-9.7l-.51,0c-1.26-2.46-3.46-3.91-5.66-5.37.1-.15.2-.27.3-.41h0l-.15-.07c-3.65-1-6.94.33-10.11,1.57l-.29.11.29.42-2,3-.55.05a17,17,0,0,0-.53,8.52l.12.21c.12-.1.24-.2.37-.29Zm.39-9.34L175,71.19h0c3.17-1.24,6.15-2.4,9.42-1.54,2.18,1.45,4.23,2.82,5.38,5a12.72,12.72,0,0,1-.76,9.13l-1.38,1.6-4.15,1.94-1,0c-2.26,0-4.38-.06-6.21-1.31l-3.21-3-.56-.91A15.92,15.92,0,0,1,173.12,74Z"/><path class="cls-1" d="M188,85.82l.23.43,1.48-1.65-.21-.52Z"/><path class="cls-1" d="M172.5,83.82c.08-.15.15-.3.23-.44l-.65-1.07c-.13.09-.25.19-.37.29l.6,1Z"/><path class="cls-1" d="M205.75,104.48l-.12.48a16.15,16.15,0,0,0,6,1.27c3.84,0,7-1.83,9.5-5.48l0-.1c-.15-.06-.31-.11-.46-.18a16.45,16.45,0,0,0-.58-9.37h.52s0-.11-.05-.16l-.09-.14a18,18,0,0,0-5.3-4.13c-.3,0-.6.06-.92.07l-1.5-.09c0-.17,0-.33,0-.5l-2.46.11,0,.5-3,.85c0-.18.07-.37.11-.55l-.25.07-.14.06c-4.71,3.11-6.3,7.55-4.74,13.21.17,0,.34,0,.52,0C203.71,101.77,204.73,103.12,205.75,104.48Zm1.66-16.42,2.89-.81,2.42-.11,1.39.08a18.61,18.61,0,0,1,5.54,4.14,15.81,15.81,0,0,1,.55,8.91c-3.4,4.94-8,6.19-14.14,3.79l-2.9-3.88C201.68,94.92,203.07,91,207.41,88.06Z"/><path class="cls-1" d="M205.43,104.89l.13,0,.07,0,.12-.48c-1-1.36-2-2.71-3.05-4.07-.18,0-.35,0-.52,0a1.24,1.24,0,0,0,0,.16Z"/><path class="cls-1" d="M172,61.31c1.23.23,2.33.4,2.34-1.39,0-3.75,0-7.51-2.54-10.61-4.56-5.53-10.59-8.94-17.85-12.54,2.07,7.55,3.19,14.29,8.35,19.41A18,18,0,0,0,172,61.31Z"/><path class="cls-1" d="M242.55,118.59c-3.8-3.38-8.72-4.17-13.32-5.67-1.06-.35-1.49,0-1.54,1.23-.26,7.09,7.55,15.22,15.61,15.59,2.32.8,3-.68,2.95-3.22A10.48,10.48,0,0,0,242.55,118.59Z"/><path class="cls-1" d="M114.38,125.15c-.08,2.33.7,3.2,3.26,3.12,8.45-.25,13.86-6,15.35-17.19-4.53,1.28-8.72,2.18-12.47,4.35S114.54,120.69,114.38,125.15Z"/><path class="cls-1" d="M180.2,64c.69,2.11,1.5,2.25,3.35,1.06,6.88-4.44,10.07-14.72,7.13-24.46-3.84,4.1-7.82,7.75-9.93,12.91A14.76,14.76,0,0,0,180.2,64Z"/><path class="cls-1" d="M249.89,117c2.16.2,6-4.94,6.55-8.85.78-5.58-1.21-10.63-3-16.37-3.94,4.71-6.91,9.3-7.74,15C245.21,109.85,248.18,116.79,249.89,117Z"/><path class="cls-1" d="M108.5,114.23c1.86,1.54,3,1.43,4.25-.86,4-7.11,2.36-14.74-5.57-22.65-1.43,4.31-2.81,8.21-3.06,12.39C103.86,107.48,105,111.31,108.5,114.23Z"/><path class="cls-1" d="M114.16,136.33a2.31,2.31,0,0,1-.41-.16l.32.25.05-.06Z"/><path class="cls-1" d="M127.7,140l.06.09,0,.08a33.46,33.46,0,0,0,15.08-8.77c-5.14-.9-9.51-2.07-14.07-2-4.73.09-9.08,1.31-11.92,5.52a4.17,4.17,0,0,1-1.15,1.23h.45C120.3,136.11,124.57,136,127.7,140Z"/><path class="cls-1" d="M127.31,140.33l.48-.14,0-.08-.06-.09c-3.13-4-7.4-3.91-11.52-3.82h-.45a1.73,1.73,0,0,1-1.57.13l0,0-.05.06.4.3C119.08,136.71,123.91,136,127.31,140.33Z"/><path class="cls-1" d="M104.06,130.28c2.06.21,3.07-.22,3.15-2.68.29-8.28-5.31-14.64-15.1-16.43.69,4.9,1.38,9.67,4,13.88A10.38,10.38,0,0,0,104.06,130.28Z"/><path class="cls-1" d="M254.71,131.49c2.52,1.21,5.32-.28,7.44-2.14,5.07-4.43,5.15-10.73,6.7-16.85-8.42,1.77-14.67,7.1-15.09,12.77C253.6,127.39,252.44,130.41,254.71,131.49Z"/><path class="cls-1" d="M213.21,60.35c2.54-5.61.3-13.29-5.81-19.45A38,38,0,0,0,204.08,52a10.83,10.83,0,0,0,2.63,9.54C209.92,65,211.19,64.79,213.21,60.35Z"/><path class="cls-1" d="M147.78,64.36c2.25-.19,4.88-7.15,4-10.94a33.16,33.16,0,0,0-6.53-12.72c-2.06,5.06-4.05,9.5-3.59,14.53C142,59.16,145.67,64.54,147.78,64.36Z"/><path class="cls-1" d="M242.89,135.45c-7.29-7.68-15.94-3.68-25.11-2.7a33,33,0,0,0,15.55,9l0-.1A11.24,11.24,0,0,1,242.89,135.45Z"/><path class="cls-1" d="M243.32,135.91c-.14-.16-.29-.31-.43-.46a11.24,11.24,0,0,0-9.52,6.21l0,.1.48.14A10.75,10.75,0,0,1,243.32,135.91Z"/><path class="cls-1" d="M190.77,74.31l.06.28c6.71.68,11.74-2.79,17.56-6.93-4.16-1.23-7.23-2.41-10.42-3-5-1-9.74-.39-13,4.12C187.22,70.27,189.47,71.78,190.77,74.31Z"/><path class="cls-1" d="M190.32,74.54l.51,0-.06-.28c-1.3-2.53-3.55-4-5.81-5.55-.1.14-.2.26-.3.41C186.86,70.63,189.06,72.08,190.32,74.54Z"/><path class="cls-1" d="M258.39,134.14c-2.42.55-5.89,1.78-5.85,4.16,0,2.61,3.24,4.09,6,4.8,5.86,1.53,10.75-1.28,16.73-3.58C269.54,136.07,264.69,132.7,258.39,134.14Z"/><path class="cls-1" d="M224.24,86.31c-.52,2.27,4.6,6.06,8.74,6.41,4.57.39,8.7-1.37,13.29-2.78a24.36,24.36,0,0,0-11.55-7.13C231.65,82.1,224.67,84.43,224.24,86.31Z"/><path class="cls-1" d="M107.06,138.86c1.49-1.49,1.83-2.5-.28-4-6-4.15-14.23-2.91-20.58,3.44a40.2,40.2,0,0,0,10.13,3.51C100.34,142.54,104,141.87,107.06,138.86Z"/><path class="cls-1" d="M134.34,89.43c1.44-1.65,1.39-2.69-.62-4-6-3.92-13-2.58-20.48,4.58,3.89,1.3,7.3,2.79,11.05,3.12C128.21,93.47,131.65,92.52,134.34,89.43Z"/><path class="cls-1" d="M134.29,122c0,2.37.43,3.66,3.45,3.15,6.86-1.16,10.84-6.33,11.31-15.84a44.89,44.89,0,0,0-9.4,3.93C136.41,115.25,134.36,118,134.29,122Z"/><path class="cls-1" d="M216.15,123.49c2,2.42,8.36,4.12,9.72,2.78s.24-6.94-2.19-9.46c-3.2-3.32-7.51-4.45-12.3-6.15C211.94,115.85,213.28,120,216.15,123.49Z"/><path class="cls-1" d="M224.44,141.51c-4.27-2.72-9.09-2.3-14.51-2.4,4.18,7,7.8,13.3,16.87,11.53a1,1,0,0,1,1.23.9l.33-.1C229.73,147.07,228,143.8,224.44,141.51Z"/><path class="cls-1" d="M143.43,97.24l1-5.3c-8.85-2.13-15.14,1.11-18.29,9.47,8.88,1.24,12.5.47,17.36-3.82a2.33,2.33,0,0,0-.07-.25Z"/><path class="cls-1" d="M144.93,92.05l-.48-.11-1,5.3,0,.1a2.33,2.33,0,0,1,.07.25l.42-.37Z"/><path class="cls-1" d="M132.05,145.61c-.57,2-.3,3,2.16,3.52,6.9,1.31,12.74-2.66,15.86-11.39-4.06-.21-8-.13-11.75,1.3A9.75,9.75,0,0,0,132.05,145.61Z"/><path class="cls-1" d="M172.25,73.54l2.1-3.17h0c-4.19-6.13-12.33-8.53-20.42-5.84,5.08,5.23,10.12,10.25,18.15,9.35l.08-.23Z"/><path class="cls-1" d="M174.68,70.78l-.29-.42h0l-2.1,3.17-.05.1-.08.23.55-.05Z"/><path class="cls-1" d="M214.49,86.29l.68.37c8.37-.64,12.57-6.64,16.65-13.28-4.95-.13-12.09,2-15,4.79-2.26,2.13-4.27,4.57-4.08,8h0Z"/><path class="cls-1" d="M214.25,86.73c.32,0,.62,0,.92-.07l-.68-.37-1.76-.15h0c0,.17,0,.33,0,.5Z"/><path class="cls-1" d="M129.13,74.53c4.56,7.06,9,13.75,18.48,13.12l.71-.61C148,80.12,140.21,74.87,129.13,74.53Z"/><path class="cls-1" d="M148.32,87l-.71.61.73,0C148.34,87.41,148.32,87.23,148.32,87Z"/><path class="cls-1" d="M148.43,87.6h-.09v.07Z"/><path class="cls-1" d="M135.44,68.85A11.26,11.26,0,0,0,142.31,71c2.52-.09,3.64-.73,2.14-3.63-3.83-7.45-10.75-8.15-18.55-9.18C128.9,62.62,131.62,66.22,135.44,68.85Z"/><path class="cls-1" d="M218.39,71.48a11.57,11.57,0,0,0,6-2.13c3.61-2.45,6.22-5.84,9.49-10.31-7.64.9-14.31,1.27-18.13,8-.61,1.07-2,2.18-1.33,3.41S217,71.53,218.39,71.48Z"/><path class="cls-1" d="M266.3,152.25A25.39,25.39,0,0,0,253,145.67a13.64,13.64,0,0,1-4.39,8.67C254.87,158,260.22,154.24,266.3,152.25Z"/><path class="cls-1" d="M248.19,154.08c.15.1.29.17.44.26a13.64,13.64,0,0,0,4.39-8.67l-.49-.1A13.21,13.21,0,0,1,248.19,154.08Z"/><path class="cls-1" d="M110.45,151.06c-.84-2-1.7-4.14-1.45-6.56-5.63-.2-10,2.44-14.7,6.26,6.08,2.1,11.16,5.26,17,2.56v0C111.06,152.53,110.75,151.78,110.45,151.06Z"/><path class="cls-1" d="M109.5,144.51H109c-.25,2.42.61,4.52,1.45,6.56.3.72.61,1.47.86,2.22v0c.15-.07.31-.12.46-.2C110.84,150.3,109.15,147.67,109.5,144.51Z"/><path class="cls-1" d="M221.16,100.57l0,.08c4.26,1.91,8.73,1.69,13.37,1.45-3.22-7.44-8-11.17-13.89-11A16.82,16.82,0,0,1,221.16,100.57Z"/><path class="cls-1" d="M220.67,100.47c.15.07.31.12.46.18l0-.08a16.82,16.82,0,0,0-.55-9.48h-.52A16.45,16.45,0,0,1,220.67,100.47Z"/><path class="cls-1" d="M253.68,168.74c-.35-6.36-3-10.94-8.75-13.34l-4,1C240.71,162.89,244.58,166.72,253.68,168.74Z"/><path class="cls-1" d="M241,155.87c0,.17,0,.34,0,.51l4-1c-.25-.1-.49-.2-.75-.29Z"/><path class="cls-1" d="M114.34,155.1l-.12-.13c-4.69,2.14-7.11,6.45-6.84,12.28,8.46-2,11.58-4.84,12-11l-4.88-1.08Z"/><path class="cls-1" d="M114.71,154.76c-.17.06-.33.14-.49.21l.12.13.11.11,4.88,1.08c0-.17,0-.33,0-.51Z"/><path class="cls-1" d="M210.25,86.25c.3-5.39.6-10.81.94-17.16-3.24,6.16-2.69,12.27-3.88,18l2.89-.8Z"/><path class="cls-1" d="M210.22,86.75l0-.5h-.05l-2.89.8c0,.18-.07.37-.11.55Z"/><path class="cls-1" d="M149.91,71.25l-1.44.22c-.16,5.22,1,10.36,1.6,15.54l2.77-.77Q151.37,78.74,149.91,71.25Z"/><path class="cls-1" d="M152.93,86.73l-.09-.49-2.77.77c0,.17,0,.34.05.5Z"/><path class="cls-1" d="M248.4,136.72a12,12,0,0,0-.65-7c-.53,2-1.07,4.06-1.6,6.09h.06Z"/><path class="cls-1" d="M248.29,137.21c0-.17.07-.33.11-.49l-2.19-.86h-.06l-.12.47Z"/><path class="cls-1" d="M172.55,96.69c4.33-2.36,8.95-3.59,10.91-8.34l-.94,0c-2.29,0-4.67-.07-6.8-1.51C174,89.66,172.26,92.54,172.55,96.69Z"/><path class="cls-1" d="M183.46,88.35c.06-.17.14-.32.2-.5-2.64-.08-5.33.14-7.67-1.46l-.27.43c2.13,1.44,4.51,1.48,6.8,1.51Z"/><path class="cls-1" d="M186.05,96.11c-5.82,1.44-8.23,6.11-11.06,11.93,6-2.16,10.75-3.9,13.53-8.71.58-1,1.2-2.25.61-3.23C188.34,94.8,187.07,95.86,186.05,96.11Z"/><path class="cls-1" d="M159.67,251.51h10.69v3.35h-3.53v14.55H163.1V254.86h-3.43Z"/><path class="cls-1" d="M171.87,251.51h3.73v6.75h6.46v-6.75h3.72v17.9h-3.72v-7.85H175.6v7.85h-3.73Z"/><path class="cls-1" d="M189.21,251.51h10.56v3.33h-6.9v3.24h6.9v3.27h-6.9v4.71h6.9v3.35H189.21Z"/><path class="cls-1" d="M40.14,309.39H17.82l-3.3,6.4a5,5,0,0,0-.69,2.09c0,1,.81,1.66,2.41,2V321H0v-1.06A4.45,4.45,0,0,0,2.19,319a9,9,0,0,0,1.73-2.59L22,281.45a6.36,6.36,0,0,0,.86-2.66c0-1-.69-1.76-2.09-2.2v-1.07H38.16v1.07c-1.41.37-2.12,1-2.12,2a4.68,4.68,0,0,0,.68,2.2l18.71,35a11.85,11.85,0,0,0,2.08,3,4.72,4.72,0,0,0,2.41,1.09V321H41.85v-1.06c1.59-.25,2.38-.94,2.38-2.07a5.06,5.06,0,0,0-.72-2.06Zm-3.09-6.23-8-16.19L21,303.16Z"/><path class="cls-1" d="M80.59,283v34.48a2.17,2.17,0,0,0,.5,1.56,3.71,3.71,0,0,0,1.8.87V321H67.56v-1.06a3.67,3.67,0,0,0,1.8-.87,2.17,2.17,0,0,0,.51-1.56V283H54.62a2.65,2.65,0,0,0-1.66.46,3.25,3.25,0,0,0-.93,1.68H50.88V273.39H52a3.52,3.52,0,0,0,.95,1.67,2.51,2.51,0,0,0,1.64.46H95.8a2.64,2.64,0,0,0,1.69-.46,3.22,3.22,0,0,0,.94-1.67h1.15v11.76H98.43a3.26,3.26,0,0,0-.94-1.68A2.7,2.7,0,0,0,95.8,283Z"/><path class="cls-1" d="M131,309.39H108.64l-3.31,6.4a5.1,5.1,0,0,0-.68,2.09c0,1,.8,1.66,2.41,2V321H90.82v-1.06A4.49,4.49,0,0,0,93,319a9.19,9.19,0,0,0,1.73-2.59l18.05-34.94a6.26,6.26,0,0,0,.87-2.66c0-1-.7-1.76-2.09-2.2v-1.07H129v1.07c-1.42.37-2.12,1-2.12,2a4.57,4.57,0,0,0,.68,2.2l18.7,35a11.82,11.82,0,0,0,2.09,3,4.69,4.69,0,0,0,2.41,1.09V321H132.67v-1.06c1.58-.25,2.38-.94,2.38-2.07a5.06,5.06,0,0,0-.72-2.06Zm-3.08-6.23-8-16.19-8.09,16.19Z"/><path class="cls-1" d="M163.06,289.84v27.65a2.17,2.17,0,0,0,.5,1.56,3.76,3.76,0,0,0,1.8.87V321H150.94v-1.06a3.67,3.67,0,0,0,1.79-.87,2.17,2.17,0,0,0,.51-1.56V279a2.14,2.14,0,0,0-.51-1.53,3.76,3.76,0,0,0-1.79-.86v-1.07h16.69v1.07c-1,.24-1.55.75-1.55,1.53a2.6,2.6,0,0,0,1,1.76L194.17,306V279a2.18,2.18,0,0,0-.5-1.53,3.86,3.86,0,0,0-1.8-.86v-1.07h14.42v1.07a3.86,3.86,0,0,0-1.8.86A2.18,2.18,0,0,0,204,279v38.51a2.21,2.21,0,0,0,.5,1.56,3.76,3.76,0,0,0,1.8.87V321H190.83v-1.06c1-.2,1.51-.68,1.51-1.43q0-.67-1.77-2.34Z"/><path class="cls-1" d="M247.92,309.39H225.61l-3.31,6.4a5.1,5.1,0,0,0-.68,2.09q0,1.47,2.4,2V321H207.78v-1.06A4.53,4.53,0,0,0,210,319a9,9,0,0,0,1.72-2.59l18.06-34.94a6.22,6.22,0,0,0,.86-2.66c0-1-.69-1.76-2.08-2.2v-1.07H246v1.07c-1.42.37-2.13,1-2.13,2a4.6,4.6,0,0,0,.69,2.2l18.7,35a11.57,11.57,0,0,0,2.09,3,4.69,4.69,0,0,0,2.41,1.09V321H249.63v-1.06c1.59-.25,2.39-.94,2.39-2.07a5.06,5.06,0,0,0-.72-2.06Zm-3.08-6.23-8-16.19-8.09,16.19Z"/><path class="cls-1" d="M289.12,302v15.53a2.18,2.18,0,0,0,.52,1.57,3.86,3.86,0,0,0,1.79.87V321H276v-1.06a4.09,4.09,0,0,0,1.84-.87,2.11,2.11,0,0,0,.54-1.57V302l-15.87-20.67a21.23,21.23,0,0,0-3.22-3.58,5.46,5.46,0,0,0-2.78-1.11v-1.07h19.38v1.07c-1.6.24-2.41.93-2.41,2.06a7.08,7.08,0,0,0,1.48,2.63l8.85,12.16,9.1-12.16a6.37,6.37,0,0,0,1.47-2.66,1.68,1.68,0,0,0-.64-1.32,3.5,3.5,0,0,0-1.76-.71v-1.07h19v1.07a5.5,5.5,0,0,0-2.78,1.11,21.23,21.23,0,0,0-3.22,3.58Z"/><path class="cls-1" d="M340.21,309.39H317.9l-3.31,6.4a5.1,5.1,0,0,0-.68,2.09c0,1,.8,1.66,2.41,2V321H300.08v-1.06a4.49,4.49,0,0,0,2.19-.94,9.19,9.19,0,0,0,1.73-2.59l18.05-34.94a6.26,6.26,0,0,0,.87-2.66c0-1-.7-1.76-2.09-2.2v-1.07h17.41v1.07c-1.42.37-2.12,1-2.12,2a4.57,4.57,0,0,0,.68,2.2l18.7,35a11.82,11.82,0,0,0,2.09,3,4.69,4.69,0,0,0,2.41,1.09V321H341.93v-1.06c1.58-.25,2.38-.94,2.38-2.07a5.06,5.06,0,0,0-.72-2.06Zm-3.08-6.23-8-16.19-8.09,16.19Z"/><path class="cls-1" d="M134.8,330.69h1.88v6.41l7.37-6.41h2.48l-8.86,7.67,9.55,9.41h-2.46l-8.08-7.95v7.95H134.8Z"/><path class="cls-1" d="M148.07,335.14h1.76V341a11.55,11.55,0,0,0,.25,3,3.32,3.32,0,0,0,1.44,1.84,4.68,4.68,0,0,0,2.53.67,4.49,4.49,0,0,0,2.49-.66,3.38,3.38,0,0,0,1.41-1.72,11.06,11.06,0,0,0,.27-3.1v-5.9H160v6.2a9.18,9.18,0,0,1-.66,3.94,4.82,4.82,0,0,1-2,2.07,7.75,7.75,0,0,1-6.65,0,4.78,4.78,0,0,1-2-2.09,9.51,9.51,0,0,1-.66-4Z"/><path class="cls-1" d="M164.05,330.45h1.76v4.69h2.78v1.41h-2.78v11.22h-1.76V336.55h-2.39v-1.41h2.39Z"/><path class="cls-1" d="M183.43,335.14v12.63H181.7V345.6a7.42,7.42,0,0,1-2.47,1.87,7.15,7.15,0,0,1-3,.63,6.93,6.93,0,0,1-4.95-2,6.28,6.28,0,0,1-2.05-4.73,6.19,6.19,0,0,1,2.08-4.67,7,7,0,0,1,5-1.94,6.61,6.61,0,0,1,5.43,2.65v-2.32Zm-7,1.24a5.58,5.58,0,0,0-2.71.67,5.13,5.13,0,0,0-2,1.87,4.81,4.81,0,0,0,0,5.11,5.14,5.14,0,0,0,2,1.89,5.52,5.52,0,0,0,2.67.68,5.77,5.77,0,0,0,2.73-.67,5,5,0,0,0,2-1.82,5.1,5.1,0,0,0-.86-6.25A5.35,5.35,0,0,0,176.42,336.38Z"/><path class="cls-1" d="M192.06,330.69h3.64a9.3,9.3,0,0,1,3.37.48,4.09,4.09,0,0,1,1.86,1.48,3.84,3.84,0,0,1,.69,2.22A3.79,3.79,0,0,1,201,337a4.38,4.38,0,0,1-1.76,1.51,7.11,7.11,0,0,1,2.21,1.06,4.32,4.32,0,0,1,1.21,1.48,4.21,4.21,0,0,1,.43,1.87,4.44,4.44,0,0,1-1.63,3.48,6.35,6.35,0,0,1-4.35,1.42h-5.07Zm1.81,1.67v5.47h1a8.89,8.89,0,0,0,2.83-.33,3,3,0,0,0,1.43-1,2.64,2.64,0,0,0,.53-1.59,2.19,2.19,0,0,0-.89-1.84,4.76,4.76,0,0,0-2.82-.67Zm0,7.19v6.55h2.28a9,9,0,0,0,3-.36,3.35,3.35,0,0,0,1.51-1.15,2.79,2.79,0,0,0,.57-1.68,2.83,2.83,0,0,0-.8-2,4.27,4.27,0,0,0-2.21-1.16,17.33,17.33,0,0,0-3.28-.21Z"/><path class="cls-1" d="M218.68,335.14v12.63H217V345.6a7.56,7.56,0,0,1-2.48,1.87,7.14,7.14,0,0,1-3,.63,6.92,6.92,0,0,1-4.95-2,6.25,6.25,0,0,1-2.05-4.73,6.18,6.18,0,0,1,2.07-4.67,7,7,0,0,1,5-1.94,6.75,6.75,0,0,1,3,.67,6.87,6.87,0,0,1,2.39,2v-2.32Zm-7,1.24a5.58,5.58,0,0,0-2.71.67,5.13,5.13,0,0,0-2,1.87,4.85,4.85,0,0,0-.73,2.55A4.92,4.92,0,0,0,207,344a5.14,5.14,0,0,0,2,1.89,5.53,5.53,0,0,0,2.68.68,5.8,5.8,0,0,0,2.73-.67,4.92,4.92,0,0,0,2-1.82,5.1,5.1,0,0,0-.86-6.25A5.35,5.35,0,0,0,211.66,336.38Z"/><path class="cls-1" d="M221,330.26h1.75v17.51H221Z"/><path class="cls-1" d="M225.6,329.94a1.49,1.49,0,0,1,1,.39,1.28,1.28,0,0,1,0,1.9,1.49,1.49,0,0,1-1,.39,1.45,1.45,0,0,1-1-.39,1.28,1.28,0,0,1,0-1.9A1.45,1.45,0,0,1,225.6,329.94Zm-.87,5.2h1.76v12.63h-1.76Z"/></svg>