<svg id="Layer_1" data-name="Layer 1" xmlns="http://www.w3.org/2000/svg" viewBox="0 0 600 120"><defs><style>.cls-1{fill:#fff;}</style></defs><title>atria-v-light</title><path class="cls-1" d="M60.05,105.62l-8.7-23.81H20.67L12.54,104,0,105.62,31.88,18.38,46,16.72l31.42,85.7ZM25,69.85H46.88L36,40Z"/><path class="cls-1" d="M115.91,89.88,118,93.2l-12.88,12.42h-2.47q-21.47,0-21.46-22.55V53.93H69v-.28l29.31-28V42h18.26l-4.06,12H98.33V83.58q0,10.08,7.85,10.08Q109.09,93.66,115.91,89.88Z"/><path class="cls-1" d="M151,40.31a19.5,19.5,0,0,1,10,2.4,24.41,24.41,0,0,1,7.78,8.13L155.62,62.46a22.55,22.55,0,0,0-5.72-6h-9.27a53.48,53.48,0,0,0-2,12.53V104l-17,.58V42l17-.63V52.73Z"/><path class="cls-1" d="M177.31,35.73l-12.08-12L180,14.38l12.08,11.85Zm-7.16,68.81V42l17-.63V104Z"/><path class="cls-1" d="M220.4,40.31q27.65,0,27.71,27V104l-17.12.58V97.61l-19,8q-8.94,0-13.86-4.29t-4.92-12.94a33.53,33.53,0,0,1,3.09-13.74L230.65,63q-2-10.76-15.86-10.76-6.58,0-16.66,5.15L196,54.28l14.42-14ZM229,94.46a65.88,65.88,0,0,0,2-15V73.34H212.68a36.92,36.92,0,0,0-2.47,12.19c0,3.82,1.2,6.26,3.58,7.33S221.24,94.46,229,94.46Z"/><path class="cls-1" d="M304.62,70.16c-2.63.34-2.8.6-2.8,3.1v3.57a23.64,23.64,0,0,0,.25,4,43.46,43.46,0,0,1-9.64,1.53c-9.64,0-15.51-6-15.51-14.53,0-9,7.31-14.32,15.81-14.32a42.72,42.72,0,0,1,8.83,1.07c.09,1.57.3,4.16.64,6.84l-1.28.25c-1-3.61-2.25-5.14-4.92-6a14.33,14.33,0,0,0-3.95-.55c-6.5,0-10.71,4.46-10.71,12.23,0,6.75,3.49,13.46,11.73,13.46a8.43,8.43,0,0,0,3.61-.72c.89-.51,1.44-1,1.44-2.72V73.9c0-3.1-.34-3.44-4.42-3.74V68.93h10.92Z"/><path class="cls-1" d="M320.29,81.76V80.57c2.76-.34,3.1-.77,2.51-2.38s-1.41-3.78-2.3-6.46h-9.17c-.68,1.92-1.32,3.57-1.92,5.31-.93,2.76-.34,3.1,3.15,3.53v1.19h-9.81V80.57c2.67-.34,3.35-.64,4.84-4.46l8.79-22.3,1.36-.26c2.68,7.27,5.61,15.3,8.28,22.64,1.36,3.7,1.74,4,4.76,4.38v1.19ZM316,59.12c-1.36,3.65-2.8,7.52-4.08,10.87h8Z"/><path class="cls-1" d="M340.59,54.15c6,0,9.77,1.19,12.4,3.69a12.31,12.31,0,0,1,3.61,9.09,14,14,0,0,1-5.31,11.47c-3.23,2.42-7.35,3.36-12.57,3.36h-9.94V80.57c3.65-.34,3.82-.64,3.82-4.12v-17c0-3.65-.51-3.82-3.82-4.16V54.15Zm-4.29,22c0,3.19,1.36,4.08,4.54,4.08,7.65,0,11.56-5.23,11.56-12.66,0-4.63-1.57-8.16-4.93-10.2a13.45,13.45,0,0,0-7.26-1.69c-1.91,0-2.93.25-3.36.59s-.55.72-.55,2.38Z"/><path class="cls-1" d="M357,81.76V80.57c3.49-.38,3.83-.55,3.83-4.16V59.54c0-3.65-.34-3.82-3.83-4.2V54.15h11.39v1.19c-3.53.38-3.87.55-3.87,4.2V76.41c0,3.65.34,3.78,3.87,4.16v1.19Z"/><path class="cls-1" d="M398.35,55.34c-2.72.3-3.61.72-3.74,2.67,0,1.36-.12,3.15-.12,7.1v17h-1.62L374.69,59.93V70.55c0,3.82.13,5.73.21,7,.09,2.17,1.15,2.8,4.21,3.06v1.19H368.79V80.57c2.63-.21,3.65-.85,3.82-2.93.13-1.36.21-3.27.21-7.14V59.67a3.67,3.67,0,0,0-.85-2.8c-.8-1.06-1.7-1.32-3.78-1.53V54.15h6.37l18,21.36V65.11c0-4-.08-5.78-.21-7-.12-1.92-1.1-2.51-4.5-2.72V54.15h10.49Z"/><path class="cls-1" d="M425.66,70.16c-2.63.34-2.8.6-2.8,3.1v3.57a23.64,23.64,0,0,0,.25,4,43.46,43.46,0,0,1-9.64,1.53c-9.64,0-15.5-6-15.5-14.53,0-9,7.3-14.32,15.8-14.32a42.61,42.61,0,0,1,8.83,1.07c.09,1.57.3,4.16.64,6.84l-1.27.25c-1-3.61-2.26-5.14-4.93-6a14.33,14.33,0,0,0-4-.55c-6.5,0-10.71,4.46-10.71,12.23,0,6.75,3.49,13.46,11.73,13.46a8.43,8.43,0,0,0,3.61-.72c.89-.51,1.44-1,1.44-2.72V73.9c0-3.1-.34-3.44-4.42-3.74V68.93h10.92Z"/><path class="cls-1" d="M446.38,60.61c-.72-2.81-1.91-5.57-5.9-5.57-3.31,0-4.46,2.42-4.46,4.63,0,2.93,1.87,4.42,5.39,6.24,5.1,2.64,7.31,4.59,7.31,8.63,0,4.46-3.87,7.86-9.35,7.86A17.69,17.69,0,0,1,432.88,81a58.15,58.15,0,0,1-1.15-6.37l1.32-.34c.85,2.85,2.71,6.54,7.13,6.54a4.67,4.67,0,0,0,4.93-4.88c0-3.27-1.74-4.59-5.48-6.63-4.46-2.42-7-4.46-7-8.41,0-3.78,3.15-7.35,8.75-7.35a27.14,27.14,0,0,1,5.61.81c.17,1.53.34,3.23.68,6Z"/><path class="cls-1" d="M470.72,75c-.26,1.11-1.4,5.48-1.83,6.76H448.25V80.57c3.95-.3,4.25-.68,4.25-4.16V59.63c0-3.78-.47-4-3.66-4.29V54.15h13c4,0,5.65,0,6.16-.09,0,1.07.21,4.25.38,6.5l-1.27.22a13.78,13.78,0,0,0-1.28-3.23c-.67-1.41-1.65-1.7-4.2-1.7h-4c-1.31,0-1.4.12-1.4,1.36v9.38h4.72c3.18,0,3.4-.63,3.91-3.52h1.31v8.75h-1.31c-.56-3.06-.9-3.48-4-3.48h-4.67v8.45c0,3,.94,3.23,3.06,3.27h3.95c2.59,0,3-.38,3.95-1.49a18.32,18.32,0,0,0,2.3-3.9Z"/><path class="cls-1" d="M495.18,82.1c-.55,0-1,0-1.57-.09-3.1-.21-4.76-1-6.62-3.65-1.58-2.17-3.11-4.84-4.46-7-.85-1.36-1.41-1.61-3.57-1.61h-1.49v6.67c0,3.61.47,3.82,3.87,4.16v1.19H470V80.57c3.53-.38,3.83-.55,3.83-4.16V59.46c0-3.61-.47-3.74-3.83-4.12V54.15h10.84c3.1,0,5.18.38,6.79,1.44a6.36,6.36,0,0,1,2.89,5.61c0,3.65-2.34,6-5.48,7.31.77,1.31,2.59,4.16,3.87,6.07A39.54,39.54,0,0,0,492.25,79a6.15,6.15,0,0,0,3.1,2ZM479.51,68.29c2.21,0,3.61-.34,4.67-1.23a6,6,0,0,0,2.34-5.22c0-4.55-3-6.2-6.29-6.2a4,4,0,0,0-2.25.42c-.38.3-.51.72-.51,1.83v10.4Z"/><path class="cls-1" d="M504.1,54.15c3,0,5.44.55,7.18,1.82a7.19,7.19,0,0,1,2.8,6c0,6.2-5.31,8.7-9.34,8.7a8,8,0,0,1-1.15-.08l-2.93-.77v6.63c0,3.57.3,3.65,4.2,4.08v1.19H493.14V80.57c3.65-.38,3.82-.64,3.82-4.16V59.54c0-3.78-.46-3.86-3.82-4.2V54.15Zm-3.44,14.23a7.82,7.82,0,0,0,3.1.55c2.85,0,6.37-1.44,6.37-6.8,0-4.67-3.06-6.54-6.62-6.54a3.82,3.82,0,0,0-2.38.51c-.34.3-.47.81-.47,2Z"/><path class="cls-1" d="M529.16,53.55a13.66,13.66,0,0,1,13.76,14c0,9.13-6.2,14.83-14,14.83a13.83,13.83,0,0,1-14.1-14.19C514.8,60.61,520.2,53.55,529.16,53.55Zm-.85,1.58c-4.76,0-9.09,4-9.09,11.93s4.33,13.72,10.36,13.72c5.14,0,9-3.82,9-12C538.59,59.84,533.87,55.13,528.31,55.13Z"/><path class="cls-1" d="M572.69,55.34c-2.72.3-3.61.72-3.74,2.67,0,1.36-.12,3.15-.12,7.1v17h-1.62L549,59.93V70.55c0,3.82.13,5.73.22,7,.08,2.17,1.14,2.8,4.2,3.06v1.19H543.13V80.57c2.63-.21,3.65-.85,3.82-2.93.13-1.36.21-3.27.21-7.14V59.67a3.67,3.67,0,0,0-.85-2.8c-.8-1.06-1.7-1.32-3.78-1.53V54.15h6.38l18,21.36V65.11c0-4-.09-5.78-.22-7-.13-1.92-1.1-2.51-4.5-2.72V54.15h10.49Z"/><path class="cls-1" d="M600,70.16c-2.63.34-2.8.6-2.8,3.1v3.57a23.64,23.64,0,0,0,.25,4,43.46,43.46,0,0,1-9.64,1.53c-9.64,0-15.5-6-15.5-14.53,0-9,7.3-14.32,15.8-14.32a42.72,42.72,0,0,1,8.83,1.07c.09,1.57.3,4.16.64,6.84l-1.28.25c-1-3.61-2.25-5.14-4.92-6a14.33,14.33,0,0,0-4-.55c-6.5,0-10.71,4.46-10.71,12.23,0,6.75,3.49,13.46,11.73,13.46a8.43,8.43,0,0,0,3.61-.72c.89-.51,1.44-1,1.44-2.72V73.9c0-3.1-.34-3.44-4.42-3.74V68.93H600Z"/></svg>