<svg id="Layer_1" data-name="Layer 1" xmlns="http://www.w3.org/2000/svg" viewBox="0 0 360 360"><defs><style>.cls-1{fill:#fff;}</style></defs><title>atria-h-light</title><path class="cls-1" d="M87.13,226.55,74.5,192H30L18.19,224.14,0,226.55,46.26,100,66.7,97.56,112.3,221.9ZM36.3,174.64H68L52.24,131.28Z"/><path class="cls-1" d="M168.18,203.71l3.07,4.82-18.69,18H149q-31.14,0-31.14-32.72V151.55h-17.7v-.41l42.53-40.62v23.67h26.5l-5.9,17.36h-20.6v43q0,14.63,11.38,14.62Q158.29,209.19,168.18,203.71Z"/><path class="cls-1" d="M219.16,131.78a28.24,28.24,0,0,1,14.45,3.49q6,3.49,11.3,11.8l-19.1,16.86a32.68,32.68,0,0,0-8.31-8.64H204.05q-2.91,11.39-2.91,18.19v50.66l-24.67.83V134.19l24.67-.91v16.53Z"/><path class="cls-1" d="M257.27,125.14l-17.52-17.36,21.43-13.62,17.52,17.19ZM246.89,225V134.19l24.67-.91v90.86Z"/><path class="cls-1" d="M319.8,131.78q40.13,0,40.2,39.12v53.24l-24.83.83V214.92l-27.58,11.63q-13,0-20.1-6.23t-7.14-18.77a48.58,48.58,0,0,1,4.48-19.93l49.84-16.86q-2.91-15.62-23-15.62-9.56,0-24.17,7.48l-3.07-4.57,20.93-20.27Zm12.46,78.58a95.11,95.11,0,0,0,2.91-21.77v-8.88H308.59q-3.57,10-3.57,17.69,0,8.31,5.19,10.63T332.26,210.36Z"/><path class="cls-1" d="M37.11,257.6c-1.78.23-1.89.4-1.89,2.09v2.4a16,16,0,0,0,.17,2.72,29.12,29.12,0,0,1-6.49,1c-6.5,0-10.44-4-10.44-9.78,0-6,4.91-9.64,10.64-9.64a29.75,29.75,0,0,1,5.95.71c.05,1.06.2,2.81.42,4.61l-.85.17c-.69-2.43-1.52-3.46-3.32-4.06a9.6,9.6,0,0,0-2.66-.37c-4.38,0-7.21,3-7.21,8.24,0,4.54,2.35,9.06,7.89,9.06a5.86,5.86,0,0,0,2.44-.48,1.7,1.7,0,0,0,1-1.83v-2.35c0-2.09-.23-2.32-3-2.52v-.83h7.36Z"/><path class="cls-1" d="M55.07,265.41v-.8c1.85-.23,2.08-.51,1.68-1.6s-.94-2.55-1.54-4.35H49c-.46,1.29-.89,2.41-1.29,3.58-.63,1.86-.23,2.09,2.12,2.37v.8H43.25v-.8c1.8-.23,2.26-.43,3.26-3l5.92-15,.92-.17c1.8,4.89,3.77,10.3,5.58,15.25.91,2.48,1.17,2.71,3.2,2.94v.8ZM52.2,250.17c-.91,2.46-1.88,5.06-2.74,7.32h5.35Z"/><path class="cls-1" d="M76.14,246.82c4,0,6.58.8,8.36,2.49a8.27,8.27,0,0,1,2.43,6.12,9.4,9.4,0,0,1-3.58,7.72c-2.17,1.63-4.95,2.26-8.47,2.26H68.19v-.8c2.46-.23,2.58-.43,2.58-2.77V250.42c0-2.46-.35-2.57-2.58-2.8v-.8Zm-2.89,14.79c0,2.14.92,2.74,3.06,2.74,5.15,0,7.78-3.51,7.78-8.52,0-3.12-1-5.49-3.31-6.86a9.07,9.07,0,0,0-4.89-1.15,4,4,0,0,0-2.26.4c-.26.17-.38.49-.38,1.6Z"/><path class="cls-1" d="M94.62,265.41v-.8c2.34-.26,2.57-.37,2.57-2.8V250.45c0-2.46-.23-2.57-2.57-2.83v-.8h7.66v.8c-2.37.26-2.6.37-2.6,2.83v11.36c0,2.46.23,2.54,2.6,2.8v.8Z"/><path class="cls-1" d="M129.86,247.62c-1.83.2-2.44.49-2.52,1.8,0,.92-.09,2.12-.09,4.78v11.47h-1.08l-12.25-15v7.15c0,2.58.09,3.86.15,4.69.05,1.46.77,1.89,2.83,2.06v.8h-7v-.8c1.77-.14,2.46-.57,2.57-2,.09-.92.14-2.2.14-4.81v-7.29a2.48,2.48,0,0,0-.57-1.89c-.54-.71-1.14-.89-2.54-1v-.8h4.29L126,261.21v-7a47.2,47.2,0,0,0-.15-4.75c-.08-1.29-.74-1.69-3-1.83v-.8h7.07Z"/><path class="cls-1" d="M155.65,257.6c-1.77.23-1.88.4-1.88,2.09v2.4a15,15,0,0,0,.17,2.72,29.22,29.22,0,0,1-6.5,1c-6.49,0-10.44-4-10.44-9.78,0-6,4.92-9.64,10.64-9.64a29.53,29.53,0,0,1,6,.71c.06,1.06.2,2.81.43,4.61l-.86.17c-.68-2.43-1.51-3.46-3.31-4.06a9.6,9.6,0,0,0-2.66-.37c-4.38,0-7.21,3-7.21,8.24,0,4.54,2.34,9.06,7.89,9.06a5.78,5.78,0,0,0,2.43-.48,1.71,1.71,0,0,0,1-1.83v-2.35c0-2.09-.23-2.32-3-2.52v-.83h7.35Z"/><path class="cls-1" d="M184.42,251.17c-.48-1.89-1.28-3.75-4-3.75a2.86,2.86,0,0,0-3,3.12c0,2,1.26,3,3.64,4.2,3.43,1.78,4.92,3.09,4.92,5.81,0,3-2.61,5.29-6.3,5.29a11.87,11.87,0,0,1-4.37-.94,38.57,38.57,0,0,1-.78-4.29l.89-.23c.57,1.91,1.83,4.4,4.81,4.4a3.15,3.15,0,0,0,3.32-3.29c0-2.2-1.18-3.08-3.69-4.46-3-1.63-4.7-3-4.7-5.66s2.12-5,5.9-5a18.63,18.63,0,0,1,3.77.54c.12,1,.23,2.18.46,4Z"/><path class="cls-1" d="M208.22,260.87c-.17.74-.94,3.68-1.23,4.54h-13.9v-.8c2.66-.2,2.86-.46,2.86-2.8v-11.3c0-2.55-.32-2.69-2.46-2.89v-.8h8.75c2.69,0,3.81,0,4.15-.06,0,.72.14,2.86.26,4.38l-.86.14a9.86,9.86,0,0,0-.86-2.17c-.46-1-1.12-1.15-2.83-1.15h-2.72c-.89,0-.94.09-.94.92v6.32h3.17c2.15,0,2.29-.43,2.63-2.37h.89v5.89h-.89c-.37-2.06-.6-2.35-2.66-2.35h-3.14v5.7c0,2,.63,2.17,2.06,2.2h2.66c1.74,0,2-.26,2.66-1a12.56,12.56,0,0,0,1.54-2.63Z"/><path class="cls-1" d="M232.1,265.64c-.37,0-.69,0-1.06-.06a5.05,5.05,0,0,1-4.46-2.46c-1.06-1.45-2.09-3.26-3-4.71-.58-.92-1-1.09-2.41-1.09h-1v4.49c0,2.43.32,2.57,2.61,2.8v.8h-7.64v-.8c2.37-.26,2.57-.37,2.57-2.8V250.4c0-2.44-.31-2.52-2.57-2.78v-.8h7.29a8.13,8.13,0,0,1,4.58,1,4.29,4.29,0,0,1,1.94,3.78c0,2.46-1.57,4-3.69,4.92.52.89,1.75,2.8,2.61,4.09a27.42,27.42,0,0,0,2.26,2.95,4.14,4.14,0,0,0,2.09,1.31Zm-10.55-9.29a4.59,4.59,0,0,0,3.14-.83,4,4,0,0,0,1.58-3.52c0-3.06-2-4.18-4.24-4.18a2.59,2.59,0,0,0-1.51.29c-.26.2-.35.48-.35,1.23v7Z"/><path class="cls-1" d="M245.51,246.82a8.1,8.1,0,0,1,4.84,1.23,4.84,4.84,0,0,1,1.89,4.06c0,4.18-3.58,5.87-6.3,5.87a4.8,4.8,0,0,1-.77-.06l-2-.52v4.47c0,2.4.2,2.46,2.83,2.74v.8h-7.9v-.8c2.46-.26,2.58-.43,2.58-2.8V250.45c0-2.54-.32-2.6-2.58-2.83v-.8Zm-2.31,9.58a5.18,5.18,0,0,0,2.08.37c1.92,0,4.29-1,4.29-4.57,0-3.15-2-4.41-4.46-4.41a2.53,2.53,0,0,0-1.6.35c-.23.2-.31.54-.31,1.31Z"/><path class="cls-1" d="M269.79,246.42a9.19,9.19,0,0,1,9.27,9.44c0,6.15-4.17,10-9.44,10a9.3,9.3,0,0,1-9.49-9.55C260.13,251.17,263.76,246.42,269.79,246.42Zm-.57,1.06c-3.2,0-6.12,2.69-6.12,8s2.92,9.23,7,9.23c3.46,0,6.06-2.57,6.06-8.09C276.14,250.65,273,247.48,269.22,247.48Z"/><path class="cls-1" d="M306.52,247.62c-1.83.2-2.43.49-2.52,1.8,0,.92-.08,2.12-.08,4.78v11.47h-1.09l-12.24-15v7.15c0,2.58.08,3.86.14,4.69.06,1.46.77,1.89,2.83,2.06v.8h-6.95v-.8c1.77-.14,2.46-.57,2.57-2,.09-.92.15-2.2.15-4.81v-7.29a2.52,2.52,0,0,0-.57-1.89c-.55-.71-1.15-.89-2.55-1v-.8h4.29l12.13,14.39v-7c0-2.66-.06-3.89-.14-4.75-.09-1.29-.75-1.69-3-1.83v-.8h7.07Z"/><path class="cls-1" d="M332.32,257.6c-1.78.23-1.89.4-1.89,2.09v2.4a16,16,0,0,0,.17,2.72,29.12,29.12,0,0,1-6.49,1c-6.5,0-10.44-4-10.44-9.78,0-6,4.92-9.64,10.64-9.64a29.75,29.75,0,0,1,5.95.71c.05,1.06.2,2.81.43,4.61l-.86.17c-.69-2.43-1.52-3.46-3.32-4.06a9.6,9.6,0,0,0-2.66-.37c-4.38,0-7.21,3-7.21,8.24,0,4.54,2.35,9.06,7.9,9.06a5.85,5.85,0,0,0,2.43-.48,1.7,1.7,0,0,0,1-1.83v-2.35c0-2.09-.23-2.32-3-2.52v-.83h7.36Z"/></svg>