<svg id="Layer_1" data-name="Layer 1" xmlns="http://www.w3.org/2000/svg" viewBox="0 0 360 360"><title>bestWestern-h-dark</title><path d="M102,141.94V77.27c.35,0,.32-.25.35-.44.08-.46.14-.93.22-1.39.92-5.64,4.34-10,10.58-12.85a99.83,99.83,0,0,1,13.13-4.85c8.89-2.67,17.82-5.26,26.73-7.87,7.08-2.08,14.08-4.4,21.68-5,.19,0,.37-.07.38-.26h9.85c.06.32.39.26.65.28a70.35,70.35,0,0,1,12.86,2.52c10,2.9,19.93,5.84,29.89,8.75a155.53,155.53,0,0,1,16.24,5.46,25.29,25.29,0,0,1,8.77,5.47,16.82,16.82,0,0,1,4.29,9.64c0,.26-.15.61.37.73V141.8c-.41,0-.32.3-.37.5-.14.61-.24,1.22-.41,1.82-1.35,4.76-4.41,8.56-9.81,11A35.39,35.39,0,0,1,236,157.93c-.33,0-.77-.12-.92.29H124.86c0-.28-.32-.25-.55-.28-1-.1-1.91-.18-2.85-.31a28,28,0,0,1-12.27-4.4,16.41,16.41,0,0,1-6.82-10.63C102.32,142.36,102.5,142,102,141.94Zm78,14.33h49.63a51.3,51.3,0,0,0,10.94-1c7.36-1.62,12.13-5.31,14-11.24a24.43,24.43,0,0,0,1-7.62q0-27.78,0-55.56a35.26,35.26,0,0,0-.2-4.36c-.6-4.9-3.13-8.91-8.28-11.78A49.93,49.93,0,0,0,237,60.56q-18.58-5.52-37.21-11a71.45,71.45,0,0,0-17.69-3.1A63.53,63.53,0,0,0,162,49.11c-11.65,3.36-23.26,6.81-34.89,10.21a75.62,75.62,0,0,0-13,4.75c-4.23,2.14-7.29,5-8.62,8.91a21.43,21.43,0,0,0-1,7q0,28.33,0,56.67a24.85,24.85,0,0,0,.77,6.47c1.62,6,6,10,13.42,11.88a43.93,43.93,0,0,0,10.62,1.23Q154.56,156.31,179.94,156.27Z"/><path d="M180,154.23H129.43A40.39,40.39,0,0,1,119.18,153c-6.56-1.73-10.26-5.43-11.6-10.74a21.63,21.63,0,0,1-.62-5.36q0-28.68,0-57.34a19.19,19.19,0,0,1,.84-5.86c1.1-3.52,3.82-6.07,7.57-8a72,72,0,0,1,12.81-4.63Q144.6,56.27,161,51.45a66.62,66.62,0,0,1,19.76-3,70.5,70.5,0,0,1,18.88,3.19q17.91,5.28,35.82,10.54A52.31,52.31,0,0,1,245,65.94c4.82,2.53,7.26,6.14,7.77,10.66a32.71,32.71,0,0,1,.22,3.84v57a18.06,18.06,0,0,1-1.4,7.13c-1.93,4.5-5.92,7.27-11.59,8.59a42.25,42.25,0,0,1-9.54,1Zm41-34.06v0c.19.4,0,.82,0,1.23a2.65,2.65,0,0,0,2.48,2.35,3.06,3.06,0,0,0,3.14-1.67,3.77,3.77,0,0,0,.24-2.83c-.64-2.34-3.51-3.18-5.94-1.77a6.71,6.71,0,0,0-2.36,2.44c-.11.19-.09.49-.5.57,0-.89,0-1.76,0-2.62,0-.51-.21-.61-.81-.58-2.19.09-4.39.15-6.59.23-.4,0-1-.16-.92.48.1.46-.49,1.14.8,1.22,1.61.11,2.07.61,2.09,1.89,0,.76,0,1.53,0,2.29,0,3.06,0,6.12,0,9.18,0,1.29-.42,1.66-2,1.86a2.52,2.52,0,0,1-.37.05c-.46,0-.57.21-.53.53a4.57,4.57,0,0,1,0,.74c0,.35.14.47.58.47h11.15c.21,0,.54.06.56-.15a3.42,3.42,0,0,0,0-1.39c-.09-.3-.64-.2-1-.25-1.79-.23-2.48-.83-2.48-2.27,0-1.9-.08-3.81,0-5.7A10.1,10.1,0,0,1,221,120.17Zm-98.06,7h-.23q-1.92-6.37-3.83-12.75c-.45-1.54-.09-2,1.86-2.17.35,0,.49-.11.47-.39a2.62,2.62,0,0,1,0-.74c.12-.58-.21-.68-.87-.67-3,0-6,0-9,0-1.75,0-1.81.06-1.6,1.42,0,.18,0,.36.33.36,1.32,0,1.64.75,1.91,1.59q3.4,10.51,6.84,21c.49,1.51.49,1.49,2.44,1.52.65,0,.9-.15,1.07-.64.91-2.68,1.86-5.36,2.8-8l2.28-6.44c.12.32.21.51.27.69q2.06,6.4,4.12,12.8c.52,1.63.51,1.61,2.6,1.63.62,0,.84-.16,1-.63.63-1.88,1.32-3.74,2-5.61,1.86-5.21,3.7-10.42,5.57-15.63.71-2,1.25-2.23,3.82-2.26a88,88,0,0,0,9.19-.15c3.73-.42,6.44-1.93,7.54-4.93a7.22,7.22,0,0,0,.28-3.74c-.42-2.58-2.57-4.42-5.76-5a5.49,5.49,0,0,1-.69-.18c4-1.31,5.42-3.12,5.17-6.53-.23-3-2.45-4.93-6.23-5.27-2.69-.25-5.39-.09-8.08-.11s-5.33,0-8,0c-.5,0-.77.08-.71.53a2.62,2.62,0,0,1,0,.74c-.07.44.19.52.69.54,2.07.1,2.61.55,2.61,2.2v17.91c0,.19,0,.39,0,.59-.1.85-.59,1.28-1.63,1.48a21.78,21.78,0,0,1-3.33.14c-.21,0-.57,0-.6.07a2.34,2.34,0,0,0-.07,1.52c.07.35.58.17.89.19,2.06.12,2.69.72,2.19,2.3-1.27,4-2.6,8.06-3.91,12.08-.06.18,0,.41-.37.52-1.33-4.33-2.67-8.65-4-13-.42-1.39,0-1.86,1.77-1.89,1,0,1.18-.33,1.07-1a1,1,0,0,1,0-.29c.07-.4-.08-.56-.64-.56-3.6,0-7.19,0-10.79,0-.55,0-.71.16-.65.56a2.33,2.33,0,0,1,0,.59c0,.43,0,.67.72.67a1.43,1.43,0,0,1,1.47,1,16,16,0,0,0,.79,2.43,4.93,4.93,0,0,1-.1,4.29C124.58,122.34,123.77,124.74,122.9,127.12Zm60.44-46.49c.66,1.18,1.26,2.23,1.83,3.29a.84.84,0,0,0,.88.51q3.85,0,7.71,0a.82.82,0,0,0,.84-.43q4.76-8.55,9.52-17.09a.64.64,0,0,0,0-.82c-.79-1-1.57-2-2.32-3-.26-.35-.51-.39-1-.22-1.24.45-2.48.89-3.75,1.28a1.9,1.9,0,0,0-1.2.93q-4.41,8-8.85,15.87a1.22,1.22,0,0,1-.52.67c-.51-.91-1-1.81-1.53-2.68a1.16,1.16,0,0,1,0-1.32q3.14-5.57,6.23-11.13c.2-.35.36-.65,0-1-.82-1-1.58-2-2.33-2.94-.24-.32-.46-.37-.89-.22-1.29.47-2.6.92-3.92,1.34a1.66,1.66,0,0,0-1.05.85c-.84,1.57-1.72,3.12-2.59,4.67a1.54,1.54,0,0,1-.52.7c-1-1.83-2-3.6-3-5.39a1.71,1.71,0,0,0-1.07-.84c-1.23-.39-2.46-.8-3.67-1.25-.56-.21-.89-.22-1.24.28a31.84,31.84,0,0,1-2.07,2.63.92.92,0,0,0-.1,1.22c2.09,3.7,4.16,7.42,6.23,11.13.14.27.41.52.24.84l-1.82,3.25c-.21-.36-.35-.58-.47-.8q-4.43-7.92-8.85-15.87a1.8,1.8,0,0,0-1.12-.89c-1.24-.39-2.46-.81-3.66-1.27a.87.87,0,0,0-1.23.33c-.66.92-1.39,1.81-2.12,2.69a.81.81,0,0,0-.09,1q4.73,8.43,9.41,16.88a1,1,0,0,0,1,.56q3.72,0,7.43,0a1.05,1.05,0,0,0,1.1-.6c.54-1,1.14-2.07,1.77-3.21a25.29,25.29,0,0,1,1.42,2.6c.4,1,1.08,1.34,2.37,1.22.62,0,.93-.19,1.16-.64C182.1,82.79,182.69,81.78,183.34,80.63ZM186,126.18c0-2.12,0-4.24,0-6.36,0-.53.12-.74.85-.71,1.11.06,2.23,0,3.35,0,1.62,0,1.59,0,1.59-1.3,0-.45-.14-.61-.73-.59-1.45,0-2.91,0-4.36,0-.52,0-.7-.1-.69-.53,0-1.65,0-3.31,0-5,0-1,.43-1.24,1.56-.69a10.59,10.59,0,0,0,7,.81c3.05-.62,5.25-2.56,5.62-4.94.47-3-.75-5-3.9-6.35a21.4,21.4,0,0,0-3.09-1,13.57,13.57,0,0,1-2.87-1,2.2,2.2,0,0,1-1.23-2.8,2.92,2.92,0,0,1,2.87-1.65,4,4,0,0,1,3,1.16,7,7,0,0,1,1.61,2.55c.31.76,1.1.32,1.66.38s.44-.37.44-.62c0-1.41,0-2.82,0-4.22,0-.26.2-.69-.42-.64s-1.24-.34-1.48.35-.57.44-1,.2a9,9,0,0,0-5.66-.94,6.47,6.47,0,0,0-5.73,4.37,5.15,5.15,0,0,0,2.85,6.24,19.49,19.49,0,0,0,3.25,1.24,17.48,17.48,0,0,1,3.41,1.32,2.25,2.25,0,0,1,1.15,3,3.05,3.05,0,0,1-3,1.79,5.09,5.09,0,0,1-4.26-1.86,6.26,6.26,0,0,1-1.35-2.73c-.19-.88-1-.43-1.54-.51s-.52.34-.52.63c0,1.48,0,3,0,4.44,0,3.56-2.29,6-6.49,7.06-.47.12-.63.27-.63.65,0,1.18,0,1.18,1.47,1.18a5.23,5.23,0,0,0,.56,0c.76-.11.9.17.89.73,0,3.4,0,6.8,0,10.21a24.78,24.78,0,0,0,.14,2.58c.25,2.13,1.84,3.6,4.27,3.92a11.16,11.16,0,0,0,3.6-.08c2.07-.4,3.46-1.62,3.65-3.32.11-.93,0-1.87.12-2.8.05-.62-.27-.7-.95-.73-.85,0-1.14.17-1.05.85a8.87,8.87,0,0,1,0,1.63,2.84,2.84,0,0,1-.44,1.5,1.91,1.91,0,0,1-1.93.77,1.44,1.44,0,0,1-1.37-1A4,4,0,0,1,186,132Zm49.85-6.89a12.89,12.89,0,0,1,0-1.39c0-.51-.13-.67-.81-.64-2.1.11-4.21.21-6.31.21-1,0-1.28.24-1.11,1,.06.29-.24.67.51.76,1.85.21,2.2.55,2.21,2q0,5.63,0,11.25c0,1.46-.29,1.72-2.13,2-.45.07-.66.19-.6.57a3.05,3.05,0,0,1,0,.74c0,.35.14.46.58.46h10.31c.21,0,.55.06.57-.13a3.82,3.82,0,0,0,0-1.39c-.07-.31-.57-.22-.88-.26-1.51-.2-2-.6-2-1.8,0-3.08,0-6.16,0-9.25a4.28,4.28,0,0,1,1.6-3.37,2,2,0,0,1,1.83-.49,1.35,1.35,0,0,1,1,1.3,7.18,7.18,0,0,1,0,1c0,4.56,0,9.12,0,13.68,0,.48.1.69.8.68,2.41,0,4.83,0,7.25,0,.41,0,.91,0,.74-.46s.58-1.12-.6-1.29c-1.78-.24-2.1-.57-2.11-2,0-2.39,0-4.78,0-7.17a31.72,31.72,0,0,0-.13-4.36c-.46-3-3.39-4.68-6.88-4A7.58,7.58,0,0,0,235.86,119.29Zm-59-16.92h4.93c.35,0,.67,0,.65-.41a12,12,0,0,0-1.79-6.57,6.86,6.86,0,0,0-4.38-2.89A8.82,8.82,0,0,0,166.92,96a11.39,11.39,0,0,0-1.61,8.49,9,9,0,0,0,3,5.47c3.35,3,10.61,3.31,13.23-1.24a10.61,10.61,0,0,0,1.14-3c0-.14,0-.39,0-.42a7.21,7.21,0,0,0-1.74-.08c-.47,0-.42.29-.49.52a8.47,8.47,0,0,1-1.28,2.68,4,4,0,0,1-2.54,1.61,3.53,3.53,0,0,1-4.11-1.84,12.58,12.58,0,0,1-1.07-5.37c0-.44.35-.39.68-.39Zm32.6,23.19a10.65,10.65,0,0,0-1.89-5.88,7.93,7.93,0,0,0-7.67-2.79,8.13,8.13,0,0,0-6.43,4.44,11.47,11.47,0,0,0-.83,8.84,8.48,8.48,0,0,0,3.82,5.1C201,138.05,207,136.71,209,132.5c.3-.65.45-1.33.7-2s-.07-.85-.94-.87-1.21.18-1.38.88a5.91,5.91,0,0,1-1.49,2.76,3.89,3.89,0,0,1-2.71,1.27,3.56,3.56,0,0,1-3.89-2.48,14.86,14.86,0,0,1-.77-4.61c0-.51.19-.6.78-.6,2.88,0,5.76,0,8.64,0C209.57,126.87,209.57,126.87,209.5,125.56Zm-56.34,1.31h4.93c.35,0,.65,0,.65-.4A11.7,11.7,0,0,0,157,120a6.85,6.85,0,0,0-4.3-3,8.79,8.79,0,0,0-9.5,3.38,11.35,11.35,0,0,0-1.54,9.06,8.64,8.64,0,0,0,3.34,5.33c3.71,2.81,9.75,2.35,12.27-.94a8.51,8.51,0,0,0,1.59-3.75c0-.14.06-.39,0-.41a7.07,7.07,0,0,0-1.84-.06c-.38,0-.35.3-.41.5a7.26,7.26,0,0,1-1.69,3.17,3.81,3.81,0,0,1-2.65,1.2,3.52,3.52,0,0,1-3.82-2.37,13.31,13.31,0,0,1-.8-4.74c0-.46.15-.59.72-.58C150,126.89,151.58,126.87,153.16,126.87Zm8.05,6c0,.91,0,1.83,0,2.74,0,.21-.16.58.34.55s1.18.29,1.4-.25c.36-.86.91-.65,1.58-.31a10.35,10.35,0,0,0,6.6.85c3.22-.57,5.47-2.48,5.94-5.06.52-2.82-.81-5-3.91-6.28a19.13,19.13,0,0,0-2.92-.94,15.53,15.53,0,0,1-3-1,2.21,2.21,0,0,1-1.33-2.83,2.84,2.84,0,0,1,2.83-1.67,4,4,0,0,1,3,1.13,6.82,6.82,0,0,1,1.63,2.54c.31.76,1.1.32,1.67.39s.41-.39.42-.63c0-1.43,0-2.86,0-4.29,0-.22.15-.58-.36-.55s-1.23-.27-1.42.2c-.36.89-.82.5-1.39.23a8.87,8.87,0,0,0-8.07,0,5.31,5.31,0,0,0-3.21,5.69c.25,2.4,2,3.88,4.69,4.79a33.49,33.49,0,0,1,4.81,1.73,2.35,2.35,0,0,1,1.27,3.24,3.43,3.43,0,0,1-3.58,1.61,5.13,5.13,0,0,1-3.6-1.89,6.81,6.81,0,0,1-1.33-2.73c-.22-.87-1.06-.41-1.63-.48s-.44.36-.45.61C161.19,131.17,161.21,132,161.21,132.89Zm47.92-31.36c0-2,0-4.1,0-6.14,0-.69.26-.84,1.05-.8,1,.06,2.1,0,3.16,0,1.61,0,1.58,0,1.58-1.29,0-.47-.19-.58-.74-.57-1.3,0-2.6,0-3.9,0-.87,0-1.18-.13-1.15-.87.08-1.65,0-3.31.05-5,0-.74-.27-.9-1.13-.87s-.69.56-.77.9c-.67,3-2.56,5.07-6.39,5.86-.23,0-.44.08-.51.34-.3,1.12,0,1.43,1.41,1.43a6.06,6.06,0,0,0,.74,0c.67-.08.82.15.82.66,0,2.66,0,5.32,0,8,0,1.43,0,2.86,0,4.28A4.52,4.52,0,0,0,207.2,112a10.27,10.27,0,0,0,4.31,0,4.07,4.07,0,0,0,3.33-2.79,14.57,14.57,0,0,0,.19-3.61c0-.14,0-.28-.23-.35-1-.31-1.7.07-1.72.89,0,.66-.05,1.33-.08,2a2.13,2.13,0,0,1-.34,1,1.9,1.9,0,0,1-2,.82,1.41,1.41,0,0,1-1.41-1.19,9.35,9.35,0,0,1-.14-1.4C209.12,105.37,209.13,103.45,209.13,101.53ZM180.24,53.3a6.44,6.44,0,0,1-.78,0,1.38,1.38,0,0,0-1.69.86c-.61,1.27-1.34,2.49-2.07,3.71a1,1,0,0,0,0,1.18c.55.91,1,1.84,1.55,2.76,1.09,2,1.09,1.95,3.81,1.91a.93.93,0,0,0,1-.52q1.14-2.13,2.37-4.25a.88.88,0,0,0,0-1c-.66-1.14-1.36-2.27-1.92-3.44C182,53.61,181.42,53,180.24,53.3ZM245,146.84c3.18,0,5.55-1.85,5.59-4.42s-2.3-4.5-5.45-4.52-5.57,1.88-5.6,4.42S241.87,146.82,245,146.84Z"/><path d="M245,146.84c-3.17,0-5.49-1.94-5.46-4.52s2.43-4.44,5.6-4.42,5.49,2,5.45,4.52S248.22,146.86,245,146.84Zm.06-8.16c-2.52,0-4.31,1.58-4.29,3.74s1.82,3.66,4.31,3.65,4.33-1.6,4.3-3.75S247.57,138.67,245.1,138.68Z"/><path d="M157,104.81a6.31,6.31,0,0,1-.85,3.63,4.73,4.73,0,0,1-5.37,1.82,1.75,1.75,0,0,1-1.37-1.11,4.14,4.14,0,0,1-.19-1.16c0-2.57,0-5.13,0-7.7,0-.52.18-.69.83-.65.87,0,1.73,0,2.6.09,2.36.24,3.79,1.32,4.19,3.2A7.46,7.46,0,0,1,157,104.81Z"/><path d="M149.24,93.44c0-1.16,0-2.32,0-3.47,0-1.5.95-2.1,2.81-1.85a3.93,3.93,0,0,1,3.47,2.45A6.34,6.34,0,0,1,155.6,95c-.59,1.68-2,2.47-4.59,2.64-1.77.12-1.77.12-1.77-1.26Z"/><path d="M190.81,82.62c-2.14,0-2.14,0-1.28-1.54,2.71-4.88,5.44-9.75,8.13-14.64.55-1,1.8-1,2.74-1.45a.47.47,0,0,1,.25.05,2,2,0,0,1,.79,2.15c-2.69,4.83-5.41,9.65-8.06,14.5a1.56,1.56,0,0,1-1.83.93A6.09,6.09,0,0,0,190.81,82.62Z"/><path d="M168.9,82.62c-1.41.4-2-.36-2.59-1.43-2.53-4.68-5.16-9.33-7.75-14a2,2,0,0,1,.77-2.15.42.42,0,0,1,.25-.06c.92.44,2.17.42,2.7,1.38,2.85,5.16,5.74,10.31,8.61,15.47.43.77.43.78-.64.78Z"/><path d="M176.64,76.06c-1.57-2.82-3.07-5.49-4.56-8.16a3.33,3.33,0,0,0-.41-.74c-.84-.91-.44-1.69.32-2.45.12-.13.2-.38.47-.26,1,.45,2.28.5,2.82,1.59.94,1.93,2.05,3.8,3.13,5.67a1.1,1.1,0,0,1,0,1.25C177.82,73.93,177.28,74.93,176.64,76.06Z"/><path d="M183.34,76l-1.9-3.35a.7.7,0,0,1,0-.77c1.16-2.07,2.3-4.14,3.45-6.2a6.71,6.71,0,0,1,2.69-1.28.64.64,0,0,1,.24.1,1.81,1.81,0,0,1,.63,2.3l-4.68,8.42Z"/><path d="M180,74.62c.69,1.25,1.3,2.34,1.92,3.44a.56.56,0,0,1,0,.57L180,82.08l-2-3.57a.46.46,0,0,1,.08-.49C178.69,76.94,179.3,75.86,180,74.62Z"/><path d="M174,100.51c-.68,0-1.36,0-2,0-.31,0-.55,0-.53-.35a13.11,13.11,0,0,1,.73-4.75,1.91,1.91,0,0,1,1.56-1.25,1.86,1.86,0,0,1,2,.84,6.76,6.76,0,0,1,.87,3.15c.07.59,0,1.19.08,1.77s-.08.64-.69.6S174.61,100.51,174,100.51Z"/><path d="M201.09,125h-.47c-2.21,0-2.23,0-2.09-1.74a9,9,0,0,1,.68-3.34,1.89,1.89,0,0,1,1.9-1.28A1.86,1.86,0,0,1,203,120a12.1,12.1,0,0,1,.71,4.67c0,.36-.21.41-.57.4C202.45,125,201.77,125,201.09,125Z"/><path d="M150.14,125c-.67-.06-1.78.29-2.26-.12s-.17-1.36-.12-2.06a7.42,7.42,0,0,1,.7-3,1.9,1.9,0,0,1,1.84-1.15,1.88,1.88,0,0,1,1.83,1.16,12.44,12.44,0,0,1,.78,4.88c0,.34-.29.33-.57.33Z"/><path d="M221,120.17l.13-.08,0,.11-.12,0Z"/><path d="M180,62.21c-.68-1.22-1.28-2.3-1.89-3.37a.67.67,0,0,1,0-.71c.61-1.07,1.21-2.15,1.91-3.39.71,1.29,1.37,2.46,2,3.63a.42.42,0,0,1-.06.35C181.32,59.84,180.69,61,180,62.21Z"/><path d="M245.1,138.68c2.47,0,4.3,1.53,4.32,3.64s-1.82,3.75-4.3,3.75-4.28-1.51-4.31-3.65S242.58,138.69,245.1,138.68Zm2.45,6.19s0-.06,0-.07l-1.24-1.64c-.17-.22-.35-.36.17-.51,1-.27,1.25-.77,1.08-1.58s-.81-1-1.65-1-1.61,0-2.41,0c-.41,0-.54.13-.54.44,0,1.36,0,2.71,0,4.07,0,.3.11.44.53.44s.55-.11.53-.43a5.07,5.07,0,0,1,0-1c0-.23-.25-.57.3-.65a.88.88,0,0,1,1,.41c.26.39.61.75.84,1.14A1.1,1.1,0,0,0,247.55,144.87Z"/><path d="M247.55,144.87a1.1,1.1,0,0,1-1.41-.5c-.23-.39-.58-.75-.84-1.14a.88.88,0,0,0-1-.41c-.55.08-.27.42-.3.65a5.07,5.07,0,0,0,0,1c0,.32-.13.43-.53.43s-.53-.14-.53-.44c0-1.36,0-2.71,0-4.07,0-.31.13-.45.54-.44.8,0,1.61,0,2.41,0s1.5.31,1.65,1-.12,1.31-1.08,1.58c-.52.15-.34.29-.17.51l1.24,1.64S247.55,144.84,247.55,144.87Zm-2.66-2.78h.77c.53,0,.89-.24.93-.67s-.32-.67-.85-.71-.86,0-1.3,0c-.15,0-.36,0-.37.14a2.56,2.56,0,0,0,0,1.17C244.19,142.26,244.69,142.05,244.89,142.09Z"/><path d="M244.89,142.09c-.2,0-.7.17-.81-.11a2.56,2.56,0,0,1,0-1.17c0-.14.22-.14.37-.14.44,0,.87,0,1.3,0s.9.25.85.71-.4.64-.93.67Z"/><path d="M150.45,239.93l-1.52,1c-2.38,0-20.1-.54-25-.54-2.38,0-7,.54-8,.54l-.92-.54-.21-2.43.75-1,2.06-.16c2-.32,2.16-1.4,2.16-3.46V194.58c0-1.73-.92-2.27-2.16-2.27h-2.81l-.92-.87.16-2.92.92-.7c.7,0,5.35.33,7.67.33,5.19,0,24.22-.71,25.84-.71l1.14,1.19-.76,12.11h-3.46l-.7-6.92-1.84-1.57H126.61v18.87h18.16v4.32H128.12l-1.4,1.57v19.73l17.78-.7,1.24-1.19,1.09-7.08h3.89"/><path d="M225.47,240.09l-.92.7c-2.59,0-7-.16-8.92-.16-2.21,0-7.08.16-8.16.16l-.81-.54-.22-1.89.76-1,2.76-.16,2-1.57v-.54l-3.57-40.81c-2.81,9.36-11.94,39.41-13.67,44.11l-1.41,1.19h-3.78l-2-1.57c-1.4-3.62-10.7-29.56-15.46-43.56l-2.54,41v.16l2.38,1.73,2.87.16.75.87V240l-.91.7c-2.06,0-5.3-.16-8-.16-3.19,0-6.6.16-7.84.16l-.76-.7V238l.87-.7,2.21-.16c1.57,0,2.81-.33,3-2.27l3.35-41.14L166,192.15h-3.94l-1-.87-.21-2.43,1.08-.7h6.54c1.62,0,6.65-.17,7.84-.17l1.4,1.57c1.57,7.08,10.92,33,14.49,42.7,2.92-9.19,7.78-25.08,9.73-32.16,1-3.62,3-10.92,3-10.92l1-1s4.49.16,6.27.16S220,188,220,188l1,.87,0,2.43-1,.7h-1.78c-2.33,0-3.08.17-3.08,1.73l4.1,41.51c.17,1.57.71,1.9,2.82,2.06l2.75.16.81.87"/><path d="M252.71,240.79c-1.08,0-5.35-.16-8.11-.16-2.32,0-6.54.16-7.35.16l-1.08-.86V238l.81-.87h1.89c1.73,0,2.33,0,2.33-1.89V193.77c0-1.73-.44-1.89-2.65-1.89h-1.89l-.92-.87v-1.89l1-.87c1,0,5.19.17,7.84.17,2.38,0,6.86-.17,7.67-.17l1.35.87-.1,1.73-1,1.19h-3l-1.25,1.4v42l1.73,1.73h3l1,1v1.89l-1.19.7"/><path d="M302.71,239.93l-1.52,1c-2.38,0-20.1-.54-25-.54-2.38,0-6.92.54-7.89.54l-.92-.54-.27-2.43.75-1,2.06-.16c2.05-.32,2.16-1.4,2.16-3.46V194.58c0-1.73-.92-2.27-2.16-2.27h-2.81l-.92-.87.16-2.92.92-.7c.7,0,5.35.33,7.67.33,5.19,0,24.17-.71,25.84-.71l1.14,1.19-.76,12.11h-3.46l-.7-6.92-1.84-1.57H278.87v18.87H297v4.32H280.44L279,217v19.73l17.79-.7,1.24-1.19,1.08-7.08H303"/><path d="M81.32,214.2c3.4,9,11,19.89,17.78,26.11a20.38,20.38,0,0,0,4.86,3.13c3.14,1.19,5.52-.16,6.27-1.41v-.32l-.16-.16L107.15,240c-5.89-4.49-14.16-14.86-18.05-25.24,5.94-1.89,12.43-5.51,12.43-14.54,0-9.35-9.08-12.81-15.51-12.81-6.27,0-9.3.7-13.46.7-3.35,0-6.86-.32-8.32-.32l-1.46,1-.11,2.27,1,1,2.65.16c2.22.17,2.81.33,2.81,2.27V235c0,1.57-.7,1.9-2.32,2.06H64.29l-1,1v2.05l1.08.86c1.62,0,6.11-.32,8.32-.32,2.38,0,6.65.32,8.43.32l1.25-1,.16-1.73-1.14-1L78.29,237c-1.51-.16-2.16-.54-2.16-2.06v-40.1c0-1.73.65-2.6,1.94-2.92a46.36,46.36,0,0,1,5.35-.32c4.54,0,10.81,2.43,10.81,9.67,0,7.95-6,11.08-12.64,12.27l-.38.32"/><path d="M331,214.2a77.86,77.86,0,0,0,17.78,26.11,20.22,20.22,0,0,0,4.87,3.13c3.13,1.19,5.56-.16,6.27-1.41l.05-.32-.16-.16L356.92,240c-5.84-4.49-14.16-14.86-18-25.24,5.95-1.89,12.43-5.51,12.43-14.54,0-9.35-9.08-12.81-15.51-12.81-6.27,0-9.3.7-13.46.7-3.35,0-6.81-.32-8.32-.32l-1.52,1-.1,2.27,1,1,2.65.16c2.22.17,2.81.33,2.81,2.27V235c0,1.57-.76,1.9-2.32,2.06h-2.49l-1,1v2.05l1.09.86c1.67,0,6.1-.32,8.32-.32,2.38,0,6.59.32,8.38.32l1.24-1,.16-1.73-1.13-1L328,237c-1.51-.16-2.16-.54-2.16-2.06v-40.1c0-1.73.65-2.6,2-2.92a46.07,46.07,0,0,1,5.35-.32c4.54,0,10.81,2.43,10.81,9.67,0,7.95-6.06,11.08-12.65,12.27l-.33.32"/><path d="M26.45,209.66c.44,1.57,1.79,3.3,6.76,2.27a30.32,30.32,0,0,0,6.7-1.73c18.65-7.95,20.06-21.62,19.57-27.3-1.14-13.51-10.7-19.51-26-18.48l-2.33.16c-4.75.16-11.94.7-16.7.7-4.16,0-12.75-.54-12.86-.54l-1.3,1L0,169.07l1,1.19,5.35.16c1.63.16,2.71.7,2.71,3.13v66.59c0,2.92-.71,3.79-3.52,3.79H3l-1.08,1,.1,2.6.92.86c1,0,2.6,0,4.22-.16H19.64c3.09.16,6.38.16,9.25.16l1.56-.86V245l-1.18-1H22.4c-2.43,0-3.78-.71-3.78-3.79V174a3.67,3.67,0,0,1,3-4,40.3,40.3,0,0,1,6.44-.54l2.81-.16h1.83c11.19-.17,16.76,6.21,17.3,15.73.81,15.56-12.75,22.32-23.19,24.05l-.27.16"/><path d="M283.79,266.25l.76-.7-.76-.87c-42.54-1.73-80-2.43-107.29-2.43s-64.75.7-107.29,2.43l-.76.87.76.7c42.59,1.73,80,2.59,107.29,2.59s64.7-.86,107.29-2.59"/><path d="M114.5,312.15v-17.8l-4.91.17-1.07,5.67H106a29.91,29.91,0,0,1-.7-6.56,5.19,5.19,0,0,1,.22-1.92H129a5.08,5.08,0,0,1,.22,1.92,30.53,30.53,0,0,1-.7,6.56H126l-1.07-5.67-4.87-.17v17.8l3.43.35v.71a1.42,1.42,0,0,1-.46,1.25,4.61,4.61,0,0,1-2.23.33h-9.75a7,7,0,0,1-.11-1.17,1.12,1.12,0,0,1,.35-.88,2.59,2.59,0,0,1,1.42-.41Z"/><path d="M144,297.22q5.15,0,5.14,5.53v9.64l3.17.31v.62a1.36,1.36,0,0,1-.42,1.16,4.18,4.18,0,0,1-2,.31h-7.64a4.47,4.47,0,0,1-.15-1.17c0-.61.41-1,1.22-1.12l.78-.11v-8.23a4.08,4.08,0,0,0-.67-2.64,2.81,2.81,0,0,0-2.25-.78,7.66,7.66,0,0,0-3.91,1.3v10.35l2.73.31v.62a1.36,1.36,0,0,1-.42,1.16,4.18,4.18,0,0,1-2,.31h-7.93a4.4,4.4,0,0,1-.19-1.17.83.83,0,0,1,.33-.71,3.32,3.32,0,0,1,1.33-.38l1.11-.14V293.22c0-.53-.1-.86-.29-1a2.53,2.53,0,0,0-1.33-.22h-1.7v-1.92a22,22,0,0,1,5.57-.88,3.18,3.18,0,0,1,2.18.58,2.34,2.34,0,0,1,.63,1.81v8A11.88,11.88,0,0,1,144,297.22Z"/><path d="M169.17,302.58a5.76,5.76,0,0,1-.52,2.57c-.57.43-2.08.65-4.54.65h-6.9a12.13,12.13,0,0,0,.18,1.54q.66,4.57,5.24,4.58a8.67,8.67,0,0,0,5.17-1.61l1,1.74q-2.62,3.15-8.16,3.15a9.72,9.72,0,0,1-6.22-2c-1.69-1.34-2.53-3.4-2.53-6.21a9.58,9.58,0,0,1,2.77-6.88,9.88,9.88,0,0,1,7.49-2.89q3.58,0,5.3,1.48A4.89,4.89,0,0,1,169.17,302.58Zm-8-2.7q-3.36,0-3.91,3.8h6.38c.4,0,.64-.05.74-.16a1.13,1.13,0,0,0,.15-.73Q164.48,299.88,161.12,299.88Z"/><path d="M204.09,312.15l3.43.35v.71a1.42,1.42,0,0,1-.46,1.25,4.52,4.52,0,0,1-2.2.33h-9.74a7,7,0,0,1-.11-1.17,1.14,1.14,0,0,1,.33-.88,2.45,2.45,0,0,1,1.4-.41l1.81-.18v-7.69H187.7v7.69l3.47.35v.71a1.4,1.4,0,0,1-.48,1.25,4.65,4.65,0,0,1-2.22.33h-9.74a6.07,6.07,0,0,1-.11-1.17,1.14,1.14,0,0,1,.33-.88,2.53,2.53,0,0,1,1.44-.41l1.77-.18v-17.8l-3.47-.35v-.71a1.41,1.41,0,0,1,.48-1.25,4.65,4.65,0,0,1,2.22-.33h9.7a4.47,4.47,0,0,1,.15,1.17,1.06,1.06,0,0,1-.35.87,3.15,3.15,0,0,1-1.42.43l-1.77.17v7.48h10.85v-7.48l-3.47-.35v-.71a1.46,1.46,0,0,1,.46-1.25,4.52,4.52,0,0,1,2.2-.33h9.75a4.93,4.93,0,0,1,.14,1.17,1.12,1.12,0,0,1-.33.87,3.15,3.15,0,0,1-1.48.43l-1.73.17Z"/><path d="M211.21,312.39V301.46c0-.53-.11-.86-.33-1a3.87,3.87,0,0,0-1.59-.2h-1.77v-1.95a20.5,20.5,0,0,1,6-1,2.26,2.26,0,0,1,2.73,2.67v12.4l3.18.31v.62a1.36,1.36,0,0,1-.43,1.16,4.1,4.1,0,0,1-2,.31h-8.38a4.47,4.47,0,0,1-.15-1.17.83.83,0,0,1,.33-.71,3.32,3.32,0,0,1,1.33-.38Zm4.69-19.34a5.38,5.38,0,0,1-2.27.54,5,5,0,0,1-2.23-.3,2.39,2.39,0,0,1-.52-1.7,2.61,2.61,0,0,1,.67-1.86,6.23,6.23,0,0,1,4.54-.2,2.27,2.27,0,0,1,.49,1.67A2.7,2.7,0,0,1,215.9,293.05Z"/><path d="M240.41,297.66a4,4,0,0,1,.15,1.13.86.86,0,0,1-.33.73,2.93,2.93,0,0,1-1.33.4l-.52.07-6.72,14.93a12.21,12.21,0,0,1-3.72,0l-7.09-15-2.07-.2v-.62a1.34,1.34,0,0,1,.43-1.18,4.31,4.31,0,0,1,2-.29h8.08a6.36,6.36,0,0,1,.15,1.13.86.86,0,0,1-.33.73,2.93,2.93,0,0,1-1.33.4l-1.18.07,4.13,10,4.17-10-3.13-.27v-.62a1.37,1.37,0,0,1,.42-1.18,4.31,4.31,0,0,1,2-.29Z"/><path d="M257.39,302.58a5.77,5.77,0,0,1-.51,2.57c-.57.43-2.08.65-4.54.65h-6.91a10.19,10.19,0,0,0,.19,1.54q.66,4.57,5.24,4.58a8.7,8.7,0,0,0,5.17-1.61l1,1.74q-2.62,3.15-8.16,3.15a9.72,9.72,0,0,1-6.22-2c-1.69-1.34-2.53-3.4-2.53-6.21a9.58,9.58,0,0,1,2.77-6.88,9.86,9.86,0,0,1,7.49-2.89c2.39,0,4.15.49,5.3,1.48A4.92,4.92,0,0,1,257.39,302.58Zm-8-2.7q-3.36,0-3.92,3.8h6.39c.39,0,.64-.05.74-.16a1.13,1.13,0,0,0,.15-.73Q252.71,299.88,249.35,299.88Z"/></svg>