<svg id="Layer_1" data-name="Layer 1" xmlns="http://www.w3.org/2000/svg" viewBox="0 0 600 120"><defs><style>.cls-1{fill:#022976;}.cls-2{fill:#f9c702;}.cls-3{fill:#012877;}.cls-4{fill:#fcc901;}.cls-5{fill:#d72910;}.cls-6{fill:#fac802;}.cls-7{fill:#fbc802;}.cls-8{fill:#fbc901;}.cls-9{fill:#fdc901;}.cls-10{fill:#032a76;}.cls-11{fill:#032876;}.cls-12{fill:#052b75;}.cls-13{fill:#d8bc8b;}</style></defs><title>bestWestern-v</title><path class="cls-1" d="M102.56,102.89v-68c.37,0,.34-.26.38-.46.07-.49.14-1,.22-1.47,1-5.92,4.56-10.46,11.12-13.5a104.65,104.65,0,0,1,13.8-5.09c9.34-2.82,18.73-5.53,28.1-8.28C163.62,3.92,171,1.48,179,.81c.2,0,.38-.07.39-.27h10.36c.06.33.41.27.68.3a74.17,74.17,0,0,1,13.52,2.64c10.48,3.05,20.94,6.14,31.42,9.2a161.31,161.31,0,0,1,17.07,5.74,26.75,26.75,0,0,1,9.22,5.75c2.86,3,3.94,6.49,4.5,10.13,0,.27-.15.65.39.77v67.66c-.43,0-.34.32-.39.54-.14.63-.25,1.27-.43,1.9-1.42,5-4.64,9-10.31,11.61a37.21,37.21,0,0,1-11.94,2.91c-.34,0-.81-.12-1,.31H126.6c0-.3-.33-.27-.58-.29-1-.12-2-.19-3-.34a29.51,29.51,0,0,1-12.9-4.62A17.31,17.31,0,0,1,103,103.58C102.91,103.33,103.09,103,102.56,102.89ZM184.49,118h52.17a53.26,53.26,0,0,0,11.5-1.09c7.74-1.7,12.75-5.57,14.76-11.81a25.74,25.74,0,0,0,1.09-8q0-29.2,0-58.4a38.9,38.9,0,0,0-.21-4.58c-.63-5.15-3.29-9.37-8.71-12.39a53.35,53.35,0,0,0-10.64-4.34Q224.9,11.55,205.33,5.82a75,75,0,0,0-18.59-3.26,66.84,66.84,0,0,0-21.15,2.75c-12.24,3.53-24.44,7.16-36.67,10.74a79.3,79.3,0,0,0-13.71,5c-4.45,2.26-7.66,5.26-9.07,9.38a22.4,22.4,0,0,0-1.06,7.38V97.36a25.15,25.15,0,0,0,.81,6.79c1.7,6.31,6.29,10.55,14.1,12.5a46.78,46.78,0,0,0,11.16,1.29Q157.82,118,184.49,118Z"/><path class="cls-2" d="M184.49,118q-26.67,0-53.34,0A46.78,46.78,0,0,1,120,116.65c-7.81-2-12.4-6.19-14.1-12.5a25.15,25.15,0,0,1-.81-6.79V37.79a22.4,22.4,0,0,1,1.06-7.38c1.41-4.12,4.62-7.12,9.07-9.38a79.3,79.3,0,0,1,13.71-5c12.23-3.58,24.43-7.21,36.67-10.74a66.84,66.84,0,0,1,21.15-2.75,75,75,0,0,1,18.59,3.26q19.56,5.75,39.11,11.52a53.35,53.35,0,0,1,10.64,4.34c5.42,3,8.08,7.24,8.71,12.39a38.9,38.9,0,0,1,.21,4.58q0,29.2,0,58.4a25.74,25.74,0,0,1-1.09,8c-2,6.24-7,10.11-14.76,11.81a53.26,53.26,0,0,1-11.5,1.09H184.49Zm.06-2.15q26.52,0,53,0a44.34,44.34,0,0,0,10-1.07c6-1.39,10.14-4.3,12.17-9a18.8,18.8,0,0,0,1.47-7.49q0-30,0-60a36.34,36.34,0,0,0-.23-4c-.54-4.74-3.11-8.54-8.17-11.2a55.12,55.12,0,0,0-10-3.95Q224,13.49,205.2,8a74,74,0,0,0-19.85-3.35,69.4,69.4,0,0,0-20.76,3.16q-17.25,5-34.47,10.11a75.6,75.6,0,0,0-13.46,4.87c-4,2-6.8,4.71-8,8.4a20.34,20.34,0,0,0-.89,6.17l0,60.26a22.89,22.89,0,0,0,.66,5.64c1.41,5.58,5.3,9.47,12.19,11.29a42.22,42.22,0,0,0,10.77,1.27Q158,115.82,184.55,115.8Z"/><path class="cls-3" d="M184.55,115.8q-26.58,0-53.15,0a42.22,42.22,0,0,1-10.77-1.27c-6.89-1.82-10.78-5.71-12.19-11.29a22.89,22.89,0,0,1-.66-5.64l0-60.26a20.34,20.34,0,0,1,.89-6.17c1.16-3.69,4-6.37,8-8.4a75.6,75.6,0,0,1,13.46-4.87q17.24-5.06,34.47-10.11a69.4,69.4,0,0,1,20.76-3.16A74,74,0,0,1,205.2,8Q224,13.52,242.86,19.05a55.12,55.12,0,0,1,10,3.95c5.06,2.66,7.63,6.46,8.17,11.2a36.34,36.34,0,0,1,.23,4q0,30,0,60a18.8,18.8,0,0,1-1.47,7.49c-2,4.73-6.21,7.64-12.17,9a44.34,44.34,0,0,1-10,1.07Q211.07,115.82,184.55,115.8ZM227.61,80v0c.2.42,0,.86,0,1.29a2.78,2.78,0,0,0,2.6,2.47A3.23,3.23,0,0,0,233.55,82a4,4,0,0,0,.25-3c-.68-2.45-3.69-3.34-6.24-1.86a7,7,0,0,0-2.48,2.56c-.12.2-.09.52-.53.61,0-.94,0-1.85,0-2.75,0-.54-.22-.65-.85-.62-2.3.1-4.61.16-6.92.25-.43,0-1.11-.18-1,.5.1.48-.52,1.2.84,1.29,1.69.11,2.18.64,2.2,2,0,.8,0,1.61,0,2.41,0,3.21,0,6.43,0,9.64,0,1.36-.45,1.75-2.11,2a2.6,2.6,0,0,1-.39,0c-.48,0-.59.22-.56.56a3.39,3.39,0,0,1,0,.78c0,.37.15.49.62.49h11.72c.22,0,.56.06.59-.16a3.58,3.58,0,0,0,0-1.46c-.1-.32-.67-.21-1-.26-1.88-.24-2.6-.87-2.61-2.39,0-2-.08-4,.05-6A10.67,10.67,0,0,1,227.61,80ZM124.54,87.31h-.24c-1.34-4.47-2.69-8.94-4-13.41-.48-1.61-.1-2.06,2-2.27.37,0,.52-.12.49-.41a2.55,2.55,0,0,1,0-.78c.12-.61-.23-.71-.92-.71-3.16,0-6.32,0-9.48,0-1.84,0-1.9,0-1.68,1.49,0,.19,0,.37.34.37,1.39,0,1.73.8,2,1.68q3.59,11,7.19,22.08c.52,1.59.52,1.56,2.56,1.6.69,0,1-.16,1.13-.68,1-2.82,2-5.63,2.94-8.44.78-2.22,1.57-4.43,2.4-6.77.13.33.22.53.28.72q2.16,6.73,4.33,13.46c.55,1.71.54,1.69,2.74,1.7.64,0,.87-.17,1-.66.65-2,1.38-3.93,2.08-5.9,1.95-5.47,3.88-11,5.85-16.42.75-2.07,1.32-2.35,4-2.38a91.5,91.5,0,0,0,9.66-.15c3.93-.45,6.77-2,7.93-5.19a7.62,7.62,0,0,0,.3-3.93c-.45-2.7-2.7-4.65-6.06-5.21-.22,0-.43-.11-.72-.18,4.21-1.39,5.7-3.29,5.43-6.87-.24-3.2-2.57-5.19-6.55-5.55-2.82-.25-5.66-.08-8.49-.11s-5.6,0-8.4,0c-.53,0-.81.08-.74.55a2.84,2.84,0,0,1,0,.77c-.06.46.21.55.73.57,2.18.11,2.74.59,2.74,2.32q0,9.41,0,18.82a4.33,4.33,0,0,1,0,.62c-.1.89-.61,1.35-1.71,1.55a21.59,21.59,0,0,1-3.5.15c-.22,0-.6,0-.64.08a2.51,2.51,0,0,0-.07,1.6c.08.36.61.17.94.19,2.16.13,2.83.77,2.31,2.42-1.34,4.24-2.74,8.47-4.12,12.7-.06.19,0,.43-.38.54-1.4-4.55-2.81-9.08-4.18-13.63-.44-1.46,0-2,1.86-2,1.08,0,1.24-.35,1.13-1a.81.81,0,0,1,0-.31c.08-.42-.08-.59-.67-.58q-5.67,0-11.33,0c-.58,0-.75.16-.69.58a2.57,2.57,0,0,1,0,.62c-.06.45,0,.71.75.71a1.49,1.49,0,0,1,1.55,1.09,17.26,17.26,0,0,0,.83,2.55,5.21,5.21,0,0,1-.1,4.51C126.31,82.29,125.46,84.81,124.54,87.31Zm63.53-48.87c.69,1.24,1.32,2.34,1.92,3.46a.89.89,0,0,0,.92.54c2.7,0,5.41,0,8.11,0a.86.86,0,0,0,.89-.46q5-9,10-18a.67.67,0,0,0,0-.87q-1.25-1.53-2.43-3.09c-.28-.37-.54-.41-1-.24-1.29.48-2.6.95-3.93,1.36a2,2,0,0,0-1.26,1q-4.64,8.36-9.31,16.68a1.23,1.23,0,0,1-.54.7c-.54-1-1-1.89-1.61-2.81a1.24,1.24,0,0,1,0-1.39c2.2-3.89,4.37-7.8,6.55-11.7.21-.36.38-.68,0-1.08-.86-1-1.66-2.05-2.45-3.09-.25-.33-.48-.39-.93-.23-1.36.49-2.74,1-4.12,1.41a1.75,1.75,0,0,0-1.11.89c-.88,1.65-1.8,3.28-2.72,4.91a1.51,1.51,0,0,1-.55.73c-1.07-1.92-2.13-3.78-3.15-5.66a1.77,1.77,0,0,0-1.13-.88c-1.29-.42-2.58-.85-3.85-1.32-.59-.22-.94-.23-1.3.29a31.54,31.54,0,0,1-2.18,2.77,1,1,0,0,0-.11,1.28q3.3,5.85,6.55,11.71c.15.27.44.54.25.87-.6,1.1-1.22,2.19-1.91,3.42-.22-.38-.36-.6-.49-.84q-4.66-8.33-9.3-16.68a1.87,1.87,0,0,0-1.18-.94c-1.3-.41-2.59-.84-3.85-1.33a.92.92,0,0,0-1.3.35c-.69,1-1.45,1.9-2.22,2.83a.81.81,0,0,0-.09,1.07q5,8.87,9.89,17.75a1,1,0,0,0,1.08.58c2.6,0,5.21,0,7.81,0a1.07,1.07,0,0,0,1.15-.63c.58-1.09,1.2-2.17,1.87-3.37a29.06,29.06,0,0,1,1.49,2.73c.42,1,1.14,1.41,2.49,1.29.65-.06,1-.2,1.22-.68C186.77,40.71,187.39,39.65,188.07,38.44Zm2.8,47.88c0-2.23,0-4.46,0-6.69,0-.55.12-.78.89-.74,1.17.06,2.34,0,3.52,0,1.7,0,1.67,0,1.67-1.37,0-.47-.15-.63-.77-.62-1.52,0-3.06,0-4.59,0-.53,0-.73-.1-.72-.55,0-1.74,0-3.48,0-5.21,0-1.11.45-1.31,1.65-.73a11.16,11.16,0,0,0,7.31.85c3.21-.66,5.52-2.69,5.91-5.2.49-3.18-.79-5.26-4.1-6.67a23.67,23.67,0,0,0-3.25-1,13.87,13.87,0,0,1-3-1.07,2.32,2.32,0,0,1-1.29-2.94,3.06,3.06,0,0,1,3-1.74,4.17,4.17,0,0,1,3.13,1.22,7.45,7.45,0,0,1,1.69,2.68c.32.8,1.16.34,1.75.41s.46-.39.46-.67c0-1.47,0-3,0-4.43,0-.27.21-.73-.44-.67s-1.3-.36-1.56.37-.6.46-1,.2a9.52,9.52,0,0,0-6-1c-3,.36-5.35,2.15-6,4.59a5.4,5.4,0,0,0,3,6.56,20.66,20.66,0,0,0,3.42,1.31,18.66,18.66,0,0,1,3.59,1.38,2.36,2.36,0,0,1,1.2,3.11,3.22,3.22,0,0,1-3.12,1.88,5.38,5.38,0,0,1-4.48-2,6.6,6.6,0,0,1-1.41-2.87c-.2-.92-1.05-.45-1.62-.54s-.55.36-.55.67c0,1.55,0,3.11,0,4.66-.05,3.75-2.41,6.32-6.83,7.43-.49.12-.65.27-.66.68,0,1.24,0,1.24,1.55,1.24a3.75,3.75,0,0,0,.58,0c.81-.11,1,.19,1,.78q0,5.35,0,10.73a24.6,24.6,0,0,0,.14,2.71c.26,2.24,1.93,3.79,4.49,4.12a11.7,11.7,0,0,0,3.78-.09c2.18-.42,3.64-1.7,3.84-3.48.11-1,0-2,.12-3,.06-.65-.27-.73-1-.76-.89,0-1.2.18-1.1.89a9.77,9.77,0,0,1,0,1.71,3.07,3.07,0,0,1-.45,1.57,2,2,0,0,1-2,.82,1.54,1.54,0,0,1-1.45-1.1,4.11,4.11,0,0,1-.16-1.39C190.87,90.42,190.88,88.37,190.87,86.32Zm52.4-7.24a14.2,14.2,0,0,1,0-1.46c.06-.53-.14-.71-.85-.67-2.21.11-4.43.21-6.64.21-1,0-1.34.25-1.16,1,.07.31-.25.7.54.8,2,.22,2.31.58,2.32,2.13q0,5.91,0,11.81c0,1.55-.3,1.82-2.24,2.1-.47.07-.69.2-.63.6a2.84,2.84,0,0,1,0,.77c0,.38.14.49.61.49h10.84c.22,0,.57.06.6-.14a4.21,4.21,0,0,0,0-1.46c-.08-.33-.6-.22-.93-.27-1.59-.21-2.1-.63-2.1-1.89,0-3.24,0-6.48,0-9.72a4.54,4.54,0,0,1,1.68-3.55,2,2,0,0,1,1.92-.51,1.43,1.43,0,0,1,1.07,1.37,9.75,9.75,0,0,1,0,1.08c0,4.8,0,9.59,0,14.39,0,.51.11.73.84.72,2.54,0,5.08,0,7.62,0,.43,0,.95,0,.77-.48s.61-1.18-.62-1.35c-1.87-.26-2.21-.6-2.22-2.13,0-2.51,0-5,0-7.54a31.82,31.82,0,0,0-.13-4.58c-.48-3.14-3.56-4.92-7.23-4.15A8,8,0,0,0,243.27,79.08Zm-62-17.79h5.18c.37,0,.71,0,.69-.42A12.64,12.64,0,0,0,185.28,54a7.21,7.21,0,0,0-4.6-3,9.27,9.27,0,0,0-9.87,3.65,12,12,0,0,0-1.69,8.92,9.52,9.52,0,0,0,3.12,5.75c3.52,3.18,11.15,3.48,13.91-1.3a11.52,11.52,0,0,0,1.19-3.19c0-.14,0-.41,0-.44a7,7,0,0,0-1.83-.08c-.49,0-.44.3-.52.54a8.59,8.59,0,0,1-1.34,2.82A4.21,4.21,0,0,1,181,69.28a3.73,3.73,0,0,1-4.32-1.94,13.2,13.2,0,0,1-1.12-5.64c0-.46.36-.41.71-.41Zm34.26,24.38a11.15,11.15,0,0,0-2-6.18,8.35,8.35,0,0,0-8.06-2.94,8.6,8.6,0,0,0-6.77,4.67,12.08,12.08,0,0,0-.86,9.3,8.88,8.88,0,0,0,4,5.36c4.7,2.91,11,1.5,13.1-2.92.33-.68.48-1.4.74-2.09s-.07-.9-1-.91-1.28.18-1.45.92a6.28,6.28,0,0,1-1.57,2.9,4.12,4.12,0,0,1-2.85,1.34,3.74,3.74,0,0,1-4.09-2.61,15.8,15.8,0,0,1-.81-4.84c0-.54.21-.64.82-.64,3,0,6.06,0,9.08,0C215.64,87,215.64,87,215.56,85.67ZM156.35,87h5.18c.37,0,.69,0,.68-.42a12.31,12.31,0,0,0-1.78-6.77,7.18,7.18,0,0,0-4.53-3.11,9.25,9.25,0,0,0-10,3.56,12,12,0,0,0-1.61,9.52,9.06,9.06,0,0,0,3.51,5.6c3.9,3,10.25,2.47,12.89-1a9,9,0,0,0,1.68-4c0-.14.06-.41,0-.43a7.79,7.79,0,0,0-1.93-.06c-.41,0-.37.31-.44.52a7.4,7.4,0,0,1-1.77,3.33,4,4,0,0,1-2.79,1.27,3.71,3.71,0,0,1-4-2.49,13.82,13.82,0,0,1-.84-5c0-.48.15-.62.76-.61C153,87.06,154.69,87,156.35,87Zm8.45,6.33c0,1,0,1.92,0,2.88,0,.23-.17.61.36.58s1.23.31,1.47-.26c.37-.91,1-.68,1.66-.33a10.84,10.84,0,0,0,6.94.89c3.38-.59,5.74-2.6,6.24-5.32.54-3-.85-5.2-4.11-6.6a21.15,21.15,0,0,0-3.07-1,15.31,15.31,0,0,1-3.12-1.07,2.3,2.3,0,0,1-1.4-3,3,3,0,0,1,3-1.76,4.2,4.2,0,0,1,3.14,1.18,7.16,7.16,0,0,1,1.71,2.68c.33.79,1.16.33,1.75.4s.44-.4.44-.66c0-1.5,0-3,0-4.51,0-.23.15-.61-.38-.57s-1.3-.29-1.5.2c-.37.94-.85.53-1.45.24a9.34,9.34,0,0,0-8.49,0,5.59,5.59,0,0,0-3.37,6c.26,2.52,2.11,4.07,4.93,5a36.45,36.45,0,0,1,5,1.82,2.48,2.48,0,0,1,1.34,3.41,3.62,3.62,0,0,1-3.77,1.69,5.41,5.41,0,0,1-3.78-2,7.35,7.35,0,0,1-1.4-2.88c-.22-.91-1.11-.43-1.71-.5s-.46.38-.47.64C164.79,91.56,164.8,92.47,164.8,93.37Zm50.37-33c0-2.15.05-4.3,0-6.45,0-.72.27-.87,1.1-.83,1.1.06,2.21,0,3.32,0,1.7,0,1.66,0,1.66-1.35,0-.5-.2-.61-.78-.59-1.36,0-2.74,0-4.1,0-.91,0-1.24-.13-1.2-.92.08-1.73,0-3.47,0-5.2,0-.79-.28-1-1.19-.92s-.73.58-.81.94c-.7,3.13-2.7,5.34-6.72,6.16-.24,0-.46.09-.53.37-.32,1.17,0,1.49,1.48,1.49a6.77,6.77,0,0,0,.78,0c.7-.08.86.16.85.69,0,2.8,0,5.6,0,8.39,0,1.51,0,3,0,4.51a4.73,4.73,0,0,0,4.06,4.68,11,11,0,0,0,4.54-.05,4.28,4.28,0,0,0,3.5-2.93,14.68,14.68,0,0,0,.19-3.8c0-.15,0-.29-.23-.36-1-.33-1.8.07-1.81.93,0,.7-.05,1.4-.09,2.1a2.26,2.26,0,0,1-.35,1,2,2,0,0,1-2.09.86,1.47,1.47,0,0,1-1.47-1.25,7.33,7.33,0,0,1-.15-1.47C215.16,64.45,215.17,62.43,215.17,60.4ZM184.81,9.72a6.49,6.49,0,0,1-.82,0,1.48,1.48,0,0,0-1.78.91c-.64,1.33-1.41,2.62-2.17,3.9a1.07,1.07,0,0,0,0,1.24c.58,1,1.09,1.93,1.63,2.9,1.15,2.06,1.15,2.05,4,2a1,1,0,0,0,1-.55c.81-1.5,1.64-3,2.5-4.46a.92.92,0,0,0,0-1c-.69-1.2-1.43-2.38-2-3.61C186.63,10,186.05,9.37,184.81,9.72ZM252.92,108c3.34,0,5.83-1.94,5.88-4.64s-2.43-4.73-5.74-4.75-5.85,2-5.88,4.65S249.59,108,252.92,108Z"/><path class="cls-4" d="M124.54,87.31c.92-2.5,1.77-5,2.79-7.5a5.21,5.21,0,0,0,.1-4.51,17.26,17.26,0,0,1-.83-2.55,1.49,1.49,0,0,0-1.55-1.09c-.71,0-.81-.26-.75-.71a2.57,2.57,0,0,0,0-.62c-.06-.42.11-.59.69-.58q5.65,0,11.33,0c.59,0,.75.16.67.58a.81.81,0,0,0,0,.31c.11.69-.05,1-1.13,1-1.89,0-2.3.52-1.86,2,1.37,4.55,2.78,9.08,4.18,13.63.38-.11.32-.35.38-.54,1.38-4.23,2.78-8.46,4.12-12.7.52-1.65-.15-2.29-2.31-2.42-.33,0-.86.17-.94-.19a2.51,2.51,0,0,1,.07-1.6c0-.08.42-.07.64-.08a21.59,21.59,0,0,0,3.5-.15c1.1-.2,1.61-.66,1.71-1.55a4.33,4.33,0,0,0,0-.62q0-9.42,0-18.82c0-1.73-.56-2.21-2.74-2.32-.52,0-.79-.11-.73-.57a2.84,2.84,0,0,0,0-.77c-.07-.47.21-.56.74-.55,2.8,0,5.6,0,8.4,0s5.67-.14,8.49.11c4,.36,6.31,2.35,6.55,5.55.27,3.58-1.22,5.48-5.43,6.87.29.07.5.15.72.18,3.36.56,5.61,2.51,6.06,5.21a7.62,7.62,0,0,1-.3,3.93c-1.16,3.16-4,4.74-7.93,5.19a91.5,91.5,0,0,1-9.66.15c-2.69,0-3.26.31-4,2.38-2,5.47-3.9,11-5.85,16.42-.7,2-1.43,3.93-2.08,5.9-.17.49-.4.67-1,.66-2.2,0-2.19,0-2.74-1.7q-2.16-6.73-4.33-13.46c-.06-.19-.15-.39-.28-.72-.83,2.34-1.62,4.55-2.4,6.77-1,2.81-2,5.62-2.94,8.44-.18.52-.44.69-1.13.68-2,0-2,0-2.56-1.6q-3.6-11-7.19-22.08c-.28-.88-.62-1.67-2-1.68-.33,0-.31-.18-.34-.37-.22-1.44-.16-1.49,1.68-1.49,3.16,0,6.32,0,9.48,0,.69,0,1,.1.92.71a2.55,2.55,0,0,0,0,.78c0,.29-.12.37-.49.41-2,.21-2.43.66-2,2.27,1.33,4.47,2.68,8.94,4,13.41Zm35.87-23.46a8.24,8.24,0,0,0-.19-2c-.42-2-1.93-3.11-4.41-3.36-.91-.09-1.82-.05-2.73-.1-.68,0-.88.14-.87.69,0,2.69,0,5.39,0,8.09a3.9,3.9,0,0,0,.2,1.22,1.86,1.86,0,0,0,1.44,1.17,5,5,0,0,0,5.64-1.92A6.71,6.71,0,0,0,160.41,63.85Zm-8.19-12V55c0,1.45,0,1.45,1.87,1.32,2.73-.18,4.2-1,4.82-2.77a6.7,6.7,0,0,0-.08-4.67,4.14,4.14,0,0,0-3.65-2.57c-2-.27-2.92.37-3,1.94C152.2,49.47,152.22,50.69,152.22,51.9Z"/><path class="cls-5" d="M188.07,38.44c-.68,1.21-1.3,2.27-1.85,3.34-.25.48-.57.62-1.22.68-1.35.12-2.07-.27-2.49-1.29A29.06,29.06,0,0,0,181,38.44c-.67,1.2-1.29,2.28-1.87,3.37a1.07,1.07,0,0,1-1.15.63c-2.6,0-5.21,0-7.81,0a1,1,0,0,1-1.08-.58q-4.92-8.88-9.89-17.75a.81.81,0,0,1,.09-1.07c.77-.93,1.53-1.87,2.22-2.83a.92.92,0,0,1,1.3-.35c1.26.49,2.55.92,3.85,1.33a1.87,1.87,0,0,1,1.18.94q4.62,8.36,9.3,16.68c.13.24.27.46.49.84.69-1.23,1.31-2.32,1.91-3.42.19-.33-.1-.6-.25-.87q-3.26-5.87-6.55-11.71a1,1,0,0,1,.11-1.28,31.54,31.54,0,0,0,2.18-2.77c.36-.52.71-.51,1.3-.29,1.27.47,2.56.9,3.85,1.32a1.77,1.77,0,0,1,1.13.88c1,1.88,2.08,3.74,3.15,5.66a1.51,1.51,0,0,0,.55-.73c.92-1.63,1.84-3.26,2.72-4.91a1.75,1.75,0,0,1,1.11-.89c1.38-.45,2.76-.92,4.12-1.41.45-.16.68-.1.93.23.79,1,1.59,2.08,2.45,3.09.34.4.17.72,0,1.08-2.18,3.9-4.35,7.81-6.55,11.7a1.24,1.24,0,0,0,0,1.39c.57.92,1.07,1.86,1.61,2.81a1.23,1.23,0,0,0,.54-.7q4.67-8.34,9.31-16.68a2,2,0,0,1,1.26-1c1.33-.41,2.64-.88,3.93-1.36.48-.17.74-.13,1,.24q1.19,1.56,2.43,3.09a.67.67,0,0,1,0,.87q-5,9-10,18a.86.86,0,0,1-.89.46c-2.7,0-5.41,0-8.11,0a.89.89,0,0,1-.92-.54C189.39,40.78,188.76,39.68,188.07,38.44Zm7.85,2.09a5.06,5.06,0,0,1,.78,0,1.64,1.64,0,0,0,1.92-1c2.78-5.1,5.64-10.17,8.48-15.25a2.11,2.11,0,0,0-.83-2.25.39.39,0,0,0-.27,0c-1,.47-2.31.46-2.88,1.51-2.82,5.14-5.7,10.26-8.55,15.39C193.67,40.53,193.67,40.53,195.92,40.53Zm-23,0h1.42c1.12,0,1.12,0,.67-.82q-4.53-8.13-9-16.25c-.56-1-1.87-1-2.84-1.46a.57.57,0,0,0-.26.06,2.08,2.08,0,0,0-.81,2.27c2.72,4.9,5.49,9.78,8.15,14.7C170.78,40.16,171.4,41,172.89,40.53ZM181,33.64c.67-1.19,1.23-2.24,1.85-3.26a1.16,1.16,0,0,0,0-1.31c-1.14-2-2.3-3.94-3.3-6-.56-1.15-1.9-1.2-3-1.67-.28-.13-.36.13-.5.26-.79.81-1.21,1.63-.33,2.58a4.6,4.6,0,0,1,.44.78C177.8,27.87,179.37,30.68,181,33.64Zm7,0c.22-.36.37-.59.5-.82l4.92-8.85a1.89,1.89,0,0,0-.67-2.42.64.64,0,0,0-.24-.1,6.87,6.87,0,0,0-2.83,1.34l-3.62,6.51a.73.73,0,0,0-.05.81C186.72,31.21,187.35,32.34,188.06,33.61Zm-3.51-1.48-2,3.56a.54.54,0,0,0-.08.53L184.55,40l2-3.62a.59.59,0,0,0,0-.6Z"/><path class="cls-6" d="M190.87,86.32c0,2.05,0,4.1,0,6.14a4.11,4.11,0,0,0,.16,1.39,1.54,1.54,0,0,0,1.45,1.1,2,2,0,0,0,2-.82,3.07,3.07,0,0,0,.45-1.57,9.77,9.77,0,0,0,0-1.71c-.1-.71.21-.92,1.1-.89.72,0,1,.11,1,.76-.09,1,0,2-.12,3-.2,1.78-1.66,3.06-3.84,3.48a11.7,11.7,0,0,1-3.78.09c-2.56-.33-4.23-1.88-4.49-4.12a24.6,24.6,0,0,1-.14-2.71q0-5.37,0-10.73c0-.59-.14-.89-1-.78a3.75,3.75,0,0,1-.58,0c-1.58,0-1.56,0-1.55-1.24,0-.41.17-.56.66-.68,4.42-1.11,6.78-3.68,6.83-7.43,0-1.55,0-3.11,0-4.66,0-.31-.16-.77.55-.67s1.42-.38,1.62.54a6.6,6.6,0,0,0,1.41,2.87,5.38,5.38,0,0,0,4.48,2,3.22,3.22,0,0,0,3.12-1.88,2.36,2.36,0,0,0-1.2-3.11,18.66,18.66,0,0,0-3.59-1.38,20.66,20.66,0,0,1-3.42-1.31,5.4,5.4,0,0,1-3-6.56c.67-2.44,3-4.23,6-4.59a9.52,9.52,0,0,1,6,1c.45.26.84.42,1-.2s1-.33,1.56-.37.44.4.44.67c0,1.48,0,3,0,4.43,0,.28.19.74-.46.67s-1.43.39-1.75-.41a7.45,7.45,0,0,0-1.69-2.68,4.17,4.17,0,0,0-3.13-1.22,3.06,3.06,0,0,0-3,1.74,2.32,2.32,0,0,0,1.29,2.94,13.87,13.87,0,0,0,3,1.07,23.67,23.67,0,0,1,3.25,1c3.31,1.41,4.59,3.49,4.1,6.67-.39,2.51-2.7,4.54-5.91,5.2a11.16,11.16,0,0,1-7.31-.85c-1.2-.58-1.63-.38-1.65.73,0,1.73,0,3.47,0,5.21,0,.45.19.56.72.55,1.53,0,3.07,0,4.59,0,.62,0,.77.15.77.62,0,1.37,0,1.37-1.67,1.37-1.18,0-2.35,0-3.52,0-.77,0-.9.19-.89.74C190.9,81.86,190.87,84.09,190.87,86.32Z"/><path class="cls-7" d="M243.27,79.08a8,8,0,0,1,4.11-2.46c3.67-.77,6.75,1,7.23,4.15a31.82,31.82,0,0,1,.13,4.58c0,2.51,0,5,0,7.54,0,1.53.35,1.87,2.22,2.13,1.23.17.46.89.62,1.35s-.34.48-.77.48c-2.54,0-5.08,0-7.62,0-.73,0-.84-.21-.84-.72,0-4.8,0-9.59,0-14.39a9.75,9.75,0,0,0,0-1.08,1.43,1.43,0,0,0-1.07-1.37,2,2,0,0,0-1.92.51,4.54,4.54,0,0,0-1.68,3.55c0,3.24,0,6.48,0,9.72,0,1.26.51,1.68,2.1,1.89.33,0,.85-.06.93.27a4.21,4.21,0,0,1,0,1.46c0,.2-.38.14-.6.14H235.23c-.47,0-.65-.11-.61-.49a2.84,2.84,0,0,0,0-.77c-.06-.4.16-.53.63-.6,1.94-.28,2.23-.55,2.24-2.1q0-5.9,0-11.81c0-1.55-.37-1.91-2.32-2.13-.79-.1-.47-.49-.54-.8-.18-.75.16-1,1.16-1,2.21,0,4.43-.1,6.64-.21.71,0,.91.14.85.67A14.2,14.2,0,0,0,243.27,79.08Z"/><path class="cls-6" d="M181.3,61.29h-5.08c-.35,0-.74,0-.71.41a13.2,13.2,0,0,0,1.12,5.64A3.73,3.73,0,0,0,181,69.28a4.21,4.21,0,0,0,2.67-1.69A8.59,8.59,0,0,0,185,64.77c.08-.24,0-.56.52-.54a7,7,0,0,1,1.83.08c.07,0,.06.3,0,.44a11.52,11.52,0,0,1-1.19,3.19c-2.76,4.78-10.39,4.48-13.91,1.3a9.52,9.52,0,0,1-3.12-5.75,12,12,0,0,1,1.69-8.92,9.27,9.27,0,0,1,9.87-3.65,7.21,7.21,0,0,1,4.6,3,12.64,12.64,0,0,1,1.89,6.92c0,.44-.32.42-.69.42Zm-3.09-2c.68,0,1.37,0,2,0s.77-.17.73-.63c-.06-.62,0-1.24-.09-1.86a7.23,7.23,0,0,0-.91-3.32,2.13,2.13,0,0,0-3.71.44,13.79,13.79,0,0,0-.78,5c0,.35.24.37.56.37Z"/><path class="cls-8" d="M215.56,85.67c.08,1.37.08,1.37-1.67,1.37-3,0-6,0-9.08,0-.61,0-.85.1-.82.64a15.8,15.8,0,0,0,.81,4.84,3.74,3.74,0,0,0,4.09,2.61,4.12,4.12,0,0,0,2.85-1.34,6.28,6.28,0,0,0,1.57-2.9c.17-.74.53-.93,1.45-.92s1.28.1,1,.91-.41,1.41-.74,2.09c-2.1,4.42-8.4,5.83-13.1,2.92a8.88,8.88,0,0,1-4-5.36,12.08,12.08,0,0,1,.86-9.3,8.6,8.6,0,0,1,6.77-4.67,8.35,8.35,0,0,1,8.06,2.94A11.15,11.15,0,0,1,215.56,85.67Zm-8.84-.55c.72,0,1.43,0,2.15,0,.38,0,.61,0,.6-.42a12.58,12.58,0,0,0-.75-4.91,2,2,0,0,0-2-1.36,2,2,0,0,0-2,1.35,9.55,9.55,0,0,0-.7,3.51c-.15,1.83-.13,1.83,2.19,1.83Z"/><path class="cls-8" d="M156.35,87c-1.66,0-3.32,0-5,0-.61,0-.77.13-.76.61a13.82,13.82,0,0,0,.84,5,3.71,3.71,0,0,0,4,2.49,4,4,0,0,0,2.79-1.27A7.4,7.4,0,0,0,160,90.52c.07-.21,0-.52.44-.52a7.79,7.79,0,0,1,1.93.06c.05,0,0,.29,0,.43a9,9,0,0,1-1.68,4c-2.64,3.45-9,3.93-12.89,1a9.06,9.06,0,0,1-3.51-5.6,12,12,0,0,1,1.61-9.52,9.25,9.25,0,0,1,10-3.56,7.18,7.18,0,0,1,4.53,3.11,12.31,12.31,0,0,1,1.78,6.77c0,.46-.31.43-.68.42Zm-3.17-1.92h2.3c.3,0,.61,0,.6-.34a13,13,0,0,0-.82-5.14,1.94,1.94,0,0,0-1.92-1.21,2,2,0,0,0-1.93,1.2,7.84,7.84,0,0,0-.74,3.2c0,.73-.46,1.66.13,2.16S152.47,85.06,153.18,85.12Z"/><path class="cls-8" d="M164.8,93.37c0-.9,0-1.81,0-2.72,0-.26-.2-.73.47-.64s1.49-.41,1.71.5a7.35,7.35,0,0,0,1.4,2.88,5.41,5.41,0,0,0,3.78,2,3.62,3.62,0,0,0,3.77-1.69,2.48,2.48,0,0,0-1.34-3.41,36.45,36.45,0,0,0-5-1.82c-2.82-1-4.67-2.51-4.93-5a5.59,5.59,0,0,1,3.37-6,9.34,9.34,0,0,1,8.49,0c.6.29,1.08.7,1.45-.24.2-.49,1-.17,1.5-.2s.37.34.38.57c0,1.5,0,3,0,4.51,0,.26.24.74-.44.66s-1.42.39-1.75-.4a7.16,7.16,0,0,0-1.71-2.68,4.2,4.2,0,0,0-3.14-1.18,3,3,0,0,0-3,1.76,2.3,2.3,0,0,0,1.4,3,15.31,15.31,0,0,0,3.12,1.07,21.15,21.15,0,0,1,3.07,1c3.26,1.4,4.65,3.64,4.11,6.6-.5,2.72-2.86,4.73-6.24,5.32a10.84,10.84,0,0,1-6.94-.89c-.71-.35-1.29-.58-1.66.33-.24.57-1,.23-1.47.26s-.35-.35-.36-.58C164.79,95.29,164.8,94.33,164.8,93.37Z"/><path class="cls-8" d="M227.61,80a10.67,10.67,0,0,0-2.5,6.59c-.13,2-.06,4-.05,6,0,1.52.73,2.15,2.61,2.39.37,0,.94-.06,1,.26a3.58,3.58,0,0,1,0,1.46c0,.22-.37.16-.59.16H216.43c-.47,0-.66-.12-.62-.49a3.39,3.39,0,0,0,0-.78c0-.34.08-.55.56-.56a2.6,2.6,0,0,0,.39,0c1.66-.21,2.1-.6,2.11-2,0-3.21,0-6.43,0-9.64,0-.8,0-1.61,0-2.41,0-1.34-.51-1.87-2.2-2-1.36-.09-.74-.81-.84-1.29-.14-.68.54-.49,1-.5,2.31-.09,4.62-.15,6.92-.25.63,0,.88.08.85.62,0,.9,0,1.81,0,2.75.44-.09.41-.41.53-.61a7,7,0,0,1,2.48-2.56c2.55-1.48,5.56-.59,6.24,1.86a4,4,0,0,1-.25,3,3.23,3.23,0,0,1-3.31,1.75,2.78,2.78,0,0,1-2.6-2.47c-.06-.43.16-.87,0-1.29l.13,0v-.11Z"/><path class="cls-9" d="M215.17,60.4c0,2,0,4.05,0,6.07a7.33,7.33,0,0,0,.15,1.47,1.47,1.47,0,0,0,1.47,1.25,2,2,0,0,0,2.09-.86,2.26,2.26,0,0,0,.35-1c0-.7.08-1.4.09-2.1,0-.86.79-1.26,1.81-.93.25.07.24.21.23.36a14.68,14.68,0,0,1-.19,3.8,4.28,4.28,0,0,1-3.5,2.93,11,11,0,0,1-4.54.05,4.73,4.73,0,0,1-4.06-4.68c-.06-1.5,0-3,0-4.51,0-2.79,0-5.59,0-8.39,0-.53-.15-.77-.85-.69a6.77,6.77,0,0,1-.78,0c-1.49,0-1.8-.32-1.48-1.49.07-.28.29-.32.53-.37,4-.82,6-3,6.72-6.16.08-.36-.1-.9.81-.94s1.23.13,1.19.92c-.09,1.73,0,3.47,0,5.2,0,.79.29,1,1.2.92,1.36-.06,2.74,0,4.1,0,.58,0,.79.09.78.59,0,1.35,0,1.35-1.66,1.35-1.11,0-2.22,0-3.32,0-.83,0-1.12.11-1.1.83C215.22,56.1,215.17,58.25,215.17,60.4Z"/><path class="cls-5" d="M184.81,9.72c1.24-.35,1.82.32,2.29,1.3.59,1.23,1.33,2.41,2,3.61a.92.92,0,0,1,0,1c-.86,1.48-1.69,3-2.5,4.46a1,1,0,0,1-1,.55c-2.85,0-2.85,0-4-2-.54-1-1.05-1.95-1.63-2.9a1.07,1.07,0,0,1,0-1.24c.76-1.28,1.53-2.57,2.17-3.9A1.48,1.48,0,0,1,184,9.71,6.49,6.49,0,0,0,184.81,9.72Zm-.26,9.36c.74-1.32,1.4-2.49,2-3.67a.46.46,0,0,0,.06-.37c-.67-1.23-1.35-2.45-2.1-3.81-.74,1.3-1.37,2.43-2,3.56a.68.68,0,0,0,0,.74C183.21,16.66,183.83,17.8,184.55,19.08Z"/><path class="cls-3" d="M252.92,108c-3.33,0-5.77-2-5.74-4.74s2.56-4.67,5.88-4.65,5.78,2.06,5.74,4.75S256.26,108.06,252.92,108Zm.06-8.57c-2.64,0-4.53,1.66-4.5,3.93s1.91,3.84,4.53,3.84,4.54-1.69,4.52-3.94S255.58,99.45,253,99.46Z"/><path class="cls-10" d="M160.41,63.85a6.71,6.71,0,0,1-.9,3.82,5,5,0,0,1-5.64,1.92,1.86,1.86,0,0,1-1.44-1.17,3.9,3.9,0,0,1-.2-1.22c0-2.7,0-5.4,0-8.09,0-.55.19-.73.87-.69.91,0,1.82,0,2.73.1,2.48.25,4,1.39,4.41,3.36A8.24,8.24,0,0,1,160.41,63.85Z"/><path class="cls-10" d="M152.22,51.9c0-1.21,0-2.43,0-3.64,0-1.57,1-2.21,3-1.94a4.14,4.14,0,0,1,3.65,2.57,6.7,6.7,0,0,1,.08,4.67c-.62,1.77-2.09,2.59-4.82,2.77-1.87.13-1.87.13-1.87-1.32Z"/><path class="cls-11" d="M195.92,40.53c-2.25,0-2.25,0-1.35-1.62,2.85-5.13,5.73-10.25,8.55-15.39.57-1.05,1.9-1,2.88-1.51a.39.39,0,0,1,.27,0,2.11,2.11,0,0,1,.83,2.25c-2.84,5.08-5.7,10.15-8.48,15.25a1.64,1.64,0,0,1-1.92,1A5.06,5.06,0,0,0,195.92,40.53Z"/><path class="cls-11" d="M172.89,40.53c-1.49.42-2.11-.37-2.72-1.5-2.66-4.92-5.43-9.8-8.15-14.7a2.08,2.08,0,0,1,.81-2.27.57.57,0,0,1,.26-.06c1,.46,2.28.44,2.84,1.46q4.5,8.13,9,16.25c.45.82.45.82-.67.82Z"/><path class="cls-11" d="M181,33.64c-1.66-3-3.23-5.77-4.79-8.58a4.6,4.6,0,0,0-.44-.78c-.88-1-.46-1.77.33-2.58.14-.13.22-.39.5-.26,1.06.47,2.4.52,3,1.67,1,2,2.16,4,3.3,6a1.16,1.16,0,0,1,0,1.31C182.26,31.4,181.7,32.45,181,33.64Z"/><path class="cls-11" d="M188.06,33.61c-.71-1.27-1.34-2.4-2-3.53a.73.73,0,0,1,.05-.81l3.62-6.51a6.87,6.87,0,0,1,2.83-1.34.64.64,0,0,1,.24.1,1.89,1.89,0,0,1,.67,2.42l-4.92,8.85C188.43,33,188.28,33.25,188.06,33.61Z"/><path class="cls-11" d="M184.55,32.13l2,3.61a.59.59,0,0,1,0,.6l-2,3.62-2.08-3.74a.54.54,0,0,1,.08-.53Z"/><path class="cls-10" d="M178.21,59.33h-2.15c-.32,0-.58,0-.56-.37a13.79,13.79,0,0,1,.78-5,2.13,2.13,0,0,1,3.71-.44,7.23,7.23,0,0,1,.91,3.32c.07.62,0,1.24.09,1.86,0,.46-.09.67-.73.63S178.89,59.33,178.21,59.33Z"/><path class="cls-12" d="M206.72,85.12h-.49c-2.32,0-2.34,0-2.19-1.83a9.55,9.55,0,0,1,.7-3.51,2,2,0,0,1,2-1.35,2,2,0,0,1,2,1.36,12.58,12.58,0,0,1,.75,4.91c0,.38-.22.43-.6.42C208.15,85.11,207.44,85.12,206.72,85.12Z"/><path class="cls-12" d="M153.18,85.12c-.71-.06-1.88.3-2.38-.13s-.18-1.43-.13-2.16a7.84,7.84,0,0,1,.74-3.2,2,2,0,0,1,1.93-1.2,1.94,1.94,0,0,1,1.92,1.21,13,13,0,0,1,.82,5.14c0,.35-.3.34-.6.34Z"/><path class="cls-3" d="M227.61,80l.13-.08V80l-.13,0Z"/><path class="cls-11" d="M184.55,19.08c-.72-1.28-1.34-2.42-2-3.55a.68.68,0,0,1,0-.74c.64-1.13,1.27-2.26,2-3.56.75,1.36,1.43,2.58,2.1,3.81a.46.46,0,0,1-.06.37C186,16.59,185.29,17.76,184.55,19.08Z"/><path class="cls-12" d="M253,99.46c2.6,0,4.53,1.61,4.55,3.83s-1.91,3.94-4.52,3.94-4.5-1.59-4.53-3.84S250.34,99.47,253,99.46Zm2.58,6.5s0-.06,0-.07c-.43-.58-.87-1.15-1.3-1.72-.18-.23-.37-.38.18-.54,1-.29,1.3-.81,1.13-1.66s-.85-1.07-1.73-1.11-1.69,0-2.54,0c-.43,0-.56.14-.56.47,0,1.42,0,2.85,0,4.27,0,.32.11.47.55.47s.58-.12.55-.45a5.67,5.67,0,0,1,0-1.09c0-.23-.26-.6.32-.68a.93.93,0,0,1,1,.43c.27.41.63.78.88,1.2A1.15,1.15,0,0,0,255.56,106Z"/><path class="cls-3" d="M255.56,106a1.15,1.15,0,0,1-1.48-.52c-.25-.42-.61-.79-.88-1.2a.93.93,0,0,0-1-.43c-.58.08-.29.45-.32.68a5.67,5.67,0,0,0,0,1.09c0,.33-.12.45-.55.45s-.55-.15-.55-.47c0-1.42,0-2.85,0-4.27,0-.33.13-.48.56-.47.85,0,1.69,0,2.54,0s1.57.34,1.73,1.11-.13,1.37-1.13,1.66c-.55.16-.36.31-.18.54.43.57.87,1.14,1.3,1.72C255.58,105.9,255.56,105.94,255.56,106Zm-2.8-2.92h.81c.56,0,.94-.25,1-.71s-.34-.7-.89-.74-.91,0-1.37,0c-.16,0-.38,0-.39.15a2.69,2.69,0,0,0,0,1.23C252,103.22,252.55,103,252.76,103Z"/><path class="cls-12" d="M252.76,103c-.21,0-.74.18-.85-.11a2.69,2.69,0,0,1,0-1.23c0-.15.23-.16.39-.15.46,0,.91,0,1.37,0s.94.26.89.74-.42.69-1,.71Z"/><path class="cls-13" d="M379,70.18l-.85.58c-1.35,0-11.36-.31-14.14-.31-1.35,0-3.94.31-4.49.31l-.52-.31-.13-1.37.43-.58,1.16-.09c1.16-.19,1.22-.8,1.22-2V44.55c0-1-.51-1.28-1.22-1.28h-1.59l-.51-.49.09-1.65.52-.4c.39,0,3,.19,4.33.19,2.94,0,13.69-.4,14.6-.4l.65.67L378.13,48h-2l-.39-3.91-1-.88h-9.2V53.9h10.27v2.44H366.4l-.8.89V68.38l10-.4.71-.67.61-4h2.2"/><path class="cls-13" d="M421.41,70.27l-.52.4c-1.47,0-3.94-.1-5-.1-1.25,0-4,.1-4.61.1l-.46-.31-.12-1.07.43-.58,1.55-.09,1.16-.89v-.3l-2-23.06c-1.59,5.28-6.75,22.26-7.73,24.92l-.79.67h-2.14l-1.1-.88c-.8-2-6-16.71-8.74-24.62l-1.43,23.15v.09l1.34,1,1.62.09.43.49v1l-.52.4c-1.16,0-3-.1-4.52-.1-1.8,0-3.73.1-4.43.1l-.43-.4V69.08l.49-.4,1.25-.09c.89,0,1.59-.18,1.68-1.28l1.9-23.25-.86-.88h-2.23l-.55-.49-.12-1.38.61-.39h3.7c.91,0,3.75-.1,4.42-.1l.8.89c.88,4,6.17,18.66,8.18,24.13,1.65-5.19,4.4-14.17,5.5-18.17.55-2.05,1.68-6.17,1.68-6.17l.55-.58s2.54.09,3.55.09,4.42-.19,4.42-.19l.55.49,0,1.38-.58.39h-1c-1.32,0-1.75.1-1.75,1l2.33,23.46c.09.89.39,1.07,1.58,1.16l1.56.09.46.49"/><path class="cls-13" d="M436.8,70.67c-.61,0-3-.1-4.58-.1-1.31,0-3.69.1-4.15.1l-.61-.49V69.11l.46-.49H429c1,0,1.31,0,1.31-1.07V44.09c0-1-.25-1.07-1.5-1.07h-1.07l-.52-.49V41.47l.55-.49c.58,0,2.94.09,4.43.09s3.88-.09,4.34-.09l.76.49-.06,1-.58.67H435l-.7.8V67.64l1,1h1.68l.55.58v1.07l-.68.4"/><path class="cls-13" d="M465.06,70.18l-.86.58c-1.34,0-11.36-.31-14.14-.31-1.34,0-3.91.31-4.46.31l-.52-.31-.15-1.37.43-.58,1.16-.09c1.16-.19,1.22-.8,1.22-2V44.55c0-1-.52-1.28-1.22-1.28h-1.59l-.52-.49.09-1.65.52-.4c.4,0,3,.19,4.34.19,2.93,0,13.65-.4,14.6-.4l.64.67L464.17,48h-1.95l-.4-3.91-1-.88h-9.19V53.9h10.26v2.44h-9.38l-.79.89V68.38l10.05-.4.7-.67.61-4h2.2"/><path class="cls-13" d="M340,55.64A43.39,43.39,0,0,0,350,70.39a10.82,10.82,0,0,0,2.75,1.77,2.89,2.89,0,0,0,3.54-.79v-.18l-.09-.1-1.65-.88a36.08,36.08,0,0,1-10.2-14.27c3.36-1.07,7-3.11,7-8.21,0-5.29-5.13-7.24-8.77-7.24s-5.25.4-7.6.4c-1.9,0-3.88-.19-4.71-.19l-.82.58-.06,1.29.55.58,1.5.09c1.25.09,1.58.18,1.58,1.28V67.37c0,.88-.39,1.07-1.31,1.16h-1.4l-.55.58v1.16l.61.49c.91,0,3.45-.19,4.7-.19s3.76.19,4.77.19l.7-.58.09-1-.64-.58-1.77-.09c-.86-.09-1.23-.31-1.23-1.16V44.7c0-1,.37-1.46,1.1-1.65a26.51,26.51,0,0,1,3-.18c2.56,0,6.11,1.38,6.11,5.47,0,4.49-3.42,6.26-7.15,6.93l-.21.19"/><path class="cls-13" d="M481.06,55.64a44,44,0,0,0,10.05,14.75,11.18,11.18,0,0,0,2.75,1.77,2.89,2.89,0,0,0,3.55-.79l0-.18-.1-.1-1.64-.88a36.16,36.16,0,0,1-10.18-14.27c3.36-1.07,7-3.11,7-8.21,0-5.29-5.13-7.24-8.77-7.24s-5.25.4-7.6.4c-1.9,0-3.85-.19-4.71-.19l-.85.58-.06,1.29.58.58,1.49.09c1.26.09,1.59.18,1.59,1.28V67.37c0,.88-.43,1.07-1.31,1.16H471.5l-.58.58v1.16l.61.49c1,0,3.46-.19,4.71-.19s3.72.19,4.73.19l.71-.58.09-1-.64-.58-1.78-.09c-.85-.09-1.22-.31-1.22-1.16V44.7c0-1,.37-1.46,1.1-1.65a26.21,26.21,0,0,1,3-.18c2.56,0,6.1,1.38,6.1,5.47,0,4.49-3.42,6.26-7.14,6.93l-.19.19"/><path class="cls-13" d="M308.94,53.07c.25.89,1,1.87,3.82,1.29a17.06,17.06,0,0,0,3.79-1c10.54-4.49,11.33-12.22,11.06-15.43-.64-7.63-6.05-11-14.73-10.44l-1.31.09c-2.69.09-6.75.4-9.44.4-2.35,0-7.21-.31-7.27-.31l-.73.58L294,30.13l.55.68,3,.09c.92.09,1.53.39,1.53,1.77V70.3c0,1.65-.4,2.14-2,2.14h-1.4l-.61.58.06,1.46.52.49c.58,0,1.46,0,2.38-.09h7.06c1.74.09,3.6.09,5.22.09l.88-.49V73l-.67-.58h-3.88c-1.37,0-2.14-.4-2.14-2.14V32.94a2.09,2.09,0,0,1,1.72-2.26,22.68,22.68,0,0,1,3.63-.3l1.59-.09h1c6.32-.1,9.47,3.51,9.77,8.88.46,8.8-7.21,12.62-13.1,13.6l-.16.09"/><path class="cls-13" d="M454.37,85.05l.43-.39-.43-.49c-24-1-45.21-1.38-60.63-1.38s-36.6.4-60.64,1.38l-.42.49.42.39c24.07,1,45.21,1.47,60.64,1.47s36.56-.49,60.63-1.47"/><path class="cls-13" d="M358.7,111V100.93l-2.78.1-.6,3.2h-1.4a17.19,17.19,0,0,1-.4-3.7,3,3,0,0,1,.13-1.09h13.22a2.66,2.66,0,0,1,.13,1.09,16.59,16.59,0,0,1-.4,3.7h-1.39l-.61-3.2-2.75-.1V111l1.94.19v.4a.83.83,0,0,1-.26.71,2.75,2.75,0,0,1-1.27.18h-5.5a3.9,3.9,0,0,1-.07-.65.66.66,0,0,1,.2-.51,1.59,1.59,0,0,1,.81-.23Z"/><path class="cls-13" d="M375.34,102.55c1.94,0,2.9,1,2.9,3.13v5.45l1.8.17v.35a.78.78,0,0,1-.24.66,2.4,2.4,0,0,1-1.14.17h-4.32a2.69,2.69,0,0,1-.08-.65c0-.35.23-.56.69-.64l.44-.06v-4.65A2.3,2.3,0,0,0,375,105a1.57,1.57,0,0,0-1.27-.45,4.32,4.32,0,0,0-2.21.74v5.85l1.54.17v.35a.78.78,0,0,1-.24.66,2.4,2.4,0,0,1-1.14.17h-4.48a2.52,2.52,0,0,1-.11-.65.49.49,0,0,1,.19-.41,1.89,1.89,0,0,1,.75-.21l.63-.08V100.29a.73.73,0,0,0-.17-.57,1.48,1.48,0,0,0-.75-.12h-1V98.52a12.27,12.27,0,0,1,3.15-.51,1.78,1.78,0,0,1,1.23.33,1.33,1.33,0,0,1,.36,1v4.5A6.7,6.7,0,0,1,375.34,102.55Z"/><path class="cls-13" d="M389.59,105.59a3.15,3.15,0,0,1-.29,1.45,5.36,5.36,0,0,1-2.57.36h-3.9a6.6,6.6,0,0,0,.11.87,2.7,2.7,0,0,0,3,2.59,4.87,4.87,0,0,0,2.92-.91l.56,1a5.66,5.66,0,0,1-4.61,1.77,5.43,5.43,0,0,1-3.51-1.13,4.19,4.19,0,0,1-1.43-3.5,5.41,5.41,0,0,1,1.56-3.89,5.61,5.61,0,0,1,4.24-1.64,4.47,4.47,0,0,1,3,.84A2.77,2.77,0,0,1,389.59,105.59ZM385,104.06c-1.26,0-2,.72-2.21,2.14h3.61c.23,0,.36,0,.42-.08s.08-.2.08-.42C386.94,104.61,386.31,104.06,385,104.06Z"/><path class="cls-13" d="M409.33,111l1.94.19v.4a.83.83,0,0,1-.26.71,2.65,2.65,0,0,1-1.24.18h-5.51a3.83,3.83,0,0,1-.06-.65.69.69,0,0,1,.18-.51,1.55,1.55,0,0,1,.8-.23l1-.09v-4.35h-6.13V111l2,.19v.4a.78.78,0,0,1-.28.71,2.67,2.67,0,0,1-1.25.18H395a3.07,3.07,0,0,1-.07-.65.69.69,0,0,1,.19-.51,1.59,1.59,0,0,1,.81-.23l1-.09V100.93l-2-.19v-.41a.8.8,0,0,1,.28-.7,2.63,2.63,0,0,1,1.25-.19H402a2.39,2.39,0,0,1,.09.66.6.6,0,0,1-.2.49,1.67,1.67,0,0,1-.8.24l-1,.1v4.23h6.13v-4.23l-2-.19v-.41a.79.79,0,0,1,.26-.7,2.58,2.58,0,0,1,1.24-.19h5.51a2.84,2.84,0,0,1,.08.66.6.6,0,0,1-.19.49,1.66,1.66,0,0,1-.83.24l-1,.1Z"/><path class="cls-13" d="M413.35,111.13V105c0-.3-.06-.48-.18-.56a2.08,2.08,0,0,0-.9-.12h-1v-1.1a11.66,11.66,0,0,1,3.4-.56,1.27,1.27,0,0,1,1.54,1.51v7l1.8.17v.35a.78.78,0,0,1-.24.66,2.4,2.4,0,0,1-1.14.17h-4.74a2.69,2.69,0,0,1-.08-.65.47.47,0,0,1,.19-.41,1.79,1.79,0,0,1,.75-.21ZM416,100.2a3.13,3.13,0,0,1-1.28.31,3,3,0,0,1-1.26-.18,1.3,1.3,0,0,1-.29-1,1.51,1.51,0,0,1,.37-1.06,3.07,3.07,0,0,1,1.29-.3,3,3,0,0,1,1.28.19,1.29,1.29,0,0,1,.28.94A1.54,1.54,0,0,1,416,100.2Z"/><path class="cls-13" d="M429.86,102.81a2.47,2.47,0,0,1,.08.63.5.5,0,0,1-.19.42,1.75,1.75,0,0,1-.75.22l-.29,0-3.8,8.44a7.46,7.46,0,0,1-2.11,0l-4-8.46-1.17-.12v-.34a.76.76,0,0,1,.24-.67,2.44,2.44,0,0,1,1.14-.16h4.57a4.09,4.09,0,0,1,.08.63.5.5,0,0,1-.19.42,1.75,1.75,0,0,1-.75.22l-.67,0,2.34,5.64,2.36-5.62L425,104v-.34a.76.76,0,0,1,.24-.67,2.44,2.44,0,0,1,1.14-.16Z"/><path class="cls-13" d="M439.45,105.59a3.28,3.28,0,0,1-.29,1.45,5.39,5.39,0,0,1-2.57.36h-3.9a6.6,6.6,0,0,0,.11.87,2.69,2.69,0,0,0,3,2.59,4.87,4.87,0,0,0,2.92-.91l.56,1a5.66,5.66,0,0,1-4.61,1.77,5.43,5.43,0,0,1-3.51-1.13,4.16,4.16,0,0,1-1.43-3.5,5.41,5.41,0,0,1,1.56-3.89,5.61,5.61,0,0,1,4.24-1.64,4.48,4.48,0,0,1,3,.84A2.77,2.77,0,0,1,439.45,105.59Zm-4.55-1.53c-1.26,0-2,.72-2.21,2.14h3.61c.22,0,.36,0,.42-.08a.74.74,0,0,0,.08-.42C436.8,104.61,436.17,104.06,434.9,104.06Z"/></svg>