<svg id="Layer_1" data-name="Layer 1" xmlns="http://www.w3.org/2000/svg" viewBox="0 0 600 120"><defs><style>.cls-1{fill:#fff;}</style></defs><title>bestWestern-v-light</title><path class="cls-1" d="M215.17,60.4c0,2,0,4.05,0,6.07,0-2,0-4,0-6.07s.05-4.3,0-6.45C215.22,56.1,215.17,58.25,215.17,60.4Z"/><path class="cls-1" d="M176.06,59.34c.72,0,1.43,0,2.15,0l1,0-1,0C177.49,59.33,176.78,59.33,176.06,59.34Z"/><path class="cls-1" d="M152.22,55v0Z"/><path class="cls-1" d="M227.61,80h0c.18.42,0,.84,0,1.26C227.58,80.85,227.79,80.43,227.61,80Z"/><path class="cls-1" d="M266.13,34.3c-.56-3.64-1.64-7.14-4.5-10.13a26.75,26.75,0,0,0-9.22-5.75,161.31,161.31,0,0,0-17.07-5.74c-10.48-3.06-20.94-6.15-31.42-9.2A74.17,74.17,0,0,0,190.4.84c-.27,0-.62,0-.68-.3H179.36c0,.2-.19.26-.39.27-8,.67-15.35,3.11-22.79,5.3-9.37,2.75-18.76,5.46-28.1,8.28a104.65,104.65,0,0,0-13.8,5.09c-6.56,3-10.15,7.58-11.12,13.5-.08.49-.15,1-.22,1.47,0,.2,0,.43-.38.46v68c.53.08.35.44.4.69a17.31,17.31,0,0,0,7.17,11.17,29.51,29.51,0,0,0,12.9,4.62c1,.15,2,.22,3,.34.25,0,.55,0,.58.29H242.48c.16-.43.63-.28,1-.31a37.21,37.21,0,0,0,11.94-2.91c5.67-2.6,8.89-6.6,10.31-11.61.18-.63.29-1.27.43-1.9.05-.22,0-.5.39-.54V35.07C266,35,266.17,34.57,266.13,34.3Zm-3.21,70.76c-2,6.24-7,10.11-14.76,11.81a53.26,53.26,0,0,1-11.5,1.09H184.49q-26.67,0-53.34,0A46.78,46.78,0,0,1,120,116.65c-7.81-2-12.4-6.19-14.1-12.5a25.15,25.15,0,0,1-.81-6.79V37.79a22.4,22.4,0,0,1,1.06-7.38c1.41-4.12,4.62-7.12,9.07-9.38a79.3,79.3,0,0,1,13.71-5c12.23-3.58,24.43-7.21,36.67-10.74a66.84,66.84,0,0,1,21.15-2.75,75,75,0,0,1,18.59,3.26q19.56,5.75,39.11,11.52a53.35,53.35,0,0,1,10.64,4.34c5.42,3,8.08,7.24,8.71,12.39a38.9,38.9,0,0,1,.21,4.58q0,29.2,0,58.4A25.74,25.74,0,0,1,262.92,105.06Z"/><path class="cls-1" d="M252.88,23a55.12,55.12,0,0,0-10-3.95Q224,13.49,205.2,8a74,74,0,0,0-19.85-3.35,69.4,69.4,0,0,0-20.76,3.16q-17.25,5-34.47,10.11a75.6,75.6,0,0,0-13.46,4.87c-4,2-6.8,4.71-8,8.4a20.34,20.34,0,0,0-.89,6.17l0,60.26a22.89,22.89,0,0,0,.66,5.64c1.41,5.58,5.3,9.47,12.19,11.29a42.22,42.22,0,0,0,10.77,1.27q26.58,0,53.15,0t53,0a44.34,44.34,0,0,0,10-1.07c6-1.39,10.15-4.3,12.17-9a18.8,18.8,0,0,0,1.47-7.49q0-30,0-60a36.34,36.34,0,0,0-.23-4C260.51,29.46,257.94,25.66,252.88,23ZM213.2,45.11c.08-.36-.1-.9.81-.94s1.23.13,1.19.92c-.09,1.73,0,3.47,0,5.2,0,.79.29,1,1.2.92,1.36-.06,2.74,0,4.1,0,.58,0,.79.09.78.59,0,1.35,0,1.35-1.66,1.35-1.11,0-2.22,0-3.32,0-.83,0-1.12.11-1.1.83.07,2.15,0,4.3,0,6.45s0,4.05,0,6.07a7.33,7.33,0,0,0,.15,1.47,1.47,1.47,0,0,0,1.47,1.25,2,2,0,0,0,2.09-.86,2.26,2.26,0,0,0,.35-1c0-.7.08-1.4.09-2.1,0-.86.79-1.26,1.81-.94.25.08.24.22.23.37a14.68,14.68,0,0,1-.19,3.8,4.28,4.28,0,0,1-3.5,2.93,10.86,10.86,0,0,1-4.54.05,4.72,4.72,0,0,1-4.06-4.68c-.06-1.5,0-3,0-4.51,0-2.79,0-5.59,0-8.39,0-.54-.15-.77-.85-.69a6.77,6.77,0,0,1-.78,0c-1.49,0-1.8-.32-1.48-1.49.07-.28.29-.32.53-.37C210.5,50.45,212.5,48.24,213.2,45.11ZM180,14.52c.76-1.28,1.53-2.57,2.17-3.9A1.48,1.48,0,0,1,184,9.71a6.49,6.49,0,0,0,.82,0c1.24-.35,1.82.32,2.29,1.3.59,1.23,1.32,2.41,2,3.61a.92.92,0,0,1,0,1c-.86,1.48-1.69,3-2.5,4.46a1,1,0,0,1-1,.55c-2.85,0-2.85,0-4-2-.54-1-1.05-1.95-1.63-2.9A1.07,1.07,0,0,1,180,14.52ZM159.31,23c.77-.93,1.53-1.87,2.22-2.83a.92.92,0,0,1,1.3-.35c1.26.49,2.55.92,3.85,1.33a1.87,1.87,0,0,1,1.18.94q4.62,8.36,9.3,16.68c.13.24.27.46.49.84.69-1.23,1.31-2.32,1.91-3.42.19-.33-.1-.6-.25-.87q-3.26-5.87-6.55-11.71a1,1,0,0,1,.11-1.28,31.54,31.54,0,0,0,2.18-2.77c.36-.52.71-.51,1.3-.29,1.27.47,2.56.9,3.85,1.32a1.77,1.77,0,0,1,1.13.88c1,1.88,2.08,3.74,3.15,5.66a1.51,1.51,0,0,0,.55-.73c.92-1.63,1.84-3.26,2.72-4.91a1.72,1.72,0,0,1,1.11-.89c1.38-.45,2.76-.92,4.12-1.41.45-.16.68-.1.93.23.79,1,1.59,2.08,2.45,3.09.34.4.17.72,0,1.08-2.18,3.9-4.35,7.81-6.55,11.7a1.24,1.24,0,0,0,0,1.39c.57.92,1.07,1.86,1.61,2.81a1.23,1.23,0,0,0,.54-.7q4.67-8.34,9.31-16.68a2,2,0,0,1,1.26-1c1.33-.41,2.64-.88,3.94-1.36.47-.17.73-.13,1,.24.78,1,1.6,2.07,2.43,3.09a.67.67,0,0,1,0,.87q-5,9-10,18a.86.86,0,0,1-.89.46c-2.7,0-5.41,0-8.11,0a.89.89,0,0,1-.92-.54c-.6-1.12-1.23-2.22-1.92-3.46-.68,1.21-1.3,2.27-1.85,3.34-.25.48-.57.62-1.22.68-1.35.12-2.08-.27-2.49-1.29A29.06,29.06,0,0,0,181,38.44c-.67,1.2-1.29,2.28-1.87,3.37a1.07,1.07,0,0,1-1.15.63c-2.6,0-5.21,0-7.81,0a1,1,0,0,1-1.08-.58q-4.92-8.88-9.89-17.75A.81.81,0,0,1,159.31,23Zm17.32,44.3A3.73,3.73,0,0,0,181,69.28a4.21,4.21,0,0,0,2.67-1.69A8.59,8.59,0,0,0,185,64.77c.08-.24,0-.56.52-.54a7,7,0,0,1,1.83.08c.07,0,.06.3,0,.44a11.52,11.52,0,0,1-1.19,3.19c-2.76,4.78-10.39,4.48-13.91,1.3a9.52,9.52,0,0,1-3.12-5.75,12,12,0,0,1,1.69-8.92,9.27,9.27,0,0,1,9.87-3.65,7.25,7.25,0,0,1,4.6,3,12.64,12.64,0,0,1,1.89,6.92c0,.44-.32.42-.69.42H176.22c-.35,0-.74,0-.71.41A13.2,13.2,0,0,0,176.63,67.34Zm-39,29c-.17.49-.4.67-1,.66-2.2,0-2.19,0-2.74-1.7q-2.16-6.73-4.33-13.46c-.06-.19-.15-.39-.28-.72-.83,2.34-1.62,4.55-2.4,6.77-1,2.81-2,5.62-2.94,8.44-.18.52-.44.69-1.13.68-2,0-2,0-2.56-1.6q-3.6-11-7.19-22.08c-.28-.88-.62-1.67-2-1.68-.33,0-.31-.18-.34-.37-.22-1.44-.16-1.49,1.68-1.49,3.16,0,6.32,0,9.48,0,.7,0,1,.1.92.71a2.55,2.55,0,0,0,0,.78c0,.29-.12.37-.49.41-2,.21-2.43.66-2,2.27,1.33,4.47,2.68,8.94,4,13.41h.23c.93-2.5,1.77-5,2.8-7.5a5.21,5.21,0,0,0,.1-4.51,17.26,17.26,0,0,1-.83-2.55,1.49,1.49,0,0,0-1.55-1.09c-.71,0-.81-.26-.75-.71a2.57,2.57,0,0,0,0-.62c-.06-.42.11-.59.69-.58q5.65,0,11.33,0c.59,0,.75.16.67.58a.81.81,0,0,0,0,.31c.11.69-.05,1-1.13,1-1.89,0-2.3.52-1.86,2,1.37,4.55,2.78,9.08,4.18,13.63.38-.11.32-.35.38-.54,1.38-4.23,2.78-8.46,4.12-12.7.52-1.65-.15-2.29-2.31-2.42-.33,0-.86.17-.94-.19a2.51,2.51,0,0,1,.07-1.6c0-.08.42-.07.63-.08a21.66,21.66,0,0,0,3.51-.15c1.1-.2,1.61-.66,1.71-1.55a4.33,4.33,0,0,0,0-.62q0-9.42,0-18.82c0-1.73-.56-2.21-2.74-2.32-.52,0-.79-.11-.73-.57a2.84,2.84,0,0,0,0-.77c-.07-.47.21-.56.74-.55,2.8,0,5.6,0,8.4,0s5.67-.14,8.49.11c4,.36,6.31,2.35,6.55,5.55.27,3.58-1.22,5.48-5.43,6.87.29.07.5.15.72.18,3.36.56,5.61,2.51,6.06,5.21a7.62,7.62,0,0,1-.3,3.93c-1.16,3.16-4,4.74-7.93,5.19a91.5,91.5,0,0,1-9.66.15c-2.69,0-3.26.31-4,2.38-2,5.47-3.9,11-5.85,16.42C139,92.38,138.26,94.34,137.61,96.31Zm24.77-5.82a9,9,0,0,1-1.68,4c-2.64,3.45-9,3.93-12.89,1a9.06,9.06,0,0,1-3.51-5.6,12,12,0,0,1,1.61-9.52,9.25,9.25,0,0,1,10-3.56,7.18,7.18,0,0,1,4.53,3.11,12.31,12.31,0,0,1,1.78,6.77c0,.46-.31.43-.68.42h-7.67c-.83,0-1.66,0-2.49,0-.61,0-.77.13-.76.61a13.82,13.82,0,0,0,.84,5,3.71,3.71,0,0,0,4,2.49,4,4,0,0,0,2.79-1.27A7.5,7.5,0,0,0,160,90.52c.07-.21,0-.52.44-.52a7.79,7.79,0,0,1,1.93.06C162.44,90.08,162.41,90.35,162.38,90.49Zm19.1,1.32c-.5,2.72-2.86,4.73-6.24,5.32a10.84,10.84,0,0,1-6.94-.89c-.71-.35-1.29-.58-1.66.33-.24.57-1,.23-1.47.26s-.35-.35-.36-.58c0-1,0-1.92,0-2.88s0-1.81,0-2.72c0-.26-.2-.73.47-.64s1.49-.41,1.71.5a7.35,7.35,0,0,0,1.4,2.88,5.41,5.41,0,0,0,3.78,2,3.62,3.62,0,0,0,3.77-1.69,2.48,2.48,0,0,0-1.34-3.41,36.45,36.45,0,0,0-5-1.82c-2.82-1-4.67-2.51-4.93-5a5.59,5.59,0,0,1,3.37-6,9.34,9.34,0,0,1,8.49,0c.6.29,1.08.7,1.45-.24.2-.49,1-.17,1.5-.2s.37.34.38.57c0,1.5,0,3,0,4.51,0,.26.24.74-.44.66s-1.42.39-1.75-.4a7.16,7.16,0,0,0-1.71-2.68,4.2,4.2,0,0,0-3.14-1.18,3,3,0,0,0-3,1.76,2.3,2.3,0,0,0,1.4,3,15.31,15.31,0,0,0,3.12,1.07,21.15,21.15,0,0,1,3.07,1C180.63,86.61,182,88.85,181.48,91.81ZM197,93.67c-.2,1.78-1.66,3.06-3.84,3.48a11.7,11.7,0,0,1-3.78.09c-2.56-.33-4.23-1.88-4.49-4.12a24.6,24.6,0,0,1-.14-2.71q0-5.37,0-10.73c0-.59-.14-.89-1-.78a3.75,3.75,0,0,1-.58,0c-1.58,0-1.56,0-1.55-1.24,0-.41.17-.56.66-.68,4.42-1.11,6.78-3.68,6.83-7.43,0-1.55,0-3.11,0-4.66,0-.31-.16-.77.55-.67s1.42-.38,1.62.54a6.6,6.6,0,0,0,1.41,2.87,5.38,5.38,0,0,0,4.48,2,3.22,3.22,0,0,0,3.12-1.88,2.36,2.36,0,0,0-1.2-3.11,18.66,18.66,0,0,0-3.59-1.38,20.66,20.66,0,0,1-3.42-1.31,5.4,5.4,0,0,1-3-6.56c.67-2.44,3-4.23,6-4.59a9.52,9.52,0,0,1,6,1c.45.26.84.42,1-.2s1-.33,1.56-.37.44.4.44.67c0,1.48,0,3,0,4.43,0,.28.19.74-.46.66s-1.43.4-1.75-.4a7.45,7.45,0,0,0-1.69-2.68,4.17,4.17,0,0,0-3.13-1.22,3.06,3.06,0,0,0-3,1.74,2.32,2.32,0,0,0,1.29,2.94,13.87,13.87,0,0,0,3,1.07,23.67,23.67,0,0,1,3.25,1c3.31,1.41,4.59,3.49,4.1,6.67-.39,2.51-2.7,4.54-5.91,5.2a11.16,11.16,0,0,1-7.31-.85c-1.2-.58-1.63-.38-1.65.73,0,1.73,0,3.47,0,5.21,0,.45.19.56.72.55,1.53,0,3.07,0,4.59,0,.62,0,.77.15.77.62,0,1.37,0,1.37-1.67,1.37-1.18,0-2.35,0-3.52,0-.77,0-.9.19-.89.74,0,1.12,0,2.23,0,3.35s0,2.23,0,3.34c0,2.05,0,4.1,0,6.14a4.11,4.11,0,0,0,.16,1.39,1.54,1.54,0,0,0,1.45,1.1,2,2,0,0,0,2-.82,3.07,3.07,0,0,0,.45-1.57,9.77,9.77,0,0,0,0-1.71c-.1-.71.21-.92,1.1-.89.72,0,1,.11,1,.76C197,91.7,197.06,92.69,197,93.67ZM215,93c-2.1,4.42-8.4,5.83-13.1,2.92a8.88,8.88,0,0,1-4-5.36,12.08,12.08,0,0,1,.86-9.3,8.6,8.6,0,0,1,6.77-4.67,8.35,8.35,0,0,1,8.06,2.94,11.15,11.15,0,0,1,2,6.18c.08,1.37.08,1.37-1.67,1.37-3,0-6,0-9.08,0-.61,0-.85.1-.82.64a15.8,15.8,0,0,0,.81,4.84,3.74,3.74,0,0,0,4.09,2.61,4.12,4.12,0,0,0,2.85-1.34,6.28,6.28,0,0,0,1.57-2.9c.17-.74.53-.93,1.45-.92s1.29.1,1,.91S215.33,92.28,215,93Zm18.55-11a3.24,3.24,0,0,1-3.31,1.75,2.78,2.78,0,0,1-2.6-2.47c-.06-.42.15-.84,0-1.26a10.65,10.65,0,0,0-2.5,6.58c-.13,2-.06,4-.05,6,0,1.52.73,2.15,2.61,2.39.37,0,.94-.06,1,.26a3.58,3.58,0,0,1,0,1.46c0,.22-.37.16-.59.16H216.43c-.47,0-.66-.12-.62-.49a3.39,3.39,0,0,0,0-.78c0-.34.08-.55.56-.56a2.6,2.6,0,0,0,.39,0c1.66-.21,2.1-.6,2.11-2,0-3.21,0-6.43,0-9.64,0-.8,0-1.61,0-2.41,0-1.34-.51-1.87-2.2-2-1.36-.09-.74-.81-.84-1.29-.14-.68.54-.49,1-.5,2.31-.09,4.62-.15,6.92-.25.63,0,.88.08.85.61,0,.91,0,1.82,0,2.76.44-.09.41-.41.53-.61a7,7,0,0,1,2.48-2.56c2.55-1.48,5.56-.59,6.24,1.86A4,4,0,0,1,233.55,82Zm13.12,14.72c0,.2-.38.14-.6.14H235.23c-.47,0-.65-.11-.61-.49a2.84,2.84,0,0,0,0-.77c-.06-.4.16-.53.63-.6,1.94-.28,2.23-.55,2.24-2.1q0-5.9,0-11.81c0-1.55-.37-1.91-2.32-2.13-.79-.1-.47-.49-.54-.8-.18-.75.16-1,1.16-1,2.21,0,4.43-.1,6.64-.21.71,0,.91.14.85.67a14.2,14.2,0,0,0,0,1.46,8,8,0,0,1,4.11-2.46c3.67-.77,6.75,1,7.23,4.15a31.82,31.82,0,0,1,.13,4.58c0,2.51,0,5,0,7.54,0,1.53.35,1.87,2.22,2.13,1.23.17.46.89.62,1.35s-.34.49-.77.48c-2.54,0-5.08,0-7.62,0-.73,0-.84-.21-.84-.72,0-4.8,0-9.59,0-14.39a9.75,9.75,0,0,0,0-1.08,1.43,1.43,0,0,0-1.07-1.37,2,2,0,0,0-1.92.51,4.54,4.54,0,0,0-1.68,3.55c0,3.24,0,6.48,0,9.72,0,1.26.51,1.68,2.1,1.89.33,0,.85-.06.93.27A4.21,4.21,0,0,1,246.67,96.71ZM252.92,108c-3.33,0-5.77-2-5.74-4.74s2.56-4.67,5.88-4.65,5.78,2.06,5.74,4.75S256.26,108.06,252.92,108Z"/><path class="cls-1" d="M190.88,92.46c0-2,0-4.09,0-6.14,0-1.11,0-2.23,0-3.34,0,1.11,0,2.23,0,3.34C190.88,88.37,190.87,90.42,190.88,92.46Z"/><path class="cls-1" d="M176.22,61.29h0Z"/><path class="cls-1" d="M153.86,87.05h0Z"/><path class="cls-1" d="M227.6,80h0a0,0,0,0,0,0,0h0A0,0,0,0,1,227.6,80Z"/><path class="cls-1" d="M227.61,80h0v0A0,0,0,0,0,227.61,80Z"/><path class="cls-1" d="M253.06,98.64c-3.32,0-5.85,2-5.88,4.65s2.41,4.72,5.74,4.74,5.83-1.94,5.88-4.64S256.37,98.66,253.06,98.64Zm-.05,8.59c-2.62,0-4.5-1.59-4.53-3.84s1.86-3.92,4.5-3.93,4.53,1.61,4.55,3.83S255.62,107.23,253,107.23Z"/><path class="cls-1" d="M152.43,68.42a1.86,1.86,0,0,0,1.44,1.17,5,5,0,0,0,5.64-1.92,6.71,6.71,0,0,0,.9-3.82,8.24,8.24,0,0,0-.19-2c-.42-2-1.93-3.11-4.41-3.36-.91-.09-1.82-.05-2.73-.1-.68,0-.88.14-.87.69,0,2.69,0,5.39,0,8.08A4,4,0,0,0,152.43,68.42Z"/><path class="cls-1" d="M152.22,55c0,1.45,0,1.45,1.87,1.32,2.73-.18,4.2-1,4.82-2.77a6.7,6.7,0,0,0-.08-4.67,4.14,4.14,0,0,0-3.65-2.57c-2-.27-2.92.37-3,1.94,0,.6,0,1.21,0,1.82V55Z"/><path class="cls-1" d="M195.92,40.53a5.06,5.06,0,0,1,.78,0,1.64,1.64,0,0,0,1.92-1c2.78-5.1,5.64-10.17,8.48-15.25a2.11,2.11,0,0,0-.83-2.25.39.39,0,0,0-.27,0c-1,.47-2.31.46-2.88,1.51-2.82,5.14-5.7,10.26-8.55,15.39C193.67,40.53,193.67,40.53,195.92,40.53Z"/><path class="cls-1" d="M170.17,39c.61,1.13,1.23,1.92,2.72,1.5h1.42c1.12,0,1.12,0,.67-.82q-4.53-8.13-9-16.25c-.56-1-1.87-1-2.84-1.46a.45.45,0,0,0-.26.06,2.08,2.08,0,0,0-.81,2.27C164.74,29.23,167.51,34.11,170.17,39Z"/><path class="cls-1" d="M182.88,30.38a1.16,1.16,0,0,0,0-1.31c-1.14-2-2.3-3.94-3.3-6-.56-1.15-1.9-1.2-3-1.67-.28-.13-.36.13-.5.26-.79.81-1.21,1.63-.33,2.58a4,4,0,0,1,.44.78c1.56,2.81,3.13,5.62,4.79,8.58C181.7,32.45,182.26,31.4,182.88,30.38Z"/><path class="cls-1" d="M188.06,33.61c.22-.36.37-.59.5-.82l4.92-8.85a1.89,1.89,0,0,0-.67-2.42.64.64,0,0,0-.24-.1,6.87,6.87,0,0,0-2.83,1.34c-1.21,2.17-2.41,4.34-3.63,6.51a.75.75,0,0,0,0,.81C186.72,31.21,187.35,32.34,188.06,33.61Z"/><path class="cls-1" d="M182.47,36.22,184.55,40l2-3.62a.59.59,0,0,0,0-.6l-2-3.61-2,3.56A.54.54,0,0,0,182.47,36.22Z"/><path class="cls-1" d="M178.21,59.34l1,0c.34,0,.68,0,1,0,.64,0,.77-.17.73-.63-.06-.62,0-1.24-.09-1.86a7.23,7.23,0,0,0-.91-3.32,2.13,2.13,0,0,0-3.71.44,13.79,13.79,0,0,0-.78,5c0,.35.24.37.56.37C176.78,59.33,177.49,59.33,178.21,59.34Z"/><path class="cls-1" d="M206.23,85.12h.49c.72,0,1.43,0,2.15,0,.38,0,.61,0,.6-.42a12.58,12.58,0,0,0-.75-4.91,2,2,0,0,0-2-1.36,2,2,0,0,0-2,1.35,9.55,9.55,0,0,0-.7,3.51C203.89,85.12,203.91,85.12,206.23,85.12Z"/><path class="cls-1" d="M206.23,85.12h.49c.72,0,1.43,0,2.15,0-.72,0-1.43,0-2.15,0Z"/><path class="cls-1" d="M153.18,85.12h2.3c.3,0,.61,0,.6-.34a13,13,0,0,0-.82-5.14,1.94,1.94,0,0,0-1.92-1.21,2,2,0,0,0-1.93,1.2,7.84,7.84,0,0,0-.74,3.2c0,.73-.46,1.66.13,2.16S152.47,85.06,153.18,85.12Z"/><path class="cls-1" d="M227.74,79.92l-.11.07.1,0Z"/><path class="cls-1" d="M227.63,80h0v0Z"/><polygon class="cls-1" points="227.61 80 227.6 79.98 227.6 79.98 227.61 80"/><path class="cls-1" d="M184.55,19.08c.74-1.31,1.4-2.49,2-3.67a.46.46,0,0,0,.06-.37c-.67-1.23-1.35-2.45-2.1-3.81-.74,1.3-1.37,2.43-2,3.56a.68.68,0,0,0,0,.74C183.21,16.66,183.83,17.8,184.55,19.08Z"/><path class="cls-1" d="M253,99.46c-2.64,0-4.53,1.65-4.5,3.93s1.91,3.84,4.53,3.84,4.54-1.69,4.52-3.94S255.58,99.45,253,99.46Zm1.29,4.71c.43.57.87,1.14,1.3,1.72,0,0,0,0,0,.07a1.15,1.15,0,0,1-1.48-.52c-.25-.42-.61-.79-.88-1.2a.93.93,0,0,0-1-.43c-.58.08-.29.45-.32.68a5.67,5.67,0,0,0,0,1.09c0,.33-.12.45-.55.45s-.55-.15-.55-.47c0-1.42,0-2.85,0-4.27,0-.33.13-.48.56-.47.85,0,1.69,0,2.54,0s1.57.34,1.73,1.11-.13,1.37-1.13,1.66C253.9,103.79,254.09,103.94,254.27,104.17Z"/><path class="cls-1" d="M254.45,103.63c1-.29,1.3-.81,1.13-1.66s-.85-1.07-1.73-1.11-1.69,0-2.54,0c-.43,0-.56.14-.56.47,0,1.42,0,2.85,0,4.27,0,.32.11.47.55.47s.58-.12.55-.45a5.67,5.67,0,0,1,0-1.09c0-.23-.26-.6.32-.68a.93.93,0,0,1,1,.43c.27.41.63.78.88,1.2a1.15,1.15,0,0,0,1.48.52s0-.06,0-.07c-.43-.58-.87-1.15-1.3-1.72C254.09,103.94,253.9,103.79,254.45,103.63Zm-.88-.59h-.81c-.21,0-.74.18-.85-.11a2.69,2.69,0,0,1,0-1.23c0-.15.23-.16.39-.15.46,0,.91,0,1.37,0s.94.26.89.74S254.13,103,253.57,103Z"/><path class="cls-1" d="M254.55,102.33c0-.48-.34-.7-.89-.74s-.91,0-1.37,0c-.16,0-.38,0-.39.15a2.69,2.69,0,0,0,0,1.23c.11.29.64.07.85.11h.81C254.13,103,254.51,102.79,254.55,102.33Z"/><path class="cls-1" d="M379,70.18l-.85.58c-1.35,0-11.36-.31-14.14-.31-1.35,0-3.94.31-4.49.31l-.52-.31-.13-1.37.43-.58,1.16-.09c1.16-.19,1.22-.8,1.22-2V44.55c0-1-.51-1.28-1.22-1.28h-1.59l-.51-.49.09-1.65.52-.4c.39,0,3,.19,4.33.19,2.94,0,13.69-.4,14.6-.4l.65.67L378.13,48h-2l-.39-3.91-1-.88h-9.2V53.9h10.27v2.44H366.4l-.8.89V68.38l10-.4.71-.67.61-4h2.2"/><path class="cls-1" d="M421.41,70.27l-.52.4c-1.47,0-3.94-.1-5-.1-1.25,0-4,.1-4.61.1l-.46-.31-.12-1.07.43-.58,1.55-.09,1.16-.89v-.3l-2-23.06c-1.59,5.28-6.75,22.26-7.73,24.92l-.79.67h-2.14l-1.1-.88c-.8-2-6-16.71-8.74-24.62l-1.43,23.15v.09l1.34,1,1.62.09.43.49v1l-.52.4c-1.16,0-3-.1-4.52-.1-1.8,0-3.73.1-4.43.1l-.43-.4V69.08l.49-.4,1.25-.09c.89,0,1.59-.18,1.68-1.28l1.9-23.25-.86-.88h-2.23l-.55-.49-.12-1.38.61-.39h3.7c.91,0,3.75-.1,4.42-.1l.8.89c.88,4,6.17,18.66,8.18,24.13,1.65-5.19,4.4-14.17,5.5-18.17.55-2.05,1.68-6.17,1.68-6.17l.55-.58s2.54.09,3.55.09,4.42-.19,4.42-.19l.55.49,0,1.38-.58.39h-1c-1.32,0-1.75.1-1.75,1l2.33,23.46c.09.89.39,1.07,1.58,1.16l1.56.09.46.49"/><path class="cls-1" d="M436.8,70.67c-.61,0-3-.1-4.58-.1-1.31,0-3.69.1-4.15.1l-.61-.49V69.11l.46-.49H429c1,0,1.31,0,1.31-1.07V44.09c0-1-.25-1.07-1.5-1.07h-1.07l-.52-.49V41.47l.55-.49c.58,0,2.94.09,4.43.09s3.88-.09,4.34-.09l.76.49-.06,1-.58.67H435l-.7.8V67.64l1,1h1.68l.55.58v1.07l-.68.4"/><path class="cls-1" d="M465.06,70.18l-.86.58c-1.34,0-11.36-.31-14.14-.31-1.34,0-3.91.31-4.46.31l-.52-.31-.15-1.37.43-.58,1.16-.09c1.16-.19,1.22-.8,1.22-2V44.55c0-1-.52-1.28-1.22-1.28h-1.59l-.52-.49.09-1.65.52-.4c.4,0,3,.19,4.34.19,2.93,0,13.65-.4,14.6-.4l.64.67L464.17,48h-1.95l-.4-3.91-1-.88h-9.19V53.9h10.26v2.44h-9.38l-.79.89V68.38l10.05-.4.7-.67.61-4h2.2"/><path class="cls-1" d="M340,55.64A43.39,43.39,0,0,0,350,70.39a10.82,10.82,0,0,0,2.75,1.77,2.89,2.89,0,0,0,3.54-.79v-.18l-.09-.1-1.65-.88a36.08,36.08,0,0,1-10.2-14.27c3.36-1.07,7-3.11,7-8.21,0-5.29-5.13-7.24-8.77-7.24s-5.25.4-7.6.4c-1.9,0-3.88-.19-4.71-.19l-.82.58-.06,1.29.55.58,1.5.09c1.25.09,1.58.18,1.58,1.28V67.37c0,.88-.39,1.07-1.31,1.16h-1.4l-.55.58v1.16l.61.49c.91,0,3.45-.19,4.7-.19s3.76.19,4.77.19l.7-.58.09-1-.64-.58-1.77-.09c-.86-.09-1.23-.31-1.23-1.16V44.7c0-1,.37-1.46,1.1-1.65a26.51,26.51,0,0,1,3-.18c2.56,0,6.11,1.38,6.11,5.47,0,4.49-3.42,6.26-7.15,6.93l-.21.19"/><path class="cls-1" d="M481.06,55.64a44,44,0,0,0,10.05,14.75,11.18,11.18,0,0,0,2.75,1.77,2.89,2.89,0,0,0,3.55-.79l0-.18-.1-.1-1.64-.88a36.16,36.16,0,0,1-10.18-14.27c3.36-1.07,7-3.11,7-8.21,0-5.29-5.13-7.24-8.77-7.24s-5.25.4-7.6.4c-1.9,0-3.85-.19-4.71-.19l-.85.58-.06,1.29.58.58,1.49.09c1.26.09,1.59.18,1.59,1.28V67.37c0,.88-.43,1.07-1.31,1.16H471.5l-.58.58v1.16l.61.49c1,0,3.46-.19,4.71-.19s3.72.19,4.73.19l.71-.58.09-1-.64-.58-1.78-.09c-.85-.09-1.22-.31-1.22-1.16V44.7c0-1,.37-1.46,1.1-1.65a26.21,26.21,0,0,1,3-.18c2.56,0,6.1,1.38,6.1,5.47,0,4.49-3.42,6.26-7.14,6.93l-.19.19"/><path class="cls-1" d="M308.94,53.07c.25.89,1,1.87,3.82,1.29a17.06,17.06,0,0,0,3.79-1c10.54-4.49,11.33-12.22,11.06-15.43-.64-7.63-6.05-11-14.73-10.44l-1.31.09c-2.69.09-6.75.4-9.44.4-2.35,0-7.21-.31-7.27-.31l-.73.58L294,30.13l.55.68,3,.09c.92.09,1.53.39,1.53,1.77V70.3c0,1.65-.4,2.14-2,2.14h-1.4l-.61.58.06,1.46.52.49c.58,0,1.46,0,2.38-.09h7.06c1.74.09,3.6.09,5.22.09l.88-.49V73l-.67-.58h-3.88c-1.37,0-2.14-.4-2.14-2.14V32.94a2.09,2.09,0,0,1,1.72-2.26,22.68,22.68,0,0,1,3.63-.3l1.59-.09h1c6.32-.1,9.47,3.51,9.77,8.88.46,8.8-7.21,12.62-13.1,13.6l-.16.09"/><path class="cls-1" d="M454.37,85.05l.43-.39-.43-.49c-24-1-45.21-1.38-60.63-1.38s-36.6.4-60.64,1.38l-.42.49.42.39c24.07,1,45.21,1.47,60.64,1.47s36.56-.49,60.63-1.47"/><path class="cls-1" d="M358.7,111V100.93l-2.78.1-.6,3.2h-1.4a17.19,17.19,0,0,1-.4-3.7,3,3,0,0,1,.13-1.09h13.22a2.66,2.66,0,0,1,.13,1.09,16.59,16.59,0,0,1-.4,3.7h-1.39l-.61-3.2-2.75-.1V111l1.94.19v.4a.83.83,0,0,1-.26.71,2.75,2.75,0,0,1-1.27.18h-5.5a3.9,3.9,0,0,1-.07-.65.66.66,0,0,1,.2-.51,1.59,1.59,0,0,1,.81-.23Z"/><path class="cls-1" d="M375.34,102.55c1.94,0,2.9,1,2.9,3.13v5.45l1.8.17v.35a.78.78,0,0,1-.24.66,2.4,2.4,0,0,1-1.14.17h-4.32a2.69,2.69,0,0,1-.08-.65c0-.35.23-.56.69-.64l.44-.06v-4.65A2.3,2.3,0,0,0,375,105a1.57,1.57,0,0,0-1.27-.45,4.32,4.32,0,0,0-2.21.74v5.85l1.54.17v.35a.78.78,0,0,1-.24.66,2.4,2.4,0,0,1-1.14.17h-4.48a2.52,2.52,0,0,1-.11-.65.49.49,0,0,1,.19-.41,1.89,1.89,0,0,1,.75-.21l.63-.08V100.29a.73.73,0,0,0-.17-.57,1.48,1.48,0,0,0-.75-.12h-1V98.52a12.27,12.27,0,0,1,3.15-.51,1.78,1.78,0,0,1,1.23.33,1.33,1.33,0,0,1,.36,1v4.5A6.7,6.7,0,0,1,375.34,102.55Z"/><path class="cls-1" d="M389.59,105.59a3.15,3.15,0,0,1-.29,1.45,5.36,5.36,0,0,1-2.57.36h-3.9a6.6,6.6,0,0,0,.11.87,2.7,2.7,0,0,0,3,2.59,4.87,4.87,0,0,0,2.92-.91l.56,1a5.66,5.66,0,0,1-4.61,1.77,5.43,5.43,0,0,1-3.51-1.13,4.19,4.19,0,0,1-1.43-3.5,5.41,5.41,0,0,1,1.56-3.89,5.61,5.61,0,0,1,4.24-1.64,4.47,4.47,0,0,1,3,.84A2.77,2.77,0,0,1,389.59,105.59ZM385,104.06c-1.26,0-2,.72-2.21,2.14h3.61c.23,0,.36,0,.42-.08s.08-.2.08-.42C386.94,104.61,386.31,104.06,385,104.06Z"/><path class="cls-1" d="M409.33,111l1.94.19v.4a.83.83,0,0,1-.26.71,2.65,2.65,0,0,1-1.24.18h-5.51a3.83,3.83,0,0,1-.06-.65.69.69,0,0,1,.18-.51,1.55,1.55,0,0,1,.8-.23l1-.09v-4.35h-6.13V111l2,.19v.4a.78.78,0,0,1-.28.71,2.67,2.67,0,0,1-1.25.18H395a3.07,3.07,0,0,1-.07-.65.69.69,0,0,1,.19-.51,1.59,1.59,0,0,1,.81-.23l1-.09V100.93l-2-.19v-.41a.8.8,0,0,1,.28-.7,2.63,2.63,0,0,1,1.25-.19H402a2.39,2.39,0,0,1,.09.66.6.6,0,0,1-.2.49,1.67,1.67,0,0,1-.8.24l-1,.1v4.23h6.13v-4.23l-2-.19v-.41a.79.79,0,0,1,.26-.7,2.58,2.58,0,0,1,1.24-.19h5.51a2.84,2.84,0,0,1,.08.66.6.6,0,0,1-.19.49,1.66,1.66,0,0,1-.83.24l-1,.1Z"/><path class="cls-1" d="M413.35,111.13V105c0-.3-.06-.48-.18-.56a2.08,2.08,0,0,0-.9-.12h-1v-1.1a11.66,11.66,0,0,1,3.4-.56,1.27,1.27,0,0,1,1.54,1.51v7l1.8.17v.35a.78.78,0,0,1-.24.66,2.4,2.4,0,0,1-1.14.17h-4.74a2.69,2.69,0,0,1-.08-.65.47.47,0,0,1,.19-.41,1.79,1.79,0,0,1,.75-.21ZM416,100.2a3.13,3.13,0,0,1-1.28.31,3,3,0,0,1-1.26-.18,1.3,1.3,0,0,1-.29-1,1.51,1.51,0,0,1,.37-1.06,3.07,3.07,0,0,1,1.29-.3,3,3,0,0,1,1.28.19,1.29,1.29,0,0,1,.28.94A1.54,1.54,0,0,1,416,100.2Z"/><path class="cls-1" d="M429.86,102.81a2.47,2.47,0,0,1,.08.63.5.5,0,0,1-.19.42,1.75,1.75,0,0,1-.75.22l-.29,0-3.8,8.44a7.46,7.46,0,0,1-2.11,0l-4-8.46-1.17-.12v-.34a.76.76,0,0,1,.24-.67,2.44,2.44,0,0,1,1.14-.16h4.57a4.09,4.09,0,0,1,.08.63.5.5,0,0,1-.19.42,1.75,1.75,0,0,1-.75.22l-.67,0,2.34,5.64,2.36-5.62L425,104v-.34a.76.76,0,0,1,.24-.67,2.44,2.44,0,0,1,1.14-.16Z"/><path class="cls-1" d="M439.45,105.59a3.28,3.28,0,0,1-.29,1.45,5.39,5.39,0,0,1-2.57.36h-3.9a6.6,6.6,0,0,0,.11.87,2.69,2.69,0,0,0,3,2.59,4.87,4.87,0,0,0,2.92-.91l.56,1a5.66,5.66,0,0,1-4.61,1.77,5.43,5.43,0,0,1-3.51-1.13,4.16,4.16,0,0,1-1.43-3.5,5.41,5.41,0,0,1,1.56-3.89,5.61,5.61,0,0,1,4.24-1.64,4.48,4.48,0,0,1,3,.84A2.77,2.77,0,0,1,439.45,105.59Zm-4.55-1.53c-1.26,0-2,.72-2.21,2.14h3.61c.22,0,.36,0,.42-.08a.74.74,0,0,0,.08-.42C436.8,104.61,436.17,104.06,434.9,104.06Z"/></svg>