<svg id="Layer_1" data-name="Layer 1" xmlns="http://www.w3.org/2000/svg" viewBox="0 0 360 360"><defs><style>.cls-1{fill:none;}.cls-2{fill:#d8bc8b;}</style></defs><title>elHotel-h</title><path class="cls-1" d="M271.93,229.14a8.76,8.76,0,0,0,3.38-2.13A8.76,8.76,0,0,1,271.93,229.14Z"/><path d="M34.5,0V360h291V0ZM172.37,206.53c0-.79.17-1.1,1-1.09q9.5,0,19,0c.75,0,1.06.17,1,1-.06,2,0,4-.05,6,0,.29-.35.57-.53.85-.23-.26-.63-.51-.65-.79-.32-3.37-2.84-5.14-5.85-5.6-.64-.1-.91,0-.92.73-.13,6.3-.3,12.59-.42,18.89,0,1.83.71,2.7,2.54,3.21v1.19h-9.78v-1.18c1.83-.58,2.54-1.38,2.51-3.21-.11-6.4-.28-12.8-.44-19.19a1.36,1.36,0,0,0-.1-.36c-3.21-.11-5.24,1.9-6.29,6.22-.83.3-1.11,0-1.09-.87C172.42,210.4,172.42,208.47,172.37,206.53Zm21.14,37.74a1,1,0,0,1,.77.4c1.59,3.91,3.13,7.84,4.71,11.81-.86.27-1.39.12-1.67-.74s-.66-1.6-.94-2.42a.93.93,0,0,0-1-.71c-1.2,0-2.4,0-3.6,0a1,1,0,0,0-1.09.79c-.25.75-.62,1.47-.85,2.23s-.69,1.17-1.67.85c1.23-3.1,2.44-6.16,3.66-9.21.34-.87.68-1.74,1.07-2.58A.86.86,0,0,1,193.51,244.27Zm-21.6.85c.7,1.46,1.51,2.88,2.28,4.32.17.31.37.61.65,1.09l1.74-3.18a22,22,0,0,0,1.16-2.2c.34-.83.89-1,1.83-.77l-2.42,4.46-.06.09a8.26,8.26,0,0,0-1.62,6.08,12.76,12.76,0,0,1,0,1.53h-1.33c0-1.26,0-2.51,0-3.76a4.16,4.16,0,0,0-.44-1.69c-1.16-2.23-2.38-4.43-3.61-6.68C171,244.13,171.51,244.28,171.91,245.12ZM103.34,74.23q15.07-14,30.14-28a1.44,1.44,0,0,1,1.67-.38c4.81,1.57,9.63,3.09,14.45,4.64.19.06.36.16.75.33-1.63,1-3.08,1.85-4.54,2.71L115.5,71.32c-3.62,2.13-7.24,4.24-10.82,6.43a5.78,5.78,0,0,1-3.66,1c-.74-.08-1.5,0-2.51,0C100.25,77.12,101.79,75.67,103.34,74.23Zm-9.29,156.9c.21-.53.37-.94.54-1.35.11-.23.34-.46.34-.69,0-3.09,0-6.17,0-9.35-2.25,0-4.44,0-6.63,0-.21,0-.59.42-.59.65,0,2.73,0,5.46,0,8.19a3.22,3.22,0,0,0,.35,1.13c.16.41.37.81.64,1.38H81c-.27-.68-.21-1.15.54-1.45s.82-1.06.82-1.77c0-2.36,0-4.73,0-7.09,0-3.8,0-7.6,0-11.4,0-1,0-2-1.22-2.37-.16-.06-.24-.57-.22-.86a.69.69,0,0,1,.52-.43c2.33,0,4.65,0,7.28,0-.27.65-.47,1.08-.63,1.53a4.85,4.85,0,0,0-.34,1.32c0,2.93,0,5.86,0,8.79,0,.44,0,.89.63.89H95v-4.57c0-1.63,0-3.27,0-4.89a8.41,8.41,0,0,0-.59-1.8,12.45,12.45,0,0,1-.21-1.27c2.42,0,4.68,0,6.94,0,.25,0,.71.31.7.44a2.34,2.34,0,0,1-.44.95c-.28.45-.75.85-.85,1.33a11.17,11.17,0,0,0-.14,2.39c0,5.56,0,11.13,0,16.69,0,1,0,1.93,1.18,2.38.23.09.25.71.4,1.2Zm-7.27-68.4c-4.8-9.46-6.4-19.54-5.68-30,.62-9,2.81-17.55,7.56-25.3,6.71-11,16.35-17.7,29.11-19.74a42.14,42.14,0,0,1,23.15,2.5c8.38,3.48,14.18,9.64,17.92,17.8,3.9,8.54,5,17.61,5,26.89a3.09,3.09,0,0,1-.08.46H99.66c.15,2.19.25,4.21.46,6.22a56.3,56.3,0,0,0,3.53,15.13c5.14,13,15.92,19.65,29.2,18.9a30.2,30.2,0,0,0,22.91-11.79,48,48,0,0,0,2.83-4.62l2.08.89a29.78,29.78,0,0,1-4.28,9.59,35.91,35.91,0,0,1-24.76,15.87c-10.43,1.78-20.31.2-29.37-5.48A42.72,42.72,0,0,1,86.78,162.73Zm63.56,57.08a12,12,0,0,1-3.8,8.33c-4.49,4.31-14.17,4.08-17.56-3.13-2.53-5.38-2.25-10.77,1.42-15.56,4.52-5.88,14-5.2,17.85,1.11C149.7,212.91,150.31,215.2,150.34,219.81Zm-24.49,90.36a67.66,67.66,0,0,1-7.06.47V296.19c2.22,0,4.32-.16,6.39,0a3,3,0,0,1,3.06,2.87c.2,1.61-.52,2.7-2.3,3.51a2.1,2.1,0,0,0-.35.28c.19.08.3.14.42.18,1.92.64,2.73,1.62,2.73,3.32A3.48,3.48,0,0,1,125.85,310.17ZM134,255.7c-.65-1.27-1.43-2.48-2.16-3.71-.32-.53-2.5-.89-2.88-.44a1.44,1.44,0,0,0-.19.84c0,1.36,0,2.72,0,4.16h-1.34c0-3.31,0-6.57,0-9.82,0-2.44,0-2.46,2.45-2.43a16.33,16.33,0,0,1,3,.28,2.76,2.76,0,0,1,2.41,2.56,3.28,3.28,0,0,1-1.52,3.44c-.27.17-.57.32-1,.54,1.09,1.81,2.15,3.55,3.24,5.35A1.46,1.46,0,0,1,134,255.7Zm12.1,54c0,.28-.34.56-.52.85a7.05,7.05,0,0,1-.69-.77,2.43,2.43,0,0,1-.21-.74,2.27,2.27,0,0,0-.5.32A4.21,4.21,0,0,1,140,310.6a2.77,2.77,0,0,1-2.49-2.59,2.74,2.74,0,0,1,1.79-3.2,28.17,28.17,0,0,1,4-.73c.42-.06.85-.05,1.25-.07.34-2.53-.7-3.59-3.09-3.21a22.13,22.13,0,0,0-2.23.6l-.42-.87a6.08,6.08,0,0,1,6-.5,2.91,2.91,0,0,1,1.32,2.65Q146.12,306.17,146.06,309.68Zm2.39-31.35c.24,1.09.4,2.21.64,3.58-1.21-.63-2.25-1.12-3.23-1.69a1.51,1.51,0,0,0-1.67,0c-1,.58-2,1.08-3.23,1.7.24-1.39.49-2.55.61-3.73a1.92,1.92,0,0,0-.42-1.3c-.75-.92-1.61-1.76-2.5-2.7,1.14-.18,2.27-.41,3.41-.49a1.48,1.48,0,0,0,1.39-1.05c.44-1,1-2,1.56-3.17.64,1.24,1.14,2.35,1.76,3.38a1.88,1.88,0,0,0,1.1.77c1.16.25,2.34.37,3.79.57-1,1-1.81,1.8-2.69,2.56A1.46,1.46,0,0,0,148.45,278.33Zm-1.2-26.12a10.77,10.77,0,0,1,0-3.67c.58-3.26,2.89-4.54,5.71-4.43a5.23,5.23,0,0,1,5.43,5.15c0,.43.05.86.07,1.35-.06,2.34-.73,4.43-3,5.6A5.58,5.58,0,0,1,147.25,252.21Zm17.15,58.32c-.51,0-.73-.17-.72-.69,0-1.87,0-3.73,0-5.6a5.47,5.47,0,0,0-.16-1.77,2.7,2.7,0,0,0-1-1.39,3.11,3.11,0,0,0-4.66,2.19c-.23,1.91-.14,3.86-.19,5.78,0,.43,0,.86,0,1.41H156.2v-10.7c1.25-.53,1.25.48,1.48,1.33a10.11,10.11,0,0,1,1.1-.92,4.92,4.92,0,0,1,4.59-.33,2.9,2.9,0,0,1,1.76,2.8c.09,2.4.06,4.8.1,7.19C165.24,310.46,164.89,310.52,164.4,310.53Zm7.21-33.65a1.79,1.79,0,0,0-.41,1.27c.1,1.18.33,2.35.55,3.73-1.19-.62-2.23-1.13-3.23-1.69a1.4,1.4,0,0,0-1.57,0c-1,.57-2,1.09-3.29,1.74.24-1.34.41-2.47.64-3.59a1.4,1.4,0,0,0-.44-1.51c-.9-.77-1.74-1.61-2.79-2.61,1.5-.22,2.69-.35,3.85-.61a1.88,1.88,0,0,0,1.09-.78c.6-1,1.09-2.09,1.73-3.35.61,1.23,1.14,2.25,1.62,3.3a1.38,1.38,0,0,0,1.27.9c1.15.1,2.28.33,3.42.5a2.61,2.61,0,0,1,.17.28C173.34,275.25,172.43,276,171.61,276.88ZM184,310.39c-1,.2-1,.2-1.39-1.23a1.61,1.61,0,0,0-.39.23c-2.68,2.46-6.4,1.45-7.36-2.05a7.77,7.77,0,0,1,.4-5.55A4.29,4.29,0,0,1,182,300.5c.17.15.35.29.63.51,0-1.67,0-3.19,0-4.71,0-1.34,0-1.34,1.43-1.19Zm7.57-30.16c-.94.56-1.92,1-3.13,1.68.21-1.27.33-2.34.57-3.37a1.71,1.71,0,0,0-.6-1.93c-.82-.7-1.57-1.49-2.51-2.41,1.41-.21,2.55-.43,3.7-.53a1.35,1.35,0,0,0,1.25-.93c.47-1.05,1-2.06,1.62-3.3.59,1.17,1.12,2.12,1.55,3.11a1.63,1.63,0,0,0,1.53,1.15c1.08.07,2.16.3,3.42.49-.93.94-1.66,1.75-2.47,2.47a1.61,1.61,0,0,0-.57,1.76c.25,1.07.37,2.18.58,3.49-1.21-.64-2.22-1.13-3.18-1.7A1.57,1.57,0,0,0,191.59,280.23Zm11.15,30.29c-.8.13-.83-.44-1-.95,0-.13-.08-.25-.15-.51a4.7,4.7,0,0,1-4.73,1.54c-1.51-.28-2.51-1.08-2.58-2.61-.14-2.71,0-5.44,0-8.18,1.27-.41,1.41-.31,1.41,1.08,0,1.93,0,3.86,0,5.79,0,1.71.67,2.55,2,2.73,1.87.26,3.29-.49,3.68-2.07a11.63,11.63,0,0,0,.28-2.57c0-1.66,0-3.32,0-5.09h1.45c0,.36.07.71.07,1.06,0,2.9,0,5.79,0,8.69C203.21,309.82,203.5,310.4,202.74,310.52Zm8-33.86c-.84-.74-1.6-1.56-2.52-2.46,1.35-.2,2.51-.43,3.69-.53a1.3,1.3,0,0,0,1.19-.86c.5-1.09,1.06-2.14,1.67-3.37.62,1.23,1.11,2.34,1.72,3.39a1.92,1.92,0,0,0,1.09.78c1.17.25,2.36.37,3.82.59-1,.92-1.77,1.72-2.62,2.47a1.49,1.49,0,0,0-.57,1.64c.27,1.09.38,2.22.59,3.56-1.13-.58-2.14-1-3.07-1.59a1.67,1.67,0,0,0-1.93,0c-.94.55-1.93,1-3.09,1.61.22-1.29.38-2.39.61-3.48A1.66,1.66,0,0,0,210.75,276.66Zm.3-22.75c0,1.7-.17,1.51,1.47,1.52,1,0,2.07,0,3.1,0s1.13.3.86,1.14h-6.67a7.29,7.29,0,0,1-.09-.77c0-3.53,0-7.06,0-10.59,0-.46-.09-.95.66-.93s.67.47.67,1C211,248.12,211,251,211.05,253.91Zm6.48-43.73a9.28,9.28,0,0,0-.39-2.45c-.11-.38-.6-.63-.87-1a1.72,1.72,0,0,1-.47-.89c0-.16.48-.48.75-.48q8.19,0,16.39,0c.28,0,.79.36.8.56,0,2.23,0,4.45,0,6.77l-1.15.08a5.45,5.45,0,0,0-2.51-4.26,12,12,0,0,0-6.56-1.79c-.51,0-.71.17-.71.7q0,4.55,0,9.09c0,.49.15.7.67.74a4.43,4.43,0,0,0,5-3.58h1.13v3.92c0,1.36,0,2.73,0,4.1,0,.21-.28.57-.44.58a1,1,0,0,1-.76-.37,4.6,4.6,0,0,0-5.48-3.18,4.44,4.44,0,0,0-.08.65c0,3,0,6.06,0,9.09,0,.83.29,1.05,1,1,3-.25,5.73-1,7.65-3.51a8.53,8.53,0,0,0,1.29-2.66c.23-.72.48-1,1.31-.79v8.25H215.87c-.19-.65-.35-1.17.59-1.44.36-.11.68-.72.8-1.17a9.09,9.09,0,0,0,.28-2.26Q217.57,218,217.53,210.18ZM221,310.61c0-.51-.08-.86-.08-1.21,0-2,0-3.93,0-5.89,0-1.74-.72-2.61-2.13-2.75-2-.2-3.31.54-3.63,2.16a19.87,19.87,0,0,0-.23,3.28c0,1.33,0,2.66,0,4a.82.82,0,0,1-.09.24c-1.43.17-1.43.17-1.43-1.11v-9.51c1.41-.62,1.28.51,1.59,1.3a4.65,4.65,0,0,1,3.52-1.68c2.54,0,3.8,1.1,3.89,3.63.08,2.22,0,4.46.06,6.69C222.42,311,221.58,310.34,221,310.61ZM228.67,256c0-3.8,0-7.6,0-11.4,0-.06,0-.11.15-.31,1.89,0,3.84,0,5.8,0,.19,0,.37.42.56.64-.21.15-.42.43-.63.44-1.3,0-2.6.06-3.9,0-.62,0-.83.21-.8.82s0,1.33,0,2c0,1.38,0,1.38,1.43,1.37,1.12,0,2.25,0,3.47,0,0,.39,0,.7.06,1.14-1.39,0-2.68.05-4,0-.82,0-1,.27-1,1,.05,1,0,1.93,0,2.89,0,.61.19.84.81.82,1.23,0,2.47-.05,3.7,0,.28,0,.54.36.81.56-.28.18-.55.51-.83.52-1.64.06-3.27,0-4.9,0C229.05,256.6,228.67,256.6,228.67,256Zm11.27,47.1c.06,2.15-1.67,3.49-4.24,3.47a2.45,2.45,0,0,0-1.47.53,1.27,1.27,0,0,0-.25,1.16c.08.27.59.52.94.55,1,.09,2,0,3,.08,2.34.13,3.46,1.4,3.16,3.51a3,3,0,0,1-1.94,2.36,8.8,8.8,0,0,1-6,.32,2.67,2.67,0,0,1-.34-5.11,4.63,4.63,0,0,0,.43-.24c-1.09-1.59-1.06-1.85.29-3.34a11.28,11.28,0,0,1-1.45-2.2,3.48,3.48,0,0,1,3.36-4.71c1.76-.05,3.52.1,5.28.19.14,0,.27.16.39.3l.13.12-.22.3a.5.5,0,0,1-.25.21,8.85,8.85,0,0,1-1.33.24A14.07,14.07,0,0,1,239.94,303.1Zm38.95-76.57v4.18H260.77v-1.22c1.31,0,1.69-.92,2-1.87a7,7,0,0,0,.19-1.78q0-8,0-16a6.71,6.71,0,0,0-.16-1.48,1.77,1.77,0,0,0-1.66-1.6c-.58,0-.71-.38-.59-.79.08-.25.43-.59.66-.59,3,0,6,0,9,0a1.07,1.07,0,0,1,.71.64c.16.47-.12.74-.64.73a2.15,2.15,0,0,0-2.16,2.27q0,10,0,20.09a.64.64,0,0,0,.06.18,6.35,6.35,0,0,0,3.78-.15,8.76,8.76,0,0,0,3.38-2.13l.05,0a8.37,8.37,0,0,0,.57-.62,8.92,8.92,0,0,0,1.35-2.18,8.68,8.68,0,0,0,.53-1.66l1.08-.09Zm-2.24-42.6a8,8,0,0,1-6,2.24c-5.54,0-11.07,0-16.6,0-18.67,0-37.33-.08-56,0-5.77,0-8.17-4-8.41-8.26-.06-1,0-2,0-3V45.48h18.51v2.1q0,50.39,0,100.79,0,13.24,0,26.5a10.61,10.61,0,0,0,.06,1.49,4.22,4.22,0,0,0,4,4,17.3,17.3,0,0,0,2.59.22c6.83,0,13.66.1,20.49,0s13.84-.82,20.46-3.13a28.32,28.32,0,0,0,15.16-11.63,37.52,37.52,0,0,0,5.21-13.95c.54-3.14.84-6.32,1.27-9.59h1.79V177A9.36,9.36,0,0,1,276.65,183.93Z"/><path class="cls-2" d="M279.15,142.27h-1.79c-.43,3.27-.73,6.45-1.27,9.59a37.52,37.52,0,0,1-5.21,13.95,28.32,28.32,0,0,1-15.16,11.63c-6.62,2.31-13.51,3-20.46,3.13s-13.66.05-20.49,0a17.3,17.3,0,0,1-2.59-.22,4.22,4.22,0,0,1-4-4,10.61,10.61,0,0,1-.06-1.49q0-13.26,0-26.5,0-50.4,0-100.79v-2.1H189.61V175c0,1,0,2,0,3,.24,4.23,2.64,8.3,8.41,8.26,18.67-.13,37.33,0,56,0,5.53,0,11.06,0,16.6,0a8,8,0,0,0,6-2.24,9.36,9.36,0,0,0,2.5-7V142.27Z"/><path class="cls-2" d="M131.63,185.48a35.91,35.91,0,0,0,24.76-15.87,29.78,29.78,0,0,0,4.28-9.59l-2.08-.89a48,48,0,0,1-2.83,4.62,30.2,30.2,0,0,1-22.91,11.79c-13.28.75-24.06-5.9-29.2-18.9a56.3,56.3,0,0,1-3.53-15.13c-.21-2-.31-4-.46-6.22h64.12a3.09,3.09,0,0,0,.08-.46c0-9.28-1.12-18.35-5-26.89-3.74-8.16-9.54-14.32-17.92-17.8a42.14,42.14,0,0,0-23.15-2.5c-12.76,2-22.4,8.78-29.11,19.74-4.75,7.75-6.94,16.3-7.56,25.3-.72,10.51.88,20.59,5.68,30A42.72,42.72,0,0,0,102.26,180C111.32,185.68,121.2,187.26,131.63,185.48Zm-25.35-82.1A32.06,32.06,0,0,1,114,93.91c7.82-6.45,17.79-4.58,23.49,2.94,3.33,4.4,5.13,9.46,6.41,14.74a87.71,87.71,0,0,1,2.25,19.11c0,.89-.19,1.19-1.14,1.18-7.4,0-14.8,0-22.2,0s-14.6,0-21.9,0c-.93,0-1.27-.2-1.24-1.2C99.94,121.11,101.62,111.88,106.28,103.38Z"/><path class="cls-2" d="M101,78.75a5.78,5.78,0,0,0,3.66-1c3.58-2.19,7.2-4.3,10.82-6.43L145.81,53.5c1.46-.86,2.91-1.73,4.54-2.71-.39-.17-.56-.27-.75-.33-4.82-1.55-9.64-3.07-14.45-4.64a1.44,1.44,0,0,0-1.67.38q-15,14-30.14,28c-1.55,1.44-3.09,2.89-4.83,4.5C99.52,78.73,100.28,78.67,101,78.75Z"/><path class="cls-2" d="M101.55,229.93c-1.18-.45-1.18-1.39-1.18-2.38,0-5.56,0-11.13,0-16.69a11.17,11.17,0,0,1,.14-2.39c.1-.48.57-.88.85-1.33a2.34,2.34,0,0,0,.44-.95c0-.13-.45-.44-.7-.44-2.26,0-4.52,0-6.94,0a12.45,12.45,0,0,0,.21,1.27,8.41,8.41,0,0,1,.59,1.8c.09,1.62,0,3.26,0,4.89v4.57h-6.7c-.67,0-.63-.45-.63-.89,0-2.93,0-5.86,0-8.79a4.85,4.85,0,0,1,.34-1.32c.16-.45.36-.88.63-1.53-2.63,0-5,0-7.28,0a.69.69,0,0,0-.52.43c0,.29.06.8.22.86,1.21.41,1.21,1.4,1.22,2.37,0,3.8,0,7.6,0,11.4,0,2.36,0,4.73,0,7.09,0,.71,0,1.47-.82,1.77s-.81.77-.54,1.45H88.7c-.27-.57-.48-1-.64-1.38a3.22,3.22,0,0,1-.35-1.13c0-2.73,0-5.46,0-8.19,0-.23.38-.65.59-.65,2.19-.05,4.38,0,6.63,0,0,3.18,0,6.26,0,9.35,0,.23-.23.46-.34.69-.17.41-.33.82-.54,1.35H102C101.8,230.64,101.78,230,101.55,229.93Z"/><path class="cls-2" d="M130.4,209.45c-3.67,4.79-4,10.18-1.42,15.56,3.39,7.21,13.07,7.44,17.56,3.13a12,12,0,0,0,3.8-8.33c0-4.61-.64-6.9-2.09-9.25C144.37,204.25,134.92,203.57,130.4,209.45Zm12.89,16.67c-.64,2.78-2.45,3.83-5.29,3.44a3.53,3.53,0,0,1-3.2-2.49,23.26,23.26,0,0,1-1-4.66,38.54,38.54,0,0,1,.45-11.24,8.12,8.12,0,0,1,.5-1.61,4,4,0,0,1,4.2-2.74c2.11.05,3.48.85,4,2.91a43.81,43.81,0,0,1,1,6.27,27.94,27.94,0,0,1,0,3.3l.24,0C144,221.59,143.81,223.89,143.29,226.12Z"/><path class="cls-2" d="M217.26,228.14c-.12.45-.44,1.06-.8,1.17-.94.27-.78.79-.59,1.44h18.25V222.5c-.83-.26-1.08.07-1.31.79a8.53,8.53,0,0,1-1.29,2.66c-1.92,2.48-4.68,3.26-7.65,3.51-.75.06-1.06-.16-1-1,0-3,0-6.06,0-9.09a4.44,4.44,0,0,1,.08-.65,4.6,4.6,0,0,1,5.48,3.18,1,1,0,0,0,.76.37c.16,0,.43-.37.44-.58,0-1.37,0-2.74,0-4.1v-3.92H228.5a4.43,4.43,0,0,1-5,3.58c-.52,0-.68-.25-.67-.74q0-4.54,0-9.09c0-.53.2-.71.71-.7a12,12,0,0,1,6.56,1.79,5.45,5.45,0,0,1,2.51,4.26l1.15-.08c0-2.32,0-4.54,0-6.77,0-.2-.52-.56-.8-.56q-8.19,0-16.39,0c-.27,0-.75.32-.75.48a1.72,1.72,0,0,0,.47.89c.27.35.76.6.87,1a9.28,9.28,0,0,1,.39,2.45q0,7.84,0,15.7A9.09,9.09,0,0,1,217.26,228.14Z"/><path class="cls-2" d="M173.46,213.2c1-4.32,3.08-6.33,6.29-6.22a1.36,1.36,0,0,1,.1.36c.16,6.39.33,12.79.44,19.19,0,1.83-.68,2.63-2.51,3.21v1.18h9.78v-1.19c-1.83-.51-2.57-1.38-2.54-3.21.12-6.3.29-12.59.42-18.89,0-.71.28-.83.92-.73,3,.46,5.53,2.23,5.85,5.6,0,.28.42.53.65.79.18-.28.52-.56.53-.85.05-2,0-4,.05-6,0-.84-.28-1-1-1q-9.49,0-19,0c-.87,0-1.06.3-1,1.09,0,1.94,0,3.87,0,5.8C172.35,213.21,172.63,213.5,173.46,213.2Z"/><path class="cls-2" d="M277.28,224.16a8.92,8.92,0,0,1-1.35,2.18,8.37,8.37,0,0,1-.57.62l-.05,0a8.76,8.76,0,0,1-3.38,2.13,6.35,6.35,0,0,1-3.78.15.64.64,0,0,1-.06-.18q0-10.05,0-20.09a2.15,2.15,0,0,1,2.16-2.27c.52,0,.8-.26.64-.73a1.07,1.07,0,0,0-.71-.64c-3,0-6,0-9,0-.23,0-.58.34-.66.59-.12.41,0,.75.59.79a1.77,1.77,0,0,1,1.66,1.6,6.71,6.71,0,0,1,.16,1.48q0,8,0,16a7,7,0,0,1-.19,1.78c-.26.95-.64,1.87-2,1.87v1.22h18.12v-8.3l-1.08.09A8.68,8.68,0,0,1,277.28,224.16Z"/><path class="cls-2" d="M271.93,229.14a6.35,6.35,0,0,1-3.78.15.64.64,0,0,1-.06-.18.64.64,0,0,0,.06.18A6.35,6.35,0,0,0,271.93,229.14Z"/><path class="cls-2" d="M210.72,281.9c1.16-.6,2.15-1.06,3.09-1.61a1.67,1.67,0,0,1,1.93,0c.93.58,1.94,1,3.07,1.59-.21-1.34-.32-2.47-.59-3.56a1.49,1.49,0,0,1,.57-1.64c.85-.75,1.65-1.55,2.62-2.47-1.46-.22-2.65-.34-3.82-.59a1.92,1.92,0,0,1-1.09-.78c-.61-1.05-1.1-2.16-1.72-3.39-.61,1.23-1.17,2.28-1.67,3.37a1.3,1.3,0,0,1-1.19.86c-1.18.1-2.34.33-3.69.53.92.9,1.68,1.72,2.52,2.46a1.66,1.66,0,0,1,.58,1.76C211.1,279.51,210.94,280.61,210.72,281.9Z"/><path class="cls-2" d="M151.66,274.19c-1.45-.2-2.63-.32-3.79-.57a1.88,1.88,0,0,1-1.1-.77c-.62-1-1.12-2.14-1.76-3.38-.6,1.2-1.12,2.17-1.56,3.17a1.48,1.48,0,0,1-1.39,1.05c-1.14.08-2.27.31-3.41.49.89.94,1.75,1.78,2.5,2.7a1.92,1.92,0,0,1,.42,1.3c-.12,1.18-.37,2.34-.61,3.73,1.2-.62,2.23-1.12,3.23-1.7a1.51,1.51,0,0,1,1.67,0c1,.57,2,1.06,3.23,1.69-.24-1.37-.4-2.49-.64-3.58a1.46,1.46,0,0,1,.52-1.58C149.85,276,150.65,275.16,151.66,274.19Z"/><path class="cls-2" d="M170.63,273.67a1.38,1.38,0,0,1-1.27-.9c-.48-1-1-2.07-1.62-3.3-.64,1.26-1.13,2.34-1.73,3.35a1.88,1.88,0,0,1-1.09.78c-1.16.26-2.35.39-3.85.61,1.05,1,1.89,1.84,2.79,2.61a1.4,1.4,0,0,1,.44,1.51c-.23,1.12-.4,2.25-.64,3.59,1.24-.65,2.28-1.17,3.29-1.74a1.4,1.4,0,0,1,1.57,0c1,.56,2,1.07,3.23,1.69-.22-1.38-.45-2.55-.55-3.73a1.79,1.79,0,0,1,.41-1.27c.82-.87,1.73-1.63,2.61-2.43a2.61,2.61,0,0,0-.17-.28C172.91,274,171.78,273.77,170.63,273.67Z"/><path class="cls-2" d="M196,278.42a1.61,1.61,0,0,1,.57-1.76c.81-.72,1.54-1.53,2.47-2.47-1.26-.19-2.34-.42-3.42-.49a1.63,1.63,0,0,1-1.53-1.15c-.43-1-1-1.94-1.55-3.11-.61,1.24-1.15,2.25-1.62,3.3a1.35,1.35,0,0,1-1.25.93c-1.15.1-2.29.32-3.7.53.94.92,1.69,1.71,2.51,2.41a1.71,1.71,0,0,1,.6,1.93c-.24,1-.36,2.1-.57,3.37,1.21-.64,2.19-1.12,3.13-1.68a1.57,1.57,0,0,1,1.76,0c1,.57,2,1.06,3.18,1.7C196.32,280.6,196.2,279.49,196,278.42Z"/><path class="cls-2" d="M126,303.07c-.12,0-.23-.1-.42-.18a2.1,2.1,0,0,1,.35-.28c1.78-.81,2.5-1.9,2.3-3.51a3,3,0,0,0-3.06-2.87c-2.07-.2-4.17,0-6.39,0v14.45a67.66,67.66,0,0,0,7.06-.47,3.48,3.48,0,0,0,2.89-3.78C128.74,304.69,127.93,303.71,126,303.07Zm-5.7-5.15c0-.19.32-.55.49-.55a31.78,31.78,0,0,1,4.15.24,1.88,1.88,0,0,1,1.67,2c0,1.3-.46,2.19-1.64,2.38-1.49.23-3,.22-4.69.33C120.29,300.7,120.27,299.31,120.31,297.92Zm5.17,10.88a34,34,0,0,1-4.74.34c-.14,0-.41-.39-.43-.62,0-.73,0-1.46,0-2.19V306c0-2.49,0-2.51,2.54-2.46a11.33,11.33,0,0,1,2.46.29A2.16,2.16,0,0,1,127,306.2C127.09,307.48,126.57,308.6,125.48,308.8Z"/><path class="cls-2" d="M241,300.39l.22-.3-.13-.12c-.12-.14-.25-.29-.39-.3-1.76-.09-3.52-.24-5.28-.19a3.48,3.48,0,0,0-3.36,4.71,11.28,11.28,0,0,0,1.45,2.2c-1.35,1.49-1.38,1.75-.29,3.34a4.63,4.63,0,0,1-.43.24,2.67,2.67,0,0,0,.34,5.11,8.8,8.8,0,0,0,6-.32,3,3,0,0,0,1.94-2.36c.3-2.11-.82-3.38-3.16-3.51-1-.06-2,0-3-.08-.35,0-.86-.28-.94-.55a1.27,1.27,0,0,1,.25-1.16,2.45,2.45,0,0,1,1.47-.53c2.57,0,4.3-1.32,4.24-3.47a14.07,14.07,0,0,0-.48-2.26,8.85,8.85,0,0,0,1.33-.24A.5.5,0,0,0,241,300.39Zm-6.93,10a2.07,2.07,0,0,1,.49-.07h1.6v0c.63,0,1.26,0,1.89.1a1.43,1.43,0,0,1,1.51,1.06,1.68,1.68,0,0,1-.62,1.95,5.54,5.54,0,0,1-2.19.84,9.88,9.88,0,0,1-2.87-.12,1.58,1.58,0,0,1-1.38-1.79A1.92,1.92,0,0,1,234.11,310.35Zm1.76-4.86c-1.67-.05-2.49-.89-2.43-2.49s.92-2.52,2.68-2.45c1.58.06,2.36.94,2.32,2.61S237.55,305.54,235.87,305.49Z"/><path class="cls-2" d="M182.59,296.3c0,1.52,0,3,0,4.71-.28-.22-.46-.36-.63-.51a4.29,4.29,0,0,0-6.68,1.29,7.77,7.77,0,0,0-.4,5.55c1,3.5,4.68,4.51,7.36,2.05a1.61,1.61,0,0,1,.39-.23c.37,1.43.37,1.43,1.39,1.23V295.11C182.59,295,182.59,295,182.59,296.3Zm0,8.87c0,.36,0,.73,0,1.09a3.05,3.05,0,0,1-3.86,3.13,2.38,2.38,0,0,1-2.16-2.05,16.55,16.55,0,0,1,.06-4.61c.24-1.42,1.46-2.05,3-2a2.64,2.64,0,0,1,2.74,2.27c.16.7.19,1.44.28,2.16Z"/><path class="cls-2" d="M158.49,250.61c0-.49,0-.92-.07-1.35a5.23,5.23,0,0,0-5.43-5.15c-2.82-.11-5.13,1.17-5.71,4.43a10.77,10.77,0,0,0,0,3.67,5.58,5.58,0,0,0,8.22,4C157.76,255,158.43,253,158.49,250.61Zm-6,5a3.78,3.78,0,0,1-3.81-3.06c-.16-.67-.22-1.37-.32-2.06.1-.71.15-1.41.3-2.09a3.79,3.79,0,0,1,3.94-3.15c2.29,0,3.8.93,4.15,3.06a12.44,12.44,0,0,1-.11,4.51C156.25,254.86,154.76,255.7,152.54,255.63Z"/><path class="cls-2" d="M144.75,300a6.08,6.08,0,0,0-6,.5l.42.87a22.13,22.13,0,0,1,2.23-.6c2.39-.38,3.43.68,3.09,3.21-.4,0-.83,0-1.25.07a28.17,28.17,0,0,0-4,.73,2.74,2.74,0,0,0-1.79,3.2A2.77,2.77,0,0,0,140,310.6a4.21,4.21,0,0,0,4.19-1.26,2.27,2.27,0,0,1,.5-.32,2.43,2.43,0,0,0,.21.74,7.05,7.05,0,0,0,.69.77c.18-.29.52-.57.52-.85q.06-3.51,0-7A2.91,2.91,0,0,0,144.75,300Zm-3.83,9.41a1.73,1.73,0,0,1-1.85-1.47,1.91,1.91,0,0,1,1.26-2.33c1.32-.33,2.71-.44,4-.65C145,307.84,143.51,309.62,140.92,309.44Z"/><path class="cls-2" d="M133.7,250.58a3.28,3.28,0,0,0,1.52-3.44,2.76,2.76,0,0,0-2.41-2.56,16.33,16.33,0,0,0-3-.28c-2.44,0-2.45,0-2.45,2.43,0,3.25,0,6.51,0,9.82h1.34c0-1.44,0-2.8,0-4.16a1.44,1.44,0,0,1,.19-.84c.38-.45,2.56-.09,2.88.44.73,1.23,1.51,2.44,2.16,3.71a1.46,1.46,0,0,0,2,.77c-1.09-1.8-2.15-3.54-3.24-5.35C133.13,250.9,133.43,250.75,133.7,250.58Zm-1.92-.35c-.75.09-1.52,0-2.28.09s-.83-.24-.79-.83,0-1.06,0-1.59h0a1.48,1.48,0,0,1,0-.3c.1-.72.12-2,.35-2a5.16,5.16,0,0,1,4,.48,2.27,2.27,0,0,1,.66,2.54A2.06,2.06,0,0,1,131.78,250.23Z"/><path class="cls-2" d="M203.22,300.74c0-.35,0-.7-.07-1.06H201.7c0,1.77,0,3.43,0,5.09a11.63,11.63,0,0,1-.28,2.57c-.39,1.58-1.81,2.33-3.68,2.07-1.36-.18-2-1-2-2.73,0-1.93,0-3.86,0-5.79,0-1.39-.14-1.49-1.41-1.08,0,2.74-.1,5.47,0,8.18.07,1.53,1.07,2.33,2.58,2.61a4.7,4.7,0,0,0,4.73-1.54c.07.26.11.38.15.51.13.51.16,1.08,1,.95s.47-.7.47-1.09C203.24,306.53,203.23,303.64,203.22,300.74Z"/><path class="cls-2" d="M163.37,299.84a4.92,4.92,0,0,0-4.59.33,10.11,10.11,0,0,0-1.1.92c-.23-.85-.23-1.86-1.48-1.33v10.7h1.46c0-.55,0-1,0-1.41.05-1.92,0-3.87.19-5.78a3.11,3.11,0,0,1,4.66-2.19,2.7,2.7,0,0,1,1,1.39,5.47,5.47,0,0,1,.16,1.77c0,1.87,0,3.73,0,5.6,0,.52.21.71.72.69s.84-.07.83-.7c0-2.39,0-4.79-.1-7.19A2.9,2.9,0,0,0,163.37,299.84Z"/><path class="cls-2" d="M218.45,299.44a4.65,4.65,0,0,0-3.52,1.68c-.31-.79-.18-1.92-1.59-1.3v9.51c0,1.28,0,1.28,1.43,1.11a.82.82,0,0,0,.09-.24c0-1.34,0-2.67,0-4a19.87,19.87,0,0,1,.23-3.28c.32-1.62,1.67-2.36,3.63-2.16,1.41.14,2.11,1,2.13,2.75,0,2,0,3.93,0,5.89,0,.35,0,.7.08,1.21.62-.27,1.46.35,1.44-.85,0-2.23,0-4.47-.06-6.69C222.25,300.54,221,299.42,218.45,299.44Z"/><path class="cls-2" d="M192.87,244.7c-.39.84-.73,1.71-1.07,2.58-1.22,3.05-2.43,6.11-3.66,9.21,1,.32,1.42,0,1.67-.85s.6-1.48.85-2.23a1,1,0,0,1,1.09-.79c1.2,0,2.4,0,3.6,0a.93.93,0,0,1,1,.71c.28.82.68,1.6.94,2.42s.81,1,1.67.74c-1.58-4-3.12-7.9-4.71-11.81a1,1,0,0,0-.77-.4A.86.86,0,0,0,192.87,244.7Zm.7,1.1c.73,2,1.38,3.73,2.08,5.6h-4.16Z"/><path class="cls-2" d="M234.38,256.56c.28,0,.55-.34.83-.52-.27-.2-.53-.55-.81-.56-1.23-.06-2.47,0-3.7,0-.62,0-.83-.21-.81-.82,0-1,0-1.93,0-2.89,0-.76.19-1.08,1-1,1.29.07,2.58,0,4,0,0-.44,0-.75-.06-1.14-1.22,0-2.35,0-3.47,0-1.44,0-1.44,0-1.43-1.37,0-.67,0-1.34,0-2s.18-.83.8-.82c1.3,0,2.6,0,3.9,0,.21,0,.42-.29.63-.44-.19-.22-.37-.63-.56-.64-2,0-3.91,0-5.8,0-.1.2-.15.25-.15.31,0,3.8,0,7.6,0,11.4,0,.6.38.6.81.6C231.11,256.59,232.74,256.62,234.38,256.56Z"/><path class="cls-2" d="M174.13,252.78c.06,1.25,0,2.5,0,3.76h1.33a12.76,12.76,0,0,0,0-1.53,8.26,8.26,0,0,1,1.62-6.08l.06-.09,2.42-4.46c-.94-.23-1.49-.06-1.83.77a22,22,0,0,1-1.16,2.2l-1.74,3.18c-.28-.48-.48-.78-.65-1.09-.77-1.44-1.58-2.86-2.28-4.32-.4-.84-.94-1-1.83-.71,1.23,2.25,2.45,4.45,3.61,6.68A4.16,4.16,0,0,1,174.13,252.78Z"/><path class="cls-2" d="M210.38,244.27c-.75,0-.66.47-.66.93,0,3.53,0,7.06,0,10.59a7.29,7.29,0,0,0,.09.77h6.67c.27-.84,0-1.19-.86-1.14s-2.06,0-3.1,0c-1.64,0-1.46.18-1.47-1.52,0-2.89,0-5.79,0-8.68C211.05,244.74,211.1,244.3,210.38,244.27Z"/><path d="M100.9,131.88c7.3,0,14.6,0,21.9,0s14.8,0,22.2,0c.95,0,1.16-.29,1.14-1.18a87.71,87.71,0,0,0-2.25-19.11c-1.28-5.28-3.08-10.34-6.41-14.74-5.7-7.52-15.67-9.39-23.49-2.94a32.06,32.06,0,0,0-7.71,9.47c-4.66,8.5-6.34,17.73-6.62,27.3C99.63,131.68,100,131.89,100.9,131.88Z"/><path d="M122.8,131.86c-7.3,0-14.6,0-21.9,0,7.3,0,14.6,0,21.9,0s14.8,0,22.2,0C137.6,131.84,130.2,131.86,122.8,131.86Z"/><path d="M144,216a43.81,43.81,0,0,0-1-6.27c-.56-2.06-1.93-2.86-4-2.91a4,4,0,0,0-4.2,2.74,8.12,8.12,0,0,0-.5,1.61,38.54,38.54,0,0,0-.45,11.24,23.26,23.26,0,0,0,1,4.66,3.53,3.53,0,0,0,3.2,2.49c2.84.39,4.65-.66,5.29-3.44.52-2.23.68-4.53,1-6.79l-.24,0A27.94,27.94,0,0,0,144,216Z"/><path d="M125.29,303.86a11.33,11.33,0,0,0-2.46-.29c-2.54-.05-2.54,0-2.54,2.46v.3c0,.73,0,1.46,0,2.19,0,.23.29.62.43.62a34,34,0,0,0,4.74-.34c1.09-.2,1.61-1.32,1.56-2.6A2.16,2.16,0,0,0,125.29,303.86Z"/><path d="M125,302c1.18-.19,1.67-1.08,1.64-2.38a1.88,1.88,0,0,0-1.67-2,31.78,31.78,0,0,0-4.15-.24c-.17,0-.48.36-.49.55,0,1.39,0,2.78,0,4.43C122,302.24,123.49,302.25,125,302Z"/><path d="M232.54,312.27a1.58,1.58,0,0,0,1.38,1.79,9.88,9.88,0,0,0,2.87.12,5.54,5.54,0,0,0,2.19-.84,1.68,1.68,0,0,0,.62-1.95,1.43,1.43,0,0,0-1.51-1.06c-.63-.05-1.26-.07-1.89-.1v0h-1.6a2.07,2.07,0,0,0-.49.07A1.92,1.92,0,0,0,232.54,312.27Z"/><path d="M236.12,300.55c-1.76-.07-2.63.72-2.68,2.45s.76,2.44,2.43,2.49,2.54-.73,2.57-2.33S237.7,300.61,236.12,300.55Z"/><path d="M179.62,300.73c-1.56-.05-2.78.58-3,2a16.55,16.55,0,0,0-.06,4.61,2.38,2.38,0,0,0,2.16,2.05,3.05,3.05,0,0,0,3.86-3.13c0-.36,0-.73,0-1.09h.08c-.09-.72-.12-1.46-.28-2.16A2.64,2.64,0,0,0,179.62,300.73Z"/><path d="M156.8,248.33c-.35-2.13-1.86-3.09-4.15-3.06a3.79,3.79,0,0,0-3.94,3.15c-.15.68-.2,1.38-.3,2.09.1.69.16,1.39.32,2.06a3.78,3.78,0,0,0,3.81,3.06c2.22.07,3.71-.77,4.15-2.79A12.44,12.44,0,0,0,156.8,248.33Z"/><path d="M140.33,305.64a1.91,1.91,0,0,0-1.26,2.33,1.73,1.73,0,0,0,1.85,1.47c2.59.18,4.07-1.6,3.46-4.45C143,305.2,141.65,305.31,140.33,305.64Z"/><path d="M133.77,248.57a2.27,2.27,0,0,0-.66-2.54,5.16,5.16,0,0,0-4-.48c-.23,0-.25,1.33-.35,2a1.48,1.48,0,0,0,0,.3h0c0,.53,0,1.06,0,1.59s.17.86.79.83,1.53,0,2.28-.09A2.06,2.06,0,0,0,133.77,248.57Z"/><path d="M195.65,251.4c-.7-1.87-1.35-3.64-2.08-5.6l-2.08,5.6Z"/></svg>