<svg id="Layer_1" data-name="Layer 1" xmlns="http://www.w3.org/2000/svg" viewBox="0 0 600 120"><defs><style>.cls-1{fill:#fff;}</style></defs><title>elHotel-v-light</title><path class="cls-1" d="M431.54,56.92c-.17-.05-.33-.14-.61-.26a3.34,3.34,0,0,1,.52-.41c2.59-1.17,3.65-2.77,3.36-5.12s-1.59-3.92-4.47-4.2-6.1-.06-9.34-.06V68a99.53,99.53,0,0,0,10.32-.68c2.81-.46,4.22-2.74,4.22-5.54C435.54,59.29,434.36,57.86,431.54,56.92Zm-8.32-7.51c0-.29.47-.82.71-.81a47.36,47.36,0,0,1,6.08.34,2.77,2.77,0,0,1,2.44,3c0,1.9-.68,3.19-2.41,3.47-2.17.34-4.41.33-6.86.48C423.18,53.46,423.15,51.43,423.22,49.41Zm7.55,15.89a51.5,51.5,0,0,1-6.93.5c-.2,0-.6-.58-.62-.91-.08-1.06,0-2.13,0-3.2v-.44c0-3.63,0-3.66,3.71-3.59a16.61,16.61,0,0,1,3.59.42c1.76.43,2.49,1.53,2.57,3.43S432.37,65,430.77,65.3Z"/><path class="cls-1" d="M599.68,53c.1-.14.21-.3.32-.43l-.19-.19c-.19-.2-.37-.42-.57-.43-2.57-.14-5.15-.36-7.72-.27a5.07,5.07,0,0,0-4.91,6.87,15.41,15.41,0,0,0,2.12,3.22c-2,2.17-2,2.56-.43,4.88a5.58,5.58,0,0,1-.63.35,3.9,3.9,0,0,0,.5,7.47,13,13,0,0,0,8.72-.46,4.33,4.33,0,0,0,2.83-3.45c.44-3.09-1.2-4.94-4.62-5.14-1.45-.08-2.92,0-4.38-.11a1.8,1.8,0,0,1-1.37-.8,2,2,0,0,1,.36-1.71,3.61,3.61,0,0,1,2.16-.76c3.76,0,6.29-1.94,6.19-5.07a18.33,18.33,0,0,0-.7-3.31,14.5,14.5,0,0,0,1.95-.35A.77.77,0,0,0,599.68,53ZM589.54,67.57a3.57,3.57,0,0,1,.72-.1h2.34v-.07c.92,0,1.84.08,2.76.15s1.91.39,2.21,1.54a2.45,2.45,0,0,1-.91,2.86,8.14,8.14,0,0,1-3.2,1.23,14.4,14.4,0,0,1-4.19-.18,2.32,2.32,0,0,1-2-2.62A2.8,2.8,0,0,1,589.54,67.57Zm2.57-7.11c-2.43-.07-3.63-1.3-3.55-3.63.08-2.53,1.35-3.68,3.93-3.58,2.3.09,3.44,1.37,3.38,3.81S594.57,60.54,592.11,60.46Z"/><path class="cls-1" d="M514.24,47v6.89c-.41-.33-.67-.53-.92-.75a6.27,6.27,0,0,0-9.76,1.88,11.4,11.4,0,0,0-.59,8.12c1.41,5.12,6.85,6.59,10.76,3a3.05,3.05,0,0,1,.57-.33c.55,2.09.55,2.09,2,1.8V45.3C514.24,45.07,514.24,45.07,514.24,47Zm0,13c0,.54,0,1.07,0,1.6-.18,3.37-2.32,5.1-5.64,4.57a3.46,3.46,0,0,1-3.16-3,24.46,24.46,0,0,1,.09-6.73c.35-2.07,2.13-3,4.42-2.92a3.86,3.86,0,0,1,4,3.31c.23,1,.28,2.11.41,3.16Z"/><path class="cls-1" d="M458.94,52.48c-2.2-1.36-6.64-1-8.76.74l.61,1.27a31.67,31.67,0,0,1,3.26-.88c3.51-.56,5,1,4.52,4.69a16.15,16.15,0,0,0-1.82.11,40.33,40.33,0,0,0-5.84,1.06c-2,.65-2.89,2.51-2.63,4.68a4.07,4.07,0,0,0,3.64,3.79c2.32.37,4.47.06,6.13-1.84a4.08,4.08,0,0,1,.72-.48,3.9,3.9,0,0,0,.31,1.08,9.82,9.82,0,0,0,1,1.13c.27-.42.76-.83.77-1.25.06-3.41.05-6.82,0-10.22A4.3,4.3,0,0,0,458.94,52.48Zm-5.6,13.76c-1.57-.1-2.51-.85-2.7-2.16-.24-1.59.38-3,1.83-3.4,1.94-.48,4-.64,5.93-.94C459.29,63.91,457.13,66.49,453.34,66.24Z"/><path class="cls-1" d="M544.4,53.52c0-.51-.06-1-.1-1.54h-2.12c0,2.58,0,5,0,7.43a16.77,16.77,0,0,1-.41,3.75c-.57,2.31-2.64,3.41-5.38,3-2-.27-2.94-1.5-3-4,0-2.82,0-5.64,0-8.46,0-2-.2-2.18-2.06-1.59,0,4-.14,8,0,12,.11,2.23,1.57,3.41,3.78,3.81a6.85,6.85,0,0,0,6.91-2.24c.11.37.17.55.22.73.19.75.24,1.59,1.4,1.4s.69-1,.7-1.6C544.42,62,544.41,57.75,544.4,53.52Z"/><path class="cls-1" d="M486.15,52.21a7.17,7.17,0,0,0-6.71.48,14.38,14.38,0,0,0-1.6,1.34c-.34-1.25-.35-2.72-2.17-1.93V67.72h2.14c0-.79,0-1.42,0-2,.07-2.82-.06-5.67.27-8.46A4.56,4.56,0,0,1,484.9,54a3.93,3.93,0,0,1,1.46,2,8.31,8.31,0,0,1,.24,2.6q0,4.09,0,8.18c0,.77.31,1,1,1s1.23-.1,1.22-1c-.06-3.5,0-7-.14-10.51A4.22,4.22,0,0,0,486.15,52.21Z"/><path class="cls-1" d="M566.66,51.63a6.75,6.75,0,0,0-5.14,2.45c-.46-1.15-.28-2.81-2.33-1.91V66.08c0,1.86,0,1.86,2.09,1.62a1.33,1.33,0,0,0,.13-.36c0-2,0-3.89,0-5.84a29.37,29.37,0,0,1,.34-4.79c.47-2.37,2.44-3.45,5.3-3.16,2.06.2,3.08,1.48,3.11,4,0,2.87,0,5.74,0,8.62,0,.51.06,1,.11,1.75.91-.39,2.14.51,2.11-1.23,0-3.27,0-6.53-.09-9.79C572.22,53.23,570.37,51.6,566.66,51.63Z"/><path class="cls-1" d="M181.36,60.64c-2.09-.81-2.09-2.47-2.09-4.24q0-14.8,0-29.62a20.52,20.52,0,0,1,.25-4.23c.19-.86,1-1.56,1.52-2.37a4.32,4.32,0,0,0,.78-1.69c0-.23-.8-.77-1.24-.77-4-.07-8,0-12.32,0a18.62,18.62,0,0,0,.38,2.26,15.74,15.74,0,0,1,1,3.18c.16,2.89.08,5.79.08,8.69,0,2.64,0,5.29,0,8.1-4.12,0-8,0-11.9,0-1.18,0-1.11-.8-1.11-1.58,0-5.2,0-10.4,0-15.61a7.92,7.92,0,0,1,.6-2.34c.27-.8.64-1.57,1.11-2.71-4.66,0-8.78,0-12.91,0a1.21,1.21,0,0,0-.92.75c-.05.52.1,1.43.39,1.53,2.14.73,2.15,2.49,2.16,4.21,0,6.74,0,13.48,0,20.22q0,6.3,0,12.6c0,1.26-.06,2.6-1.46,3.15s-1.45,1.35-1,2.57h13.69c-.47-1-.85-1.72-1.14-2.46a6,6,0,0,1-.62-2c-.05-4.84-.06-9.69,0-14.54a1.62,1.62,0,0,1,1.05-1.16c3.89-.08,7.78-.05,11.79-.05,0,5.64,0,11.12,0,16.6,0,.41-.42.81-.6,1.23-.31.72-.59,1.45-1,2.39h14C181.81,61.89,181.77,60.79,181.36,60.64Z"/><path class="cls-1" d="M203.89,24.28c-6.53,8.51-7,18.06-2.53,27.62,6,12.8,23.2,13.2,31.18,5.54a21.29,21.29,0,0,0,6.74-14.77c-.06-8.18-1.15-12.25-3.71-16.41C228.68,15.05,211.9,13.84,203.89,24.28Zm22.88,29.58c-1.14,4.94-4.35,6.8-9.4,6.11-2.77-.37-4.88-1.73-5.68-4.41A41.3,41.3,0,0,1,210,47.28a68.75,68.75,0,0,1,.78-19.94,15.93,15.93,0,0,1,.9-2.87c1.45-3.44,3.78-4.93,7.45-4.85s6.19,1.5,7.18,5.15a78.35,78.35,0,0,1,1.79,11.14,51.86,51.86,0,0,1,0,5.85l.42.05C228,45.83,227.68,49.92,226.77,53.86Z"/><path class="cls-1" d="M306.1,57.46c-.21.79-.79,1.88-1.43,2.07-1.66.48-1.37,1.4-1,2.56H336V47.44c-1.47-.46-1.91.13-2.32,1.4a15.26,15.26,0,0,1-2.29,4.73c-3.41,4.4-8.3,5.78-13.58,6.22-1.34.11-1.88-.27-1.85-1.75.08-5.38,0-10.76,0-16.14a10.28,10.28,0,0,1,.16-1.15c4.84-.67,8,1.24,9.73,5.64a1.65,1.65,0,0,0,1.34.66c.28,0,.76-.66.77-1,.08-2.42.05-4.84.05-7.27v-7h-2c-1.07,4.41-4.37,6.69-8.85,6.36-.94-.07-1.21-.44-1.2-1.31,0-5.38,0-10.77,0-16.15,0-.93.36-1.25,1.26-1.23a21.31,21.31,0,0,1,11.64,3.17,9.65,9.65,0,0,1,4.46,7.56l2.05-.14c0-4.11,0-8.06-.07-12,0-.35-.92-1-1.41-1q-14.55-.08-29.1,0c-.47,0-1.33.56-1.32.85a3.16,3.16,0,0,0,.83,1.58c.48.61,1.35,1.07,1.55,1.75a15.93,15.93,0,0,1,.69,4.34c.06,9.28.05,18.57,0,27.85A16.54,16.54,0,0,1,306.1,57.46Z"/><path class="cls-1" d="M254.56,30.94c1.87-7.67,5.46-11.24,11.16-11a2.29,2.29,0,0,1,.19.63c.27,11.35.58,22.7.77,34.06.06,3.25-1.21,4.67-4.45,5.7v2.09h17.35v-2.1c-3.23-.91-4.56-2.46-4.5-5.71.21-11.17.51-22.34.74-33.52,0-1.26.5-1.48,1.63-1.3,5.36.82,9.82,4,10.38,9.94.05.5.75.94,1.15,1.41.34-.5.94-1,.95-1.51.09-3.54,0-7.1.1-10.64.05-1.49-.5-1.78-1.84-1.78-11.24,0-22.48.06-33.71,0-1.56,0-1.88.54-1.85,1.94.08,3.43.09,6.87,0,10.29C252.59,31,253.09,31.47,254.56,30.94Z"/><path class="cls-1" d="M379.2,50.38a16.15,16.15,0,0,1-2.39,3.87c-.32.39-.66.76-1,1.12l-.09.08a15.82,15.82,0,0,1-6,3.78,11.25,11.25,0,0,1-6.71.27,1.07,1.07,0,0,1-.11-.33q0-17.82,0-35.65a3.8,3.8,0,0,1,3.83-4c.92,0,1.43-.47,1.15-1.3a1.92,1.92,0,0,0-1.28-1.14q-8-.11-16,0a1.74,1.74,0,0,0-1.17,1.05c-.22.73,0,1.33,1,1.4a3.17,3.17,0,0,1,3,2.84,12.9,12.9,0,0,1,.27,2.63q0,14.19,0,28.38a11.93,11.93,0,0,1-.35,3.16c-.46,1.69-1.13,3.32-3.46,3.32V62h32.17V47.29l-1.91.15A15.53,15.53,0,0,1,379.2,50.38Z"/><path class="cls-1" d="M212.93,88.78c-.06-1.08-.08-2-.17-3-.68-6.93-4.83-11.07-12-11.34-6.22-.24-11.31,2.57-12.59,9.77a24,24,0,0,0-.07,8.07c1.48,8.54,10.37,12.8,18.12,8.83C211.32,98.54,212.78,93.93,212.93,88.78ZM199.8,99.85a8.34,8.34,0,0,1-8.4-6.75c-.36-1.48-.48-3-.72-4.54.23-1.57.34-3.11.68-4.61,1-4.43,4.08-6.86,8.67-6.93,5.05-.09,8.4,2,9.15,6.73a26.91,26.91,0,0,1-.23,10C208,98.15,204.69,100,199.8,99.85Z"/><path class="cls-1" d="M158.27,88.71a7.21,7.21,0,0,0,3.34-7.58,6.08,6.08,0,0,0-5.3-5.65,35.87,35.87,0,0,0-6.55-.6c-5.39-.08-5.4,0-5.41,5.34,0,7.18,0,14.36,0,21.65h3c0-3.18,0-6.17,0-9.16a3.16,3.16,0,0,1,.41-1.85c.85-1,5.66-.2,6.36,1,1.61,2.7,3.31,5.36,4.75,8.16,1,1.94,2.33,2.33,4.44,1.71l-7.15-11.8C157,89.41,157.67,89.1,158.27,88.71ZM154,87.93c-1.66.22-3.36.1-5,.2-1.37.09-1.83-.51-1.73-1.82s0-2.34,0-3.51h0a3.62,3.62,0,0,1,0-.66c.24-1.58.27-4.43.77-4.51,3-.52,6.2-.86,8.9,1.06,1.91,1.37,1.87,3.48,1.44,5.6C157.93,86.69,156.2,87.65,154,87.93Z"/><path class="cls-1" d="M288.72,75.74c-.88,1.86-1.61,3.78-2.37,5.69-2.69,6.74-5.36,13.49-8.07,20.31,2.16.71,3.13-.06,3.68-1.86s1.32-3.27,1.89-4.93a2.16,2.16,0,0,1,2.39-1.74c2.64.08,5.29.06,7.93,0a2,2,0,0,1,2.27,1.56c.63,1.8,1.51,3.52,2.09,5.33s1.77,2.23,3.67,1.63c-3.47-8.74-6.89-17.4-10.39-26a2.19,2.19,0,0,0-1.7-.89A1.87,1.87,0,0,0,288.72,75.74Zm1.53,2.43,4.58,12.35h-9.16C287.18,86.47,288.61,82.61,290.25,78.17Z"/><path class="cls-1" d="M380.21,101.91c.63,0,1.23-.75,1.85-1.15-.6-.44-1.18-1.22-1.8-1.25-2.72-.13-5.44-.09-8.16,0-1.35,0-1.83-.47-1.78-1.8.07-2.13.09-4.27,0-6.39-.08-1.67.4-2.37,2.23-2.27,2.83.16,5.68,0,8.73,0,0-1-.08-1.65-.12-2.51h-7.66c-3.16,0-3.16,0-3.15-3,0-1.47.06-2.94,0-4.41s.41-1.82,1.77-1.79q4.31.11,8.6,0c.47,0,.92-.64,1.37-1-.4-.49-.8-1.39-1.22-1.4-4.31-.11-8.63-.07-12.79-.07-.21.43-.33.56-.33.69q0,12.57-.08,25.13c0,1.31.83,1.31,1.77,1.31C373,102,376.61,102,380.21,101.91Z"/><path class="cls-1" d="M247.39,93.57c.14,2.75,0,5.52,0,8.28h2.94a26.41,26.41,0,0,0,0-3.36,18.23,18.23,0,0,1,3.58-13.42l.12-.18c1.76-3.25,3.52-6.5,5.34-9.83-2.07-.51-3.28-.14-4,1.68a50.08,50.08,0,0,1-2.57,4.85c-1.21,2.24-2.44,4.47-3.83,7-.62-1-1.05-1.71-1.42-2.4-1.7-3.17-3.49-6.29-5-9.53-.88-1.85-2.08-2.17-4-1.55,2.69,5,5.39,9.81,8,14.73A9.36,9.36,0,0,1,247.39,93.57Z"/><path class="cls-1" d="M327.32,74.82c-1.65,0-1.47,1-1.47,2.05q0,11.66,0,23.33a15.34,15.34,0,0,0,.2,1.7h14.7c.6-1.85.09-2.63-1.9-2.51-2.27.12-4.55,0-6.82,0-3.63,0-3.24.39-3.26-3.35,0-6.38,0-12.76,0-19.15C328.78,75.83,328.89,74.86,327.32,74.82Z"/><path class="cls-1" d="M121.08,76.14H120c-.26,2-.45,3.93-.78,5.85A22.75,22.75,0,0,1,116,90.51a17.32,17.32,0,0,1-9.26,7.11,39.84,39.84,0,0,1-12.5,1.91c-4.17.09-8.34,0-12.52,0a10.52,10.52,0,0,1-1.58-.13A2.58,2.58,0,0,1,77.73,97a6.93,6.93,0,0,1,0-.91V17H66.39v79.1c0,.61,0,1.22,0,1.83.14,2.59,1.61,5.07,5.14,5,11.4-.08,22.8,0,34.2,0h10.14a4.92,4.92,0,0,0,3.67-1.36,5.74,5.74,0,0,0,1.53-4.25q0-10.26,0-20.52Z"/><path class="cls-1" d="M31,102.53a21.92,21.92,0,0,0,15.12-9.69A17.92,17.92,0,0,0,48.7,87l-1.26-.55a31.19,31.19,0,0,1-1.73,2.83,18.46,18.46,0,0,1-14,7.2c-8.11.45-14.7-3.61-17.84-11.55a34.52,34.52,0,0,1-2.15-9.24c-.13-1.22-.19-2.46-.29-3.8H50.61a2.09,2.09,0,0,0,0-.28,38.75,38.75,0,0,0-3.07-16.43,20.48,20.48,0,0,0-11-10.87A25.7,25.7,0,0,0,22.5,42.76,24.64,24.64,0,0,0,4.72,54.82,33.43,33.43,0,0,0,.1,70.28,34.42,34.42,0,0,0,3.57,88.63,26.08,26.08,0,0,0,13,99.18,24.84,24.84,0,0,0,31,102.53ZM15.48,52.38a19.51,19.51,0,0,1,4.71-5.79c4.78-3.94,10.87-2.8,14.35,1.8a23.69,23.69,0,0,1,3.92,9,53.93,53.93,0,0,1,1.37,11.67c0,.55-.12.73-.7.73-4.52,0-9,0-13.56,0s-8.92,0-13.37,0c-.57,0-.78-.12-.76-.73C11.61,63.21,12.63,57.57,15.48,52.38Z"/><path class="cls-1" d="M12.27,37.33a3.48,3.48,0,0,0,2.23-.61c2.19-1.34,4.4-2.62,6.61-3.92L39.63,21.91l2.77-1.66c-.24-.1-.34-.16-.46-.2-2.94-.94-5.89-1.87-8.82-2.84a.89.89,0,0,0-1,.24Q22.9,26,13.69,34.57l-2.95,2.75C11.35,37.32,11.81,37.29,12.27,37.33Z"/><path class="cls-1" d="M25.57,69.78c-4.46,0-8.92,0-13.37,0,4.45,0,8.91,0,13.37,0s9,0,13.56,0C34.61,69.76,30.09,69.78,25.57,69.78Z"/></svg>