<svg id="Layer_1" data-name="Layer 1" xmlns="http://www.w3.org/2000/svg" viewBox="0 0 360 360"><title>elHotel-h-dark</title><path d="M271.93,229.14a8.76,8.76,0,0,0,3.38-2.13A8.76,8.76,0,0,1,271.93,229.14Z"/><path d="M34.5,0V360h291V0ZM172.37,206.53c0-.79.17-1.1,1-1.09q9.5,0,19,0c.75,0,1.06.17,1,1-.06,2,0,4-.05,6,0,.29-.35.57-.53.85-.23-.26-.63-.51-.65-.79-.32-3.37-2.84-5.14-5.85-5.6-.64-.1-.91,0-.92.73-.13,6.3-.3,12.59-.42,18.89,0,1.83.71,2.7,2.54,3.21v1.19h-9.78v-1.18c1.83-.58,2.54-1.38,2.51-3.21-.11-6.4-.28-12.8-.44-19.19a1.36,1.36,0,0,0-.1-.36c-3.21-.11-5.24,1.9-6.29,6.22-.83.3-1.11,0-1.09-.87C172.42,210.4,172.42,208.47,172.37,206.53Zm21.14,37.74a1,1,0,0,1,.77.4c1.59,3.91,3.13,7.84,4.71,11.81-.86.27-1.39.12-1.67-.74s-.66-1.6-.94-2.42a.93.93,0,0,0-1-.71c-1.2,0-2.4,0-3.6,0a1,1,0,0,0-1.09.79c-.25.75-.62,1.47-.85,2.23s-.69,1.17-1.67.85c1.23-3.1,2.44-6.16,3.66-9.21.34-.87.68-1.74,1.07-2.58A.86.86,0,0,1,193.51,244.27Zm-21.6.85c.7,1.46,1.51,2.88,2.28,4.32.17.31.37.61.65,1.09l1.74-3.18a22,22,0,0,0,1.16-2.2c.34-.83.89-1,1.83-.77l-2.42,4.46-.06.09a8.26,8.26,0,0,0-1.62,6.08,12.76,12.76,0,0,1,0,1.53h-1.33c0-1.26,0-2.51,0-3.76a4.16,4.16,0,0,0-.44-1.69c-1.16-2.23-2.38-4.43-3.61-6.68C171,244.13,171.51,244.28,171.91,245.12ZM103.34,74.23q15.07-14,30.14-28a1.44,1.44,0,0,1,1.67-.38c4.81,1.57,9.63,3.09,14.45,4.64.19.06.36.16.75.33-1.63,1-3.08,1.85-4.54,2.71L115.5,71.32c-3.62,2.13-7.24,4.24-10.82,6.43a5.78,5.78,0,0,1-3.66,1c-.74-.08-1.5,0-2.51,0C100.25,77.12,101.79,75.67,103.34,74.23Zm-9.29,156.9c.21-.53.37-.94.54-1.35.11-.23.34-.46.34-.69,0-3.09,0-6.17,0-9.35-2.25,0-4.44,0-6.63,0-.21,0-.59.42-.59.65,0,2.73,0,5.46,0,8.19a3.22,3.22,0,0,0,.35,1.13c.16.41.37.81.64,1.38H81c-.27-.68-.21-1.15.54-1.45s.82-1.06.82-1.77c0-2.36,0-4.73,0-7.09,0-3.8,0-7.6,0-11.4,0-1,0-2-1.22-2.37-.16-.06-.24-.57-.22-.86a.69.69,0,0,1,.52-.43c2.33,0,4.65,0,7.28,0-.27.65-.47,1.08-.63,1.53a4.85,4.85,0,0,0-.34,1.32c0,2.93,0,5.86,0,8.79,0,.44,0,.89.63.89H95v-4.57c0-1.63,0-3.27,0-4.89a8.41,8.41,0,0,0-.59-1.8,12.45,12.45,0,0,1-.21-1.27c2.42,0,4.68,0,6.94,0,.25,0,.71.31.7.44a2.34,2.34,0,0,1-.44.95c-.28.45-.75.85-.85,1.33a11.17,11.17,0,0,0-.14,2.39c0,5.56,0,11.13,0,16.69,0,1,0,1.93,1.18,2.38.23.09.25.71.4,1.2Zm-7.27-68.4c-4.8-9.46-6.4-19.54-5.68-30,.62-9,2.81-17.55,7.56-25.3,6.71-11,16.35-17.7,29.11-19.74a42.14,42.14,0,0,1,23.15,2.5c8.38,3.48,14.18,9.64,17.92,17.8,3.9,8.54,5,17.61,5,26.89a3.09,3.09,0,0,1-.08.46H99.66c.15,2.19.25,4.21.46,6.22a56.3,56.3,0,0,0,3.53,15.13c5.14,13,15.92,19.65,29.2,18.9a30.2,30.2,0,0,0,22.91-11.79,48,48,0,0,0,2.83-4.62l2.08.89a29.78,29.78,0,0,1-4.28,9.59,35.91,35.91,0,0,1-24.76,15.87c-10.43,1.78-20.31.2-29.37-5.48A42.72,42.72,0,0,1,86.78,162.73Zm63.56,57.08a12,12,0,0,1-3.8,8.33c-4.49,4.31-14.17,4.08-17.56-3.13-2.53-5.38-2.25-10.77,1.42-15.56,4.52-5.88,14-5.2,17.85,1.11C149.7,212.91,150.31,215.2,150.34,219.81Zm-24.49,90.36a67.66,67.66,0,0,1-7.06.47V296.19c2.22,0,4.32-.16,6.39,0a3,3,0,0,1,3.06,2.87c.2,1.61-.52,2.7-2.3,3.51a2.1,2.1,0,0,0-.35.28c.19.08.3.14.42.18,1.92.64,2.73,1.62,2.73,3.32A3.48,3.48,0,0,1,125.85,310.17ZM134,255.7c-.65-1.27-1.43-2.48-2.16-3.71-.32-.53-2.5-.89-2.88-.44a1.44,1.44,0,0,0-.19.84c0,1.36,0,2.72,0,4.16h-1.34c0-3.31,0-6.57,0-9.82,0-2.44,0-2.46,2.45-2.43a16.33,16.33,0,0,1,3,.28,2.76,2.76,0,0,1,2.41,2.56,3.28,3.28,0,0,1-1.52,3.44c-.27.17-.57.32-1,.54,1.09,1.81,2.15,3.55,3.24,5.35A1.46,1.46,0,0,1,134,255.7Zm12.1,54c0,.28-.34.56-.52.85a7.05,7.05,0,0,1-.69-.77,2.43,2.43,0,0,1-.21-.74,2.27,2.27,0,0,0-.5.32A4.21,4.21,0,0,1,140,310.6a2.77,2.77,0,0,1-2.49-2.59,2.74,2.74,0,0,1,1.79-3.2,28.17,28.17,0,0,1,4-.73c.42-.06.85-.05,1.25-.07.34-2.53-.7-3.59-3.09-3.21a22.13,22.13,0,0,0-2.23.6l-.42-.87a6.08,6.08,0,0,1,6-.5,2.91,2.91,0,0,1,1.32,2.65Q146.12,306.17,146.06,309.68Zm2.39-31.35c.24,1.09.4,2.21.64,3.58-1.21-.63-2.25-1.12-3.23-1.69a1.51,1.51,0,0,0-1.67,0c-1,.58-2,1.08-3.23,1.7.24-1.39.49-2.55.61-3.73a1.92,1.92,0,0,0-.42-1.3c-.75-.92-1.61-1.76-2.5-2.7,1.14-.18,2.27-.41,3.41-.49a1.48,1.48,0,0,0,1.39-1.05c.44-1,1-2,1.56-3.17.64,1.24,1.14,2.35,1.76,3.38a1.88,1.88,0,0,0,1.1.77c1.16.25,2.34.37,3.79.57-1,1-1.81,1.8-2.69,2.56A1.46,1.46,0,0,0,148.45,278.33Zm-1.2-26.12a10.77,10.77,0,0,1,0-3.67c.58-3.26,2.89-4.54,5.71-4.43a5.23,5.23,0,0,1,5.43,5.15c0,.43.05.86.07,1.35-.06,2.34-.73,4.43-3,5.6A5.58,5.58,0,0,1,147.25,252.21Zm17.15,58.32c-.51,0-.73-.17-.72-.69,0-1.87,0-3.73,0-5.6a5.47,5.47,0,0,0-.16-1.77,2.7,2.7,0,0,0-1-1.39,3.11,3.11,0,0,0-4.66,2.19c-.23,1.91-.14,3.86-.19,5.78,0,.43,0,.86,0,1.41H156.2v-10.7c1.25-.53,1.25.48,1.48,1.33a10.11,10.11,0,0,1,1.1-.92,4.92,4.92,0,0,1,4.59-.33,2.9,2.9,0,0,1,1.76,2.8c.09,2.4.06,4.8.1,7.19C165.24,310.46,164.89,310.52,164.4,310.53Zm7.21-33.65a1.79,1.79,0,0,0-.41,1.27c.1,1.18.33,2.35.55,3.73-1.19-.62-2.23-1.13-3.23-1.69a1.4,1.4,0,0,0-1.57,0c-1,.57-2,1.09-3.29,1.74.24-1.34.41-2.47.64-3.59a1.4,1.4,0,0,0-.44-1.51c-.9-.77-1.74-1.61-2.79-2.61,1.5-.22,2.69-.35,3.85-.61a1.88,1.88,0,0,0,1.09-.78c.6-1,1.09-2.09,1.73-3.35.61,1.23,1.14,2.25,1.62,3.3a1.38,1.38,0,0,0,1.27.9c1.15.1,2.28.33,3.42.5a2.61,2.61,0,0,1,.17.28C173.34,275.25,172.43,276,171.61,276.88ZM184,310.39c-1,.2-1,.2-1.39-1.23a1.61,1.61,0,0,0-.39.23c-2.68,2.46-6.4,1.45-7.36-2.05a7.77,7.77,0,0,1,.4-5.55A4.29,4.29,0,0,1,182,300.5c.17.15.35.29.63.51,0-1.67,0-3.19,0-4.71,0-1.34,0-1.34,1.43-1.19Zm7.57-30.16c-.94.56-1.92,1-3.13,1.68.21-1.27.33-2.34.57-3.37a1.71,1.71,0,0,0-.6-1.93c-.82-.7-1.57-1.49-2.51-2.41,1.41-.21,2.55-.43,3.7-.53a1.35,1.35,0,0,0,1.25-.93c.47-1.05,1-2.06,1.62-3.3.59,1.17,1.12,2.12,1.55,3.11a1.63,1.63,0,0,0,1.53,1.15c1.08.07,2.16.3,3.42.49-.93.94-1.66,1.75-2.47,2.47a1.61,1.61,0,0,0-.57,1.76c.25,1.07.37,2.18.58,3.49-1.21-.64-2.22-1.13-3.18-1.7A1.57,1.57,0,0,0,191.59,280.23Zm11.15,30.29c-.8.13-.83-.44-1-.95,0-.13-.08-.25-.15-.51a4.7,4.7,0,0,1-4.73,1.54c-1.51-.28-2.51-1.08-2.58-2.61-.14-2.71,0-5.44,0-8.18,1.27-.41,1.41-.31,1.41,1.08,0,1.93,0,3.86,0,5.79,0,1.71.67,2.55,2,2.73,1.87.26,3.29-.49,3.68-2.07a11.63,11.63,0,0,0,.28-2.57c0-1.66,0-3.32,0-5.09h1.45c0,.36.07.71.07,1.06,0,2.9,0,5.79,0,8.69C203.21,309.82,203.5,310.4,202.74,310.52Zm8-33.86c-.84-.74-1.6-1.56-2.52-2.46,1.35-.2,2.51-.43,3.69-.53a1.3,1.3,0,0,0,1.19-.86c.5-1.09,1.06-2.14,1.67-3.37.62,1.23,1.11,2.34,1.72,3.39a1.92,1.92,0,0,0,1.09.78c1.17.25,2.36.37,3.82.59-1,.92-1.77,1.72-2.62,2.47a1.49,1.49,0,0,0-.57,1.64c.27,1.09.38,2.22.59,3.56-1.13-.58-2.14-1-3.07-1.59a1.67,1.67,0,0,0-1.93,0c-.94.55-1.93,1-3.09,1.61.22-1.29.38-2.39.61-3.48A1.66,1.66,0,0,0,210.75,276.66Zm.3-22.75c0,1.7-.17,1.51,1.47,1.52,1,0,2.07,0,3.1,0s1.13.3.86,1.14h-6.67a7.29,7.29,0,0,1-.09-.77c0-3.53,0-7.06,0-10.59,0-.46-.09-.95.66-.93s.67.47.67,1C211,248.12,211,251,211.05,253.91Zm6.48-43.73a9.28,9.28,0,0,0-.39-2.45c-.11-.38-.6-.63-.87-1a1.72,1.72,0,0,1-.47-.89c0-.16.48-.48.75-.48q8.19,0,16.39,0c.28,0,.79.36.8.56,0,2.23,0,4.45,0,6.77l-1.15.08a5.45,5.45,0,0,0-2.51-4.26,12,12,0,0,0-6.56-1.79c-.51,0-.71.17-.71.7q0,4.55,0,9.09c0,.49.15.7.67.74a4.43,4.43,0,0,0,5-3.58h1.13v3.92c0,1.36,0,2.73,0,4.1,0,.21-.28.57-.44.58a1,1,0,0,1-.76-.37,4.6,4.6,0,0,0-5.48-3.18,4.44,4.44,0,0,0-.08.65c0,3,0,6.06,0,9.09,0,.83.29,1.05,1,1,3-.25,5.73-1,7.65-3.51a8.53,8.53,0,0,0,1.29-2.66c.23-.72.48-1,1.31-.79v8.25H215.87c-.19-.65-.35-1.17.59-1.44.36-.11.68-.72.8-1.17a9.09,9.09,0,0,0,.28-2.26Q217.57,218,217.53,210.18ZM221,310.61c0-.51-.08-.86-.08-1.21,0-2,0-3.93,0-5.89,0-1.74-.72-2.61-2.13-2.75-2-.2-3.31.54-3.63,2.16a19.87,19.87,0,0,0-.23,3.28c0,1.33,0,2.66,0,4a.82.82,0,0,1-.09.24c-1.43.17-1.43.17-1.43-1.11v-9.51c1.41-.62,1.28.51,1.59,1.3a4.65,4.65,0,0,1,3.52-1.68c2.54,0,3.8,1.1,3.89,3.63.08,2.22,0,4.46.06,6.69C222.42,311,221.58,310.34,221,310.61ZM228.67,256c0-3.8,0-7.6,0-11.4,0-.06,0-.11.15-.31,1.89,0,3.84,0,5.8,0,.19,0,.37.42.56.64-.21.15-.42.43-.63.44-1.3,0-2.6.06-3.9,0-.62,0-.83.21-.8.82s0,1.33,0,2c0,1.38,0,1.38,1.43,1.37,1.12,0,2.25,0,3.47,0,0,.39,0,.7.06,1.14-1.39,0-2.68.05-4,0-.82,0-1,.27-1,1,.05,1,0,1.93,0,2.89,0,.61.19.84.81.82,1.23,0,2.47-.05,3.7,0,.28,0,.54.36.81.56-.28.18-.55.51-.83.52-1.64.06-3.27,0-4.9,0C229.05,256.6,228.67,256.6,228.67,256Zm11.27,47.1c.06,2.15-1.67,3.49-4.24,3.47a2.45,2.45,0,0,0-1.47.53,1.27,1.27,0,0,0-.25,1.16c.08.27.59.52.94.55,1,.09,2,0,3,.08,2.34.13,3.46,1.4,3.16,3.51a3,3,0,0,1-1.94,2.36,8.8,8.8,0,0,1-6,.32,2.67,2.67,0,0,1-.34-5.11,4.63,4.63,0,0,0,.43-.24c-1.09-1.59-1.06-1.85.29-3.34a11.28,11.28,0,0,1-1.45-2.2,3.48,3.48,0,0,1,3.36-4.71c1.76-.05,3.52.1,5.28.19.14,0,.27.16.39.3l.13.12-.22.3a.5.5,0,0,1-.25.21,8.85,8.85,0,0,1-1.33.24A14.07,14.07,0,0,1,239.94,303.1Zm38.95-76.57v4.18H260.77v-1.22c1.31,0,1.69-.92,2-1.87a7,7,0,0,0,.19-1.78q0-8,0-16a6.71,6.71,0,0,0-.16-1.48,1.77,1.77,0,0,0-1.66-1.6c-.58,0-.71-.38-.59-.79.08-.25.43-.59.66-.59,3,0,6,0,9,0a1.07,1.07,0,0,1,.71.64c.16.47-.12.74-.64.73a2.15,2.15,0,0,0-2.16,2.27q0,10,0,20.09a.64.64,0,0,0,.06.18,6.35,6.35,0,0,0,3.78-.15,8.76,8.76,0,0,0,3.38-2.13l.05,0a8.37,8.37,0,0,0,.57-.62,8.92,8.92,0,0,0,1.35-2.18,8.68,8.68,0,0,0,.53-1.66l1.08-.09Zm-2.24-42.6a8,8,0,0,1-6,2.24c-5.54,0-11.07,0-16.6,0-18.67,0-37.33-.08-56,0-5.77,0-8.17-4-8.41-8.26-.06-1,0-2,0-3V45.48h18.51v2.1q0,50.39,0,100.79,0,13.24,0,26.5a10.61,10.61,0,0,0,.06,1.49,4.22,4.22,0,0,0,4,4,17.3,17.3,0,0,0,2.59.22c6.83,0,13.66.1,20.49,0s13.84-.82,20.46-3.13a28.32,28.32,0,0,0,15.16-11.63,37.52,37.52,0,0,0,5.21-13.95c.54-3.14.84-6.32,1.27-9.59h1.79V177A9.36,9.36,0,0,1,276.65,183.93Z"/><path d="M271.93,229.14a6.35,6.35,0,0,1-3.78.15.64.64,0,0,1-.06-.18.64.64,0,0,0,.06.18A6.35,6.35,0,0,0,271.93,229.14Z"/><path d="M100.9,131.88c7.3,0,14.6,0,21.9,0s14.8,0,22.2,0c.95,0,1.16-.29,1.14-1.18a87.71,87.71,0,0,0-2.25-19.11c-1.28-5.28-3.08-10.34-6.41-14.74-5.7-7.52-15.67-9.39-23.49-2.94a32.06,32.06,0,0,0-7.71,9.47c-4.66,8.5-6.34,17.73-6.62,27.3C99.63,131.68,100,131.89,100.9,131.88Z"/><path d="M122.8,131.86c-7.3,0-14.6,0-21.9,0,7.3,0,14.6,0,21.9,0s14.8,0,22.2,0C137.6,131.84,130.2,131.86,122.8,131.86Z"/><path d="M144,216a43.81,43.81,0,0,0-1-6.27c-.56-2.06-1.93-2.86-4-2.91a4,4,0,0,0-4.2,2.74,8.12,8.12,0,0,0-.5,1.61,38.54,38.54,0,0,0-.45,11.24,23.26,23.26,0,0,0,1,4.66,3.53,3.53,0,0,0,3.2,2.49c2.84.39,4.65-.66,5.29-3.44.52-2.23.68-4.53,1-6.79l-.24,0A27.94,27.94,0,0,0,144,216Z"/><path d="M125.29,303.86a11.33,11.33,0,0,0-2.46-.29c-2.54-.05-2.54,0-2.54,2.46v.3c0,.73,0,1.46,0,2.19,0,.23.29.62.43.62a34,34,0,0,0,4.74-.34c1.09-.2,1.61-1.32,1.56-2.6A2.16,2.16,0,0,0,125.29,303.86Z"/><path d="M125,302c1.18-.19,1.67-1.08,1.64-2.38a1.88,1.88,0,0,0-1.67-2,31.78,31.78,0,0,0-4.15-.24c-.17,0-.48.36-.49.55,0,1.39,0,2.78,0,4.43C122,302.24,123.49,302.25,125,302Z"/><path d="M232.54,312.27a1.58,1.58,0,0,0,1.38,1.79,9.88,9.88,0,0,0,2.87.12,5.54,5.54,0,0,0,2.19-.84,1.68,1.68,0,0,0,.62-1.95,1.43,1.43,0,0,0-1.51-1.06c-.63-.05-1.26-.07-1.89-.1v0h-1.6a2.07,2.07,0,0,0-.49.07A1.92,1.92,0,0,0,232.54,312.27Z"/><path d="M236.12,300.55c-1.76-.07-2.63.72-2.68,2.45s.76,2.44,2.43,2.49,2.54-.73,2.57-2.33S237.7,300.61,236.12,300.55Z"/><path d="M179.62,300.73c-1.56-.05-2.78.58-3,2a16.55,16.55,0,0,0-.06,4.61,2.38,2.38,0,0,0,2.16,2.05,3.05,3.05,0,0,0,3.86-3.13c0-.36,0-.73,0-1.09h.08c-.09-.72-.12-1.46-.28-2.16A2.64,2.64,0,0,0,179.62,300.73Z"/><path d="M156.8,248.33c-.35-2.13-1.86-3.09-4.15-3.06a3.79,3.79,0,0,0-3.94,3.15c-.15.68-.2,1.38-.3,2.09.1.69.16,1.39.32,2.06a3.78,3.78,0,0,0,3.81,3.06c2.22.07,3.71-.77,4.15-2.79A12.44,12.44,0,0,0,156.8,248.33Z"/><path d="M140.33,305.64a1.91,1.91,0,0,0-1.26,2.33,1.73,1.73,0,0,0,1.85,1.47c2.59.18,4.07-1.6,3.46-4.45C143,305.2,141.65,305.31,140.33,305.64Z"/><path d="M133.77,248.57a2.27,2.27,0,0,0-.66-2.54,5.16,5.16,0,0,0-4-.48c-.23,0-.25,1.33-.35,2a1.48,1.48,0,0,0,0,.3h0c0,.53,0,1.06,0,1.59s.17.86.79.83,1.53,0,2.28-.09A2.06,2.06,0,0,0,133.77,248.57Z"/><path d="M195.65,251.4c-.7-1.87-1.35-3.64-2.08-5.6l-2.08,5.6Z"/></svg>