<svg id="Layer_1" data-name="Layer 1" xmlns="http://www.w3.org/2000/svg" viewBox="0 0 360 360"><title>horison-h-dark</title><path d="M185.58,130.55a10.73,10.73,0,0,0,1.23.25,8.14,8.14,0,0,1,6.15,7,7.75,7.75,0,0,1-3,7.4A8.58,8.58,0,0,1,176.32,141a8.18,8.18,0,0,1,5-9.88,9.22,9.22,0,0,0,1.58-.55Z"/><path d="M.32,229a16.39,16.39,0,0,1,2.05-1.44q8-5.28,16.45-9.72A229,229,0,0,1,45.3,206c8.54-3.2,17.21-5.94,26-8.29,6.14-1.64,12.34-3.08,18.57-4.36,3.86-.8,7.74-1.51,11.63-2.17,3-.49,5.94-1,8.91-1.41,2.34-.35,4.69-.64,7-.94s4.55-.59,6.83-.85,4.31-.43,6.48-.63c2.52-.24,5.05-.48,7.58-.7,1.58-.13,3.15-.23,4.73-.33,2.83-.18,5.66-.38,8.5-.48,1.7-.07,3.4-.2,5.1-.26,2.05-.07,4.1-.12,6.15-.21s4.3-.05,6.44-.13c5.81-.2,11.62-.11,17.42-.07,3.06,0,6.12.18,9.18.29,2,.07,4,.16,5.92.29,2.86.19,5.72.28,8.57.53,1.75.15,3.5.22,5.25.35,1.52.11,3,.26,4.57.39,1.3.12,2.6.21,3.9.34,1.85.17,3.68.36,5.52.55,1.55.16,3.1.31,4.64.49,1.84.21,3.67.44,5.51.68,1.59.2,3.17.42,4.76.64,2.2.3,4.4.6,6.59.94s4.52.76,6.78,1.12c3.1.5,6.17,1.09,9.24,1.69,4.74.93,9.47,2,14.16,3.09q9.61,2.33,19,5.22,10.65,3.3,21,7.44,6.39,2.57,12.62,5.51a210.35,210.35,0,0,1,25.42,14.16c.19.12.41.2.48.43h0a5.2,5.2,0,0,1-1.42-.59q-11.52-5.53-23.45-10.12-10.16-3.93-20.54-7.18c-7.58-2.39-15.23-4.5-22.95-6.39q-8.4-2-16.9-3.7c-4-.78-8-1.51-12.08-2.16-3.61-.58-7.21-1.13-10.83-1.63-2.63-.36-5.27-.72-7.92-1-2.42-.28-4.84-.58-7.27-.84-1.76-.19-3.54-.33-5.3-.49-2-.19-4.08-.39-6.12-.55-1.62-.14-3.25-.23-4.87-.34l-6-.41c-.93-.06-1.87-.07-2.81-.14-1.57-.11-3.15-.12-4.73-.2-3.5-.15-7-.22-10.51-.34-3.07-.1-6.13-.1-9.19-.1-5.46,0-10.93,0-16.39.06-2.24,0-4.49,0-6.74.14-1.58.09-3.16.07-4.74.13-2.49.09-5,.17-7.47.31l-6,.29c-2.39.12-4.78.28-7.17.44-2,.14-4,.28-6,.44-2.58.22-5.15.46-7.73.7-2.24.21-4.47.4-6.71.64s-4.75.55-7.12.84c-2.13.25-4.26.5-6.39.79s-4.43.66-6.65,1-4.49.68-6.72,1.06c-2.46.41-4.91.85-7.36,1.3q-5.62,1-11.23,2.27Q61.27,206,50.14,209.21c-8.39,2.46-16.66,5.25-24.78,8.47C20.12,219.76,15,222,9.87,224.4q-4.42,2.1-8.75,4.37a1.82,1.82,0,0,1-.75.3Z"/><path d="M105.73,182.48a9.56,9.56,0,0,1-1.6-.18,60.57,60.57,0,0,0-8.52.08c-.49,0-1,0-1.48.07s-.43-.27-.48-.56.07-.44.39-.47a6.72,6.72,0,0,0,1.59-.33,2.43,2.43,0,0,0,1.72-1.86,9.58,9.58,0,0,0,.25-1.84c.17-3.7.36-7.4.23-11.1,0-.72,0-.58-.61-.62-2.81-.2-5.63-.11-8.45-.14-3.73-.05-7.46-.07-11.19-.08-1.53,0-3.06,0-4.59.06-.54,0-.55,0-.57.59-.17,3.55-.17,7.11-.13,10.67a14.09,14.09,0,0,0,.25,2.58A2.09,2.09,0,0,0,74,181a13.82,13.82,0,0,0,2.07.57l.71.16a1.84,1.84,0,0,1,0,.87c-1-.06-2-.11-3-.19a51,51,0,0,0-8.29,0l-.44,0c-1,.06-1,.06-1.23-.93l1.36-.23a7.7,7.7,0,0,0,1.42-.41,1.55,1.55,0,0,0,1.06-1.29A32.61,32.61,0,0,0,68,175.9c.32-4.61.37-9.23.39-13.85,0-2.5.09-5,0-7.49a22.43,22.43,0,0,0-.23-3.17c0-.27-.1-.54-.17-.8a2.33,2.33,0,0,0-1.87-1.79,6.46,6.46,0,0,0-1.32-.18c-.21,0-.45,0-.45-.33s.08-.61.47-.67a17.28,17.28,0,0,1,2.88-.19c1.53,0,3.06.15,4.59.23,1.36.06,2.71,0,4.07,0h.74a.23.23,0,0,1,.23.15.6.6,0,0,1-.47.88l-2.12.33a1.8,1.8,0,0,0-1.57,1.55c-.18.87-.3,1.75-.42,2.63a73,73,0,0,0-.3,9.92c0,.53,0,.54.6.54H83.84q5.89,0,11.79,0c.54,0,1.08-.06,1.62-.1s.65-.07.65-.69c0-1.63,0-3.26,0-4.89s0-3.21,0-4.82a10.33,10.33,0,0,0-.27-2.35,2.42,2.42,0,0,0-1.91-1.94c-.6-.13-1.2-.28-1.8-.42s-.48-.15-.43-.7.35-.39.63-.35c1.06.14,2.11.24,3.17.32a37.48,37.48,0,0,0,4.37,0c1.21-.06,2.42-.09,3.63-.16.35,0,.4.17.46.43s-.07.39-.33.45-.8.24-1.2.38a2.39,2.39,0,0,0-1.58,1.72,12.61,12.61,0,0,0-.4,2.93c-.18,5-.25,9.92-.35,14.89-.06,2.47-.14,4.94-.08,7.41a16.72,16.72,0,0,0,.39,3.52,2.63,2.63,0,0,0,2.2,2.21l.79.17C105.85,181.76,105.85,181.76,105.73,182.48Z"/><path d="M177.85,182.13c-.25,0-.35.17-.48.27a7.52,7.52,0,0,1-7.89,1,15,15,0,0,1-4.84-3.47,66.5,66.5,0,0,1-4.29-5.2c-1.36-1.66-2.61-3.42-3.88-5.15a1,1,0,0,0-.91-.47,34,34,0,0,1-4.28-.23c-.16.21-.09.44-.09.65,0,2.37-.07,4.74,0,7.12a21.86,21.86,0,0,0,.27,3,1.93,1.93,0,0,0,1.61,1.78c.46.09.9.24,1.35.37.24.06.41.18.36.47s-.23.35-.49.32-.73-.07-1.1-.13a28.34,28.34,0,0,0-7.53,0c-.31,0-.7.18-.8-.26s.3-.53.61-.58c1.75-.28,2.28-1.49,2.44-3s.17-3,.18-4.44c0-3.31,0-6.63,0-9.94,0-1.7,0-3.41,0-5.11a10.68,10.68,0,0,0-.2-1.69,2,2,0,0,0-1.73-1.77c-.3,0-.58-.12-.88-.15s-.36-.15-.33-.43.19-.35.44-.35a33.66,33.66,0,0,0,3.48,0l5.55-.41a15.13,15.13,0,0,1,7,.83,8.88,8.88,0,0,1,3.18,2.12,6.18,6.18,0,0,1-.09,8.74,10.3,10.3,0,0,1-3.56,2.34l-.72.3c-.1.1,0,.16,0,.21,1.85,2.65,3.66,5.34,5.71,7.85a32.13,32.13,0,0,0,3.24,3.46,8.85,8.85,0,0,0,3.63,2.07,5.86,5.86,0,0,0,4.64-.65,10,10,0,0,1,1.17-.62c-.09.42-.44.66-.74,1a9.62,9.62,0,0,0,3.34-.47,2.24,2.24,0,0,0,1.42-1.51,11.64,11.64,0,0,0,.44-2.55c.2-2.29.2-4.59.23-6.88,0-4.06-.07-8.11-.23-12.16,0-.46-.09-.93-.15-1.39a2.07,2.07,0,0,0-1.65-1.87,9.41,9.41,0,0,0-2.64-.32c-.35,0-.48-.09-.46-.45,0-.56,0-.57.59-.52a83.2,83.2,0,0,0,11.92,0,3.31,3.31,0,0,1,.44,0c.07,0,.17.05.18.1a1.45,1.45,0,0,1,0,.8c-.08.24-.33.17-.51.18a13.79,13.79,0,0,0-1.93.11,1.91,1.91,0,0,0-1.78,1.78,24.54,24.54,0,0,0-.41,4.35c-.13,5.51-.12,11,0,16.53a22.43,22.43,0,0,0,.21,2.58,1.64,1.64,0,0,0,1.25,1.4,6.73,6.73,0,0,0,1.6.29l.89,0c.23,0,.51-.07.49.35s0,.53-.49.52c-1.21,0-2.42,0-3.63-.07-2.74-.09-5.48,0-8.22.07h-.23c-.6,0-.6,0-.65-.63A1.28,1.28,0,0,0,177.85,182.13ZM151.32,163c0,1.2,0,2.64,0,4.07,0,.41.15.54.53.6a19.21,19.21,0,0,0,4.79.16,9.71,9.71,0,0,0,3-.7,4.92,4.92,0,0,0,3.12-3.66,7.15,7.15,0,0,0-4.67-7.9,8.61,8.61,0,0,0-4.53-.2c-1.64.32-1.8.53-2,2.16S151.45,161.05,151.32,163Z"/><path d="M259.26,154.46c0,1.76-.08,3.36-.11,5-.1,4.82-.28,9.64-.31,14.45a21.86,21.86,0,0,0,.31,4.28,6.16,6.16,0,0,0,.27.93,2.86,2.86,0,0,0,1.75,1.78,22.76,22.76,0,0,0,3.79,1,.64.64,0,0,1,.47,1c-.13.25-.34.17-.52.17l-4.15-.18c-1.63-.07-3.26,0-4.88.12l-2.37.17a2.25,2.25,0,0,1-.44,0c-.36-.08-.44-.34-.45-.67a.49.49,0,0,1,.49-.54c.41-.07.83-.12,1.24-.18a2.14,2.14,0,0,0,1.82-1.54,11.61,11.61,0,0,0,.46-2.62c.17-1.8.16-3.6.18-5.41.08-4.84.17-9.68.2-14.52a20.15,20.15,0,0,0-.37-4.65.17.17,0,0,0,0-.07,4.55,4.55,0,0,0-4.09-3.81c-.6-.1-.79-.4-.63-1,0-.11.08-.18.19-.18a4.51,4.51,0,0,1,.52,0,44,44,0,0,0,6.29.11.8.8,0,0,1,.78.27,91.37,91.37,0,0,0,8.83,8.88c6.49,6,13.13,11.79,19.69,17.68a.94.94,0,0,0,.46.31,1.69,1.69,0,0,0,.11-.83c0-1.66.09-3.31.1-5,0-3.38.05-6.77,0-10.15a54.1,54.1,0,0,0-.23-5.7,8.31,8.31,0,0,0-.51-2.31,3.15,3.15,0,0,0-2.21-2c-.93-.25-1.88-.38-2.82-.58.2-.82.2-.82,1-.85a30,30,0,0,1,3.55.1,59.38,59.38,0,0,0,6.67.08l.3,0c.27,0,.42.09.39.38s.18.6-.33.65a7.67,7.67,0,0,0-1.15.27,2.6,2.6,0,0,0-2,2,15.85,15.85,0,0,0-.4,2.56c-.3,3.15-.38,6.31-.45,9.47-.1,4.27-.2,8.55-.09,12.82.05,2.15,0,4.3.21,6.45,0,.29,0,.58,0,.93a2.73,2.73,0,0,1-.7,0,.61.61,0,0,1-.58-.37,30.52,30.52,0,0,0-4.9-6c-3.06-3.13-6.38-6-9.66-8.88-2.36-2.07-4.69-4.18-7.08-6.21-2.78-2.38-5.52-4.8-8.27-7.21C259.59,154.71,259.49,154.64,259.26,154.46Z"/><path d="M142.18,168.1c-.19,5.05-2.87,9.47-8,12.41a17.65,17.65,0,0,1-10.64,2.15,15.73,15.73,0,0,1-13.86-12.42,13.56,13.56,0,0,1,2.73-11.57,16.78,16.78,0,0,1,11.18-6.48,16.26,16.26,0,0,1,14.3,4.72C140.8,159.72,142.16,163.23,142.18,168.1Zm-3.77,1c0-.51,0-1,0-1.55a9.52,9.52,0,0,0-.15-1.18,15.57,15.57,0,0,0-5.54-9.84,12.26,12.26,0,0,0-9.68-2.81,11.32,11.32,0,0,0-10,10.9,15.23,15.23,0,0,0,2.68,9.74c2.6,3.8,6.07,6.31,10.77,6.64a10.47,10.47,0,0,0,10.28-5.16A11.78,11.78,0,0,0,138.41,169.11Z"/><path d="M233.45,153.47c5.3.21,9.78,2.14,13,6.48a14.43,14.43,0,0,1-3.69,20.39,17.18,17.18,0,0,1-9.82,3,15.38,15.38,0,0,1-15.68-13.2,13,13,0,0,1,3-10.43,16.82,16.82,0,0,1,10.69-6.08c.29,0,.58-.09.88-.11C232.36,153.51,232.91,153.49,233.45,153.47Zm.3,28.31c5.83,0,9.92-3,11.25-7.71a16,16,0,0,0-5.31-16.31,11.94,11.94,0,0,0-11.1-2.22,11.11,11.11,0,0,0-8,10.82,15.22,15.22,0,0,0,5,11.68A12.61,12.61,0,0,0,233.75,181.78Z"/><path d="M205,153.84a20.59,20.59,0,0,1,5.07.5,2.86,2.86,0,0,0,2.22-.25,1,1,0,0,1,.34-.13c.32-.05.44,0,.41.4,0,.51-.08,1-.17,1.54a13.35,13.35,0,0,0,.07,3.84c0,.12,0,.24,0,.37s0,.39-.28.39-.46.09-.5-.26a7.45,7.45,0,0,0-.14-.8,5.35,5.35,0,0,0-3.29-3.76,11,11,0,0,0-7.53-.58,4,4,0,0,0-2.58,2.06,7.14,7.14,0,0,0-.91,2.56,4.87,4.87,0,0,0,2.09,4.7,11.1,11.1,0,0,0,2.49,1.29c1.86.78,3.79,1.41,5.64,2.21a13.44,13.44,0,0,1,4.19,2.72,7,7,0,0,1-1.45,10.86,12.1,12.1,0,0,1-4.82,1.56,25.39,25.39,0,0,1-8.81-.68,5.91,5.91,0,0,0-1.17-.23c-.27,0-.52.07-.53.38,0,.54-.4.29-.65.3s-.36-.16-.36-.42a23.58,23.58,0,0,0-1.15-6.61c-.13-.42,0-.51.37-.59s.34.11.41.3c.21.58.43,1.16.63,1.74a4.66,4.66,0,0,0,2.64,2.84,18.73,18.73,0,0,0,7,1.83,10.35,10.35,0,0,0,4.33-.8,3.33,3.33,0,0,0,2-2.29,6.8,6.8,0,0,0,0-4,5.21,5.21,0,0,0-2-2.69,15.63,15.63,0,0,0-3.29-1.66c-1.56-.62-3.17-1.1-4.7-1.78a14.49,14.49,0,0,1-3-1.65,6.24,6.24,0,0,1-2.78-4.37,7.19,7.19,0,0,1,3.57-7.34,10.6,10.6,0,0,1,5-1.47C203.9,153.81,204.45,153.84,205,153.84Z"/><path d="M111.23,211.22l.56.44a4,4,0,0,1,1.39,4.38,3.71,3.71,0,0,1-3.14,2.78,5.09,5.09,0,0,1-1,.13h-8.23c-.51,0-.52,0-.52-.52,0-4.23,0-8.45,0-12.68a3.31,3.31,0,0,1,0-.34.85.85,0,0,1,.53-.08h7.34a6.6,6.6,0,0,1,1.83.22,3.25,3.25,0,0,1,1.45,5.47Zm-5.35,6.13h3.33a2.17,2.17,0,0,0,1.86-.9,2.81,2.81,0,0,0,.2-2.89,2.21,2.21,0,0,0-2.17-1.27c-2.23,0-4.45,0-6.67,0-.34,0-.48.06-.48.44,0,1.39,0,2.77,0,4.15,0,.42.16.49.52.49C103.6,217.34,104.74,217.35,105.88,217.35Zm-.27-10.42H102.5c-.53,0-.53,0-.54.52v2.67c0,.57,0,.58.63.58h5.77a4.89,4.89,0,0,0,.66,0,1.86,1.86,0,0,0,.06-3.68,3.66,3.66,0,0,0-.66,0Z"/><path d="M172.19,212.12V205.9c0-.57,0-.58.55-.58,1.78,0,3.56,0,5.34,0a8.53,8.53,0,0,1,2.55.39,6.39,6.39,0,0,1,4.5,5.76,8.07,8.07,0,0,1-.2,2.64,6.15,6.15,0,0,1-5.1,4.67A9.57,9.57,0,0,1,178,219h-5.26c-.52,0-.53,0-.53-.52Zm1.69,0v4.74c0,.3.05.45.4.45,1.53,0,3.07,0,4.59-.06a4.64,4.64,0,0,0,4.27-3.34,6.31,6.31,0,0,0,.23-2.12,4.89,4.89,0,0,0-4.91-4.9c-1.36,0-2.72,0-4.08,0-.38,0-.51.09-.51.49C173.89,209,173.88,210.58,173.88,212.17Z"/><path d="M255.24,208.24l-1.29.93c-.24,0-.28-.22-.37-.35a5,5,0,0,0-5.48-2,4.83,4.83,0,0,0-3.9,3.91,5.57,5.57,0,0,0,1.54,5.64,5.29,5.29,0,0,0,7.78-.76,1.52,1.52,0,0,0,.24-1.05c0-.39.16-.88-.08-1.14s-.75-.09-1.14-.1q-1,0-2.07,0c-.33,0-.41-.13-.42-.43-.05-1.17-.06-1.17,1.07-1.17,1.28,0,2.57,0,3.85,0,.4,0,.5.13.49.5,0,1.09,0,2.18,0,3.26a1.37,1.37,0,0,1-.24.76,7.22,7.22,0,0,1-11.77.11,7.24,7.24,0,0,1-1.07-5.53,6.39,6.39,0,0,1,4.53-5.36,7,7,0,0,1,7.56,1.78A3.44,3.44,0,0,1,255.24,208.24Z"/><path d="M221.19,209v9.4c0,.57,0,.57-.55.58-1.14,0-1.14,0-1.14-1.11V205.4a1.08,1.08,0,0,1,1.36.45c2.61,3,5.24,6.05,7.87,9.08l.35.37c.2-.22.12-.46.12-.66V206c0-.68,0-.64.64-.64,1.09,0,1.09,0,1.09,1.1V218a2.29,2.29,0,0,1,0,.37c0,.19.14.5-.17.56a.88.88,0,0,1-.84-.11l-.34-.39-7.89-9.06A1.09,1.09,0,0,0,221.19,209Z"/><path d="M150,209v.73c0,2.84,0,5.69,0,8.53,0,.79.07.69-.65.7-1,0-1,0-1-1.06V206.25c0-.13,0-.25,0-.37s-.09-.48.13-.53a.92.92,0,0,1,.85.09,4.09,4.09,0,0,1,.39.44l7.69,8.85.49.55c.24-.17.13-.41.14-.61v-9c0-.22.11-.31.32-.3h.15c1.26,0,1.26,0,1.26,1.21,0,3.86,0,7.72,0,11.57a1.8,1.8,0,0,1-.06.8,1.13,1.13,0,0,1-1.28-.45c-2.6-3-5.22-6-7.83-9A1,1,0,0,0,150,209Z"/><path d="M137.88,218.93c-.69,0-1.32.19-1.79-.06s-.52-.87-.77-1.32c-.34-.63-.65-1.27-1-1.92a.57.57,0,0,0-.58-.36c-2.22,0-4.44,0-6.67,0a.6.6,0,0,0-.61.42c-.44.93-.93,1.85-1.36,2.79a.68.68,0,0,1-.79.47c-.39,0-.78,0-1.17,0a1,1,0,0,1,.2-.66l6.09-12.43c.1-.19.14-.49.37-.51a4.75,4.75,0,0,1,1.25,0c.13,0,.23.31.32.48q2.46,5,4.93,10C136.84,216.81,137.34,217.82,137.88,218.93Zm-4.48-5.28-3-5.93c-1,2-2,3.92-2.91,5.93Z"/><path d="M207.36,210.43c0,1.41,0,2.82,0,4.23a7.19,7.19,0,0,1-.16,1.47,3.39,3.39,0,0,1-2.54,2.8,11,11,0,0,1-5.5.09c-2-.48-3-1.79-3-4.08,0-.89,0-1.78,0-2.67v-6.38c0-.56,0-.56.57-.57,1.16,0,1.16,0,1.16,1.16v7.71a6.39,6.39,0,0,0,.18,1.69,2,2,0,0,0,1.51,1.56,9.32,9.32,0,0,0,4.33,0,2,2,0,0,0,1.57-1.59,6.88,6.88,0,0,0,.17-1.69V206c0-.72-.06-.7.66-.7,1.07,0,1.07,0,1.07,1Z"/><path d="M263.45,135.25c-.34,2.47-.69,4.94-1,7.41-.06.39-.12.78-.16,1.17s-.19.95.37,1.23h-1.84a1.2,1.2,0,0,0,.91-1.19c.43-3.18.89-6.35,1.34-9.53.14-1-.2-1.5-1.28-1.81a11.73,11.73,0,0,1,2.19-.08c.3,0,.32.26.4.46q1.33,3.09,2.66,6.18l1.52,3.51a1.57,1.57,0,0,0,.39-.71c1.28-2.94,2.56-5.87,3.8-8.83a.83.83,0,0,1,1-.62c.39,0,.78,0,1.36,0-.43.24-.78.28-.92.6a1.79,1.79,0,0,0-.1,1q.66,4.69,1.3,9.39c0,.15.07.29.08.44a1.24,1.24,0,0,0,.72,1.13h-2.57c.44-.22.45-.6.4-1q-.62-4.36-1.22-8.73a.35.35,0,0,0-.22-.33l-4.43,10.2-4.36-9.93a.4.4,0,0,0-.24-.41A.54.54,0,0,0,263.45,135.25Z"/><path d="M212.31,132.54c-.73.21-.78.26-.78,1v10.16c0,.88,0,.9.86,1.33h-2c-.26,0-.35-.1-.35-.35,0-.46,0-.92,0-1.51-.31.25-.5.42-.7.59a5.52,5.52,0,0,1-4.64,1.26,3.6,3.6,0,0,1-3.09-3.84c0-2.37,0-4.74,0-7.12,0-.19,0-.39,0-.59,0-.74-.06-.79-.92-1a20.49,20.49,0,0,1,3.24,0c-.23.11-.52.07-.67.31a1.32,1.32,0,0,0-.17.78c0,2.35,0,4.7,0,7a5.88,5.88,0,0,0,.16,1.32,3.31,3.31,0,0,0,4.42,2.3,5.11,5.11,0,0,0,2.14-1.41.8.8,0,0,0,.23-.59c0-2.89,0-5.78,0-8.67,0-.77-.1-.86-.76-1.06A11,11,0,0,1,212.31,132.54Z"/><path d="M294.31,145.05h-2.8c.46-.28.37-.63.23-1-.59-1.46-1.19-2.92-1.77-4.39a.55.55,0,0,0-.6-.41c-.93,0-1.87,0-2.81,0a.52.52,0,0,0-.61.38c-.58,1.5-1.18,3-1.78,4.47-.14.34-.24.65.25.93h-1.73c.71-.29.9-1,1.15-1.57L288,132.9a1.44,1.44,0,0,1,.34-.66c.29,0,.28.31.36.49q2.13,5.24,4.24,10.49c0,.09.07.18.11.27A2.24,2.24,0,0,0,294.31,145.05ZM288,134.83h-.16c-.52,1.33-1.05,2.65-1.58,4h3.32Z"/><path d="M234,133.44l-.5-1.28a1.54,1.54,0,0,0,1,.28h8.38A1.36,1.36,0,0,0,244,132a9,9,0,0,1-.59,1.51c-.17-.61-.17-.63-.71-.63-.92,0-1.83,0-2.75,0-.37,0-.51.1-.5.5,0,1.83,0,3.65,0,5.48,0,1.66,0,3.31,0,5,0,.81.11.91,1,1.2h-3.37c.27-.23.68-.16.8-.5a2.4,2.4,0,0,0,.08-.88V133.48c0-.63,0-.61-.6-.61h-2.74A.57.57,0,0,0,234,133.44Z"/><path d="M222.76,132.51c-.76.22-.83.29-.83,1.06,0,3,0,6,0,9a1.67,1.67,0,0,0,1.72,2,12.46,12.46,0,0,0,2.59,0,1.7,1.7,0,0,0,1.71-1.55,2.76,2.76,0,0,1,.25-.9v2.63c0,.22-.11.31-.32.29h-8.35c.33-.25.7-.21.83-.55a2.76,2.76,0,0,0,.07-1q0-4.81,0-9.63v-.37c0-.74-.08-.82-.91-1.08A24.76,24.76,0,0,1,222.76,132.51Z"/><path d="M250.85,145c.73-.34.75-.34.78-1.2s0-2,0-3q0-3.14,0-6.29c0-.37,0-.74,0-1.11-.06-.61-.1-.64-.73-.86a22.32,22.32,0,0,1,3.19,0c-.9.29-.95.34-.95,1.25q0,3.48,0,7v3.18c0,.57.15,1,.82,1.15Z"/><path d="M263.45,135.25a.54.54,0,0,1,.05-.43.4.4,0,0,1,.24.41Z"/><path d="M.37,229.07c-.1.12-.19.27-.43.2A.48.48,0,0,1,.32,229Z"/><path d="M359.86,229.32l.2.05s0,.08-.06.08a.15.15,0,0,1-.15-.12Z"/></svg>