<svg id="Layer_1" data-name="Layer 1" xmlns="http://www.w3.org/2000/svg" viewBox="0 0 600 120"><defs><style>.cls-1{fill:#fff;}</style></defs><title>horison-v-light</title><path class="cls-1" d="M306.72,1.05a14.76,14.76,0,0,0,1.47.31c4.16,1.3,6.78,4,7.4,8.37a9.32,9.32,0,0,1-3.64,8.9,10.31,10.31,0,0,1-16.37-5,9.83,9.83,0,0,1,6-11.87,11,11,0,0,0,1.9-.67Z"/><path class="cls-1" d="M83.89,119.48a19.27,19.27,0,0,1,2.47-1.74c6.4-4.23,13-8.11,19.78-11.7A275.06,275.06,0,0,1,138,91.8c10.26-3.85,20.69-7.14,31.28-10q11.1-3,22.34-5.25,7-1.44,14-2.6c3.57-.6,7.14-1.18,10.72-1.71,2.81-.41,5.64-.76,8.46-1.13s5.47-.71,8.21-1,5.2-.52,7.8-.77q4.56-.44,9.12-.83c1.9-.16,3.79-.28,5.69-.4,3.4-.22,6.81-.46,10.22-.58,2.05-.08,4.09-.23,6.14-.31,2.46-.09,4.93-.15,7.39-.25s5.17-.07,7.75-.16c7-.24,14-.14,20.95-.08,3.68,0,7.36.21,11,.35,2.38.08,4.75.18,7.12.34,3.44.23,6.88.34,10.31.64,2.1.18,4.2.26,6.31.42,1.83.13,3.66.31,5.49.47,1.57.14,3.14.26,4.7.41,2.22.21,4.43.44,6.64.66,1.86.19,3.72.38,5.58.59,2.21.26,4.41.53,6.62.81l5.73.77c2.64.37,5.29.73,7.93,1.13s5.43.92,8.16,1.36c3.71.6,7.41,1.3,11.11,2q8.55,1.68,17,3.72,11.55,2.79,22.91,6.28,12.81,3.94,25.26,8.94,7.68,3.09,15.18,6.63a254.93,254.93,0,0,1,30.57,17c.22.15.48.25.57.53h0a6.41,6.41,0,0,1-1.71-.72c-9.24-4.44-18.65-8.47-28.21-12.16q-12.19-4.73-24.7-8.64Q448,94,434.09,90.66,424,88.2,413.76,86.21c-4.83-.94-9.67-1.82-14.53-2.6q-6.5-1-13-2c-3.17-.44-6.35-.87-9.53-1.23-2.92-.34-5.83-.7-8.75-1-2.12-.23-4.25-.4-6.38-.59-2.45-.22-4.9-.46-7.35-.66-1.95-.16-3.91-.27-5.87-.41l-7.19-.49c-1.12-.07-2.25-.09-3.38-.17-1.89-.13-3.8-.15-5.7-.24-4.21-.19-8.43-.27-12.64-.41-3.68-.12-7.37-.12-11.05-.13-6.57,0-13.14,0-19.71.08-2.7,0-5.4,0-8.1.17-1.9.1-3.8.09-5.7.16-3,.11-6,.21-9,.36-2.4.13-4.81.24-7.21.36-2.87.14-5.74.34-8.62.53-2.4.16-4.79.33-7.19.53-3.1.26-6.2.55-9.3.84-2.69.25-5.38.48-8.06.76-2.86.31-5.72.67-8.57,1-2.56.31-5.13.61-7.68,1s-5.34.8-8,1.17-5.39.83-8.08,1.28c-2.95.49-5.9,1-8.84,1.57-4.52.83-9,1.75-13.52,2.73q-13.61,3-27,6.84c-10.09,3-20,6.31-29.81,10.19-6.3,2.5-12.52,5.16-18.63,8.08-3.54,1.68-7.06,3.42-10.52,5.25a2.29,2.29,0,0,1-.9.37Z"/><path class="cls-1" d="M210.67,63.51a12.39,12.39,0,0,1-1.92-.21,71.42,71.42,0,0,0-10.24.09c-.6,0-1.19,0-1.78.09s-.53-.33-.59-.69.09-.52.47-.55a8.33,8.33,0,0,0,1.91-.4,2.9,2.9,0,0,0,2.07-2.24,11.1,11.1,0,0,0,.31-2.21c.19-4.45.42-8.9.27-13.36,0-.85,0-.69-.73-.74-3.38-.23-6.77-.12-10.16-.17Q183.55,43,176.82,43c-1.84,0-3.68,0-5.53.06-.65,0-.65,0-.68.72-.2,4.27-.21,8.55-.15,12.83a18,18,0,0,0,.29,3.1,2.51,2.51,0,0,0,1.71,2,17.51,17.51,0,0,0,2.48.69l.86.19a2.22,2.22,0,0,1-.07,1c-1.21-.08-2.42-.14-3.63-.24a61.46,61.46,0,0,0-10,0l-.53,0c-1.14.06-1.14.06-1.48-1.13l1.64-.28a9.47,9.47,0,0,0,1.71-.48A1.9,1.9,0,0,0,164.75,60a41.2,41.2,0,0,0,.49-4.42c.37-5.55.44-11.11.47-16.66,0-3,.1-6,0-9a27,27,0,0,0-.28-3.81,9.59,9.59,0,0,0-.21-1A2.8,2.8,0,0,0,163,23a8.57,8.57,0,0,0-1.59-.22c-.25,0-.55,0-.54-.39,0-.59.09-.74.56-.81a21.15,21.15,0,0,1,3.47-.23c1.84,0,3.68.18,5.52.28,1.63.08,3.26,0,4.89,0h.9a.27.27,0,0,1,.27.17.72.72,0,0,1-.56,1.06l-2.55.41a2.14,2.14,0,0,0-1.89,1.85c-.23,1.05-.37,2.11-.5,3.17a86.39,86.39,0,0,0-.37,11.93c0,.64,0,.65.72.65h13c4.72,0,9.45,0,14.17,0,.65,0,1.31-.07,2-.13s.77-.08.78-.82c0-2,0-3.93,0-5.89s0-3.86,0-5.79a12.28,12.28,0,0,0-.32-2.83A2.89,2.89,0,0,0,198.64,23c-.73-.16-1.45-.34-2.17-.52s-.58-.17-.52-.84.43-.46.76-.41c1.27.16,2.54.29,3.81.38a44,44,0,0,0,5.26,0c1.45-.08,2.91-.11,4.36-.2.43,0,.49.21.56.52s-.09.46-.4.54c-.49.13-1,.29-1.44.46a2.83,2.83,0,0,0-1.9,2.07,15.48,15.48,0,0,0-.49,3.52c-.21,6-.29,11.94-.42,17.91-.06,3-.17,5.94-.1,8.91a21.69,21.69,0,0,0,.48,4.24,3.16,3.16,0,0,0,2.64,2.65l1,.21C210.82,62.64,210.82,62.64,210.67,63.51Z"/><path class="cls-1" d="M297.41,63.09c-.3,0-.42.2-.58.32a9,9,0,0,1-9.48,1.2,18,18,0,0,1-5.83-4.18c-1.92-1.92-3.45-4.16-5.16-6.25s-3.13-4.12-4.66-6.2a1.16,1.16,0,0,0-1.09-.56,40.31,40.31,0,0,1-5.15-.28,1.14,1.14,0,0,0-.11.78c0,2.86-.09,5.71,0,8.56a26.19,26.19,0,0,0,.33,3.64,2.31,2.31,0,0,0,1.93,2.14c.55.1,1.09.29,1.63.44.28.08.49.22.43.57a.45.45,0,0,1-.58.39l-1.33-.16a33.52,33.52,0,0,0-9.06,0c-.38,0-.84.22-1-.32s.36-.64.73-.7c2.11-.33,2.75-1.78,2.93-3.66a53.05,53.05,0,0,0,.22-5.35c0-4,0-8,0-11.94,0-2,0-4.1,0-6.15a12.62,12.62,0,0,0-.24-2,2.38,2.38,0,0,0-2.09-2.12c-.35-.06-.7-.15-1-.18s-.43-.19-.4-.52.22-.43.53-.42a41.83,41.83,0,0,0,4.19,0l6.66-.48a18.16,18.16,0,0,1,8.42,1,10.58,10.58,0,0,1,3.82,2.54,7.43,7.43,0,0,1-.11,10.52,12.58,12.58,0,0,1-4.28,2.81l-.87.36a.18.18,0,0,0,0,.26c2.24,3.18,4.41,6.42,6.88,9.43A37.34,37.34,0,0,0,287,60.75a10.63,10.63,0,0,0,4.37,2.5,7.08,7.08,0,0,0,5.57-.79,13.46,13.46,0,0,1,1.41-.74c-.11.5-.53.79-.89,1.24a11.72,11.72,0,0,0,4-.55,2.71,2.71,0,0,0,1.7-1.82,13.36,13.36,0,0,0,.54-3.07c.23-2.75.24-5.52.27-8.28.06-4.87-.08-9.74-.27-14.61,0-.57-.11-1.13-.18-1.69a2.51,2.51,0,0,0-2-2.24,10.93,10.93,0,0,0-3.17-.38c-.43,0-.58-.11-.56-.55,0-.67,0-.68.72-.62a100.79,100.79,0,0,0,14.33,0,4.87,4.87,0,0,1,.54,0c.07,0,.2.06.21.11a1.69,1.69,0,0,1,0,1c-.09.28-.4.21-.62.21a14.85,14.85,0,0,0-2.31.14,2.29,2.29,0,0,0-2.15,2.14,29.68,29.68,0,0,0-.49,5.23c-.16,6.63-.15,13.25,0,19.88a25.07,25.07,0,0,0,.25,3.11,2,2,0,0,0,1.51,1.68,8.32,8.32,0,0,0,1.92.34c.36,0,.72,0,1.07.05s.62-.08.59.42-.06.64-.59.63c-1.45,0-2.91,0-4.36-.08-3.3-.11-6.6,0-9.9.08h-.26c-.74,0-.74,0-.79-.75A1,1,0,0,0,297.41,63.09Zm-31.9-23c0,1.44,0,3.17,0,4.89,0,.49.17.65.63.73a23.62,23.62,0,0,0,5.76.19,11.92,11.92,0,0,0,3.63-.84,6,6,0,0,0,3.75-4.41,8.61,8.61,0,0,0-5.62-9.5,10.4,10.4,0,0,0-5.45-.24c-2,.38-2.17.64-2.36,2.59S265.66,37.74,265.51,40.12Z"/><path class="cls-1" d="M395.33,29.81c-.05,2.12-.1,4.05-.14,6-.11,5.79-.33,11.58-.36,17.38a26.15,26.15,0,0,0,.36,5.15,8.67,8.67,0,0,0,.33,1.1,3.48,3.48,0,0,0,2.11,2.16,28.48,28.48,0,0,0,4.55,1.2.75.75,0,0,1,.56,1.21c-.15.3-.4.21-.62.2-1.66-.06-3.32-.14-5-.22-2-.08-3.92.05-5.88.16-.95,0-1.9.13-2.85.19a1.84,1.84,0,0,1-.52,0c-.44-.09-.54-.4-.55-.8a.6.6,0,0,1,.59-.65l1.5-.22a2.57,2.57,0,0,0,2.18-1.85,14,14,0,0,0,.56-3.15c.2-2.16.18-4.33.22-6.5.09-5.83.19-11.65.24-17.47a24.4,24.4,0,0,0-.45-5.59s0-.06,0-.08a5.43,5.43,0,0,0-4.91-4.58c-.72-.12-.95-.49-.76-1.21,0-.13.09-.22.23-.22s.41,0,.62,0a51.69,51.69,0,0,0,7.57.12,1,1,0,0,1,.94.33,109.15,109.15,0,0,0,10.61,10.68c7.81,7.19,15.79,14.18,23.69,21.27a1.09,1.09,0,0,0,.54.37,1.82,1.82,0,0,0,.14-1c.05-2,.11-4,.12-6,0-4.08.06-8.15,0-12.22a65.16,65.16,0,0,0-.28-6.85,10.55,10.55,0,0,0-.61-2.78,3.81,3.81,0,0,0-2.66-2.42c-1.12-.29-2.26-.46-3.39-.7.23-1,.23-1,1.19-1a35.82,35.82,0,0,1,4.27.12,71.54,71.54,0,0,0,8,.09l.36,0c.33,0,.51.11.47.46s.21.72-.4.78a8.36,8.36,0,0,0-1.38.32A3.13,3.13,0,0,0,434.21,26a18.85,18.85,0,0,0-.48,3.07c-.36,3.79-.46,7.6-.54,11.4-.12,5.14-.24,10.28-.11,15.42.07,2.58.05,5.17.26,7.75,0,.35,0,.71,0,1.12a3,3,0,0,1-.85,0,.73.73,0,0,1-.7-.44A37,37,0,0,0,425.9,57c-3.68-3.77-7.67-7.2-11.62-10.68-2.83-2.49-5.63-5-8.51-7.47-3.34-2.86-6.64-5.78-9.94-8.68Z"/><path class="cls-1" d="M254.52,46.21c-.23,6.08-3.46,11.39-9.57,14.93a21.25,21.25,0,0,1-12.8,2.59,18.93,18.93,0,0,1-16.67-14.94,16.26,16.26,0,0,1,3.29-13.91,20.18,20.18,0,0,1,13.45-7.8,19.53,19.53,0,0,1,17.19,5.68C252.86,36.13,254.49,40.36,254.52,46.21ZM250,47.43c0-.62,0-1.24,0-1.87a13.59,13.59,0,0,0-.18-1.41,18.78,18.78,0,0,0-6.66-11.84,14.73,14.73,0,0,0-11.64-3.38,13.61,13.61,0,0,0-12,13.11,18.28,18.28,0,0,0,3.22,11.72c3.12,4.56,7.3,7.58,13,8A12.58,12.58,0,0,0,248,55.54,14.13,14.13,0,0,0,250,47.43Z"/><path class="cls-1" d="M364.28,28.62c6.38.25,11.77,2.57,15.59,7.8a17.34,17.34,0,0,1-4.43,24.52,20.72,20.72,0,0,1-11.81,3.64A18.47,18.47,0,0,1,344.77,48.7a15.63,15.63,0,0,1,3.64-12.54,20.2,20.2,0,0,1,12.86-7.31c.35-.05.7-.11,1.05-.14Zm.36,34c7,0,11.94-3.57,13.53-9.26a18,18,0,0,0,.24-8.56,17.84,17.84,0,0,0-6.62-11.06,14.34,14.34,0,0,0-13.34-2.67,13.35,13.35,0,0,0-9.61,13,18.27,18.27,0,0,0,6,14.05C357.87,61,361.42,62.63,364.64,62.66Z"/><path class="cls-1" d="M330.06,29.07a25,25,0,0,1,6.1.6,3.43,3.43,0,0,0,2.66-.31,1.59,1.59,0,0,1,.41-.16c.39-.06.53.07.5.49-.06.62-.1,1.24-.21,1.85a16.25,16.25,0,0,0,.09,4.62c0,.15,0,.29.05.44s0,.48-.33.48-.55.1-.6-.32-.1-.64-.17-1a6.48,6.48,0,0,0-4-4.53,13.36,13.36,0,0,0-9.05-.69,4.78,4.78,0,0,0-3.11,2.48,8.48,8.48,0,0,0-1.09,3.08,5.87,5.87,0,0,0,2.51,5.65,13.92,13.92,0,0,0,3,1.55c2.25.94,4.56,1.69,6.79,2.66a16.09,16.09,0,0,1,5,3.27,8.44,8.44,0,0,1-1.74,13.06,14.4,14.4,0,0,1-5.8,1.87,30.76,30.76,0,0,1-10.6-.81,6.66,6.66,0,0,0-1.4-.27c-.33,0-.62.07-.64.45,0,.65-.48.35-.78.37s-.43-.2-.43-.52a28,28,0,0,0-1.4-8c-.14-.5,0-.61.45-.7.33-.07.42.13.5.36.25.7.51,1.39.75,2.09a5.62,5.62,0,0,0,3.18,3.41,22.28,22.28,0,0,0,8.47,2.2,12.38,12.38,0,0,0,5.21-1,4,4,0,0,0,2.44-2.75,8.28,8.28,0,0,0-.06-4.83,6.23,6.23,0,0,0-2.41-3.24,18.83,18.83,0,0,0-4-2c-1.87-.75-3.8-1.33-5.65-2.14a18.35,18.35,0,0,1-3.67-2,7.48,7.48,0,0,1-3.34-5.25,8.65,8.65,0,0,1,4.29-8.84,12.84,12.84,0,0,1,6-1.77C328.75,29,329.4,29.07,330.06,29.07Z"/><path class="cls-1" d="M217.28,98.08l.69.52a4.81,4.81,0,0,1,1.67,5.28,4.45,4.45,0,0,1-3.78,3.34,6.47,6.47,0,0,1-1.24.15h-9.9c-.62,0-.63,0-.63-.63V91.49c0-.15,0-.29,0-.42a1,1,0,0,1,.64-.09h8.83a8.18,8.18,0,0,1,2.2.26,3.91,3.91,0,0,1,1.74,6.58Zm-6.43,7.37h4a2.56,2.56,0,0,0,2.23-1.09,3.36,3.36,0,0,0,.25-3.47,2.66,2.66,0,0,0-2.62-1.53c-2.67,0-5.34,0-8,0-.4,0-.58.08-.57.53,0,1.67,0,3.33,0,5,0,.51.19.59.62.59C208.12,105.44,209.48,105.45,210.85,105.45Zm-.33-12.53h-3.73c-.64,0-.64,0-.65.62q0,1.6,0,3.21c0,.69,0,.7.76.7h6.94a7,7,0,0,0,.79,0A2.24,2.24,0,0,0,214.7,93a5.23,5.23,0,0,0-.79,0Z"/><path class="cls-1" d="M290.61,99.16c0-2.49,0-5,0-7.48,0-.69,0-.7.66-.7,2.14,0,4.28,0,6.42,0a10.35,10.35,0,0,1,3.07.47,7.69,7.69,0,0,1,5.41,6.92,9.76,9.76,0,0,1-.24,3.19,7.42,7.42,0,0,1-6.14,5.61,10.3,10.3,0,0,1-2.22.19c-2.1,0-4.21,0-6.32,0-.63,0-.64,0-.64-.63C290.6,104.22,290.61,101.69,290.61,99.16Zm2,0v5.71c0,.36.06.54.48.54,1.84,0,3.69,0,5.52-.07a5.58,5.58,0,0,0,5.14-4,7.9,7.9,0,0,0,.28-2.56,5.89,5.89,0,0,0-5.92-5.89c-1.63,0-3.27,0-4.9,0-.46,0-.62.12-.61.6C292.66,95.41,292.64,97.31,292.64,99.21Z"/><path class="cls-1" d="M390.49,94.49l-1.55,1.12c-.29,0-.33-.27-.45-.42a6.06,6.06,0,0,0-6.59-2.44,5.82,5.82,0,0,0-4.69,4.69,6.71,6.71,0,0,0,1.86,6.8,6.37,6.37,0,0,0,9.36-.92,1.84,1.84,0,0,0,.28-1.26c0-.47.2-1.06-.09-1.38s-.9-.11-1.37-.12q-1.25,0-2.49,0c-.4,0-.49-.15-.51-.51-.06-1.41-.08-1.41,1.29-1.41,1.54,0,3.09,0,4.63,0,.48,0,.6.15.59.6,0,1.31,0,2.62,0,3.92a1.54,1.54,0,0,1-.29.91,8,8,0,0,1-6.38,3.7,8.14,8.14,0,0,1-7.78-3.57A8.7,8.7,0,0,1,375,97.55a7.71,7.71,0,0,1,5.45-6.45,8.43,8.43,0,0,1,9.1,2.14A4.23,4.23,0,0,1,390.49,94.49Z"/><path class="cls-1" d="M349.55,95.37v1c0,3.44,0,6.89,0,10.34,0,.68,0,.69-.67.69-1.37,0-1.37,0-1.37-1.33v-15a1.31,1.31,0,0,1,1.64.54q4.71,5.47,9.46,10.91c.13.15.27.29.42.45.24-.27.14-.54.14-.79q0-5.22,0-10.44c0-.82,0-.77.78-.77,1.3,0,1.3,0,1.3,1.32v13.91a3.38,3.38,0,0,1,0,.45c0,.24.16.61-.21.68s-.72.16-1-.14a6,6,0,0,1-.41-.47l-9.49-10.89A1.31,1.31,0,0,0,349.55,95.37Z"/><path class="cls-1" d="M263.94,95.39v.88q0,5.13,0,10.26c0,1,.08.83-.78.84-1.24,0-1.24,0-1.24-1.27v-14c0-.15,0-.3,0-.44s-.11-.57.16-.63a1.07,1.07,0,0,1,1,.11,5.93,5.93,0,0,1,.47.53l9.24,10.63.6.67c.28-.21.16-.5.16-.74,0-3.42,0-6.84,0-10.26,0-.2,0-.41,0-.62s.13-.37.38-.36h.18c1.52-.06,1.52-.06,1.52,1.46v13.91a2.07,2.07,0,0,1-.08,1,1.34,1.34,0,0,1-1.54-.54q-4.68-5.44-9.42-10.83C264.44,95.75,264.32,95.49,263.94,95.39Z"/><path class="cls-1" d="M249.34,107.36c-.82,0-1.58.22-2.16-.09s-.62-1-.92-1.58c-.4-.76-.78-1.53-1.15-2.31a.69.69,0,0,0-.69-.43c-2.68,0-5.35,0-8,0a.71.71,0,0,0-.73.5c-.54,1.12-1.13,2.22-1.64,3.36a.84.84,0,0,1-1,.57,13.06,13.06,0,0,0-1.4,0,1.18,1.18,0,0,1,.25-.8q3.65-7.47,7.32-14.94c.11-.23.16-.59.44-.62a5.87,5.87,0,0,1,1.51,0c.15,0,.27.37.37.58l5.94,12C248.09,104.8,248.69,106,249.34,107.36ZM244,101l-3.56-7.13c-1.21,2.43-2.39,4.71-3.51,7.13Z"/><path class="cls-1" d="M332.91,97.13c0,1.69,0,3.39,0,5.08a8.72,8.72,0,0,1-.19,1.77,4.1,4.1,0,0,1-3.06,3.37,13.1,13.1,0,0,1-6.61.1c-2.45-.57-3.58-2.15-3.65-4.9,0-1.07,0-2.14,0-3.21V91.67c0-.68,0-.68.68-.69,1.4,0,1.4,0,1.4,1.4,0,3.09,0,6.18,0,9.27a8.22,8.22,0,0,0,.21,2,2.4,2.4,0,0,0,1.83,1.87,11.15,11.15,0,0,0,5.2,0,2.4,2.4,0,0,0,1.89-1.91,8.27,8.27,0,0,0,.21-2V91.82c0-.87-.08-.84.79-.84,1.29,0,1.29,0,1.29,1.24Z"/><path class="cls-1" d="M400.37,6.7c-.42,3-.83,5.94-1.25,8.91-.06.47-.13.94-.18,1.41s-.24,1.14.44,1.49h-2.21a1.45,1.45,0,0,0,1.09-1.44c.52-3.82,1.07-7.64,1.61-11.46.17-1.18-.24-1.8-1.53-2.18A14.77,14.77,0,0,1,401,3.34c.36,0,.38.31.48.55q1.6,3.71,3.2,7.43l1.82,4.22a1.81,1.81,0,0,0,.48-.84c1.54-3.54,3.08-7.07,4.57-10.63a1,1,0,0,1,1.18-.75c.46.05.94,0,1.63,0-.52.3-.93.34-1.11.73a2.16,2.16,0,0,0-.11,1.23l1.56,11.29c0,.17.08.35.1.52a1.46,1.46,0,0,0,.86,1.36h-3.1c.53-.26.55-.71.49-1.21L411.55,6.76a.44.44,0,0,0-.27-.41c-1.75,4.05-3.5,8.08-5.32,12.28-1.79-4.08-3.52-8-5.24-11.94a.49.49,0,0,0-.29-.5A.62.62,0,0,0,400.37,6.7Z"/><path class="cls-1" d="M338.87,3.44c-.89.26-.95.32-.95,1.25V16.91c0,1.07,0,1.09,1,1.61h-2.4c-.31,0-.42-.13-.41-.42,0-.56,0-1.11,0-1.83l-.84.72a6.62,6.62,0,0,1-5.57,1.51A4.33,4.33,0,0,1,326,13.89c0-2.85,0-5.71,0-8.56,0-.24,0-.48,0-.72,0-.89-.08-1-1.12-1.21a24.06,24.06,0,0,1,3.9,0c-.27.14-.62.09-.8.37a1.55,1.55,0,0,0-.21.94c0,2.83,0,5.65,0,8.48a7.78,7.78,0,0,0,.2,1.59,4,4,0,0,0,5.31,2.77,6.12,6.12,0,0,0,2.58-1.69,1,1,0,0,0,.27-.72c0-3.48,0-6.95,0-10.43,0-.93-.12-1-.92-1.27A13.61,13.61,0,0,1,338.87,3.44Z"/><path class="cls-1" d="M437.48,18.49h-3.36c.55-.34.44-.76.27-1.19-.71-1.76-1.42-3.51-2.12-5.28a.66.66,0,0,0-.72-.49c-1.13,0-2.26,0-3.39,0a.63.63,0,0,0-.73.46c-.69,1.8-1.42,3.59-2.14,5.37-.17.41-.29.78.3,1.13h-2.08c.85-.35,1.09-1.15,1.38-1.89q2.53-6.37,5.06-12.73a1.73,1.73,0,0,1,.4-.8c.35,0,.34.37.43.59,1.71,4.21,3.4,8.41,5.1,12.62l.13.33A2.7,2.7,0,0,0,437.48,18.49ZM429.9,6.2h-.19L427.81,11h4Z"/><path class="cls-1" d="M364.89,4.53,364.28,3a1.89,1.89,0,0,0,1.24.34h10.07A1.61,1.61,0,0,0,377,2.79a10.48,10.48,0,0,1-.71,1.82c-.2-.74-.2-.75-.86-.76-1.1,0-2.2,0-3.3,0-.45,0-.61.12-.6.6,0,2.2,0,4.4,0,6.6,0,2,0,4,0,6,0,1,.13,1.1,1.21,1.45h-4.06c.33-.28.81-.2,1-.61a2.92,2.92,0,0,0,.09-1.06V4.58c0-.76.05-.73-.72-.73h-3.3A.67.67,0,0,0,364.89,4.53Z"/><path class="cls-1" d="M351.42,3.41c-.91.26-1,.35-1,1.28,0,3.62,0,7.24,0,10.86a2,2,0,0,0,2.07,2.37,14.7,14.7,0,0,0,3.11,0,2,2,0,0,0,2.06-1.87A3.73,3.73,0,0,1,358,15v3.17c0,.26-.13.37-.39.35h-10c.39-.3.84-.26,1-.66a3.2,3.2,0,0,0,.09-1.15q0-5.79,0-11.58c0-.14,0-.29,0-.44,0-.9-.08-1-1.09-1.31A29.38,29.38,0,0,1,351.42,3.41Z"/><path class="cls-1" d="M385.22,18.46c.87-.41.89-.41.93-1.45,0-1.22,0-2.43,0-3.65q0-3.78,0-7.57c0-.44,0-.89-.05-1.33-.07-.74-.12-.78-.89-1a28.53,28.53,0,0,1,3.84,0c-1.07.35-1.13.41-1.14,1.51,0,2.79,0,5.58,0,8.37v3.82c0,.69.18,1.24,1,1.39Z"/><path class="cls-1" d="M400.37,6.7a.62.62,0,0,1,.06-.51.49.49,0,0,1,.29.5Z"/><path class="cls-1" d="M84,119.55c-.13.14-.24.32-.52.23a.55.55,0,0,1,.45-.3Z"/><path class="cls-1" d="M516.32,119.85l.24.06s0,.09-.07.09a.17.17,0,0,1-.18-.14Z"/></svg>