<svg id="Layer_1" data-name="Layer 1" xmlns="http://www.w3.org/2000/svg" viewBox="0 0 360 360"><title>ibis-h-dark</title><path d="M159.61,112.29c-4.76-2.78-10.88,0-13.86,2.39-1.23,1-2.8,2.25-3,3.19a23.66,23.66,0,0,0,0,4.3V152.9c6.81,2.12,13.77,1.91,18-1.75s5.77-12.2,5.42-19.91C165.76,123.14,164.53,115.17,159.61,112.29Z"/><path d="M164.22,203.39c-3.4,1.06-2.92,11.4,2.07,9.39C168.92,211.73,169.2,201.83,164.22,203.39Z"/><path d="M308,246.07c-.67-2.3-1.17-4.71-1.75-7a425.85,425.85,0,0,1-8.6-43.95c-5.66-39.5-5.93-92,.16-131.07,1.47-9.47,3.35-19.71,5.41-29.46,1.45-6.83,3.12-14.55,5.1-21.18.7-2.34,2-4.94,1.91-6.85A6.63,6.63,0,0,0,304.21,0c-2-.18-4.5,1-7,1.75-6.79,2.06-14.6,3.74-21.18,5.1-9.72,2-19.89,4.13-29.46,5.57-39.68,6-92,5.91-131.55.16C104.91,11.13,95,9.15,85.39,7.18,78.25,5.71,70.82,4.23,64.05,2.25c-2.94-.86-5.6-2.56-8.76-2.07a6.46,6.46,0,0,0-5.57,5.41c-.51,3.06,1.12,5.63,1.91,8.28.7,2.36,1.19,4.82,1.75,7a444.63,444.63,0,0,1,8.76,43.8c4.51,29.63,5.26,67,3.35,100-1.29,22.24-4.85,41.37-8.92,61.15-1.48,7.16-3.15,14.58-5.1,21.18-.72,2.46-1.84,4.88-1.75,7.17A6.21,6.21,0,0,0,52,259c3.5,3,8.48.41,12.1-.64,2.37-.69,4.75-1.18,7-1.75,14-3.54,28.59-6.31,43.8-8.6,39.43-5.95,92.23-5.59,131.06.16,9.8,1.45,19.94,3.43,29.46,5.41,6.9,1.44,14.53,3.1,21.19,5.1,2.35.71,5,1.9,6.84,1.91a6.63,6.63,0,0,0,6.69-8A65.68,65.68,0,0,0,308,246.07ZM112.78,107.2V166h-8.44c-2.6,0-6,.47-7.48-.79-1.31-1.11-1.12-4.47-1.12-7.33V99.39c0-.22,0-.45.16-.47h8.44c2.6,0,5.92-.38,7.33,1C112.92,101.05,112.78,104.24,112.78,107.2Zm0-17.84h-8.44c-2.68,0-6,.49-7.48-.8-2.77-2.34-.22-10.34-1.12-14.49,0-.22,0-.45.16-.48h8.44c2.69,0,5.88-.41,7.33,1C114.39,77.13,111.93,84.94,112.78,89.36Zm80.75-15.29c0-.22,0-.45.16-.48H202c2.71,0,5.75-.43,7.32.8,3,2.35.38,10.6,1.28,15h-8c-2.7,0-5.8.54-7.49-.48C191.8,86.87,194.35,78.52,193.53,74.07Zm-36.79,141.1a11.71,11.71,0,0,1-3-.16,49.47,49.47,0,0,1-.16-6h-5.09c-.37,1.75-.06,4.19-.16,6.21-.93-.08-2.2.18-2.87-.16-.56-1.92-.32-4.34-.32-6.69V201a11.71,11.71,0,0,1,3,.16c.34,1.51.07,3.64.16,5.41h5.09c.38-1.54.06-3.77.16-5.57a11.71,11.71,0,0,1,3,.16C157,205.52,156.64,210.55,156.74,215.17Zm11.31-.16c-2.2,1-6.34.47-7.81-1.43-2.24-2.89-1.54-10.07,1.12-11.94a5.4,5.4,0,0,1,2.55-.8,7.41,7.41,0,0,1,4.3.32C172.23,203.05,172.87,212.8,168.05,215Zm14.81-11.62a18,18,0,0,1-3.67.16c-.37,3.55-.05,7.8-.16,11.62-1-.06-2.43.21-3-.32v-11.3h-4c.07-.73-.16-1.76.16-2.23,2.3-.71,7.44-.13,10.83-.32C182.94,201.78,183.18,202.86,182.86,203.39ZM156.1,166.6a72.86,72.86,0,0,1-23.73-1.75c-2.08-.51-5-1-6.05-2.55-1.25-1.81-.64-7.12-.64-10.51V74.07c0-.22,0-.45.16-.48h8.44c2.64,0,5.85-.44,7.33,1,2,1.91,1.11,10.29,1.11,14.17V104c.3.53.55-.24.64-.32,3.74-3.17,9.28-6.47,16.25-6.53,16.87-.12,23.09,11.83,24.2,28C185.45,148.93,177.27,164.35,156.1,166.6Zm38.54,48.09c-3.74,1-9.13,1.49-9.71-2.54-.41-2.84.31-8.14,0-11.15h9.39a4.58,4.58,0,0,1-.31,2.39c-1.67.35-4,.07-5.9.16-.37.69-.05,2.07-.16,3h5.74c0,.89.12,1.93-.32,2.39H188c-1.12,4.86,3.72,4.16,6.85,3.51A6.75,6.75,0,0,1,194.64,214.69Zm-1.11-56.37V99.39c0-.22,0-.45.16-.47h8.6c2.68,0,5.9-.38,7.32,1.11,1.13,1.18,1,4.71,1,7.49V166h-8.12c-2.54,0-5.92.48-7.49-.63S193.53,161.28,193.53,158.32Zm12.1,56.37c-2.35.78-6.26,1.23-7.8-.31-2-2-.45-9.39-1-13.38a10.49,10.49,0,0,1,2.87.16c1.06,2.27-1.13,9.64.79,11.31,1.25,1.07,3.37.11,5.26,0A6.75,6.75,0,0,1,205.63,214.69ZM216,213.58c-1.48,2.16-5.95,2.4-8.6.8v-1.91c2.1.29,6.19,1.41,6.21-1.12,0-2.2-4.12-2.11-5.57-4a4.51,4.51,0,0,1-.16-4.94c1.26-1.79,5-2,7.8-1a7.5,7.5,0,0,1,.16,2.39c-1.26-.41-4.94-1.42-5.41.31s1.69,2.15,2.55,2.55a7.45,7.45,0,0,1,3,1.91A4.79,4.79,0,0,1,216,213.58Zm49.69-65c-.58,8.08-5.71,13.4-12.1,16.09-6.69,2.81-18.47,2.74-26.92.64-1.67-.42-3.41-.82-4.3-1.76-2.19-2.32-.92-7.66-1.27-12.1a105.68,105.68,0,0,0,14,2.39c6.36.54,14.13.08,13.86-6.37-.22-5.15-7.68-7.63-12.26-9.72-5-2.28-10.16-5.21-12.9-8.91-4.31-5.82-4.12-16-1-21.34,4.64-7.89,16.52-10.91,29.62-8.6,2.54.44,7.09,1,8.6,2.7,2.3,2.58.57,6.89,1.12,11.95a74.1,74.1,0,0,0-13.54-2.39c-5.48-.42-11.9.07-11.63,5.41.17,3.21,4.36,5,7.65,6.53C255.13,127.9,266.83,132.4,265.67,148.6Z"/><path d="M100.7,305.2a7.82,7.82,0,0,1,3.38,2.4,5.53,5.53,0,0,1,1.23,3.52,7,7,0,0,1-2.63,5.56,8.92,8.92,0,0,1-3.05,1.59,12.43,12.43,0,0,1-3.82.56h-11V293H95.21a9.68,9.68,0,0,1,6.2,1.85,6,6,0,0,1,2.35,4.91,6.14,6.14,0,0,1-.81,3.08A7,7,0,0,1,100.7,305.2Zm-6.59-6.59h-2.5v4.63h2.5a2.3,2.3,0,0,0,1.66-.62,2.18,2.18,0,0,0,.65-1.66,2.17,2.17,0,0,0-2.31-2.35Zm.72,14.58a3.17,3.17,0,0,0,2.12-.67,2.27,2.27,0,0,0,.79-1.85,2.19,2.19,0,0,0-.79-1.81,3.22,3.22,0,0,0-2.09-.65H91.61v5Z"/><path d="M125.79,318.83l-1.4-3.22h-8.93l-1.4,3.22h-7.42l13.29-26.39,13.32,26.39ZM117.46,311h4.93l-2.46-5.68Z"/><path d="M159.22,293v26.39l-15.75-12.48v11.95h-7V292.44l15.74,13V293Z"/><path d="M176.48,293a13.62,13.62,0,0,1,5.17,1,13.06,13.06,0,0,1,4.26,2.75,12.35,12.35,0,0,1,2.81,4.15,13.13,13.13,0,0,1,0,10.1,12.35,12.35,0,0,1-2.81,4.15,13.06,13.06,0,0,1-4.26,2.75,13.62,13.62,0,0,1-5.17,1H165.27V293h11.21Zm-1.21,19.9a7.21,7.21,0,0,0,3.48-.89,6,6,0,0,0,2.54-2.58,7.5,7.5,0,0,0,0-7,6,6,0,0,0-2.54-2.57,7.22,7.22,0,0,0-3.48-.9h-3v13.95Z"/><path d="M205,319.29a12.94,12.94,0,0,1-4.18-.67,11.4,11.4,0,0,1-3.5-1.87,8.88,8.88,0,0,1-2.37-2.86,7.54,7.54,0,0,1-.85-3.47V293h7v16.57a3.85,3.85,0,0,0,.36,1.53,3.07,3.07,0,0,0,1.35,1.4,4.2,4.2,0,0,0,2.19.58,5.06,5.06,0,0,0,1.71-.33,3.46,3.46,0,0,0,1.55-1.21,3.25,3.25,0,0,0,.64-2V293h7v17.45a7.43,7.43,0,0,1-.86,3.47,8.72,8.72,0,0,1-2.36,2.86,11.4,11.4,0,0,1-3.5,1.87A13,13,0,0,1,205,319.29Z"/><path d="M244.31,293v26.39l-15.74-12.48v11.95h-7V292.44l15.75,13V293Z"/><path d="M263.54,303.13h12.34v11.46a13.11,13.11,0,0,1-3.89,2.7,19.17,19.17,0,0,1-4.64,1.58,20.55,20.55,0,0,1-3.69.42,15.79,15.79,0,0,1-5.7-1,14.13,14.13,0,0,1-4.69-2.87,13.28,13.28,0,0,1-3.11-4.31,12.76,12.76,0,0,1,0-10.41,13,13,0,0,1,3.11-4.29,14.07,14.07,0,0,1,4.69-2.84,16,16,0,0,1,5.7-1,17.15,17.15,0,0,1,5.24.86,16.27,16.27,0,0,1,4.68,2.33l-3.75,5a10,10,0,0,0-2.67-1.28,10.11,10.11,0,0,0-3-.47,8.08,8.08,0,0,0-3,.54,7.58,7.58,0,0,0-2.41,1.49,6.67,6.67,0,0,0-1.59,2.25,6.75,6.75,0,0,0-.56,2.69,6.9,6.9,0,0,0,.38,2.21,6.7,6.7,0,0,0,1.41,2.33,6.48,6.48,0,0,0,2.56,1.77,8.18,8.18,0,0,0,3,.6,9.22,9.22,0,0,0,5.18-1.51v-2.84h-5.64Z"/><path d="M62.09,359.71H58.77V336.76H49.24v-3H71.61v3H62.09Z"/><path d="M77.74,359.71H74.42V333.76H83a10.06,10.06,0,0,1,6.72,2.32,7.66,7.66,0,0,1,2.76,6.17,8.45,8.45,0,0,1-1.31,4.7,9.29,9.29,0,0,1-3.59,3.2l6.06,9.35-.12.21H90l-5.59-8.49a13.57,13.57,0,0,1-2.43.21H77.74Zm4.82-22.95H77.74v11.67h4A8.08,8.08,0,0,0,87,346.77a5.38,5.38,0,0,0,2-4.41,5,5,0,0,0-1.85-4.17A7.38,7.38,0,0,0,82.56,336.76Z"/><path d="M105.62,333.47h.31l12.38,26-.16.21h-3.47l-2.27-5H99.06l-2.23,5h-3.4l-.15-.21Zm0,6.57-5.25,11.71H111Z"/><path d="M123.86,359.71h-3.32V333.47h.31l19.9,19.17V333.76h3.31V360h-.31l-19.89-19Z"/><path d="M148.8,340.11a5.92,5.92,0,0,1,2.24-4.84,8.7,8.7,0,0,1,5.63-1.8,10.22,10.22,0,0,1,7.33,2.89l-2.35,2.18a7.6,7.6,0,0,0-5-2.07,5.18,5.18,0,0,0-3.14.95A3.06,3.06,0,0,0,152.2,340a2.55,2.55,0,0,0,.36,1.3,6.2,6.2,0,0,0,.78,1.06,7.61,7.61,0,0,0,1.46,1.07c.71.43,1.25.74,1.64.94s1.1.57,2.16,1.09q6.43,3.25,6.44,7.61a6.25,6.25,0,0,1-2.28,4.91,8.52,8.52,0,0,1-5.82,2,12.75,12.75,0,0,1-5.45-1.14,11.1,11.1,0,0,1-3.88-2.82l2.35-2.18a13.84,13.84,0,0,0,3.22,2.34,8.45,8.45,0,0,0,3.8.8,5,5,0,0,0,3.34-1.11,3.37,3.37,0,0,0,1.33-2.67q0-2.87-5.67-5.5a19.63,19.63,0,0,1-5.34-3.43A5.66,5.66,0,0,1,148.8,340.11Z"/><path d="M179.07,340.11a5.92,5.92,0,0,1,2.24-4.84,8.7,8.7,0,0,1,5.63-1.8,10.22,10.22,0,0,1,7.33,2.89l-2.36,2.18a7.56,7.56,0,0,0-5-2.07,5.18,5.18,0,0,0-3.14.95,3.06,3.06,0,0,0-1.29,2.62,2.55,2.55,0,0,0,.36,1.3,6.2,6.2,0,0,0,.78,1.06,7.3,7.3,0,0,0,1.46,1.07c.71.43,1.25.74,1.64.94s1.1.57,2.16,1.09q6.44,3.25,6.44,7.61A6.25,6.25,0,0,1,193,358a8.52,8.52,0,0,1-5.82,2,12.83,12.83,0,0,1-5.46-1.14,11.15,11.15,0,0,1-3.87-2.82l2.35-2.18a13.84,13.84,0,0,0,3.22,2.34,8.45,8.45,0,0,0,3.8.8,5,5,0,0,0,3.33-1.11,3.35,3.35,0,0,0,1.33-2.67c0-1.91-1.88-3.74-5.66-5.5a19.63,19.63,0,0,1-5.34-3.43A5.63,5.63,0,0,1,179.07,340.11Z"/><path d="M207.88,359.71h-3.32V336.76H195v-3H217.4v3h-9.52Z"/><path d="M223.23,349.32a10.83,10.83,0,0,0,.36,2.91,7.17,7.17,0,0,0,1.2,2.41,5.4,5.4,0,0,0,2.35,1.74,9.69,9.69,0,0,0,3.64.62c2.78,0,4.81-.75,6.1-2.27a8.44,8.44,0,0,0,1.92-5.66V333.76h3.32v15.46a10.73,10.73,0,0,1-2.93,7.75c-1.95,2-4.76,3-8.41,3s-6.28-.95-8.11-2.86a10.28,10.28,0,0,1-2.76-7.46V333.76h3.32Z"/><path d="M254.92,359.71h-7.21V333.76h8.72a15.24,15.24,0,0,1,10.1,3.26q3.89,3.27,3.89,9.13,0,6.63-4.26,10.1T254.92,359.71ZM256,336.76h-5v20h3.7a19.68,19.68,0,0,0,4.8-.54,12.07,12.07,0,0,0,3.87-1.7,7.45,7.45,0,0,0,2.68-3.25,12,12,0,0,0,.95-5,8.69,8.69,0,0,0-2.91-7.05Q261.21,336.76,256,336.76Z"/><path d="M278.21,359.71H274.9V333.76h3.31Z"/><path d="M296.72,360a14,14,0,0,1-9.89-3.75,12.39,12.39,0,0,1-4-9.5,12.59,12.59,0,0,1,4-9.46,14,14,0,0,1,10.1-3.82,13.73,13.73,0,0,1,10,3.79,13.26,13.26,0,0,1-.08,18.9A13.89,13.89,0,0,1,296.72,360Zm10.64-13.28a9.87,9.87,0,0,0-2.95-7.32,11.28,11.28,0,0,0-15.19,0,10.33,10.33,0,0,0,0,14.62,11.11,11.11,0,0,0,15.1,0A9.82,9.82,0,0,0,307.36,346.72Z"/></svg>