<svg id="Layer_1" data-name="Layer 1" xmlns="http://www.w3.org/2000/svg" viewBox="0 0 360 360"><defs><style>.cls-1{fill:#e1251b;}.cls-1,.cls-2{fill-rule:evenodd;}.cls-2{fill:#fff;}.cls-3{fill:#332c2c;}</style></defs><title>ibis-h</title><path class="cls-1" d="M55.29.18c3.16-.49,5.82,1.21,8.76,2.07,6.77,2,14.2,3.46,21.34,4.93,9.56,2,19.52,4,29.62,5.42,39.55,5.75,91.87,5.82,131.55-.16C256.13,11,266.3,8.87,276,6.87c6.58-1.36,14.38-3,21.18-5.1,2.51-.76,5-1.93,7-1.75a6.63,6.63,0,0,1,6.05,6.53c.05,1.91-1.21,4.51-1.91,6.85-2,6.63-3.65,14.35-5.1,21.18-2.06,9.75-3.94,20-5.41,29.46-6.09,39.1-5.82,91.57-.16,131.07a425.85,425.85,0,0,0,8.6,43.95c.58,2.3,1.08,4.71,1.75,7a65.68,65.68,0,0,1,2.07,6.53,6.63,6.63,0,0,1-6.69,8c-1.88,0-4.49-1.2-6.84-1.91-6.66-2-14.29-3.66-21.19-5.1-9.52-2-19.66-4-29.46-5.41-38.83-5.75-91.63-6.11-131.06-.16-15.21,2.29-29.75,5.06-43.8,8.6-2.26.57-4.64,1.06-7,1.75-3.62,1.05-8.6,3.63-12.1.64a6.21,6.21,0,0,1-2.23-4.78c-.09-2.29,1-4.71,1.75-7.17,2-6.6,3.62-14,5.1-21.18,4.07-19.78,7.63-38.91,8.92-61.15,1.91-33,1.16-70.38-3.35-100a444.63,444.63,0,0,0-8.76-43.8c-.56-2.19-1.05-4.65-1.75-7-.79-2.65-2.42-5.22-1.91-8.28A6.46,6.46,0,0,1,55.29.18Z"/><path class="cls-2" d="M104.34,73.59H95.9c-.18,0-.17.26-.16.48.9,4.15-1.65,12.15,1.12,14.49,1.52,1.29,4.8.8,7.48.8h8.44c-.85-4.42,1.61-12.23-1.11-14.81C110.22,73.18,107,73.59,104.34,73.59Z"/><path class="cls-2" d="M159.61,97.16c-7,.06-12.51,3.36-16.25,6.53-.09.08-.34.85-.64.32V88.72c0-3.88.91-12.26-1.11-14.17-1.48-1.4-4.69-1-7.33-1h-8.44c-.18,0-.17.26-.16.48v77.72c0,3.39-.61,8.7.64,10.51,1.07,1.55,4,2,6.05,2.55a72.86,72.86,0,0,0,23.73,1.75c21.17-2.25,29.35-17.67,27.71-41.41C182.7,109,176.48,97,159.61,97.16Zm1.11,54c-4.23,3.66-11.19,3.87-18,1.75V122.17a23.66,23.66,0,0,1,0-4.3c.23-.94,1.8-2.22,3-3.19,3-2.34,9.1-5.17,13.86-2.39,4.92,2.88,6.15,10.85,6.53,19C166.49,139,165,147.42,160.72,151.15Z"/><path class="cls-2" d="M202,73.59h-8.28c-.19,0-.18.26-.16.48.82,4.45-1.73,12.8,1.59,14.81,1.69,1,4.79.48,7.49.48h8c-.9-4.37,1.72-12.62-1.28-15C207.72,73.16,204.68,73.59,202,73.59Z"/><path class="cls-2" d="M244.65,123.12c-3.29-1.5-7.48-3.32-7.65-6.53-.27-5.34,6.15-5.83,11.63-5.41a74.1,74.1,0,0,1,13.54,2.39c-.55-5.06,1.18-9.37-1.12-11.95-1.51-1.69-6.06-2.26-8.6-2.7-13.1-2.31-25,.71-29.62,8.6-3.16,5.38-3.35,15.52,1,21.34,2.74,3.7,7.88,6.63,12.9,8.91,4.58,2.09,12,4.57,12.26,9.72.27,6.45-7.5,6.91-13.86,6.37a105.68,105.68,0,0,1-14-2.39c.35,4.44-.92,9.78,1.27,12.1.89.94,2.63,1.34,4.3,1.76,8.45,2.1,20.23,2.17,26.92-.64,6.39-2.69,11.52-8,12.1-16.09C266.83,132.4,255.13,127.9,244.65,123.12Z"/><path class="cls-2" d="M104.34,98.92H95.9c-.18,0-.17.25-.16.47v58.45c0,2.86-.19,6.22,1.12,7.33,1.5,1.26,4.88.79,7.48.79h8.44V107.2c0-3,.14-6.15-1.11-7.33C110.26,98.54,106.94,98.92,104.34,98.92Z"/><path class="cls-2" d="M202.29,98.92h-8.6c-.19,0-.18.25-.16.47v58.93c0,3-.14,5.89,1.43,7s4.95.63,7.49.63h8.12V107.52c0-2.78.17-6.31-1-7.49C208.19,98.54,205,98.92,202.29,98.92Z"/><path class="cls-2" d="M168.21,201.16a7.41,7.41,0,0,0-4.3-.32,5.4,5.4,0,0,0-2.55.8c-2.66,1.87-3.36,9.05-1.12,11.94,1.47,1.9,5.61,2.44,7.81,1.43C172.87,212.8,172.23,203.05,168.21,201.16Zm-1.92,11.62c-5,2-5.47-8.33-2.07-9.39C169.2,201.83,168.92,211.73,166.29,212.78Z"/><path class="cls-2" d="M216,208.64a7.45,7.45,0,0,0-3-1.91c-.86-.4-3-.89-2.55-2.55s4.15-.72,5.41-.31a7.5,7.5,0,0,0-.16-2.39c-2.82-1-6.54-.84-7.8,1a4.51,4.51,0,0,0,.16,4.94c1.45,1.87,5.6,1.78,5.57,4,0,2.53-4.11,1.41-6.21,1.12v1.91c2.65,1.6,7.12,1.36,8.6-.8A4.79,4.79,0,0,0,216,208.64Z"/><path class="cls-2" d="M156.58,201.16a11.71,11.71,0,0,0-3-.16c-.1,1.8.22,4-.16,5.57H148.3c-.09-1.77.18-3.9-.16-5.41a11.71,11.71,0,0,0-3-.16v7.32c0,2.35-.24,4.77.32,6.69.67.34,1.94.08,2.87.16.1-2-.21-4.46.16-6.21h5.09a47.55,47.55,0,0,0,.16,6,11.71,11.71,0,0,0,3,.16C156.64,210.55,157,205.52,156.58,201.16Z"/><path class="cls-2" d="M183,201c-3.39.19-8.53-.39-10.83.32-.32.47-.09,1.5-.16,2.23h4v11.3c.59.53,2,.26,3,.32.11-3.82-.21-8.07.16-11.62a18,18,0,0,0,3.67-.16C183.18,202.86,182.94,201.78,183,201Z"/><path class="cls-2" d="M188,209h5.42c.44-.46.3-1.5.32-2.39H188c.11-.95-.21-2.33.16-3,1.93-.09,4.23.19,5.9-.16a4.58,4.58,0,0,0,.31-2.39h-9.39c.31,3-.41,8.31,0,11.15.58,4,6,3.57,9.71,2.54a6.75,6.75,0,0,0,.16-2.22C191.67,213.12,186.83,213.82,188,209Z"/><path class="cls-2" d="M200.53,212.47c-1.92-1.67.27-9-.79-11.31a10.49,10.49,0,0,0-2.87-.16c.51,4-1.06,11.36,1,13.38,1.54,1.54,5.45,1.09,7.8.31a6.75,6.75,0,0,0,.16-2.22C203.9,212.58,201.78,213.54,200.53,212.47Z"/><path class="cls-3" d="M100.7,305.2a7.82,7.82,0,0,1,3.38,2.4,5.53,5.53,0,0,1,1.23,3.52,7,7,0,0,1-2.63,5.56,8.92,8.92,0,0,1-3.05,1.59,12.43,12.43,0,0,1-3.82.56h-11V293H95.21a9.68,9.68,0,0,1,6.2,1.85,6,6,0,0,1,2.35,4.91,6.14,6.14,0,0,1-.81,3.08A7,7,0,0,1,100.7,305.2Zm-6.59-6.59h-2.5v4.63h2.5a2.3,2.3,0,0,0,1.66-.62,2.18,2.18,0,0,0,.65-1.66,2.17,2.17,0,0,0-2.31-2.35Zm.72,14.58a3.17,3.17,0,0,0,2.12-.67,2.27,2.27,0,0,0,.79-1.85,2.19,2.19,0,0,0-.79-1.81,3.22,3.22,0,0,0-2.09-.65H91.61v5Z"/><path class="cls-3" d="M125.79,318.83l-1.4-3.22h-8.93l-1.4,3.22h-7.42l13.29-26.39,13.32,26.39ZM117.46,311h4.93l-2.46-5.68Z"/><path class="cls-3" d="M159.22,293v26.39l-15.75-12.48v11.95h-7V292.44l15.74,13V293Z"/><path class="cls-3" d="M176.48,293a13.62,13.62,0,0,1,5.17,1,13.06,13.06,0,0,1,4.26,2.75,12.35,12.35,0,0,1,2.81,4.15,13.13,13.13,0,0,1,0,10.1,12.35,12.35,0,0,1-2.81,4.15,13.06,13.06,0,0,1-4.26,2.75,13.62,13.62,0,0,1-5.17,1H165.27V293h11.21Zm-1.21,19.9a7.21,7.21,0,0,0,3.48-.89,6,6,0,0,0,2.54-2.58,7.5,7.5,0,0,0,0-7,6,6,0,0,0-2.54-2.57,7.22,7.22,0,0,0-3.48-.9h-3v13.95Z"/><path class="cls-3" d="M205,319.29a12.94,12.94,0,0,1-4.18-.67,11.4,11.4,0,0,1-3.5-1.87,8.88,8.88,0,0,1-2.37-2.86,7.54,7.54,0,0,1-.85-3.47V293h7v16.57a3.85,3.85,0,0,0,.36,1.53,3.07,3.07,0,0,0,1.35,1.4,4.2,4.2,0,0,0,2.19.58,5.06,5.06,0,0,0,1.71-.33,3.46,3.46,0,0,0,1.55-1.21,3.25,3.25,0,0,0,.64-2V293h7v17.45a7.43,7.43,0,0,1-.86,3.47,8.72,8.72,0,0,1-2.36,2.86,11.4,11.4,0,0,1-3.5,1.87A13,13,0,0,1,205,319.29Z"/><path class="cls-3" d="M244.31,293v26.39l-15.74-12.48v11.95h-7V292.44l15.75,13V293Z"/><path class="cls-3" d="M263.54,303.13h12.34v11.46a13.11,13.11,0,0,1-3.89,2.7,19.17,19.17,0,0,1-4.64,1.58,20.55,20.55,0,0,1-3.69.42,15.79,15.79,0,0,1-5.7-1,14.13,14.13,0,0,1-4.69-2.87,13.28,13.28,0,0,1-3.11-4.31,12.76,12.76,0,0,1,0-10.41,13,13,0,0,1,3.11-4.29,14.07,14.07,0,0,1,4.69-2.84,16,16,0,0,1,5.7-1,17.15,17.15,0,0,1,5.24.86,16.27,16.27,0,0,1,4.68,2.33l-3.75,5a10,10,0,0,0-2.67-1.28,10.11,10.11,0,0,0-3-.47,8.08,8.08,0,0,0-3,.54,7.58,7.58,0,0,0-2.41,1.49,6.67,6.67,0,0,0-1.59,2.25,6.75,6.75,0,0,0-.56,2.69,6.9,6.9,0,0,0,.38,2.21,6.7,6.7,0,0,0,1.41,2.33,6.48,6.48,0,0,0,2.56,1.77,8.18,8.18,0,0,0,3,.6,9.22,9.22,0,0,0,5.18-1.51v-2.84h-5.64Z"/><path class="cls-3" d="M62.09,359.71H58.77V336.76H49.24v-3H71.61v3H62.09Z"/><path class="cls-3" d="M77.74,359.71H74.42V333.76H83a10.06,10.06,0,0,1,6.72,2.32,7.66,7.66,0,0,1,2.76,6.17,8.45,8.45,0,0,1-1.31,4.7,9.29,9.29,0,0,1-3.59,3.2l6.06,9.35-.12.21H90l-5.59-8.49a13.57,13.57,0,0,1-2.43.21H77.74Zm4.82-22.95H77.74v11.67h4A8.08,8.08,0,0,0,87,346.77a5.38,5.38,0,0,0,2-4.41,5,5,0,0,0-1.85-4.17A7.38,7.38,0,0,0,82.56,336.76Z"/><path class="cls-3" d="M105.62,333.47h.31l12.38,26-.16.21h-3.47l-2.27-5H99.06l-2.23,5h-3.4l-.15-.21Zm0,6.57-5.25,11.71H111Z"/><path class="cls-3" d="M123.86,359.71h-3.32V333.47h.31l19.9,19.17V333.76h3.31V360h-.31l-19.89-19Z"/><path class="cls-3" d="M148.8,340.11a5.92,5.92,0,0,1,2.24-4.84,8.7,8.7,0,0,1,5.63-1.8,10.22,10.22,0,0,1,7.33,2.89l-2.35,2.18a7.6,7.6,0,0,0-5-2.07,5.18,5.18,0,0,0-3.14.95A3.06,3.06,0,0,0,152.2,340a2.55,2.55,0,0,0,.36,1.3,6.2,6.2,0,0,0,.78,1.06,7.61,7.61,0,0,0,1.46,1.07c.71.43,1.25.74,1.64.94s1.1.57,2.16,1.09q6.43,3.25,6.44,7.61a6.25,6.25,0,0,1-2.28,4.91,8.52,8.52,0,0,1-5.82,2,12.75,12.75,0,0,1-5.45-1.14,11.1,11.1,0,0,1-3.88-2.82l2.35-2.18a13.84,13.84,0,0,0,3.22,2.34,8.45,8.45,0,0,0,3.8.8,5,5,0,0,0,3.34-1.11,3.37,3.37,0,0,0,1.33-2.67q0-2.87-5.67-5.5a19.63,19.63,0,0,1-5.34-3.43A5.66,5.66,0,0,1,148.8,340.11Z"/><path class="cls-3" d="M179.07,340.11a5.92,5.92,0,0,1,2.24-4.84,8.7,8.7,0,0,1,5.63-1.8,10.22,10.22,0,0,1,7.33,2.89l-2.36,2.18a7.56,7.56,0,0,0-5-2.07,5.18,5.18,0,0,0-3.14.95,3.06,3.06,0,0,0-1.29,2.62,2.55,2.55,0,0,0,.36,1.3,6.2,6.2,0,0,0,.78,1.06,7.3,7.3,0,0,0,1.46,1.07c.71.43,1.25.74,1.64.94s1.1.57,2.16,1.09q6.44,3.25,6.44,7.61A6.25,6.25,0,0,1,193,358a8.52,8.52,0,0,1-5.82,2,12.83,12.83,0,0,1-5.46-1.14,11.15,11.15,0,0,1-3.87-2.82l2.35-2.18a13.84,13.84,0,0,0,3.22,2.34,8.45,8.45,0,0,0,3.8.8,5,5,0,0,0,3.33-1.11,3.35,3.35,0,0,0,1.33-2.67c0-1.91-1.88-3.74-5.66-5.5a19.63,19.63,0,0,1-5.34-3.43A5.63,5.63,0,0,1,179.07,340.11Z"/><path class="cls-3" d="M207.88,359.71h-3.32V336.76H195v-3H217.4v3h-9.52Z"/><path class="cls-3" d="M223.23,349.32a10.83,10.83,0,0,0,.36,2.91,7.17,7.17,0,0,0,1.2,2.41,5.4,5.4,0,0,0,2.35,1.74,9.69,9.69,0,0,0,3.64.62c2.78,0,4.81-.75,6.1-2.27a8.44,8.44,0,0,0,1.92-5.66V333.76h3.32v15.46a10.73,10.73,0,0,1-2.93,7.75c-1.95,2-4.76,3-8.41,3s-6.28-.95-8.11-2.86a10.28,10.28,0,0,1-2.76-7.46V333.76h3.32Z"/><path class="cls-3" d="M254.92,359.71h-7.21V333.76h8.72a15.24,15.24,0,0,1,10.1,3.26q3.89,3.27,3.89,9.13,0,6.63-4.26,10.1T254.92,359.71ZM256,336.76h-5v20h3.7a19.68,19.68,0,0,0,4.8-.54,12.07,12.07,0,0,0,3.87-1.7,7.45,7.45,0,0,0,2.68-3.25,12,12,0,0,0,.95-5,8.69,8.69,0,0,0-2.91-7.05Q261.21,336.76,256,336.76Z"/><path class="cls-3" d="M278.21,359.71H274.9V333.76h3.31Z"/><path class="cls-3" d="M296.72,360a14,14,0,0,1-9.89-3.75,12.39,12.39,0,0,1-4-9.5,12.59,12.59,0,0,1,4-9.46,14,14,0,0,1,10.1-3.82,13.73,13.73,0,0,1,10,3.79,13.26,13.26,0,0,1-.08,18.9A13.89,13.89,0,0,1,296.72,360Zm10.64-13.28a9.87,9.87,0,0,0-2.95-7.32,11.28,11.28,0,0,0-15.19,0,10.33,10.33,0,0,0,0,14.62,11.11,11.11,0,0,0,15.1,0A9.82,9.82,0,0,0,307.36,346.72Z"/></svg>