<svg id="Layer_1" data-name="Layer 1" xmlns="http://www.w3.org/2000/svg" viewBox="0 0 600 120"><defs><style>.cls-1{fill:#e1251b;}.cls-1,.cls-2{fill-rule:evenodd;}.cls-2{fill:#fff;}.cls-3{fill:#332c2c;}</style></defs><title>ibis-v</title><path class="cls-1" d="M61.58.18c1.46-.22,2.68.56,4,1,3.12.91,6.53,1.59,9.82,2.27,4.4.9,9,1.81,13.63,2.49,18.2,2.65,42.28,2.68,60.54-.07,4.4-.67,9.08-1.65,13.55-2.57,3-.62,6.62-1.4,9.75-2.34a10.13,10.13,0,0,1,3.22-.81,3.06,3.06,0,0,1,2.79,3A13.09,13.09,0,0,1,178,6.27c-.91,3.05-1.68,6.6-2.35,9.74-1,4.49-1.81,9.2-2.49,13.56-2.8,18-2.67,42.14-.07,60.31a195.28,195.28,0,0,0,4,20.23c.26,1.06.5,2.17.8,3.22s.77,2,1,3a3.06,3.06,0,0,1-3.08,3.66,14.15,14.15,0,0,1-3.15-.88c-3.07-.92-6.58-1.69-9.75-2.34-4.38-.92-9.05-1.83-13.56-2.5-17.87-2.64-42.16-2.81-60.31-.07-7,1.06-13.69,2.33-20.15,4-1,.26-2.14.49-3.23.8-1.66.49-4,1.67-5.57.3a2.87,2.87,0,0,1-1-2.2,11.25,11.25,0,0,1,.8-3.3c.9-3,1.67-6.45,2.35-9.75a188.52,188.52,0,0,0,4.1-28.14c.88-15.18.54-32.38-1.54-46a202.83,202.83,0,0,0-4-20.15c-.25-1-.48-2.14-.8-3.22-.37-1.23-1.12-2.41-.88-3.82A3,3,0,0,1,61.58.18Z"/><path class="cls-2" d="M84.15,34H80.27c-.09,0-.08.11-.07.22.41,1.91-.76,5.59.51,6.66.7.6,2.21.37,3.44.37H88c-.4-2,.74-5.63-.52-6.81C86.86,33.77,85.39,34,84.15,34Z"/><path class="cls-2" d="M109.58,44.81a11.74,11.74,0,0,0-7.47,3s-.16.39-.29.14v-7c0-1.79.41-5.64-.52-6.52-.68-.65-2.16-.44-3.37-.44H94.05c-.09,0-.08.11-.08.22V70c0,1.56-.28,4,.3,4.83s1.82.94,2.78,1.18a33.51,33.51,0,0,0,10.92.8c9.74-1,13.51-8.13,12.75-19.05C120.21,50.26,117.35,44.75,109.58,44.81Zm.52,24.84c-1.95,1.69-5.15,1.79-8.28.81V56.32a10,10,0,0,1,0-2c.1-.43.82-1,1.39-1.47,1.37-1.07,4.18-2.38,6.37-1.1s2.83,5,3,8.72C112.75,64,112.09,67.94,110.1,69.65Z"/><path class="cls-2" d="M129.08,34h-3.81c-.09,0-.08.11-.08.22.38,2-.79,5.89.74,6.81.77.47,2.2.22,3.44.22H133c-.41-2,.79-5.81-.58-6.89C131.72,33.77,130.33,34,129.08,34Z"/><path class="cls-2" d="M148.72,56.76c-1.52-.69-3.45-1.53-3.52-3-.13-2.46,2.83-2.68,5.35-2.49a34.17,34.17,0,0,1,6.23,1.1c-.25-2.33.54-4.31-.52-5.5-.69-.78-2.79-1-3.95-1.24-6-1.06-11.5.33-13.63,4-1.46,2.47-1.54,7.14.44,9.82,1.26,1.7,3.62,3.05,5.93,4.1,2.11,1,5.54,2.1,5.64,4.47.13,3-3.44,3.18-6.37,2.93a48.62,48.62,0,0,1-6.45-1.1c.16,2-.42,4.5.59,5.57a4.25,4.25,0,0,0,2,.81c3.89,1,9.31,1,12.39-.3a8.55,8.55,0,0,0,5.57-7.4C158.92,61,153.54,59,148.72,56.76Z"/><path class="cls-2" d="M84.15,45.62H80.27c-.09,0-.08.11-.07.22V72.73c0,1.32-.09,2.86.51,3.37s2.25.37,3.44.37H88v-27c0-1.36.06-2.83-.52-3.37S85.35,45.62,84.15,45.62Z"/><path class="cls-2" d="M129.22,45.62h-4c-.09,0-.08.11-.08.22V73c0,1.36-.06,2.71.66,3.23s2.28.29,3.45.29H133V49.58c0-1.28.08-2.9-.44-3.45S130.46,45.62,129.22,45.62Z"/><path class="cls-2" d="M113.54,92.67a3.35,3.35,0,0,0-2-.15,2.48,2.48,0,0,0-1.17.37c-1.22.86-1.54,4.16-.51,5.49a3.47,3.47,0,0,0,3.59.66C115.69,98,115.39,93.53,113.54,92.67ZM112.66,98c-2.3.92-2.52-3.84-1-4.33C114,93,113.87,97.53,112.66,98Z"/><path class="cls-2" d="M135.53,96.11a3.48,3.48,0,0,0-1.4-.88c-.39-.18-1.38-.41-1.17-1.17s1.91-.33,2.49-.15a3.47,3.47,0,0,0-.07-1.1c-1.3-.48-3-.38-3.59.44a2.06,2.06,0,0,0,.07,2.27c.67.86,2.58.83,2.57,1.84s-1.9.64-2.86.51v.88c1.22.74,3.27.62,4-.37A2.2,2.2,0,0,0,135.53,96.11Z"/><path class="cls-2" d="M108.19,92.67a5.57,5.57,0,0,0-1.39-.08,16.49,16.49,0,0,1-.08,2.57h-2.34a18.2,18.2,0,0,0-.07-2.49,5.65,5.65,0,0,0-1.4-.08V96a11.81,11.81,0,0,0,.15,3.08,4.29,4.29,0,0,0,1.32.07,22,22,0,0,1,.07-2.85h2.35a21,21,0,0,0,.07,2.78,5.16,5.16,0,0,0,1.39.07C108.22,97,108.36,94.67,108.19,92.67Z"/><path class="cls-2" d="M120.36,92.59c-1.56.09-3.93-.18-5,.15-.14.22,0,.69-.07,1h1.83V99c.27.24.91.11,1.39.14,0-1.75-.09-3.71.08-5.35a7.58,7.58,0,0,0,1.68-.07C120.43,93.45,120.32,93,120.36,92.59Z"/><path class="cls-2" d="M122.63,96.26h2.49c.2-.21.14-.7.15-1.1h-2.64c.05-.44-.1-1.08.07-1.4a19.91,19.91,0,0,0,2.71-.07,2,2,0,0,0,.15-1.1h-4.33c.15,1.39-.18,3.83,0,5.13.27,1.86,2.75,1.65,4.48,1.17a3.25,3.25,0,0,0,.07-1C124.34,98.17,122.11,98.49,122.63,96.26Z"/><path class="cls-2" d="M128.42,97.87c-.89-.77.12-4.16-.37-5.2a4.62,4.62,0,0,0-1.32-.08c.24,1.84-.49,5.23.44,6.16.71.71,2.51.5,3.59.14a3.22,3.22,0,0,0,.08-1C130,97.92,129,98.36,128.42,97.87Z"/><path class="cls-3" d="M281.67,34.05a9.7,9.7,0,0,1,4.22,3,6.92,6.92,0,0,1,1.53,4.39,8.77,8.77,0,0,1-.85,3.84,8.62,8.62,0,0,1-2.43,3.08,11.39,11.39,0,0,1-3.79,2,16,16,0,0,1-4.77.7H261.81V18.8h13a12.13,12.13,0,0,1,7.73,2.32,7.41,7.41,0,0,1,2.93,6.11,7.68,7.68,0,0,1-1,3.85A8.63,8.63,0,0,1,281.67,34.05Zm-8.21-8.21h-3.11V31.6h3.11a2.86,2.86,0,0,0,2.07-.76,2.72,2.72,0,0,0,.81-2.08,2.83,2.83,0,0,0-.81-2.16A2.86,2.86,0,0,0,273.46,25.84Zm.9,18.17a4,4,0,0,0,2.64-.83,2.88,2.88,0,0,0,1-2.32,2.75,2.75,0,0,0-1-2.25,4,4,0,0,0-2.6-.81h-4V44Z"/><path class="cls-3" d="M312.94,51l-1.74-4H300.06l-1.74,4h-9.25l16.56-32.89L322.23,51Zm-10.38-9.79h6.14l-3.07-7.07Z"/><path class="cls-3" d="M354.59,18.8V51.69L335,36.14V51h-8.73V18.15l19.63,16.16V18.8Z"/><path class="cls-3" d="M376.1,18.8A17,17,0,0,1,382.54,20a16.08,16.08,0,0,1,5.31,3.43,15.49,15.49,0,0,1,3.51,5.17,16.45,16.45,0,0,1,0,12.58,15.53,15.53,0,0,1-3.51,5.18,16.05,16.05,0,0,1-5.31,3.42A17,17,0,0,1,376.1,51h-14V18.8h14Zm-1.51,24.81a9.07,9.07,0,0,0,4.34-1.11,7.37,7.37,0,0,0,3.16-3.21,9.31,9.31,0,0,0,0-8.74,7.47,7.47,0,0,0-3.16-3.21,9.07,9.07,0,0,0-4.34-1.11h-3.72V43.61Z"/><path class="cls-3" d="M411.62,51.61a16.38,16.38,0,0,1-5.21-.83,14.25,14.25,0,0,1-4.36-2.34,11,11,0,0,1-2.95-3.56A9.27,9.27,0,0,1,398,40.55V18.8h8.72V39.46a4.72,4.72,0,0,0,.45,1.9,3.85,3.85,0,0,0,1.68,1.75,5.28,5.28,0,0,0,2.73.72,6.3,6.3,0,0,0,2.12-.41,4.2,4.2,0,0,0,1.94-1.51,4.06,4.06,0,0,0,.8-2.45V18.8h8.73V40.55a9.39,9.39,0,0,1-1.06,4.33,11,11,0,0,1-2.95,3.56,14.3,14.3,0,0,1-4.37,2.34A16.34,16.34,0,0,1,411.62,51.61Z"/><path class="cls-3" d="M460.63,18.8V51.69L441,36.14V51h-8.73V18.15l19.63,16.16V18.8Z"/><path class="cls-3" d="M484.6,31.47H500V45.75a16.37,16.37,0,0,1-4.85,3.37,23.93,23.93,0,0,1-5.78,2,25.59,25.59,0,0,1-4.6.53,19.69,19.69,0,0,1-7.1-1.29,18.05,18.05,0,0,1-5.85-3.58,16.54,16.54,0,0,1-3.87-5.38,15.82,15.82,0,0,1,0-13A16.32,16.32,0,0,1,471.79,23a18,18,0,0,1,5.85-3.54,20.11,20.11,0,0,1,7.1-1.26,21,21,0,0,1,6.53,1.07,20.26,20.26,0,0,1,5.83,2.9l-4.67,6.25a12.84,12.84,0,0,0-3.33-1.6,12.44,12.44,0,0,0-3.75-.59,10,10,0,0,0-3.7.68,9.37,9.37,0,0,0-3,1.86,8.16,8.16,0,0,0-2,2.79A8.34,8.34,0,0,0,476,35a8.72,8.72,0,0,0,.48,2.76,8.73,8.73,0,0,0,4.95,5.11,10.32,10.32,0,0,0,3.77.74,11.56,11.56,0,0,0,6.46-1.88V38.15h-7Z"/><path class="cls-3" d="M231.15,102H227V73.37H215.15V69.64H243v3.73H231.15Z"/><path class="cls-3" d="M250.66,102h-4.13V69.64H257.2a12.56,12.56,0,0,1,8.38,2.89A9.55,9.55,0,0,1,269,80.22a10.52,10.52,0,0,1-1.64,5.86,11.56,11.56,0,0,1-4.46,4l7.54,11.65-.14.27H266l-7-10.59a16.39,16.39,0,0,1-3,.27h-5.34Zm6-28.61h-6V87.92h5a10.1,10.1,0,0,0,6.58-2.07,6.72,6.72,0,0,0,2.55-5.49,6.18,6.18,0,0,0-2.31-5.21A9.25,9.25,0,0,0,256.67,73.37Z"/><path class="cls-3" d="M285.4,69.28h.39l15.42,32.43L301,102h-4.33l-2.83-6.18H277.23L274.45,102h-4.23l-.19-.27Zm.05,8.19-6.53,14.59h13.21Z"/><path class="cls-3" d="M308.13,102H304V69.28h.38l24.8,23.89V69.64h4.13v32.7h-.39L308.13,78.67Z"/><path class="cls-3" d="M339.22,77.56a7.32,7.32,0,0,1,2.79-6,10.78,10.78,0,0,1,7-2.25,12.69,12.69,0,0,1,9.13,3.6l-2.93,2.72A9.45,9.45,0,0,0,349,73a6.39,6.39,0,0,0-3.91,1.18,3.8,3.8,0,0,0-1.61,3.27,3.2,3.2,0,0,0,.45,1.62,7.54,7.54,0,0,0,1,1.31,9.58,9.58,0,0,0,1.83,1.34c.88.53,1.56.92,2,1.18l2.69,1.35q8,4,8,9.48a7.81,7.81,0,0,1-2.84,6.12,10.68,10.68,0,0,1-7.25,2.47,15.86,15.86,0,0,1-6.8-1.43,13.91,13.91,0,0,1-4.83-3.51l2.93-2.72a17.08,17.08,0,0,0,4,2.92,10.41,10.41,0,0,0,4.73,1,6.27,6.27,0,0,0,4.16-1.38,4.19,4.19,0,0,0,1.66-3.34q0-3.55-7.06-6.85a24.25,24.25,0,0,1-6.66-4.27A7,7,0,0,1,339.22,77.56Z"/><path class="cls-3" d="M376.94,77.56a7.34,7.34,0,0,1,2.78-6,10.82,10.82,0,0,1,7-2.25,12.69,12.69,0,0,1,9.13,3.6l-2.93,2.72A9.45,9.45,0,0,0,386.69,73a6.44,6.44,0,0,0-3.92,1.18,3.81,3.81,0,0,0-1.6,3.27,3.2,3.2,0,0,0,.45,1.62,7.54,7.54,0,0,0,1,1.31,9.58,9.58,0,0,0,1.83,1.34c.88.53,1.56.92,2,1.18l2.69,1.35q8,4,8,9.48a7.81,7.81,0,0,1-2.84,6.12,10.68,10.68,0,0,1-7.25,2.47,15.86,15.86,0,0,1-6.8-1.43,13.91,13.91,0,0,1-4.83-3.51l2.93-2.72a16.87,16.87,0,0,0,4,2.92,10.41,10.41,0,0,0,4.73,1,6.27,6.27,0,0,0,4.16-1.38,4.19,4.19,0,0,0,1.66-3.34q0-3.55-7.07-6.85a24.33,24.33,0,0,1-6.65-4.27A7,7,0,0,1,376.94,77.56Z"/><path class="cls-3" d="M412.83,102H408.7V73.37H396.83V69.64H424.7v3.73H412.83Z"/><path class="cls-3" d="M432,89a13.55,13.55,0,0,0,.46,3.63,9,9,0,0,0,1.49,3,6.8,6.8,0,0,0,2.93,2.16,11.94,11.94,0,0,0,4.54.78q5.19,0,7.59-2.83a10.45,10.45,0,0,0,2.41-7V69.64h4.13V88.9a13.36,13.36,0,0,1-3.65,9.66q-3.66,3.78-10.48,3.78t-10.11-3.56a12.82,12.82,0,0,1-3.44-9.3V69.64H432Z"/><path class="cls-3" d="M471.45,102h-9V69.64h10.85q7.74,0,12.59,4.07t4.86,11.36q0,8.28-5.31,12.59T471.45,102Zm1.35-28.61h-6.2V98.24h4.61a24.94,24.94,0,0,0,6-.66A15.25,15.25,0,0,0,482,95.46a9.32,9.32,0,0,0,3.34-4,14.85,14.85,0,0,0,1.18-6.2q0-5.74-3.63-8.79T472.8,73.37Z"/><path class="cls-3" d="M500.47,102h-4.13V69.64h4.13Z"/><path class="cls-3" d="M523.54,102.34a17.42,17.42,0,0,1-12.33-4.68,15.43,15.43,0,0,1-5-11.83A15.71,15.71,0,0,1,511.14,74a17.44,17.44,0,0,1,12.59-4.76A17.11,17.11,0,0,1,536.15,74a16.53,16.53,0,0,1-.1,23.55A17.31,17.31,0,0,1,523.54,102.34ZM536.8,85.79a12.32,12.32,0,0,0-3.68-9.12,14.07,14.07,0,0,0-18.93,0,12.89,12.89,0,0,0,0,18.22,13.83,13.83,0,0,0,18.81,0A12.22,12.22,0,0,0,536.8,85.79Z"/></svg>