<svg id="Layer_1" data-name="Layer 1" xmlns="http://www.w3.org/2000/svg" viewBox="0 0 600 120"><title>ibis-v-dark</title><path d="M109.58,51.77c-2.19-1.28-5,0-6.37,1.1-.57.45-1.29,1-1.39,1.47a10,10,0,0,0,0,2V70.46c3.13,1,6.33.88,8.28-.81s2.65-5.61,2.49-9.16C112.41,56.76,111.85,53.1,109.58,51.77Z"/><path d="M177.88,113.33c-.3-1-.54-2.16-.8-3.22a195.28,195.28,0,0,1-4-20.23c-2.6-18.17-2.73-42.32.07-60.31.68-4.36,1.54-9.07,2.49-13.56.67-3.14,1.44-6.69,2.35-9.74a13.09,13.09,0,0,0,.88-3.16,3.06,3.06,0,0,0-2.79-3,10.13,10.13,0,0,0-3.22.81c-3.13.94-6.72,1.72-9.75,2.34-4.47.92-9.15,1.9-13.55,2.57-18.26,2.75-42.34,2.72-60.54.07-4.64-.68-9.23-1.59-13.63-2.49-3.29-.68-6.7-1.36-9.82-2.27C64.26.74,63,0,61.58.18A3,3,0,0,0,59,2.67c-.24,1.41.51,2.59.88,3.81s.55,2.22.8,3.23a202.83,202.83,0,0,1,4,20.15c2.08,13.64,2.42,30.84,1.54,46A188.52,188.52,0,0,1,62.17,104c-.68,3.3-1.45,6.71-2.35,9.75a11.25,11.25,0,0,0-.8,3.3,2.87,2.87,0,0,0,1,2.2c1.62,1.37,3.91.19,5.57-.3,1.09-.31,2.19-.54,3.23-.8,6.46-1.63,13.15-2.9,20.15-4,18.15-2.74,42.44-2.57,60.31.07,4.51.67,9.18,1.58,13.56,2.5,3.17.65,6.68,1.42,9.75,2.34a14.15,14.15,0,0,0,3.15.88,3.06,3.06,0,0,0,3.08-3.66C178.65,115.32,178.18,114.35,177.88,113.33ZM88,49.43v27H84.15c-1.19,0-2.75.22-3.44-.37s-.51-2-.51-3.37V45.84c0-.11,0-.21.07-.22h3.88c1.2,0,2.73-.18,3.38.44S88,48.07,88,49.43Zm0-8.21H84.15c-1.23,0-2.74.23-3.44-.37-1.27-1.07-.1-4.75-.51-6.66,0-.11,0-.21.07-.22h3.88c1.24,0,2.71-.2,3.38.44C88.78,35.59,87.64,39.19,88,41.22Zm37.15-7c0-.11,0-.21.08-.22h3.81c1.25,0,2.64-.2,3.37.36,1.37,1.08.17,4.88.58,6.89h-3.66c-1.24,0-2.67.25-3.45-.22C124.4,40.08,125.57,36.23,125.19,34.19ZM108.26,99.11a5.16,5.16,0,0,1-1.39-.07,21,21,0,0,1-.07-2.78h-2.35a22,22,0,0,0-.07,2.85,4.29,4.29,0,0,1-1.32-.07,11.81,11.81,0,0,1-.15-3.08V92.59a5.65,5.65,0,0,1,1.4.08,18.2,18.2,0,0,1,.07,2.49h2.34a16.49,16.49,0,0,0,.08-2.57,5.57,5.57,0,0,1,1.39.08C108.36,94.67,108.22,97,108.26,99.11Zm5.21-.07a3.47,3.47,0,0,1-3.59-.66c-1-1.33-.71-4.63.51-5.49a2.48,2.48,0,0,1,1.17-.37,3.35,3.35,0,0,1,2,.15C115.39,93.53,115.69,98,113.47,99Zm6.81-5.35a7.58,7.58,0,0,1-1.68.07c-.17,1.64,0,3.6-.08,5.35-.48,0-1.12.1-1.39-.14V93.76H115.3c0-.33-.07-.8.07-1,1.06-.33,3.43-.06,5-.15C120.32,93,120.43,93.45,120.28,93.69ZM108,76.76A33.51,33.51,0,0,1,97.05,76c-1-.24-2.29-.46-2.78-1.18S94,71.51,94,70V34.19c0-.11,0-.21.08-.22h3.88c1.21,0,2.69-.21,3.37.44.93.88.52,4.73.52,6.52v7c.13.25.25-.11.29-.14a11.74,11.74,0,0,1,7.47-3c7.77-.06,10.63,5.45,11.14,12.9C121.48,68.63,117.71,75.73,108,76.76Zm17.74,22.13c-1.73.48-4.21.69-4.47-1.17-.19-1.3.14-3.74,0-5.13h4.32a2,2,0,0,1-.15,1.1,19.91,19.91,0,0,1-2.71.07c-.17.32,0,1-.07,1.4h2.64c0,.4,0,.89-.15,1.1h-2.49c-.52,2.23,1.71,1.91,3.15,1.61A3.25,3.25,0,0,1,125.71,98.89ZM125.19,73V45.84c0-.11,0-.21.08-.22h4c1.24,0,2.72-.18,3.37.51s.44,2.17.44,3.45V76.47H129.3c-1.17,0-2.73.22-3.45-.29S125.19,74.31,125.19,73Zm5.57,25.94c-1.08.36-2.88.57-3.59-.14-.93-.93-.2-4.32-.44-6.16a4.62,4.62,0,0,1,1.32.08c.49,1-.52,4.43.37,5.2.57.49,1.54,0,2.42,0A3.22,3.22,0,0,1,130.76,98.89Zm4.77-.51c-.69,1-2.74,1.11-4,.37v-.88c1,.13,2.84.65,2.86-.51s-1.9-1-2.57-1.84a2.06,2.06,0,0,1-.07-2.27c.58-.82,2.29-.92,3.59-.44a3.47,3.47,0,0,1,.07,1.1c-.58-.18-2.27-.65-2.49.15s.78,1,1.17,1.17a3.48,3.48,0,0,1,1.4.88A2.2,2.2,0,0,1,135.53,98.38Zm22.86-29.9a8.55,8.55,0,0,1-5.57,7.4c-3.08,1.3-8.5,1.27-12.38.3a4.25,4.25,0,0,1-2-.81c-1-1.07-.43-3.53-.59-5.57a48.62,48.62,0,0,0,6.45,1.1c2.93.25,6.5,0,6.37-2.93-.1-2.37-3.53-3.51-5.64-4.47-2.31-1-4.67-2.4-5.93-4.1-2-2.68-1.9-7.35-.44-9.82,2.13-3.63,7.6-5,13.63-4,1.16.2,3.26.46,3.95,1.24,1.06,1.19.27,3.17.52,5.5a34.17,34.17,0,0,0-6.23-1.1c-2.52-.19-5.48,0-5.35,2.49.08,1.48,2,2.32,3.52,3C153.54,59,158.92,61,158.39,68.48Z"/><path d="M111.71,93.69c-1.57.49-1.35,5.25,1,4.33C113.87,97.53,114,93,111.71,93.69Z"/><path d="M281.67,34.05a9.7,9.7,0,0,1,4.22,3,6.92,6.92,0,0,1,1.53,4.39,8.77,8.77,0,0,1-.85,3.84,8.62,8.62,0,0,1-2.43,3.08,11.39,11.39,0,0,1-3.79,2,16,16,0,0,1-4.77.7H261.81V18.8h13a12.13,12.13,0,0,1,7.73,2.32,7.41,7.41,0,0,1,2.93,6.11,7.68,7.68,0,0,1-1,3.85A8.63,8.63,0,0,1,281.67,34.05Zm-8.21-8.21h-3.11V31.6h3.11a2.86,2.86,0,0,0,2.07-.76,2.72,2.72,0,0,0,.81-2.08,2.83,2.83,0,0,0-.81-2.16A2.86,2.86,0,0,0,273.46,25.84Zm.9,18.17a4,4,0,0,0,2.64-.83,2.88,2.88,0,0,0,1-2.32,2.75,2.75,0,0,0-1-2.25,4,4,0,0,0-2.6-.81h-4V44Z"/><path d="M312.94,51l-1.74-4H300.06l-1.74,4h-9.25l16.56-32.89L322.23,51Zm-10.38-9.79h6.14l-3.07-7.07Z"/><path d="M354.59,18.8V51.69L335,36.14V51h-8.73V18.15l19.63,16.16V18.8Z"/><path d="M376.1,18.8A17,17,0,0,1,382.54,20a16.08,16.08,0,0,1,5.31,3.43,15.49,15.49,0,0,1,3.51,5.17,16.45,16.45,0,0,1,0,12.58,15.53,15.53,0,0,1-3.51,5.18,16.05,16.05,0,0,1-5.31,3.42A17,17,0,0,1,376.1,51h-14V18.8h14Zm-1.51,24.81a9.07,9.07,0,0,0,4.34-1.11,7.37,7.37,0,0,0,3.16-3.21,9.31,9.31,0,0,0,0-8.74,7.47,7.47,0,0,0-3.16-3.21,9.07,9.07,0,0,0-4.34-1.11h-3.72V43.61Z"/><path d="M411.62,51.61a16.38,16.38,0,0,1-5.21-.83,14.25,14.25,0,0,1-4.36-2.34,11,11,0,0,1-2.95-3.56A9.27,9.27,0,0,1,398,40.55V18.8h8.72V39.46a4.72,4.72,0,0,0,.45,1.9,3.85,3.85,0,0,0,1.68,1.75,5.28,5.28,0,0,0,2.73.72,6.3,6.3,0,0,0,2.12-.41,4.2,4.2,0,0,0,1.94-1.51,4.06,4.06,0,0,0,.8-2.45V18.8h8.73V40.55a9.39,9.39,0,0,1-1.06,4.33,11,11,0,0,1-2.95,3.56,14.3,14.3,0,0,1-4.37,2.34A16.34,16.34,0,0,1,411.62,51.61Z"/><path d="M460.63,18.8V51.69L441,36.14V51h-8.73V18.15l19.63,16.16V18.8Z"/><path d="M484.6,31.47H500V45.75a16.37,16.37,0,0,1-4.85,3.37,23.93,23.93,0,0,1-5.78,2,25.59,25.59,0,0,1-4.6.53,19.69,19.69,0,0,1-7.1-1.29,18.05,18.05,0,0,1-5.85-3.58,16.54,16.54,0,0,1-3.87-5.38,15.82,15.82,0,0,1,0-13A16.32,16.32,0,0,1,471.79,23a18,18,0,0,1,5.85-3.54,20.11,20.11,0,0,1,7.1-1.26,21,21,0,0,1,6.53,1.07,20.26,20.26,0,0,1,5.83,2.9l-4.67,6.25a12.84,12.84,0,0,0-3.33-1.6,12.44,12.44,0,0,0-3.75-.59,10,10,0,0,0-3.7.68,9.37,9.37,0,0,0-3,1.86,8.16,8.16,0,0,0-2,2.79A8.34,8.34,0,0,0,476,35a8.72,8.72,0,0,0,.48,2.76,8.73,8.73,0,0,0,4.95,5.11,10.32,10.32,0,0,0,3.77.74,11.56,11.56,0,0,0,6.46-1.88V38.15h-7Z"/><path d="M231.15,102H227V73.37H215.15V69.64H243v3.73H231.15Z"/><path d="M250.66,102h-4.13V69.64H257.2a12.56,12.56,0,0,1,8.38,2.89A9.55,9.55,0,0,1,269,80.22a10.52,10.52,0,0,1-1.64,5.86,11.56,11.56,0,0,1-4.46,4l7.54,11.65-.14.27H266l-7-10.59a16.39,16.39,0,0,1-3,.27h-5.34Zm6-28.61h-6V87.92h5a10.1,10.1,0,0,0,6.58-2.07,6.72,6.72,0,0,0,2.55-5.49,6.18,6.18,0,0,0-2.31-5.21A9.25,9.25,0,0,0,256.67,73.37Z"/><path d="M285.4,69.28h.39l15.42,32.43L301,102h-4.33l-2.83-6.18H277.23L274.45,102h-4.23l-.19-.27Zm.05,8.19-6.53,14.59h13.21Z"/><path d="M308.13,102H304V69.28h.38l24.8,23.89V69.64h4.13v32.7h-.39L308.13,78.67Z"/><path d="M339.22,77.56a7.32,7.32,0,0,1,2.79-6,10.78,10.78,0,0,1,7-2.25,12.69,12.69,0,0,1,9.13,3.6l-2.93,2.72A9.45,9.45,0,0,0,349,73a6.39,6.39,0,0,0-3.91,1.18,3.8,3.8,0,0,0-1.61,3.27,3.2,3.2,0,0,0,.45,1.62,7.54,7.54,0,0,0,1,1.31,9.58,9.58,0,0,0,1.83,1.34c.88.53,1.56.92,2,1.18l2.69,1.35q8,4,8,9.48a7.81,7.81,0,0,1-2.84,6.12,10.68,10.68,0,0,1-7.25,2.47,15.86,15.86,0,0,1-6.8-1.43,13.91,13.91,0,0,1-4.83-3.51l2.93-2.72a17.08,17.08,0,0,0,4,2.92,10.41,10.41,0,0,0,4.73,1,6.27,6.27,0,0,0,4.16-1.38,4.19,4.19,0,0,0,1.66-3.34q0-3.55-7.06-6.85a24.25,24.25,0,0,1-6.66-4.27A7,7,0,0,1,339.22,77.56Z"/><path d="M376.94,77.56a7.34,7.34,0,0,1,2.78-6,10.82,10.82,0,0,1,7-2.25,12.69,12.69,0,0,1,9.13,3.6l-2.93,2.72A9.45,9.45,0,0,0,386.69,73a6.44,6.44,0,0,0-3.92,1.18,3.81,3.81,0,0,0-1.6,3.27,3.2,3.2,0,0,0,.45,1.62,7.54,7.54,0,0,0,1,1.31,9.58,9.58,0,0,0,1.83,1.34c.88.53,1.56.92,2,1.18l2.69,1.35q8,4,8,9.48a7.81,7.81,0,0,1-2.84,6.12,10.68,10.68,0,0,1-7.25,2.47,15.86,15.86,0,0,1-6.8-1.43,13.91,13.91,0,0,1-4.83-3.51l2.93-2.72a16.87,16.87,0,0,0,4,2.92,10.41,10.41,0,0,0,4.73,1,6.27,6.27,0,0,0,4.16-1.38,4.19,4.19,0,0,0,1.66-3.34q0-3.55-7.07-6.85a24.33,24.33,0,0,1-6.65-4.27A7,7,0,0,1,376.94,77.56Z"/><path d="M412.83,102H408.7V73.37H396.83V69.64H424.7v3.73H412.83Z"/><path d="M432,89a13.55,13.55,0,0,0,.46,3.63,9,9,0,0,0,1.49,3,6.8,6.8,0,0,0,2.93,2.16,11.94,11.94,0,0,0,4.54.78q5.19,0,7.59-2.83a10.45,10.45,0,0,0,2.41-7V69.64h4.13V88.9a13.36,13.36,0,0,1-3.65,9.66q-3.66,3.78-10.48,3.78t-10.11-3.56a12.82,12.82,0,0,1-3.44-9.3V69.64H432Z"/><path d="M471.45,102h-9V69.64h10.85q7.74,0,12.59,4.07t4.86,11.36q0,8.28-5.31,12.59T471.45,102Zm1.35-28.61h-6.2V98.24h4.61a24.94,24.94,0,0,0,6-.66A15.25,15.25,0,0,0,482,95.46a9.32,9.32,0,0,0,3.34-4,14.85,14.85,0,0,0,1.18-6.2q0-5.74-3.63-8.79T472.8,73.37Z"/><path d="M500.47,102h-4.13V69.64h4.13Z"/><path d="M523.54,102.34a17.42,17.42,0,0,1-12.33-4.68,15.43,15.43,0,0,1-5-11.83A15.71,15.71,0,0,1,511.14,74a17.44,17.44,0,0,1,12.59-4.76A17.11,17.11,0,0,1,536.15,74a16.53,16.53,0,0,1-.1,23.55A17.31,17.31,0,0,1,523.54,102.34ZM536.8,85.79a12.32,12.32,0,0,0-3.68-9.12,14.07,14.07,0,0,0-18.93,0,12.89,12.89,0,0,0,0,18.22,13.83,13.83,0,0,0,18.81,0A12.22,12.22,0,0,0,536.8,85.79Z"/></svg>