<svg id="Layer_1" data-name="Layer 1" xmlns="http://www.w3.org/2000/svg" viewBox="0 0 600 120"><defs><style>.cls-1{fill:#fff;}</style></defs><title>jhl-v-light</title><path class="cls-1" d="M259.55,76.16A25,25,0,0,1,246.5,72.8V71.13a22.77,22.77,0,0,0,13,4c8.16,0,12.9-3.94,12.9-10.94,0-4.88-2.4-8.09-9.33-11.37l-5.54-2.55c-7.95-3.79-11-7.58-11-13.2a10.65,10.65,0,0,1,4.23-9,16.92,16.92,0,0,1,10.57-3.2,21.73,21.73,0,0,1,10.79,2.47v1.54a20.11,20.11,0,0,0-10.72-3c-7.21,0-12,3.93-12,10.64,0,4.59,2.41,7.73,9.7,11.15l5.61,2.63c8.1,3.79,10.57,7.51,10.57,13.27C275.22,72.07,269.25,76.16,259.55,76.16Z"/><path class="cls-1" d="M333.54,50.5c0,7.5-2.33,13.63-7.07,18.44a25.34,25.34,0,0,1-35.43,0C286.31,64.13,284,58,284,50.5s2.34-13.64,7.07-18.45a25.37,25.37,0,0,1,35.43,0C331.21,36.86,333.54,43,333.54,50.5Zm-3,0c0-7.15-2.05-13-6.05-17.72a21.38,21.38,0,0,0-31.5,0C289,37.45,287,43.35,287,50.5s2,13,6.05,17.64a21.22,21.22,0,0,0,31.5,0C328.51,63.55,330.56,57.64,330.56,50.5Z"/><path class="cls-1" d="M344.92,75.28V25.71h2.91V74.26h24.93v1Z"/><path class="cls-1" d="M383.41,75.28V25.71h2.91V75.28Z"/><path class="cls-1" d="M415.19,75.28V26.73H398v-1h37.32v1h-17.2V75.28Z"/><path class="cls-1" d="M476.21,75.28l-9.33-20.41h-23l-9.33,20.41h-1.31L456,25.71h.66l22.67,49.57ZM455.36,29.79l-11,24.06h22Z"/><path class="cls-1" d="M489.4,75.28V25.71h2.92V75.28Z"/><path class="cls-1" d="M508.5,26.73V75.28h-2.92V25.71H520c9.4,0,15.89,4.38,15.89,13S529.42,51.81,520,51.81h-3.14l22.68,23.47h-3.72L513,51.52v-.66h7c7.87,0,13-4.23,13-12.1s-5.1-12-13-12Z"/><path class="cls-1" d="M548.45,75.28V25.71H577.9v1H551.36V49.11h23v1h-23V74.26H577.9v1Z"/><path class="cls-1" d="M321.67,91.59a6,6,0,0,0-4.53-1.84c-4.09,0-6.53,3.21-6.53,6.87s2.44,6.86,6.53,6.86a9.09,9.09,0,0,0,4.39-1.12V97h-3.79V95.56h5.41v7.79a12.42,12.42,0,0,1-6,1.61,8.35,8.35,0,0,1,0-16.69,7.62,7.62,0,0,1,5.74,2.13Z"/><path class="cls-1" d="M327.12,104.56h-1.89l6.91-15.89h1.57l6.91,15.89h-1.88L337,100.38h-8.12Zm2.35-5.66h6.89l-3.43-8.34Z"/><path class="cls-1" d="M342.55,88.67h5.27c4,0,8.35,2.65,8.35,8s-4.38,7.94-8.35,7.94h-5.27Zm1.62,14.41h3.14c4.84,0,7.11-3.19,7.11-6.46s-2.27-6.47-7.11-6.47h-3.14Z"/><path class="cls-1" d="M361,104.56H359.4V88.67H361Z"/><path class="cls-1" d="M376.8,102.13h.05V88.67h1.61v15.89h-2L367,91h-.05v13.6h-1.61V88.67h2Z"/><path class="cls-1" d="M394.5,91.59A6,6,0,0,0,390,89.75c-4.08,0-6.53,3.21-6.53,6.87s2.45,6.86,6.53,6.86a9.16,9.16,0,0,0,4.4-1.12V97h-3.79V95.56H396v7.79a12.42,12.42,0,0,1-6,1.61,8.35,8.35,0,0,1,0-16.69,7.62,7.62,0,0,1,5.74,2.13Z"/><path class="cls-1" d="M414,91.3a3.48,3.48,0,0,0-3.07-1.55c-1.66,0-3.39.88-3.39,2.87,0,4.29,8.14,2,8.14,7.74,0,2.9-2.71,4.6-5.22,4.6a6,6,0,0,1-5-2.36l1.46-1a4,4,0,0,0,3.61,1.93c1.6,0,3.41-1,3.41-2.89,0-4.49-8.14-2-8.14-7.81,0-3.07,2.56-4.51,5.14-4.51a5.45,5.45,0,0,1,4.48,1.93Z"/><path class="cls-1" d="M420.54,103.08H429v1.48H418.93V88.67h9.84v1.48h-8.23v5.41h7.7V97h-7.7Z"/><path class="cls-1" d="M433.84,104.56h-1.61V88.67h4.89c3.23,0,5.22,1.39,5.22,4.24,0,2.2-1.45,3.88-4.06,4.11l4.58,7.54h-2l-4.36-7.38h-2.69Zm0-8.86h2.87c2.9,0,3.88-1.26,3.88-2.79s-1-2.76-3.88-2.76h-2.87Z"/><path class="cls-1" d="M445.53,88.67h4.62c3.23,0,5.23,1.39,5.23,4.24s-2,4.27-5.23,4.27h-3v7.38h-1.61Zm1.61,7h2.61c2.89,0,3.88-1.26,3.88-2.79s-1-2.76-3.88-2.76h-2.61Z"/><path class="cls-1" d="M465.6,105a8.35,8.35,0,1,1,8.28-8.34A8.08,8.08,0,0,1,465.6,105Zm0-15.21c-4.08,0-6.52,3.21-6.52,6.87s2.44,6.86,6.52,6.86,6.53-3.21,6.53-6.86S469.69,89.75,465.6,89.75Z"/><path class="cls-1" d="M488.59,102.13h.05V88.67h1.62v15.89h-2L478.77,91h0v13.6h-1.61V88.67h2Z"/><path class="cls-1" d="M506.29,91.59a6,6,0,0,0-4.53-1.84c-4.08,0-6.53,3.21-6.53,6.87s2.45,6.86,6.53,6.86a9.16,9.16,0,0,0,4.4-1.12V97h-3.79V95.56h5.4v7.79a12.42,12.42,0,0,1-6,1.61,8.35,8.35,0,0,1,0-16.69,7.62,7.62,0,0,1,5.74,2.13Z"/><path class="cls-1" d="M89.38,7.46,104.07.11a1.06,1.06,0,0,1,1.54,1v56.1a1.07,1.07,0,0,0,1.06,1.07H138.2a1.07,1.07,0,0,0,1.06-1.07V1.06a1.06,1.06,0,0,1,1.53-.95l14.7,7.35a1.07,1.07,0,0,1,.59,1V118.85a1.07,1.07,0,0,1-1.06,1.06h-14.7a1.06,1.06,0,0,1-1.06-1.06V67.7a1.06,1.06,0,0,0-1.06-1.06H106.67a1.06,1.06,0,0,0-1.06,1.06v51.15a1.06,1.06,0,0,1-1.06,1.06H89.85a1.06,1.06,0,0,1-1.06-1.06V8.41A1.07,1.07,0,0,1,89.38,7.46Z"/><path class="cls-1" d="M74.77,17v85.68a.94.94,0,0,1-.29.69l-5,5a1,1,0,0,1-.69.28H23.08a1,1,0,0,1-.88-1.41L26.83,98a1,1,0,0,1,.88-.54H57a1,1,0,0,0,1-1v-82a1,1,0,0,1,1.14-1L74,16A1,1,0,0,1,74.77,17Z"/><path class="cls-1" d="M175.71,17v85.64a1,1,0,0,0,.29.71l5,5a1,1,0,0,0,.72.29h45.59a1,1,0,0,0,.91-1.47L223.65,98a1,1,0,0,0-.91-.56H193.55a1,1,0,0,1-1-1V14.56a1,1,0,0,0-1.18-1L176.56,16A1,1,0,0,0,175.71,17Z"/><rect class="cls-1" x="383.37" y="19.41" width="3.2" height="3.2" transform="translate(97.9 278.37) rotate(-45)"/><rect class="cls-1" x="489.16" y="19.41" width="3.2" height="3.2" transform="translate(128.89 353.17) rotate(-45)"/></svg>