<svg id="Layer_1" data-name="Layer 1" xmlns="http://www.w3.org/2000/svg" viewBox="0 0 360 360"><title>jhl-h-dark</title><path d="M14.17,264.85A27.15,27.15,0,0,1,0,261.2v-1.82a24.69,24.69,0,0,0,14.1,4.36c8.86,0,14-4.28,14-11.88,0-5.31-2.61-8.79-10.13-12.35l-6-2.78C3.33,232.62,0,228.5,0,222.4c0-4.2,1.5-7.52,4.59-9.82a18.39,18.39,0,0,1,11.48-3.48,23.51,23.51,0,0,1,11.72,2.69v1.66a21.89,21.89,0,0,0-11.64-3.24c-7.84,0-13.06,4.27-13.06,11.56,0,5,2.61,8.39,10.53,12.11l6.1,2.85c8.79,4.12,11.48,8.16,11.48,14.42C31.2,260.41,24.71,264.85,14.17,264.85Z"/><path d="M94.55,237c0,8.16-2.53,14.81-7.68,20a25.94,25.94,0,0,1-19.24,7.84A26,26,0,0,1,48.38,257c-5.14-5.23-7.68-11.88-7.68-20s2.54-14.81,7.68-20a25.92,25.92,0,0,1,19.25-7.84,25.9,25.9,0,0,1,19.24,7.84C92,222.16,94.55,228.82,94.55,237Zm-3.25,0c0-7.76-2.21-14.17-6.57-19.24a21.62,21.62,0,0,0-17.1-7.52,21.66,21.66,0,0,0-17.11,7.52C46.17,222.8,44,229.21,44,237s2.22,14.18,6.57,19.17a21.51,21.51,0,0,0,17.11,7.6,21.47,21.47,0,0,0,17.1-7.6C89.09,251.15,91.3,244.73,91.3,237Z"/><path d="M106.91,263.9V210.05h3.17v52.74h27.08v1.11Z"/><path d="M148.72,263.9V210.05h3.17V263.9Z"/><path d="M183.25,263.9V211.16H164.56v-1.11H205.1v1.11H186.41V263.9Z"/><path d="M249.53,263.9l-10.14-22.18H214.45L204.31,263.9h-1.42l24.7-53.85h.72l24.62,53.85Zm-22.65-49.42-12,26.14h23.92Z"/><path d="M263.86,263.9V210.05H267V263.9Z"/><path d="M284.61,211.16V263.9h-3.17V210.05h15.68c10.22,0,17.27,4.75,17.27,14.17s-7.05,14.18-17.27,14.18h-3.4l24.63,25.5h-4l-24.79-25.82v-.71h7.6c8.55,0,14.1-4.59,14.1-13.15s-5.55-13.06-14.1-13.06Z"/><path d="M328,263.9V210.05h32v1.11H331.18v24.31h24.94v1.11H331.18v26.21H360v1.11Z"/><path d="M84,281.61a6.53,6.53,0,0,0-4.93-2c-4.43,0-7.09,3.48-7.09,7.46s2.66,7.45,7.09,7.45a9.92,9.92,0,0,0,4.78-1.21v-5.78H79.69v-1.61h5.87v8.46A13.49,13.49,0,0,1,79,296.13,9.07,9.07,0,0,1,79,278a8.25,8.25,0,0,1,6.24,2.32Z"/><path d="M89.87,295.69h-2l7.5-17.25H97l7.51,17.25h-2l-1.9-4.53H91.78Zm2.56-6.14h7.48l-3.72-9.06Z"/><path d="M106.64,278.44h5.73c4.31,0,9.06,2.88,9.06,8.63s-4.75,8.62-9.06,8.62h-5.73Zm1.75,15.65h3.42c5.26,0,7.72-3.46,7.72-7s-2.46-7-7.72-7h-3.42Z"/><path d="M126.69,295.69h-1.75V278.44h1.75Z"/><path d="M143.85,293.06h.05V278.44h1.75v17.25h-2.19l-10.29-14.76h0v14.76h-1.75V278.44h2.19Z"/><path d="M163.07,281.61a6.5,6.5,0,0,0-4.92-2c-4.44,0-7.09,3.48-7.09,7.46s2.65,7.45,7.09,7.45a10,10,0,0,0,4.78-1.21v-5.78h-4.12v-1.61h5.87v8.46a13.49,13.49,0,0,1-6.53,1.75,9.07,9.07,0,0,1,0-18.13,8.27,8.27,0,0,1,6.24,2.32Z"/><path d="M184.22,281.29a3.76,3.76,0,0,0-3.34-1.68c-1.8,0-3.68.95-3.68,3.12,0,4.65,8.85,2.19,8.85,8.41,0,3.14-3,5-5.68,5a6.47,6.47,0,0,1-5.43-2.56l1.58-1.14a4.35,4.35,0,0,0,3.93,2.09c1.73,0,3.7-1.12,3.7-3.14,0-4.87-8.85-2.17-8.85-8.48,0-3.34,2.78-4.9,5.58-4.9a6,6,0,0,1,4.88,2.1Z"/><path d="M191.36,294.09h9.24v1.6h-11V278.44H200.3v1.61h-8.94v5.87h8.36v1.61h-8.36Z"/><path d="M205.81,295.69h-1.76V278.44h5.32c3.51,0,5.68,1.51,5.68,4.61,0,2.38-1.59,4.21-4.42,4.46l5,8.18h-2.15l-4.73-8h-2.92Zm0-9.62h3.12c3.14,0,4.21-1.37,4.21-3s-1.07-3-4.21-3h-3.12Z"/><path d="M218.5,278.44h5c3.51,0,5.68,1.51,5.68,4.61s-2.17,4.63-5.68,4.63h-3.26v8H218.5Zm1.76,7.63h2.83c3.14,0,4.21-1.37,4.21-3s-1.07-3-4.21-3h-2.83Z"/><path d="M240.31,296.13a9.07,9.07,0,1,1,9-9.06A8.77,8.77,0,0,1,240.31,296.13Zm0-16.52c-4.43,0-7.09,3.48-7.09,7.46s2.66,7.45,7.09,7.45,7.09-3.48,7.09-7.45S244.75,279.61,240.31,279.61Z"/><path d="M265.29,293.06h0V278.44h1.75v17.25H264.9l-10.28-14.76h-.05v14.76h-1.76V278.44H255Z"/><path d="M284.52,281.61a6.53,6.53,0,0,0-4.93-2c-4.43,0-7.09,3.48-7.09,7.46s2.66,7.45,7.09,7.45a9.92,9.92,0,0,0,4.78-1.21v-5.78h-4.12v-1.61h5.87v8.46a13.49,13.49,0,0,1-6.53,1.75,9.07,9.07,0,0,1,0-18.13,8.25,8.25,0,0,1,6.24,2.32Z"/><path d="M143.33,72l16-8A1.15,1.15,0,0,1,161,65V126a1.16,1.16,0,0,0,1.15,1.16h34.25a1.16,1.16,0,0,0,1.15-1.16V65a1.15,1.15,0,0,1,1.67-1l16,8a1.16,1.16,0,0,1,.63,1V193a1.15,1.15,0,0,1-1.15,1.16h-16a1.16,1.16,0,0,1-1.15-1.16V137.41a1.16,1.16,0,0,0-1.15-1.16H162.12a1.16,1.16,0,0,0-1.15,1.16V193a1.16,1.16,0,0,1-1.15,1.16h-16A1.15,1.15,0,0,1,142.7,193V73A1.16,1.16,0,0,1,143.33,72Z"/><path d="M127.47,82.33v93.08a1.07,1.07,0,0,1-.32.75l-5.46,5.47a1.07,1.07,0,0,1-.76.31H71.31a1.06,1.06,0,0,1-1-1.54l5-10.05a1.07,1.07,0,0,1,1-.59h31.79a1.06,1.06,0,0,0,1.06-1.06V79.64a1.06,1.06,0,0,1,1.24-1l16.15,2.69A1.07,1.07,0,0,1,127.47,82.33Z"/><path d="M237.12,82.37v93a1.06,1.06,0,0,0,.32.78l5.44,5.45a1.1,1.1,0,0,0,.78.32H293.2a1.11,1.11,0,0,0,1-1.6l-5-10a1.12,1.12,0,0,0-1-.61H256.49a1.11,1.11,0,0,1-1.1-1.11v-89a1.11,1.11,0,0,0-1.29-1.09L238,81.28A1.11,1.11,0,0,0,237.12,82.37Z"/><rect x="149" y="205.58" width="2.68" height="2.68" transform="translate(-102.28 166.92) rotate(-45)"/><rect x="264.37" y="205.58" width="2.68" height="2.68" transform="translate(-68.49 248.49) rotate(-45)"/></svg>