<svg id="Layer_1" data-name="Layer 1" xmlns="http://www.w3.org/2000/svg" viewBox="0 0 360 360"><defs><style>.cls-1{fill:#fff;}</style></defs><title>juno-h-light</title><path class="cls-1" d="M241.94,274.16a5.42,5.42,0,0,1-3,1.36,4.47,4.47,0,0,1-4.61-2.78,5.11,5.11,0,0,1,1.29-5.74,4.54,4.54,0,0,1,5.51-.3c.37.22.76.92,1.1-.16.28-.91,1.2-.43,1.83-.41s.51.7.51,1.13c0,2.42,0,4.83,0,7.24-.1,3.15-1.28,4.39-4.39,4.9a9,9,0,0,1-4.7-.61c-.5-.19-1.05-.42-.66-1.17s.57-1.15,1.44-.69a5.67,5.67,0,0,0,3.44.58C241.42,277.26,242.2,276.17,241.94,274.16ZM239.11,268a2.81,2.81,0,0,0-2.83,2.68,2.84,2.84,0,0,0,3,2.85,3,3,0,0,0,3-2.78A3,3,0,0,0,239.11,268Z"/><path class="cls-1" d="M280.7,272.72c0,.75,0,1.5,0,2.25,0,.48.31,1.25-.44,1.34s-1.49.54-1.9-.48c-.28-.68-.56-.12-.81,0a4.61,4.61,0,0,1-4.45.28,2.76,2.76,0,0,1-1.7-2.53,2.84,2.84,0,0,1,1.4-2.86,6.29,6.29,0,0,1,4.52-.55c.33.06.77.38,1-.1s-.08-.74-.31-1c-1.16-1.5-2.69-1.12-4.12-.65-.87.28-1.08,0-1.33-.71s0-1,.71-1.28a8,8,0,0,1,4.58-.27,3.66,3.66,0,0,1,2.84,3.65c.07,1,0,1.93,0,2.9Zm-5.15,2.12c1.46,0,2.82-.93,2.81-2,0-1.55-1.37-1.09-2.16-1.15-1-.08-2.28,0-2.4,1.48C273.69,274.43,274.67,274.7,275.55,274.84Z"/><path class="cls-1" d="M258,272.82c0,.75,0,1.5,0,2.25,0,.44.25,1.12-.39,1.23s-1.52.47-1.87-.3-.63-.27-.92-.1a4.64,4.64,0,0,1-4.16.36,2.83,2.83,0,0,1-1.93-2.52,2.9,2.9,0,0,1,1.55-3.09,6.21,6.21,0,0,1,4.07-.49c.4.06,1,.4,1.18,0s-.09-1-.52-1.4c-1.11-1-2.4-.76-3.64-.39-.75.23-1.22.36-1.54-.59s.34-1.16,1-1.39a7.49,7.49,0,0,1,4.27-.22,3.44,3.44,0,0,1,2.78,3.31c.12,1.11.12,2.24.18,3.36Zm-4.25-1.19c-1.61-.07-2.66.55-2.68,1.56,0,1.18.78,1.55,1.76,1.64a2.4,2.4,0,0,0,2.79-2C255.6,271.31,254.29,272,253.71,271.63Z"/><path class="cls-1" d="M226.32,272.14c-.81,0-1.61,0-2.42,0-.36,0-.88,0-1,.16-.32.4.13.8.35,1.13a3,3,0,0,0,4.15.68c.86-.54,1.54-.56,2,.26s-.5,1.17-1,1.49a5.36,5.36,0,0,1-7.4-1.89,5.52,5.52,0,0,1,2.13-7.51,4.56,4.56,0,0,1,4.75.14c1.72,1.05,2.27,2.75,2.39,4.65.05.75-.35.9-1,.88C228.25,272.11,227.28,272.14,226.32,272.14Zm-1.19-1.6h2.07c.5,0,.66-.23.48-.71A2.61,2.61,0,0,0,226,268a2.3,2.3,0,0,0-2.48.58c-.45.46-1,1-.8,1.64s1,.21,1.58.31A5.19,5.19,0,0,0,225.13,270.54Z"/><path class="cls-1" d="M185,272.67c0,.75,0,1.5,0,2.25,0,1.37-.94,2.12-1.94,1.34s-1.34-.25-2,0c-2.92,1.1-5.55-.51-5.29-3.23.15-1.68,1.36-2.74,3.45-2.95a21.08,21.08,0,0,1,2.24.09c.37,0,.89.46,1.09-.14a1.24,1.24,0,0,0-.58-1.39,3.63,3.63,0,0,0-3.68-.24c-1.13.44-1.23-.23-1.46-1-.16-.49.06-.71.44-.85a7,7,0,0,1,5.76-.06,3.71,3.71,0,0,1,2,3.74C185,271.06,185,271.87,185,272.67Zm-4.41-1.08c-1.21.14-2.5.21-2.53,1.7,0,1.18,1,1.53,2,1.54,1.37,0,2.68-1,2.62-2.06C182.62,271.3,181.27,272,180.58,271.59Z"/><path class="cls-1" d="M206.93,271.21c0-1.29,0-2.57,0-3.86,0-.43-.26-1.11.43-1.18s1.51-.48,1.86.35.52.51,1,.2c2.78-1.83,5.58-.51,5.85,2.81.15,2,0,4,.11,5.94,0,1-.64.91-1.28.91s-1.29.09-1.25-.93c.06-1.6,0-3.21,0-4.82s-.79-2.53-2-2.56-2.24.94-2.3,2.53-.06,3.21,0,4.82c0,1-.52,1-1.22,1s-1.24-.05-1.19-1C207,274,206.93,272.6,206.93,271.21Z"/><path class="cls-1" d="M171.46,268.06c0,1.45.06,2.9,0,4.34a3.87,3.87,0,0,1-2.81,3.89,5.26,5.26,0,0,1-5.49-1.25c-.52-.5-.51-.9,0-1.3s.71-1.27,1.52-.48a3.25,3.25,0,0,0,.46.45,2.55,2.55,0,0,0,2.72.37,2.11,2.11,0,0,0,1.14-2.14c0-2.62.06-5.25,0-7.87,0-1,.23-1.31,1.25-1.31s1.32.28,1.25,1.28c-.08,1.34,0,2.68,0,4Z"/><path class="cls-1" d="M194.35,274.36c.2,0,.74-.46.82.3.06.6.25,1.24-.59,1.62a3,3,0,0,1-4.51-2.58c-.07-1.12,0-2.25,0-3.37-.06-.84.52-1.93-1-2.35-.37-.11-.54-1.55.14-1.76,1.15-.34.83-1.11.82-1.76,0-.88.21-1.23,1.16-1.22s1.43.27,1.26,1.27c-.25,1.41.45,1.79,1.71,1.6.83-.12,1.12.25,1.12,1.09s-.39,1.07-1.09.95c-1.6-.29-1.88.55-1.75,1.89.08.91,0,1.82,0,2.73C192.48,274.12,192.88,274.49,194.35,274.36Z"/><path class="cls-1" d="M265.23,267.64a18,18,0,0,1,1.42-1.24,1.7,1.7,0,0,1,1.64-.38c.66.32.23,1.06.33,1.6.14.82-.54.79-1,.92a3.27,3.27,0,0,0-2.52,3.3c0,1,0,1.92,0,2.89,0,.8.3,1.68-1.16,1.7s-1.25-.91-1.25-1.78c0-2.25-.05-4.5,0-6.74,0-.64-.6-1.7.81-1.84S264.89,266.06,265.23,267.64Z"/><path class="cls-1" d="M199.52,271.28c0-1.39.06-2.78,0-4.16-.07-1.08.52-1.05,1.27-1.06s1.31.07,1.29,1.1c-.06,2.72-.06,5.45,0,8.17,0,1.06-.56,1-1.31,1.07s-1.31-.11-1.25-1.11C199.57,274,199.52,272.62,199.52,271.28Z"/><path class="cls-1" d="M200.6,262.32c.94-.11,1.53-.07,1.53,1.08s-.36,1.3-1.3,1.24c-.78,0-1.47.07-1.4-1.12C199.49,262.6,199.63,262,200.6,262.32Z"/><path class="cls-1" d="M360,164.11a44.49,44.49,0,1,1-44.52-44.65A44.4,44.4,0,0,1,360,164.11Zm-71.53-.36c-.15,14.82,11.89,27.24,26.52,27.37a26.88,26.88,0,0,0,27.49-26.66,27.16,27.16,0,0,0-27-27.69C300.92,136.75,288.61,149,288.47,163.75Z"/><path class="cls-1" d="M77.32,174.3q0,24,0,48c0,22.72-17.16,39.65-39.86,39.39C17.85,261.51.84,244.92,0,225.3c-.08-1.82.4-2.36,2.18-2.31,4.26.1,8.52.13,12.77,0,1.92-.06,2.41.67,2.66,2.44C19.5,238.82,31,246.7,44.12,243.6c9.24-2.19,15.82-10.9,15.83-21.19q.06-43.5,0-87c0-4.15.09-8.29,0-12.43-.06-1.93.56-2.48,2.45-2.42,4,.14,8.07.2,12.09,0,2.46-.13,2.92.77,2.91,3C77.28,140.48,77.32,157.39,77.32,174.3Z"/><path class="cls-1" d="M172.52,148c0,7.61.06,15.22,0,22.83a38.38,38.38,0,0,1-33.82,37.73c-20,2.21-38.39-10.57-42.64-29.84a38.27,38.27,0,0,1-.8-8c-.08-16,0-32-.1-48,0-2.36.6-3.07,3-2.93a83.67,83.67,0,0,0,10.74,0c2.84-.19,3.8.48,3.76,3.59-.19,15.45-.17,30.9,0,46.34.08,11.5,8.26,20.66,18.94,21.57,13.09,1.11,23.42-8.1,23.53-21.24.13-15.34,0-30.67,0-46a13.48,13.48,0,0,0,0-2c-.29-1.86.61-2.25,2.27-2.21,4,.09,8.07.19,12.09,0,2.44-.12,3.24.43,3.18,3C172.39,131.21,172.52,139.61,172.52,148Z"/><path class="cls-1" d="M183.14,174.41c.41-7.93-.84-17.71.6-27.4,3.12-21,26-36,46.65-30.58,19,5,30,19.23,30,38.9,0,15.23-.07,30.46.07,45.69,0,2.86-.8,3.62-3.55,3.43a83.83,83.83,0,0,0-10.75,0c-2.49.15-3.22-.58-3.19-3.14q.18-23.19,0-46.37c-.06-11.1-6.53-19.25-16.94-21.6-12.67-2.87-25.33,6.84-25.49,19.87-.19,15.79-.14,31.58,0,47.37,0,3-.68,4.14-3.84,3.89a87.15,87.15,0,0,0-11.08,0c-2.16.11-2.6-.7-2.58-2.69C183.19,193.23,183.14,184.72,183.14,174.41Z"/><path class="cls-1" d="M68.26,109.94a14.46,14.46,0,0,1-14.4-14.58C54,86.93,60.31,80.52,68.44,80.5A15,15,0,0,1,83.25,95.22,14.61,14.61,0,0,1,68.26,109.94Z"/><path class="cls-1" d="M114.05,227.44h2.2V236h11.23v-8.56h2.2v20.41h-2.2V238H116.25v9.85h-2.2Z"/><path class="cls-1" d="M177.73,226.93a12,12,0,0,1,8.39,3.09,10.29,10.29,0,0,1,0,15.23,11.63,11.63,0,0,1-8.21,3.12,11.77,11.77,0,0,1-8.27-3.11,9.86,9.86,0,0,1-3.38-7.52,10.28,10.28,0,0,1,1.54-5.45,10.74,10.74,0,0,1,4.19-3.94A11.94,11.94,0,0,1,177.73,226.93Zm.1,2a9.76,9.76,0,0,0-4.64,1.18,8.9,8.9,0,0,0-3.42,3.18,8.36,8.36,0,0,0-1.23,4.46,8,8,0,0,0,2.73,6.15,9.33,9.33,0,0,0,6.56,2.5,10,10,0,0,0,4.75-1.15,8.65,8.65,0,0,0,3.41-3.15,8.41,8.41,0,0,0,1.22-4.45,8.18,8.18,0,0,0-1.22-4.39,8.86,8.86,0,0,0-3.45-3.15A10,10,0,0,0,177.83,228.91Z"/><path class="cls-1" d="M223.92,229.44v-2H236v2h-4.91v18.41h-2.25V229.44Z"/><path class="cls-1" d="M271.38,227.44H284v2H273.58v6.4h10.34v2H273.58v8h10.34v2H271.38Z"/><path class="cls-1" d="M320,227.44h2.2v18.44h8.48v2H320Z"/></svg>