<svg id="Layer_1" data-name="Layer 1" xmlns="http://www.w3.org/2000/svg" viewBox="0 0 600 120"><defs><style>.cls-1{fill:#4d2f21;}.cls-2{fill:#f2622d;}</style></defs><title>juno-v</title><path class="cls-1" d="M315.93,55a29.1,29.1,0,1,1-29.12-29.2A29,29,0,0,1,315.93,55Zm-46.79-.23a17.67,17.67,0,1,0,17.7-17.65A18,18,0,0,0,269.14,54.81Z"/><path class="cls-1" d="M131.05,61.71q0,15.71,0,31.42c0,14.86-11.22,25.93-26.07,25.76-12.83-.15-24-11-24.5-23.83,0-1.19.27-1.54,1.43-1.51,2.79.07,5.57.09,8.35,0,1.26,0,1.58.44,1.74,1.59,1.23,8.77,8.78,13.93,17.33,11.9,6-1.43,10.35-7.13,10.36-13.86q0-28.45,0-56.91c0-2.71.06-5.42,0-8.13,0-1.26.36-1.62,1.6-1.57,2.63.08,5.28.12,7.91,0,1.61-.08,1.91.51,1.9,2C131,39.59,131.05,50.65,131.05,61.71Z"/><path class="cls-1" d="M193.31,44.51c0,5,0,10,0,14.94a25.11,25.11,0,0,1-22.11,24.67A25.42,25.42,0,0,1,143.3,64.6a24.73,24.73,0,0,1-.53-5.22c-.05-10.47,0-20.94-.06-31.41,0-1.55.39-2,1.94-1.92a58.72,58.72,0,0,0,7,0c1.85-.13,2.48.3,2.46,2.34-.12,10.1-.11,20.21,0,30.31.06,7.52,5.41,13.51,12.39,14.1,8.56.73,15.32-5.29,15.39-13.89.09-10,0-20.06,0-30.09a8.18,8.18,0,0,0,0-1.31c-.19-1.22.41-1.47,1.49-1.45,2.64.06,5.28.12,7.91,0,1.59-.09,2.12.27,2.08,2C193.23,33.53,193.31,39,193.31,44.51Z"/><path class="cls-1" d="M200.25,61.78c.27-5.19-.54-11.59.4-17.92,2-13.75,17-23.53,30.51-20,12.43,3.25,19.62,12.57,19.62,25.44,0,10-.05,19.92.05,29.88,0,1.87-.53,2.37-2.33,2.24a54.81,54.81,0,0,0-7,0c-1.64.1-2.11-.38-2.1-2.06.09-10.1.08-20.21,0-30.32,0-7.26-4.27-12.59-11.07-14.13a13.74,13.74,0,0,0-16.68,13c-.12,10.32-.09,20.65,0,31,0,2-.45,2.7-2.51,2.54a56.57,56.57,0,0,0-7.25,0c-1.41.06-1.7-.46-1.69-1.77C200.29,74.09,200.25,68.52,200.25,61.78Z"/><path class="cls-2" d="M125.12,19.61a9.45,9.45,0,0,1-9.42-9.53A9.59,9.59,0,0,1,125.24.36,9.79,9.79,0,0,1,134.93,10,9.55,9.55,0,0,1,125.12,19.61Z"/><path class="cls-1" d="M409.51,60.5a16,16,0,0,1-16.18,15.88,16.22,16.22,0,0,1-16.37-16,15.92,15.92,0,0,1,16.38-15.86C402.64,44.57,409.52,51.37,409.51,60.5Zm-29.55,0a13.32,13.32,0,0,0,13.32,13.41,13.57,13.57,0,0,0,13.44-13.4,13.72,13.72,0,0,0-13.43-13.7A13.46,13.46,0,0,0,380,60.52Z"/><path class="cls-1" d="M359.68,60.47c0,4.47,0,8.93,0,13.4,0,1.07,0,1.78-1.46,1.78s-1.37-.89-1.37-1.86c0-4,0-8.06,0-12.08,0-1.33-.37-1.76-1.73-1.74-4.39.09-8.79.07-13.18,0-1.23,0-1.63.33-1.61,1.58.08,4.1,0,8.2,0,12.3,0,1,0,1.8-1.43,1.8s-1.45-.75-1.45-1.8q0-13.52,0-27c0-1.11.12-1.74,1.51-1.75s1.37.89,1.36,1.85c0,2.93.05,5.86,0,8.79,0,1.24.15,1.82,1.63,1.79,4.39-.11,8.78-.1,13.17,0,1.38,0,1.75-.4,1.71-1.73-.09-3,0-6,0-9,0-1,0-1.65,1.35-1.67s1.5.64,1.5,1.74C359.66,51.39,359.68,55.93,359.68,60.47Z"/><path class="cls-1" d="M465.3,60.28c0-4.47,0-8.94,0-13.41,0-1.32.32-1.78,1.7-1.75,3.88.09,7.76.05,11.65,0,1,0,1.81,0,1.78,1.42s-.8,1.28-1.7,1.27c-2.93,0-5.86,0-8.79,0-1.26,0-1.89.25-1.83,1.68.1,2.12.07,4.25,0,6.37,0,1.15.42,1.51,1.54,1.49,3.08-.06,6.16,0,9.23,0,.89,0,1.54,0,1.52,1.21s-.31,1.53-1.49,1.5c-3-.07-6,.06-9-.06-1.51-.06-1.85.49-1.81,1.88.09,3.15.08,6.3,0,9.45,0,1.31.33,1.82,1.72,1.77,3-.09,6,0,9,0,.82,0,1.58-.14,1.58,1.16s-.46,1.46-1.56,1.44c-3.95-.06-7.91-.08-11.86,0-1.37,0-1.74-.4-1.72-1.74C465.35,69.36,465.3,64.82,465.3,60.28Z"/><path class="cls-2" d="M344.3,112.71c-1.29.9-2.48,1.82-4.14,1.85-3,.06-5.28-1.23-6.29-3.8a7,7,0,0,1,1.76-7.83,6.19,6.19,0,0,1,7.52-.41c.5.3,1.05,1.25,1.5-.22.39-1.23,1.65-.58,2.5-.55,1,0,.71,1,.71,1.54,0,3.29,0,6.59-.08,9.88-.14,4.31-1.75,6-6,6.69a12.15,12.15,0,0,1-6.43-.84c-.68-.25-1.43-.56-.9-1.58.43-.83.78-1.58,2-1a7.6,7.6,0,0,0,4.69.8C343.6,116.94,344.66,115.46,344.3,112.71Zm-3.86-8.43a3.79,3.79,0,1,0,.25,7.56,4,4,0,0,0,4.05-3.81A4.1,4.1,0,0,0,340.44,104.28Z"/><path class="cls-1" d="M433,61.76c0-3.94-.06-7.89,0-11.84,0-1.57-.33-2.28-2-2.13s-3.36,0-5,.05c-1,0-1.4-.31-1.4-1.37s.46-1.34,1.46-1.33c5.55,0,11.11,0,16.66,0,.94,0,1.47.15,1.5,1.29s-.55,1.45-1.59,1.41c-1.6-.06-3.22.11-4.82-.05s-2,.55-2,2.11c.08,7.9,0,15.79,0,23.68,0,1,.34,2.06-1.38,2.07S433,74.56,433,73.6C433,69.66,433,65.71,433,61.76Z"/><path class="cls-1" d="M506.21,60.35c0-4.46,0-8.92,0-13.38,0-1-.17-1.84,1.36-1.87s1.51.88,1.51,1.95c0,8,0,16,0,23.92,0,1.56.29,2.23,2,2.11,2.33-.17,4.68,0,7-.06,1,0,1.46.16,1.44,1.3s-.5,1.32-1.47,1.3c-3.44,0-6.88-.07-10.31,0-1.33,0-1.56-.52-1.55-1.69C506.25,69.42,506.21,64.89,506.21,60.35Z"/><path class="cls-2" d="M397.22,110.74c0,1,.06,2.05,0,3.07,0,.66.42,1.71-.61,1.83-.84.1-2,.74-2.6-.66-.38-.92-.75-.15-1.1.06a6.3,6.3,0,0,1-6.08.38A3.75,3.75,0,0,1,384.5,112a3.86,3.86,0,0,1,1.92-3.9,8.54,8.54,0,0,1,6.17-.76c.44.08,1.05.52,1.35-.13.23-.49-.12-1-.43-1.41-1.58-2-3.67-1.53-5.62-.89-1.19.39-1.48.06-1.82-1s.05-1.42,1-1.74a10.88,10.88,0,0,1,6.26-.37c2.33.56,3.68,2.3,3.87,5,.1,1.31,0,2.63,0,3.95Zm-7,2.9c2,0,3.86-1.28,3.84-2.76,0-2.12-1.87-1.5-2.95-1.58-1.41-.11-3.11,0-3.27,2C387.66,113.08,389,113.44,390.19,113.64Z"/><path class="cls-2" d="M366.18,110.88c0,1,0,2.05,0,3.07,0,.6.33,1.53-.54,1.68s-2.07.64-2.56-.41-.85-.37-1.25-.14a6.27,6.27,0,0,1-5.68.49,3.86,3.86,0,0,1-2.64-3.44,4,4,0,0,1,2.13-4.21,8.5,8.5,0,0,1,5.55-.68c.54.09,1.32.55,1.62,0s-.14-1.4-.71-1.92c-1.53-1.35-3.29-1-5-.52-1,.31-1.66.48-2.1-.81-.5-1.45.47-1.58,1.36-1.9a10.26,10.26,0,0,1,5.83-.3,4.71,4.71,0,0,1,3.8,4.51c.16,1.52.17,3.06.25,4.59Zm-5.81-1.63c-2.2-.09-3.63.76-3.66,2.14,0,1.6,1.07,2.11,2.41,2.23,2,.18,3.78-1.11,3.81-2.73C363,108.82,361.17,109.7,360.37,109.25Z"/><path class="cls-2" d="M323,109.94c-1.1,0-2.2,0-3.3,0-.49,0-1.21-.06-1.43.22-.43.55.18,1.09.49,1.54a4,4,0,0,0,5.66.93c1.17-.73,2.11-.76,2.71.36s-.68,1.6-1.38,2a7.31,7.31,0,0,1-10.11-2.58,7.56,7.56,0,0,1,2.91-10.26,6.26,6.26,0,0,1,6.49.19c2.35,1.45,3.1,3.76,3.26,6.36.07,1-.47,1.23-1.35,1.2C325.6,109.91,324.29,109.94,323,109.94Zm-1.62-2.18h0c.94,0,1.88,0,2.83,0,.67,0,.9-.31.65-1a3.58,3.58,0,0,0-2.24-2.48,3.14,3.14,0,0,0-3.39.78c-.61.63-1.37,1.43-1.08,2.25s1.41.29,2.14.42A6.6,6.6,0,0,0,321.35,107.76Z"/><path class="cls-2" d="M266.54,110.67c0,1,0,2,0,3.07,0,1.88-1.28,2.91-2.65,1.84-1.19-.93-1.83-.35-2.75,0-4,1.5-7.58-.69-7.23-4.41.22-2.29,1.86-3.74,4.72-4a28.48,28.48,0,0,1,3.05.12c.51,0,1.22.63,1.5-.19a1.75,1.75,0,0,0-.8-1.91c-1.59-1.19-3.38-1-5-.32s-1.67-.31-2-1.32c-.22-.68.09-1,.61-1.17,2.61-1,5.27-1.37,7.87-.08,2.05,1,2.74,2.91,2.71,5.11C266.53,108.48,266.54,109.58,266.54,110.67Zm-6-1.47c-1.66.18-3.42.28-3.45,2.32,0,1.6,1.34,2.09,2.77,2.1,1.88,0,3.66-1.31,3.58-2.81C263.3,108.8,261.46,109.69,260.52,109.2Z"/><path class="cls-2" d="M296.5,108.68c0-1.76,0-3.51,0-5.27,0-.58-.35-1.52.6-1.61s2.05-.66,2.53.48.71.69,1.36.26c3.79-2.5,7.61-.69,8,3.85.22,2.69.08,5.4.17,8.11,0,1.4-.88,1.23-1.76,1.24s-1.76.13-1.7-1.27c.08-2.19.05-4.39,0-6.58s-1.08-3.46-2.79-3.5-3.06,1.28-3.13,3.45-.08,4.39,0,6.58c.05,1.34-.71,1.32-1.67,1.34s-1.68-.08-1.62-1.38C296.57,112.48,296.5,110.58,296.5,108.68Z"/><path class="cls-2" d="M248.06,104.38c0,2,.09,4,0,5.93-.15,2.53-1.23,4.54-3.84,5.3a7.19,7.19,0,0,1-7.5-1.7c-.71-.68-.7-1.23,0-1.77s1-1.74,2.07-.66a6,6,0,0,0,.63.61,3.51,3.51,0,0,0,3.72.51,2.9,2.9,0,0,0,1.56-2.92c.05-3.58.08-7.17,0-10.76,0-1.31.32-1.78,1.7-1.78s1.8.39,1.72,1.75c-.12,1.83,0,3.66,0,5.49Z"/><path class="cls-2" d="M279.32,113c.28,0,1-.62,1.12.41.08.81.33,1.7-.81,2.22-3,1.36-5.93-.25-6.15-3.53-.1-1.53,0-3.07-.07-4.6-.09-1.15.71-2.63-1.31-3.22-.51-.14-.75-2.11.19-2.39,1.57-.48,1.13-1.52,1.11-2.41,0-1.19.29-1.67,1.59-1.67s1.95.38,1.72,1.73c-.34,1.94.62,2.45,2.34,2.2,1.13-.18,1.52.34,1.52,1.48s-.53,1.47-1.48,1.3c-2.19-.39-2.57.75-2.4,2.59.12,1.23,0,2.48,0,3.72C276.76,112.66,277.32,113.15,279.32,113Z"/><path class="cls-2" d="M376.1,103.81a23.36,23.36,0,0,1,1.94-1.7,2.36,2.36,0,0,1,2.25-.52c.89.43.31,1.45.44,2.19.2,1.12-.73,1.08-1.38,1.26a4.46,4.46,0,0,0-3.44,4.5c-.07,1.31,0,2.63-.06,3.94,0,1.1.4,2.3-1.59,2.32s-1.71-1.24-1.71-2.43c0-3.06-.07-6.13,0-9.2,0-.88-.83-2.32,1.09-2.51C375.41,101.5,375.64,101.65,376.1,103.81Z"/><path class="cls-2" d="M286.37,108.78c0-1.9.1-3.8,0-5.69-.09-1.47.72-1.43,1.75-1.44s1.78.09,1.75,1.49c-.08,3.72-.08,7.45,0,11.17,0,1.45-.75,1.42-1.79,1.45s-1.78-.14-1.7-1.51C286.45,112.43,286.37,110.6,286.37,108.78Z"/><path class="cls-2" d="M287.85,96.54c1.28-.15,2.09-.1,2.09,1.47,0,1.4-.48,1.78-1.78,1.7-1.06-.06-2,.09-1.9-1.53C286.34,96.92,286.53,96.13,287.85,96.54Z"/></svg>