<svg id="Layer_1" data-name="Layer 1" xmlns="http://www.w3.org/2000/svg" viewBox="0 0 360 360"><defs><style>.cls-1{fill:#fff;}</style></defs><title>leisure-h-light</title><path class="cls-1" d="M61.52,207.78c.11,5.14,0,10.28,0,15.42,0,4.7,0,9.4,0,14.09,0-4.69,0-9.39,0-14.09C61.56,218.06,61.63,212.92,61.52,207.78Z"/><path class="cls-1" d="M270.81,223.21c0-5.08.06-10.16,0-15.23.1,5.07,0,10.15,0,15.23s.08,10.28-.05,15.42C270.89,233.49,270.81,228.35,270.81,223.21Z"/><path class="cls-1" d="M158.63,207.74c.07,5.08,0,10.16,0,15.24v0C158.66,217.9,158.7,212.82,158.63,207.74Z"/><path class="cls-1" d="M205.15,205.19a17.73,17.73,0,0,0-17.66,18.09c0,10.29,7.74,18.23,17.73,18.23,10.33,0,18-7.79,18-18.33C223.18,212.81,215.54,205.19,205.15,205.19Zm.17,31.25c-6.95,0-12.4-5.8-12.44-13.19a12.49,12.49,0,1,1,25-.07C217.9,230.57,212.33,236.47,205.32,236.44Z"/><path class="cls-1" d="M89,205.2c-10.13,0-17.88,7.9-17.88,18.22A17.73,17.73,0,0,0,89,241.51c10.1,0,17.88-7.95,17.89-18.28A17.62,17.62,0,0,0,89,205.2Zm0,31.21a12.77,12.77,0,0,1-12.58-13c0-7.31,5.53-13.05,12.55-13.05,6.81,0,12.53,5.92,12.51,12.95C101.55,230.57,96,236.41,89.09,236.41Z"/><path class="cls-1" d="M138.56,207.1c0-1-.45-1.34-1.37-1.29a10.84,10.84,0,0,1-1.71,0c-1.65-.23-2,.53-2,2.06.12,5.46.14,10.92.14,16.38a41.19,41.19,0,0,1-.14,6.75c-.67-.12-.82-.56-1.05-.92-4.63-7.13-9.37-14.2-13.83-21.44-1.4-2.28-3-3.1-5.51-2.84-1.3.13-1.74.46-1.72,1.79.07,4.82,0,9.65,0,14.47,0,5.59,0,11.18,0,16.76,0,1.48.44,2.16,2,2a5.91,5.91,0,0,1,1.33,0c1.41.17,1.89-.39,1.86-1.83-.13-5.9-.17-11.81-.23-17.71,0-2.08,0-4.16,0-6.39a2,2,0,0,1,1.33,1.21c4.77,7.35,9.66,14.62,14.18,22.12,1.43,2.36,3.08,2.82,5.44,2.61.9-.08,1.33-.28,1.32-1.32Q138.51,223.3,138.56,207.1Z"/><path class="cls-1" d="M49,227.11c5-1.14,8-5,7.91-10.21-.06-5.54-3-9.41-8.09-10.54-4.27-1-8.61-.3-12.91-.57-1.66-.1-2.18.42-2.17,2.13q.12,15.33,0,30.67c0,1.83.61,2.27,2.29,2.22,3-.08,3,0,3-3,0-1,0-2,0-3.05v-9.18a5.12,5.12,0,0,1,1.93,2c2.89,4,5.76,8.05,8.65,12.07.36.49.57,1.18,1.38,1.15,1.82-.06,3.66.25,5.63-.2-.37-.6-.63-1.1-1-1.55-2.45-3.32-4.85-6.68-7.38-9.93C47.25,227.78,47.56,227.44,49,227.11ZM40,223.92c-.94,0-.94-.66-.94-1.32v-5.31h0c0-1.71,0-3.42,0-5.13-.05-1.09.24-1.61,1.46-1.58,2.53.07,5.07-.05,7.51.82a5.35,5.35,0,0,1,3.79,5.14c.16,2.61-.64,4.75-3.09,6C45.94,224,43,224,40,223.92Z"/><path class="cls-1" d="M183.1,207.77c0-1.51-.47-2.12-1.95-2a7.5,7.5,0,0,1-1.34,0c-1.47-.16-2,.43-2,2,.09,3.68,0,7.36.07,11,0,1.44-.45,1.9-1.84,1.87-3.49-.06-7-.08-10.47,0-1.48,0-1.85-.58-1.83-1.92.06-3.23.05-6.47,0-9.71,0-3.55.72-3.13-3.21-3.26-1.54,0-1.94.5-1.92,2,.07,5.08,0,10.16,0,15.24v14.85c0,3,0,2.93,3.05,3,1.6,0,2.12-.53,2.08-2.09-.08-3.55.08-7.11-.07-10.66-.08-1.9.59-2.39,2.38-2.32,3.24.13,6.48.1,9.71,0,1.53-.05,2.13.33,2.07,2-.12,3.68.05,7.36-.06,11,0,1.65.58,2.17,2.09,2a5.38,5.38,0,0,1,1.33,0c1.38.16,1.87-.33,1.86-1.8Q183,223.39,183.1,207.77Z"/><path class="cls-1" d="M19.24,207.9c-.59-1.52-1.31-2.24-3-2.13s-3,.07-3.78,2.18C8.75,217.81,4.86,227.6,1,237.39-.44,241-.84,240.7,3.35,240.83A2.28,2.28,0,0,0,5.93,239c.74-2.22,1.74-4.36,2.47-6.58a2.16,2.16,0,0,1,2.51-1.68c3.29.09,6.6.08,9.9,0a2,2,0,0,1,2.35,1.58c.62,2.05,1.6,4,2.21,6.07.56,1.84,1.41,2.95,3.2,2.41,3.5,0,3.48,0,2.33-2.91C27,227.88,23.07,217.91,19.24,207.9Zm.25,17.7-7.22,0c-.81,0-1.21-.29-.89-1.16l4.23-11.15h.47c1.39,3.73,2.77,7.46,4.17,11.18C20.53,225.27,20.23,225.6,19.49,225.6Z"/><path class="cls-1" d="M263,235.89c-3.18.07-6.36,0-9.53.06-1.28,0-1.83-.34-1.77-1.72q.16-3.43,0-6.86c-.05-1.43.48-1.89,1.87-1.85,3.11.07,6.23-.06,9.34,0,2,.07,1.88-1.16,1.86-2.49s.15-2.35-1.8-2.24c-3.1.17-6.22,0-9.33.06-1.43,0-2.06-.31-2-1.88a56,56,0,0,0,0-6.48c-.07-1.45.31-2,1.88-2,2.79.12,5.58,0,8.38,0s2.8,0,2.83-2.87c0-1.51-.52-2-2-1.94-4.7.08-9.4.09-14.1,0-1.72,0-2.17.63-2.14,2.24,0,1.27,0,2.54,0,3.81,0,3.81,0,7.62,0,11.43,0,5.15,0,10.29,0,15.43,0,1.59.48,2.13,2.06,2.1,4.38-.07,8.76,0,13.14,0,3.14,0,3.08,0,3-3.19C264.76,236.25,264.27,235.86,263,235.89Z"/><path class="cls-1" d="M246.55,223.27c0-3.81,0-7.62,0-11.43,0,3.81,0,7.62,0,11.43,0,5.15,0,10.29,0,15.43C246.6,233.56,246.55,228.42,246.55,223.27Z"/><path class="cls-1" d="M241.8,205.81c-5.15,0-10.29,0-15.43,0-.55,0-1.11-.06-1.33.74-.79,2.83.06,4,2.93,4a15.21,15.21,0,0,0,1.91,0c1.36-.17,1.73.42,1.71,1.72-.06,4.45,0,8.89,0,13.34h0c0,4,0,8,0,12,0,3.24-.79,3,3.13,3.18,1.72.06,2.14-.51,2.12-2.16-.08-7.88,0-15.75,0-23.63,0-4.41,0-4.41,4.49-4.44a5.42,5.42,0,0,1,.57,0c1.13.15,1.46-.46,1.41-1.46a15.06,15.06,0,0,1,0-1.9C243.37,206.12,242.81,205.81,241.8,205.81Z"/><path class="cls-1" d="M285.79,235.9c-2.54.07-5.08,0-7.62.06-1.59.06-2.2-.38-2.18-2.12.09-8.32,0-16.63,0-24.94,0-3.12,0-3-3.12-3.12-1.69-.05-2.17.54-2.14,2.2.1,5.07,0,10.15,0,15.23s.08,10.28-.05,15.42c0,1.82.6,2.23,2.27,2.18,3.81-.1,7.62,0,11.43,0s2.87,0,3-3.09C287.56,236.39,287.12,235.87,285.79,235.9Z"/><path class="cls-1" d="M66.74,234v-25.7c0-2.51,0-2.51-2.59-2.5a3.62,3.62,0,0,1-.57,0c-1.52-.21-2.09.32-2.06,2,.11,5.14,0,10.28,0,15.42,0,4.7,0,9.4,0,14.09,0,3.75,0,3.7,3.71,3.51,1.2-.06,1.52-.56,1.49-1.64C66.7,237.45,66.74,235.73,66.74,234Z"/><path class="cls-1" d="M324.41,142.41c.21.57.39,1.15.55,1.73C324.8,143.56,324.62,143,324.41,142.41Z"/><path class="cls-1" d="M216.91,145c.1,5.4,0,10.81,0,16.21v0C217,155.84,217,150.43,216.91,145Z"/><path class="cls-1" d="M325,144.14c.17.58.31,1.17.43,1.76C325.27,145.31,325.13,144.72,325,144.14Z"/><path class="cls-1" d="M324.73,176.93a3.25,3.25,0,0,1-.77-.1A3.25,3.25,0,0,0,324.73,176.93Z"/><path class="cls-1" d="M325.92,162.31c0-3.2-.1-6.41.17-9.61h0C325.82,155.9,325.88,159.11,325.92,162.31Z"/><path class="cls-1" d="M325.54,176.85c.22.09.45.18.67.25-.22-.07-.45-.16-.67-.25Z"/><path class="cls-1" d="M325.73,152.33l.16.17-.16-.17a22.55,22.55,0,0,0-.34-6.43A22.55,22.55,0,0,1,325.73,152.33Z"/><path class="cls-1" d="M57.07,159.14h0l-.17-.78c.06.26.11.52.17.78Z"/><path class="cls-1" d="M166.8,159.94c3.2,0,6.4,0,9.61,0h0C173.2,160,170,159.91,166.8,159.94Z"/><path class="cls-1" d="M32.39,180.4l.74.33,0,0,0,0Z"/><path class="cls-1" d="M45.87,177.7l.85-.39a5.25,5.25,0,0,1,.57-.85,5.25,5.25,0,0,0-.57.85l-.85.39a13.47,13.47,0,0,1-4.56,1.3A13.47,13.47,0,0,0,45.87,177.7Z"/><path class="cls-1" d="M65.47,144.79l0,0Z"/><path class="cls-1" d="M64.83,144.43a.38.38,0,0,0,.13.09A.38.38,0,0,1,64.83,144.43Z"/><path class="cls-1" d="M249.23,155.37a13.32,13.32,0,0,0-7.89-12.08c-4.84-2.28-9.66-2.23-13.94,1.54-1,.91-1.33.38-1.31-.64,0-1.18-.63-1.39-1.61-1.37-1.75,0-3.51.11-5.26,0s-2.34.44-2.31,2.23c.1,5.4,0,10.81,0,16.21v15.58c0,2.81,0,2.81,2.71,2.82,1.55,0,3.1-.11,4.63,0,1.88.17,2.4-.55,2.37-2.4-.11-6.45-.11-12.91,0-19.37a6.42,6.42,0,0,1,6.14-6.73c4.18-.25,6.39,1.53,7.05,5.76a19.05,19.05,0,0,1,.16,2.93c0,5.9,0,11.79-.05,17.69,0,1.64.47,2.27,2.16,2.14a53.81,53.81,0,0,1,5.68,0c1.16,0,1.66-.35,1.65-1.55C249.35,170.52,249.54,162.94,249.23,155.37Z"/><path class="cls-1" d="M287.38,156.05c-.26-8.71-6.74-14.64-15-14.1-3,.19-5.43,1.58-8,3.65.17-2.85-1.41-2.92-3.24-2.79a40.73,40.73,0,0,1-4.42,0c-1.17,0-1.59.4-1.59,1.58q0,16.85,0,33.67c0,1.22.47,1.6,1.61,1.57a56.62,56.62,0,0,1,5.68,0c1.72.13,2.16-.56,2.13-2.16-.07-5.82-.06-11.65,0-17.47a16.79,16.79,0,0,1,.35-3.75,6.56,6.56,0,0,1,7.35-5.19c3.32.27,5.4,2.52,5.67,6.17.08,1,.05,2,.05,2.95,0,5.82,0,11.64-.07,17.46,0,1.6.61,2.14,2.1,2.08,1.82-.08,3.65-.18,5.47-.1,1.48.06,2-.5,2-1.95C287.42,170.5,287.61,163.27,287.38,156.05Z"/><path class="cls-1" d="M358.25,174.05c-5.36-12.69-13.41-22.34-28-24.41-1.12-.15-1.31-.73-1.41-1.66a28,28,0,0,0-4.66-12.49c-5.89-9-14.61-13.86-24.6-16.89-1.45-.44-1.31.53-1.31,1.37v14.94h.08c0,5.33-.39,10.7.09,16,.79,8.62,5.5,15.2,11.8,20.9,5.3,4.8,11.29,8.06,18.39,8.33,9.95.38,19.92.15,29.88.2,1.26,0,1.86-.27,1.3-1.68S358.87,175.53,358.25,174.05Zm-3.36,3.67q-11.89,0-23.79,0a15.84,15.84,0,0,1-4.89-.59c-.22-.07-.45-.16-.67-.25a3.65,3.65,0,0,1-.55.08h-.26a3.25,3.25,0,0,1-.77-.1,13.76,13.76,0,0,1-2.39-1,36.64,36.64,0,0,1-18.78-18.36,11.58,11.58,0,0,1-1.35-5c-1.05-2.69-.75-5.52-.78-8.29-.08-6.79,0-13.58,0-20.37,0-2.43.34-2.67,2.55-1.69,8,3.54,15,8.23,19.33,16.1a28.55,28.55,0,0,1,1.9,4.19c.21.57.39,1.15.55,1.73s.31,1.17.43,1.76a22.55,22.55,0,0,1,.34,6.43l.16.17.2.2h0a23.2,23.2,0,0,1,13.42,2.74,33.51,33.51,0,0,1,6.8,4.9,41.94,41.94,0,0,1,10.07,15.13C357.25,177.54,357.1,177.72,354.89,177.72Z"/><path class="cls-1" d="M186.83,147c-8.71-6.69-20.62-3.78-26.34,6.34a19.06,19.06,0,0,0,14.91,28.34c8.15.68,15-3.22,17.83-10.28.25-.62,1-1.55,0-2a2,2,0,0,0-2.63.65,5.94,5.94,0,0,0-.27.57,13.15,13.15,0,0,1-11.61,8.15c-8.38.65-16.26-4.36-17.45-13.95-.2-1.57.29-2.1,1.9-2.07,4.91.08,9.82,0,14.74,0v0c4.84,0,9.68-.08,14.52,0,2,.05,2.34-.77,2.1-2.5A19.48,19.48,0,0,0,186.83,147Zm-.55,13h-9.87c-3.21,0-6.41-.05-9.61,0-1.07,0-2.14,0-3.2.06-2,.06-2.2-.73-1.77-2.38,1.41-5.33,7-10.31,12.61-11a15.23,15.23,0,0,1,15,7.67C192.39,159.39,192.07,160,186.28,160Z"/><path class="cls-1" d="M46.72,177.31l-.85.39a13.47,13.47,0,0,1-4.56,1.3,15.51,15.51,0,0,1-2.81,0,16.55,16.55,0,0,1-1.85-.29,17,17,0,0,1-6-2.62,18.61,18.61,0,0,1-1.5-1.15l-.7-.64a16.86,16.86,0,0,1-1.28-1.39,14.3,14.3,0,0,1-3.38-8.68c-.06-1.75,1-1.54,2-1.54q11.57,0,23.15,0c2,0,3.93-.1,5.89,0s2.68-.62,2.27-2.53a3.38,3.38,0,0,1,0-.78v-.27h0c-.06-.26-.11-.52-.17-.78-.3-1-.61-2-.91-3h0c-.28-.57-.55-1.14-.84-1.7-4.54-8.94-14.68-12.75-23.3-8.61-7.47,3.6-11,9.92-11,18S25.05,177,32.39,180.4l.74.33,0,0,0,0a26,26,0,0,0,13.51-.12l.86-.37L50,178.93a21.86,21.86,0,0,0,5.32-6.68c1.22-2.69,1.11-2.93-1.84-2.88A10.94,10.94,0,0,1,50,175h0l-.05,0-.06.05A6.3,6.3,0,0,1,46.72,177.31ZM24.46,158A16,16,0,0,1,37,146.58a15.19,15.19,0,0,1,15,7.55A33.47,33.47,0,0,1,53.72,158c.55,1.38.2,2.06-1.46,2-4.41-.07-8.82,0-13.23,0h0c-4.34,0-8.69-.05-13,0C24.38,160,24.11,159.39,24.46,158Z"/><path class="cls-1" d="M49.84,175.06l.06-.05Z"/><path class="cls-1" d="M56,155.4h0c-.28-.57-.55-1.14-.84-1.7.29.56.56,1.13.84,1.7Z"/><path class="cls-1" d="M50,175h0l-.05,0,.05,0Z"/><path class="cls-1" d="M208.85,142.82a56.62,56.62,0,0,1-5.68,0c-1.66-.12-2,.59-2,2.08.06,5.4,0,10.8,0,16.2h0c0,5.55,0,11.09,0,16.63,0,1.41.34,2,1.87,1.95,2-.11,3.93,0,5.89,0,1.11,0,1.66-.26,1.66-1.52q0-16.84,0-33.68C210.62,143.12,210.06,142.78,208.85,142.82Z"/><path class="cls-1" d="M95.58,162.07a39.52,39.52,0,0,0-8.13-2c-3.18-.53-6.42-.85-9.32-2.39-3.48-1.85-3.93-5.65-1-8.33A9.52,9.52,0,0,1,79,148a13.78,13.78,0,0,1,18.82,5,2,2,0,0,0,2.54.87c1.22-.37.34-1.28.22-1.92a4.93,4.93,0,0,0-.69-1.52c-2.91-5.22-7.72-6.77-12.25-6.87-4.68,0-8.2.54-11.26,2.66a8.45,8.45,0,0,0-3.93,8.48c.42,3.37,2.65,5.1,5.55,6.24a34.42,34.42,0,0,0,7.37,1.69c3.25.51,6.53.95,9.56,2.35a6.29,6.29,0,0,1,4,5.44,6.63,6.63,0,0,1-3.16,6.25,11.32,11.32,0,0,1-3.23,1.5,19.33,19.33,0,0,1-12.19-.23,11.05,11.05,0,0,1-7-7.09c-.43-1.21-1.6-.7-2.39-.55-1,.2-.39,1.07-.25,1.56a11,11,0,0,0,4.74,6.71,21.34,21.34,0,0,0,20.73,1.22,9,9,0,0,0,5.74-9.2C101.79,166.2,99.47,163.6,95.58,162.07Z"/><path class="cls-1" d="M135.36,144.42c-1.56,0-1.45.89-1.45,1.91,0,6.59,0,13.19,0,19.78a13.86,13.86,0,0,1-1,5.34,12.13,12.13,0,0,1-13.55,7.19c-6.15-1.08-10.24-5.48-10.34-11.43-.12-6.87,0-13.75-.05-20.62,0-1,.35-2.16-1.41-2.18s-1.48,1-1.48,2.09c0,6.94,0,13.88,0,20.83a14.6,14.6,0,0,0,13,14.21c5.69.57,10.7-.67,14.85-5.15v2.51c0,1-.17,2,1.38,2s1.52-.81,1.52-1.91q0-16.31,0-32.62C136.79,145.39,136.91,144.44,135.36,144.42Z"/><path class="cls-1" d="M19.12,177.91H17.65c-4.07,0-8.14-.07-12.21,0-1.9.05-2.51-.56-2.49-2.5.09-9.69,0-19.37,0-29.06,0-1.07-.09-1.94-1.52-2S0,145.26,0,146.33c0,5.41,0,10.81,0,16.21H0c0,5.48,0,11,0,16.42,0,1.46.43,2,1.92,2,5.75-.06,11.5,0,17.26,0,1,0,2,.13,2.07-1.38S20.25,177.9,19.12,177.91Z"/><path class="cls-1" d="M160.12,144.75c0-1.15-.7-1.16-1.51-1.2a14.62,14.62,0,0,0-11.5,4.17c-.38.36-.66,1.12-1.26.93-.75-.23-.41-1.06-.49-1.64a4.42,4.42,0,0,1,0-.63c0-1,0-1.95-1.48-2s-1.35,1.08-1.35,2c0,5.33,0,10.66,0,16h0c0,5.4,0,10.8,0,16.19,0,1-.26,2.23,1.39,2.29s1.42-1.21,1.42-2.2c0-6.38,0-12.76,0-19.14s3-10.81,8.46-12.68a14.5,14.5,0,0,1,4.77-.63C159.63,146.24,160.12,145.86,160.12,144.75Z"/><path class="cls-1" d="M65.08,144.56l-.12,0a.38.38,0,0,1-.13-.09c-1.93-.26-2.62.44-2.6,2.52.11,10.55.05,21.11.06,31.66a3.74,3.74,0,0,0,.44,2.43l1.26,0a.31.31,0,0,1,.38-.06l.8-.38-.06-32.93C65.11,146.65,65.09,145.61,65.08,144.56Z"/><path class="cls-1" d="M65.08,144.56l-.12,0,.12,0Z"/><path class="cls-1" d="M57.51,159.85c-.15-.23-.29-.47-.44-.71h0v.27a3.38,3.38,0,0,0,0,.78c.41,1.91-.27,2.68-2.27,2.53s-3.93,0-5.89,0q-11.58,0-23.15,0c-1,0-2.1-.21-2,1.54a14.3,14.3,0,0,0,3.38,8.68,16.86,16.86,0,0,0,1.28,1.39l.7.64a18.61,18.61,0,0,0,1.5,1.15,17,17,0,0,0,6,2.62,16.55,16.55,0,0,0,1.85.29,15.51,15.51,0,0,0,2.81,0,13.47,13.47,0,0,0,4.56-1.3c-.94-.34-1.79.16-2.68.27-5.44.65-10.6.18-14.16-4.65-1.41-1.91-3-3.67-3.74-6.18-.88-3-.67-3.81,2.56-3.82H54.57a8.26,8.26,0,0,0,2.29-.15c1.31-.4,2.16-1.14,1.11-2.62C57.81,160.33,57.66,160.09,57.51,159.85Z"/><path class="cls-1" d="M57.51,159.85c-.15-.23-.29-.47-.44-.71h0C57.22,159.38,57.36,159.62,57.51,159.85Z"/><path class="cls-1" d="M27.15,172.92a16.86,16.86,0,0,0,1.28,1.39A16.86,16.86,0,0,1,27.15,172.92Z"/><path class="cls-1" d="M29.13,175a18.61,18.61,0,0,0,1.5,1.15A18.61,18.61,0,0,1,29.13,175Z"/><path class="cls-1" d="M36.65,178.72a16.55,16.55,0,0,0,1.85.29A16.55,16.55,0,0,1,36.65,178.72Z"/><path class="cls-1" d="M57.07,159.41v-.27h0Z"/><path class="cls-1" d="M62.29,178.61c0-10.55.05-21.11-.06-31.66,0-2.08.67-2.78,2.6-2.52a2,2,0,0,0-2.64-.58c-1,.46-.78,1.5-.75,2.42.06,1.75.1,3.5.1,5.25,0,9.16,0,18.32,0,27.48,0,.76-.6,2.15,1.15,2A3.74,3.74,0,0,1,62.29,178.61Z"/><path class="cls-1" d="M65.5,144.83l0,0a1,1,0,0,0-.39-.23h0c0,1.05,0,2.09,0,3.14l.06,32.93c.66-.44.43-1.12.44-1.73q.06-16.49.13-33c0-.14,0-.29,0-.43A1,1,0,0,0,65.5,144.83Z"/><path class="cls-1" d="M65.5,144.83a1,1,0,0,1,.23.67A1,1,0,0,0,65.5,144.83Z"/><path class="cls-1" d="M65.08,144.56a1,1,0,0,1,.39.23,1,1,0,0,0-.39-.23Z"/><path class="cls-1" d="M53.52,169.37c2.95-.05,3.06.19,1.84,2.88A21.86,21.86,0,0,1,50,178.93h0c3.77-1.32,5.5-4.42,6.78-7.86a1.8,1.8,0,0,0-1-2.3,1.65,1.65,0,0,0-2.34.59h0Z"/><path class="cls-1" d="M33.19,180.77a1.6,1.6,0,0,0,1.4,1.07c4.14.6,8.26,1.06,12.11-1.19A26,26,0,0,1,33.19,180.77Z"/><path class="cls-1" d="M53.52,169.37h0a5,5,0,0,0-2.16,2.07c-.13.24-.26.49-.38.74-.4.89-.68,1.86-1,2.8A10.94,10.94,0,0,0,53.52,169.37Z"/><path class="cls-1" d="M51,172.17c-.4.89-.68,1.86-1,2.8h0C50.29,174,50.57,173.06,51,172.17Z"/><path class="cls-1" d="M51,172.17c.12-.25.25-.5.38-.74C51.22,171.67,51.09,171.92,51,172.17Z"/><polygon class="cls-1" points="53.52 169.36 53.51 169.36 53.51 169.37 53.52 169.36"/><path class="cls-1" d="M53.51,169.37h0Z"/><path class="cls-1" d="M49.84,175.06a4,4,0,0,0-2.55,1.4,5.25,5.25,0,0,0-.57.85A6.3,6.3,0,0,0,49.84,175.06Z"/><path class="cls-1" d="M50,178.93l-2.48,1.35c1.34.49,2.06-.16,2.48-1.35h0Z"/><polygon class="cls-1" points="50.03 178.93 50.04 178.93 50.04 178.93 50.03 178.93"/><polygon class="cls-1" points="50.04 178.93 50.03 178.93 50.03 178.93 50.04 178.93"/><path class="cls-1" d="M56.9,158.36a2.59,2.59,0,0,0,0-2.22,1.62,1.62,0,0,0-.44-.47,2.34,2.34,0,0,0-.44-.27C56.29,156.39,56.6,157.37,56.9,158.36Z"/><path class="cls-1" d="M56.87,156.14a1.62,1.62,0,0,0-.44-.47A1.62,1.62,0,0,1,56.87,156.14Z"/><path class="cls-1" d="M56.43,155.67a2.34,2.34,0,0,0-.44-.27h0A2.34,2.34,0,0,1,56.43,155.67Z"/><path class="cls-1" d="M64,181.07c.17.28.29.19.38-.06A.31.31,0,0,0,64,181.07Z"/><path class="cls-1" d="M339.51,155.44a23.2,23.2,0,0,0-13.42-2.74h0A23.2,23.2,0,0,1,339.51,155.44Z"/><path class="cls-1" d="M325.94,165.52c0-1.07,0-2.14,0-3.21,0-3.2-.1-6.41.17-9.61h0l-.2-.2-.16-.17-24.29.14a11.58,11.58,0,0,0,1.35,5,36.64,36.64,0,0,0,18.78,18.36,13.76,13.76,0,0,0,2.39,1,3.25,3.25,0,0,0,.77.1H325a3.65,3.65,0,0,0,.55-.08h0C325.91,173.08,325.92,169.3,325.94,165.52Z"/><path class="cls-1" d="M325,176.93h0Z"/><path class="cls-1" d="M326.09,152.7h0l-.2-.2.2.2Z"/><path class="cls-1" d="M325,176.93a3.65,3.65,0,0,0,.55-.08h0A3.65,3.65,0,0,1,325,176.93Z"/><rect class="cls-1" y="193.55" width="287.5" height="1.02"/></svg>