<svg id="Layer_1" data-name="Layer 1" xmlns="http://www.w3.org/2000/svg" viewBox="0 0 600 120"><defs><style>.cls-1{fill:#fff;}</style></defs><title>leisure-v-light</title><path class="cls-1" d="M283.54,51.86c.18.5.34,1,.48,1.52C283.88,52.87,283.72,52.36,283.54,51.86Z"/><path class="cls-1" d="M189.58,54.16c.09,4.72,0,9.44,0,14.17v0C189.61,63.6,189.67,58.88,189.58,54.16Z"/><path class="cls-1" d="M284,53.38c.15.51.27,1,.37,1.54C284.29,54.4,284.17,53.89,284,53.38Z"/><path class="cls-1" d="M283.81,82a3,3,0,0,1-.67-.09A3,3,0,0,0,283.81,82Z"/><path class="cls-1" d="M284.86,69.26c0-2.8-.09-5.6.15-8.4h0C284.77,63.66,284.82,66.46,284.86,69.26Z"/><path class="cls-1" d="M284.52,82l.59.22-.59-.22Z"/><path class="cls-1" d="M284.69,60.54l.14.14-.14-.14a19.45,19.45,0,0,0-.3-5.62A19.45,19.45,0,0,1,284.69,60.54Z"/><path class="cls-1" d="M49.88,66.49h0l-.15-.68.15.68Z"/><path class="cls-1" d="M145.78,67.19c2.8,0,5.6,0,8.4,0h0C151.38,67.2,148.58,67.16,145.78,67.19Z"/><path class="cls-1" d="M28.31,85.08l.65.28,0,0,0,0Z"/><path class="cls-1" d="M381.68,56.46c.11,5,0,9.93,0,14.89v0C381.72,66.39,381.79,61.42,381.68,56.46Z"/><path class="cls-1" d="M40.09,82.72l.75-.35a3.84,3.84,0,0,1,.5-.74,3.84,3.84,0,0,0-.5.74l-.75.35a11.94,11.94,0,0,1-4,1.13A11.94,11.94,0,0,0,40.09,82.72Z"/><path class="cls-1" d="M57.22,54l0,0Z"/><path class="cls-1" d="M56.67,53.64l.11.08Z"/><path class="cls-1" d="M583.88,71.35c0-4.9.06-9.81,0-14.71.1,4.9,0,9.81,0,14.71s.08,9.94,0,14.9C584,81.29,583.88,76.32,583.88,71.35Z"/><path class="cls-1" d="M475.5,56.42c.07,4.9,0,9.81,0,14.71v0C475.53,66.23,475.57,61.32,475.5,56.42Z"/><path class="cls-1" d="M217.83,63.2a11.66,11.66,0,0,0-6.89-10.57c-4.24-2-8.45-1.94-12.19,1.36-.89.79-1.16.33-1.14-.56s-.56-1.22-1.41-1.2c-1.53,0-3.07.09-4.6,0s-2,.38-2,1.95c.09,4.72,0,9.44,0,14.17V81.94c0,2.46,0,2.46,2.37,2.47,1.35,0,2.71-.1,4.05,0,1.63.14,2.1-.49,2.07-2.1-.1-5.64-.1-11.29,0-16.93a5.63,5.63,0,0,1,5.37-5.89c3.65-.21,5.58,1.34,6.16,5a16.83,16.83,0,0,1,.14,2.56c0,5.16,0,10.31,0,15.46,0,1.43.42,2,1.89,1.87a45.78,45.78,0,0,1,5,0c1,0,1.45-.31,1.44-1.36C217.93,76.44,218.1,69.81,217.83,63.2Z"/><path class="cls-1" d="M251.18,63.79c-.24-7.62-5.9-12.79-13.09-12.33-2.61.17-4.75,1.39-7,3.19.14-2.48-1.23-2.55-2.84-2.43a33.14,33.14,0,0,1-3.86,0c-1,0-1.39.36-1.39,1.39q0,14.72,0,29.43c0,1.06.41,1.39,1.41,1.37a48.27,48.27,0,0,1,5,0c1.5.12,1.89-.49,1.87-1.89-.07-5.08-.06-10.17,0-15.26a15.59,15.59,0,0,1,.31-3.28A5.75,5.75,0,0,1,238,59.47c2.89.24,4.72,2.2,5,5.4.07.85,0,1.71,0,2.57,0,5.09,0,10.18-.06,15.27,0,1.39.53,1.87,1.83,1.81,1.59-.07,3.19-.16,4.78-.09,1.29.06,1.73-.44,1.72-1.7C251.21,76.42,251.37,70.1,251.18,63.79Z"/><path class="cls-1" d="M520.44,54a17.13,17.13,0,0,0-17.06,17.48c0,9.93,7.48,17.61,17.13,17.61,10,0,17.36-7.53,17.36-17.71C537.87,61.31,530.48,53.94,520.44,54Zm.17,30.19c-6.72,0-12-5.6-12-12.75a12.07,12.07,0,1,1,24.13-.06C532.76,78.47,527.38,84.17,520.61,84.14Z"/><path class="cls-1" d="M408.27,54C398.48,54,391,61.59,391,71.57A17.12,17.12,0,0,0,408.24,89c9.77,0,17.28-7.67,17.29-17.65A17,17,0,0,0,408.27,54Zm.05,30.17a12.34,12.34,0,0,1-12.15-12.61c0-7.07,5.33-12.62,12.11-12.62A12.43,12.43,0,0,1,420.37,71.4C420.35,78.47,415,84.11,408.32,84.12Z"/><path class="cls-1" d="M456.11,55.79c0-1-.44-1.29-1.32-1.25a8.37,8.37,0,0,1-1.66,0c-1.59-.22-2,.52-1.93,2,.1,5.27.12,10.55.13,15.82a40.58,40.58,0,0,1-.14,6.52c-.65-.11-.79-.54-1-.89-4.48-6.89-9.06-13.71-13.36-20.7-1.36-2.21-2.87-3-5.33-2.75-1.25.13-1.68.44-1.66,1.72.07,4.66,0,9.33,0,14,0,5.4.05,10.8,0,16.19,0,1.43.43,2.09,1.9,1.91a5.48,5.48,0,0,1,1.28,0c1.36.16,1.83-.38,1.8-1.77-.13-5.7-.17-11.4-.22-17.11,0-2,0-4,0-6.17a2,2,0,0,1,1.29,1.17c4.6,7.1,9.33,14.13,13.7,21.37,1.38,2.28,3,2.72,5.25,2.52.88-.08,1.29-.27,1.28-1.27Q456.06,71.44,456.11,55.79Z"/><path class="cls-1" d="M369.61,75.12a9.42,9.42,0,0,0,7.64-9.85c-.05-5.36-2.92-9.1-7.82-10.19-4.12-.92-8.31-.29-12.47-.55-1.6-.1-2.1.4-2.09,2q.12,14.82,0,29.63c0,1.78.59,2.2,2.21,2.15,2.88-.07,2.88,0,2.87-2.89v-3c0-2.85,0-5.71,0-8.87a4.83,4.83,0,0,1,1.86,1.89c2.8,3.88,5.57,7.78,8.36,11.66.35.48.56,1.14,1.34,1.11,1.76-.06,3.53.24,5.43-.19-.35-.57-.6-1.06-.92-1.5-2.37-3.21-4.69-6.45-7.14-9.59C367.89,75.77,368.19,75.44,369.61,75.12ZM360.86,72c-.9,0-.9-.63-.9-1.27V65.64h0c0-1.65.05-3.31,0-5,0-1.06.24-1.55,1.41-1.52,2.45.07,4.9,0,7.25.79a5.17,5.17,0,0,1,3.67,5c.15,2.52-.62,4.6-3,5.81C366.63,72.08,363.75,72.11,360.86,72Z"/><path class="cls-1" d="M313.11,79.52C308.43,68.43,301.4,60,288.63,58.19c-1-.14-1.15-.64-1.24-1.45a24.39,24.39,0,0,0-4.07-10.92c-5.14-7.85-12.77-12.12-21.5-14.76-1.27-.39-1.14.46-1.14,1.2q0,6.52,0,13.05h.07c0,4.66-.34,9.35.08,14,.69,7.53,4.81,13.28,10.32,18.27,4.63,4.19,9.86,7,16.07,7.28,8.7.33,17.41.13,26.12.18,1.1,0,1.62-.24,1.13-1.48S313.66,80.82,313.11,79.52Zm-2.93,3.21c-6.93,0-13.86,0-20.79,0a14.39,14.39,0,0,1-4.28-.52l-.59-.22a2.67,2.67,0,0,1-.47.07h-.24a3,3,0,0,1-.67-.09,11.75,11.75,0,0,1-2.09-.85,32,32,0,0,1-16.41-16,10.34,10.34,0,0,1-1.18-4.4c-.91-2.35-.66-4.82-.68-7.25-.07-5.93,0-11.87,0-17.8,0-2.12.3-2.33,2.22-1.47,7,3.08,13.12,7.19,16.89,14.06a25.51,25.51,0,0,1,1.67,3.66c.18.5.34,1,.48,1.52s.27,1,.37,1.54a19.45,19.45,0,0,1,.3,5.62l.14.14.18.18h0a20.3,20.3,0,0,1,11.73,2.4,29.25,29.25,0,0,1,5.94,4.28,36.56,36.56,0,0,1,8.8,13.22C312.24,82.57,312.11,82.73,310.18,82.73Z"/><path class="cls-1" d="M499.14,56.44c0-1.45-.46-2-1.89-1.89a6.09,6.09,0,0,1-1.28,0c-1.42-.14-2,.43-1.93,1.89.09,3.56,0,7.11.06,10.67,0,1.39-.43,1.83-1.77,1.81-3.37-.06-6.75-.08-10.12,0-1.43,0-1.79-.56-1.76-1.86q.07-4.68,0-9.38c-.05-3.43.7-3-3.09-3.15-1.5-.05-1.88.48-1.86,1.89.07,4.9,0,9.81,0,14.71V85.48c0,2.9,0,2.83,2.94,2.9,1.55,0,2-.51,2-2-.08-3.43.08-6.87-.06-10.3-.08-1.84.56-2.3,2.3-2.24,3.12.13,6.26.1,9.38,0,1.48,0,2,.31,2,1.91-.12,3.56,0,7.12-.06,10.67-.05,1.59.56,2.09,2,1.94a6.18,6.18,0,0,1,1.29,0c1.32.16,1.8-.32,1.79-1.73Q499.06,71.52,499.14,56.44Z"/><path class="cls-1" d="M340.83,56.57c-.57-1.47-1.26-2.17-2.93-2.06s-2.88.07-3.65,2.11c-3.55,9.53-7.31,19-11,28.44-1.39,3.52-1.78,3.2,2.27,3.32a2.2,2.2,0,0,0,2.49-1.8c.72-2.15,1.68-4.21,2.38-6.37a2.1,2.1,0,0,1,2.43-1.61c3.19.08,6.38.07,9.56,0,1.2,0,1.89.27,2.27,1.53.61,2,1.55,3.87,2.15,5.86.53,1.79,1.35,2.86,3.08,2.33,3.39,0,3.37,0,2.25-2.81C348.32,75.87,344.53,66.23,340.83,56.57Zm.24,17.1-7,0c-.79,0-1.18-.28-.86-1.11l4.08-10.78h.46q2,5.4,4,10.81C342.08,73.34,341.79,73.66,341.07,73.67Z"/><path class="cls-1" d="M576.31,83.61c-3.07.07-6.14,0-9.2,0-1.24,0-1.77-.32-1.71-1.66.1-2.2.1-4.42,0-6.62-.06-1.39.46-1.83,1.81-1.79,3,.07,6-.06,9,0,1.94.06,1.82-1.13,1.8-2.41s.15-2.27-1.73-2.17c-3,.17-6,0-9,.07-1.38,0-2-.3-1.89-1.82a54.47,54.47,0,0,0,0-6.26c-.07-1.4.3-2,1.81-1.9,2.69.11,5.4,0,8.1,0s2.7,0,2.73-2.77c0-1.46-.5-1.89-1.94-1.87q-6.81.12-13.62,0c-1.66,0-2.09.6-2.07,2.16,0,1.23,0,2.46,0,3.68,0,3.69,0,7.37,0,11.05,0,5,0,9.94,0,14.91,0,1.53.46,2,2,2,4.23-.06,8.47,0,12.7,0,3,0,3,0,2.94-3.08C578,84,577.56,83.58,576.31,83.61Z"/><path class="cls-1" d="M560.44,71.42c0-3.68,0-7.36,0-11.05,0,3.69,0,7.37,0,11.05,0,5,0,9.94,0,14.91C560.49,81.36,560.44,76.39,560.44,71.42Z"/><path class="cls-1" d="M163.29,55.88c-7.61-5.84-18-3.31-23,5.54a16.66,16.66,0,0,0,13,24.77c7.13.6,13.08-2.82,15.59-9,.22-.53.88-1.35,0-1.72a1.76,1.76,0,0,0-2.3.57,4.44,4.44,0,0,0-.24.49,11.51,11.51,0,0,1-10.14,7.13c-7.33.56-14.21-3.82-15.26-12.19-.17-1.38.26-1.84,1.67-1.82,4.29.07,8.58,0,12.88,0v0c4.23,0,8.46-.08,12.69,0,1.77,0,2-.67,1.84-2.18A17,17,0,0,0,163.29,55.88Zm-.48,11.33h-8.63c-2.8,0-5.6,0-8.4,0-.93,0-1.86,0-2.79,0-1.76.05-1.93-.64-1.55-2.08a14.24,14.24,0,0,1,11-9.65,13.33,13.33,0,0,1,13.1,6.71C168.15,66.71,167.88,67.2,162.81,67.21Z"/><path class="cls-1" d="M40.84,82.37l-.75.35a11.94,11.94,0,0,1-4,1.13,12.54,12.54,0,0,1-2.45,0A15.07,15.07,0,0,1,32,83.61a14.9,14.9,0,0,1-5.26-2.3,14.26,14.26,0,0,1-1.31-1l-.61-.55a15.89,15.89,0,0,1-1.12-1.21,12.55,12.55,0,0,1-3-7.6c0-1.52.88-1.34,1.79-1.34l20.23,0c1.72,0,3.44-.08,5.15,0s2.34-.54,2-2.21a3.13,3.13,0,0,1,0-.69v-.23h0l-.15-.68c-.26-.87-.53-1.73-.79-2.59h0c-.25-.49-.49-1-.74-1.48-4-7.82-12.83-11.15-20.36-7.53-6.53,3.14-9.62,8.67-9.61,15.71s3.66,12.13,10.08,15.16l.65.28,0,0h0a22.74,22.74,0,0,0,11.81-.1l.75-.32,2.16-1.18A19.16,19.16,0,0,0,48.39,78c1.06-2.35,1-2.57-1.62-2.52a9.44,9.44,0,0,1-3.11,4.89h0l0,0,0,0A5.47,5.47,0,0,1,40.84,82.37ZM21.38,65.46a14,14,0,0,1,10.93-9.95,13.29,13.29,0,0,1,13.15,6.61A28.4,28.4,0,0,1,47,65.45c.48,1.2.18,1.8-1.27,1.78-3.86-.07-7.71,0-11.57,0h0c-3.79,0-7.59,0-11.38,0C21.31,67.26,21.07,66.71,21.38,65.46Z"/><path class="cls-1" d="M43.56,80.41l0,0Z"/><path class="cls-1" d="M48.94,63.22h0c-.25-.49-.49-1-.74-1.48.25.49.49,1,.74,1.48Z"/><path class="cls-1" d="M43.66,80.32h0l0,0,0,0Z"/><path class="cls-1" d="M182.53,52.22a45.59,45.59,0,0,1-5,0c-1.45-.1-1.75.51-1.74,1.81.06,4.72,0,9.45,0,14.17h0c0,4.84,0,9.69,0,14.53,0,1.24.29,1.79,1.63,1.71,1.71-.1,3.43-.05,5.15,0,1,0,1.45-.23,1.45-1.33q0-14.72,0-29.43C184.08,52.49,183.59,52.19,182.53,52.22Z"/><path class="cls-1" d="M83.54,69.05a35,35,0,0,0-7.11-1.79c-2.78-.46-5.61-.73-8.14-2.08-3-1.62-3.44-4.94-.9-7.28A8.59,8.59,0,0,1,69,56.73a12,12,0,0,1,16.45,4.35,1.74,1.74,0,0,0,2.22.76c1.06-.32.29-1.12.19-1.68a4.51,4.51,0,0,0-.6-1.33c-2.54-4.56-6.75-5.91-10.71-6s-7.16.47-9.84,2.32a7.41,7.41,0,0,0-3.44,7.42c.37,2.94,2.32,4.45,4.86,5.45a30.15,30.15,0,0,0,6.43,1.48,30.55,30.55,0,0,1,8.36,2,5.49,5.49,0,0,1,3.54,4.76,5.8,5.8,0,0,1-2.76,5.46,10.2,10.2,0,0,1-2.82,1.31,16.9,16.9,0,0,1-10.66-.2,9.71,9.71,0,0,1-6.1-6.2c-.37-1.06-1.4-.61-2.08-.48-.86.17-.35.94-.23,1.36A9.65,9.65,0,0,0,66,83.43,18.67,18.67,0,0,0,84.11,84.5a7.9,7.9,0,0,0,5-8C89,72.66,86.94,70.39,83.54,69.05Z"/><path class="cls-1" d="M555.85,54.55c-5,0-9.94,0-14.91,0-.52,0-1.06-.06-1.28.71-.76,2.73.06,3.9,2.83,3.91a14.09,14.09,0,0,0,1.84,0c1.32-.16,1.68.41,1.66,1.67-.06,4.29,0,8.59,0,12.88h0c0,3.87,0,7.73,0,11.6,0,3.13-.76,2.93,3,3.07,1.65.06,2.05-.5,2-2.09-.08-7.6,0-15.21,0-22.82,0-4.27,0-4.27,4.34-4.29a3.37,3.37,0,0,1,.55,0c1.09.14,1.41-.45,1.36-1.41a14.12,14.12,0,0,1,0-1.84C557.37,54.85,556.82,54.55,555.85,54.55Z"/><path class="cls-1" d="M598.35,83.62c-2.45.06-4.91,0-7.36,0-1.54.06-2.13-.36-2.11-2,.09-8,0-16.06,0-24.09,0-3,0-2.92-3-3-1.64-.05-2.1.52-2.07,2.12.1,4.9,0,9.81,0,14.71s.08,9.94,0,14.9c0,1.77.58,2.16,2.2,2.11,3.67-.09,7.35,0,11,0s2.78,0,2.93-3C600.06,84.09,599.64,83.59,598.35,83.62Z"/><path class="cls-1" d="M118.3,53.62c-1.36,0-1.26.79-1.26,1.67,0,5.77,0,11.53,0,17.29a12,12,0,0,1-.86,4.67,10.61,10.61,0,0,1-11.84,6.29c-5.38-1-9-4.79-9-10-.1-6,0-12,0-18,0-.85.31-1.88-1.23-1.91s-1.3.92-1.3,1.83c0,6.07,0,12.14,0,18.21a12.75,12.75,0,0,0,11.32,12.42c5,.49,9.35-.59,13-4.5v2.19c0,.87-.15,1.75,1.21,1.76s1.33-.71,1.32-1.67q0-14.25,0-28.51C119.56,54.47,119.66,53.64,118.3,53.62Z"/><path class="cls-1" d="M386.72,81.8V57c0-2.43,0-2.43-2.5-2.41a5,5,0,0,1-.55,0c-1.47-.21-2,.3-2,1.9.11,5,0,9.93,0,14.89V85c0,3.62,0,3.58,3.58,3.4,1.16-.06,1.47-.55,1.44-1.59C386.69,85.11,386.72,83.46,386.72,81.8Z"/><path class="cls-1" d="M16.71,82.89c-.43,0-.85,0-1.28,0-3.56,0-7.12-.06-10.67,0-1.66,0-2.2-.48-2.18-2.19.08-8.46,0-16.92,0-25.39,0-.94-.08-1.69-1.33-1.72S0,54.36,0,55.3C0,60,0,64.74,0,69.46H0C0,74.25.06,79,0,83.82c0,1.27.37,1.72,1.67,1.71,5-.06,10.06,0,15.09,0,.87,0,1.8.11,1.81-1.2S17.7,82.89,16.71,82.89Z"/><path class="cls-1" d="M140,53.91c0-1-.62-1-1.32-1a12.8,12.8,0,0,0-10,3.65c-.34.32-.58,1-1.1.82s-.37-.93-.43-1.44a3.37,3.37,0,0,1,0-.55c0-.91,0-1.7-1.3-1.72s-1.17,1-1.18,1.75q0,7,0,14h0c0,4.71,0,9.43,0,14.15,0,.89-.23,2,1.22,2S127,84.44,127,83.58c0-5.58,0-11.16,0-16.73s2.6-9.45,7.39-11.08a12.77,12.77,0,0,1,4.17-.56C139.52,55.22,140,54.88,140,53.91Z"/><path class="cls-1" d="M56.88,53.75l-.1,0-.11-.08c-1.7-.23-2.3.38-2.28,2.19.1,9.23,0,18.46,0,27.68a3.26,3.26,0,0,0,.39,2.12l1.1,0a.26.26,0,0,1,.33,0l.7-.33q0-14.4-.05-28.79C56.91,55.58,56.89,54.66,56.88,53.75Z"/><path class="cls-1" d="M56.88,53.75l-.1,0,.1,0Z"/><path class="cls-1" d="M50.26,67.12l-.38-.63h0v.23a3.13,3.13,0,0,0,0,.69c.36,1.67-.23,2.34-2,2.21s-3.43,0-5.15,0l-20.23,0c-.91,0-1.83-.18-1.79,1.34a12.55,12.55,0,0,0,3,7.6,15.89,15.89,0,0,0,1.12,1.21l.61.55a14.26,14.26,0,0,0,1.31,1A14.9,14.9,0,0,0,32,83.61a15.07,15.07,0,0,0,1.62.24,12.54,12.54,0,0,0,2.45,0,11.94,11.94,0,0,0,4-1.13c-.82-.3-1.56.13-2.34.22-4.76.57-9.26.17-12.38-4.06-1.23-1.67-2.64-3.2-3.27-5.4-.76-2.66-.58-3.33,2.24-3.33,7.78,0,15.57,0,23.35,0a7.07,7.07,0,0,0,2-.13c1.14-.34,1.88-1,1-2.29C50.52,67.53,50.39,67.32,50.26,67.12Z"/><path class="cls-1" d="M50.26,67.12l-.38-.63h0Z"/><path class="cls-1" d="M23.73,78.54a15.89,15.89,0,0,0,1.12,1.21A15.89,15.89,0,0,1,23.73,78.54Z"/><path class="cls-1" d="M25.46,80.3a14.26,14.26,0,0,0,1.31,1A14.26,14.26,0,0,1,25.46,80.3Z"/><path class="cls-1" d="M32,83.61a15.07,15.07,0,0,0,1.62.24A15.07,15.07,0,0,1,32,83.61Z"/><path class="cls-1" d="M49.88,66.72v-.23h0Z"/><path class="cls-1" d="M54.44,83.51c0-9.22.05-18.45,0-27.68,0-1.81.58-2.42,2.28-2.19a1.8,1.8,0,0,0-2.31-.52c-.86.41-.69,1.32-.66,2.13.06,1.52.08,3,.09,4.58,0,8,0,16,0,24,0,.68-.52,1.89,1,1.79A3.26,3.26,0,0,1,54.44,83.51Z"/><path class="cls-1" d="M57.24,54l0,0a.85.85,0,0,0-.34-.2h0c0,.91,0,1.83,0,2.74q0,14.4.05,28.79c.58-.39.38-1,.38-1.52q.06-14.4.12-28.81c0-.13,0-.26,0-.38A.87.87,0,0,0,57.24,54Z"/><path class="cls-1" d="M57.24,54a.87.87,0,0,1,.21.59A.87.87,0,0,0,57.24,54Z"/><path class="cls-1" d="M56.88,53.75a.85.85,0,0,1,.34.2.85.85,0,0,0-.34-.2Z"/><path class="cls-1" d="M46.77,75.43c2.58-.05,2.68.17,1.62,2.52a19.16,19.16,0,0,1-4.66,5.84h0c3.3-1.15,4.81-3.87,5.93-6.88a1.58,1.58,0,0,0-.84-2,1.44,1.44,0,0,0-2,.52h0Z"/><path class="cls-1" d="M29,85.39a1.39,1.39,0,0,0,1.23.94c3.61.53,7.21.92,10.58-1A22.74,22.74,0,0,1,29,85.39Z"/><path class="cls-1" d="M46.77,75.43h0a4.4,4.4,0,0,0-1.89,1.8c-.12.21-.23.43-.33.65-.35.78-.6,1.63-.89,2.44A9.44,9.44,0,0,0,46.77,75.43Z"/><path class="cls-1" d="M44.55,77.88c-.35.78-.6,1.63-.89,2.44h0C44,79.51,44.2,78.66,44.55,77.88Z"/><path class="cls-1" d="M44.55,77.88c.1-.22.21-.44.33-.65C44.76,77.44,44.65,77.66,44.55,77.88Z"/><polygon class="cls-1" points="46.78 75.42 46.77 75.43 46.77 75.43 46.78 75.42"/><path class="cls-1" d="M46.76,75.43h0Z"/><path class="cls-1" d="M43.56,80.41a3.38,3.38,0,0,0-2.22,1.22,3.84,3.84,0,0,0-.5.74A5.47,5.47,0,0,0,43.56,80.41Z"/><path class="cls-1" d="M43.73,83.79,41.57,85c1.17.43,1.79-.14,2.16-1.18Z"/><polygon class="cls-1" points="43.73 83.79 43.73 83.79 43.73 83.79 43.73 83.79"/><polygon class="cls-1" points="43.73 83.79 43.73 83.79 43.73 83.79 43.73 83.79"/><path class="cls-1" d="M49.73,65.81a2.29,2.29,0,0,0,0-1.94,1.51,1.51,0,0,0-.39-.41,2,2,0,0,0-.38-.24C49.2,64.08,49.47,64.94,49.73,65.81Z"/><path class="cls-1" d="M49.71,63.87a1.51,1.51,0,0,0-.39-.41A1.51,1.51,0,0,1,49.71,63.87Z"/><path class="cls-1" d="M49.32,63.46a2,2,0,0,0-.38-.24h0A2,2,0,0,1,49.32,63.46Z"/><path class="cls-1" d="M55.93,85.66c.15.24.25.17.33,0A.26.26,0,0,0,55.93,85.66Z"/><path class="cls-1" d="M296.74,63.26A20.3,20.3,0,0,0,285,60.86h0A20.3,20.3,0,0,1,296.74,63.26Z"/><path class="cls-1" d="M284.88,72.06c0-.93,0-1.86,0-2.8,0-2.8-.09-5.6.15-8.4h0l-.18-.18-.14-.14-21.23.12a10.34,10.34,0,0,0,1.18,4.4,32,32,0,0,0,16.41,16,11.75,11.75,0,0,0,2.09.85,3,3,0,0,0,.67.09h.24a2.67,2.67,0,0,0,.47-.07h0C284.85,78.68,284.86,75.37,284.88,72.06Z"/><path class="cls-1" d="M284.05,82h0Z"/><path class="cls-1" d="M285,60.86h0l-.18-.18.18.18Z"/><path class="cls-1" d="M284.05,82a2.67,2.67,0,0,0,.47-.07h0A2.67,2.67,0,0,1,284.05,82Z"/></svg>