<svg id="Layer_1" data-name="Layer 1" xmlns="http://www.w3.org/2000/svg" viewBox="0 0 360 360"><defs><style>.cls-1{fill:#656c28;}</style></defs><title>santika-h</title><path class="cls-1" d="M284.23,40c3,.53,6,1,9,1.6,10.86,2.28,20.56,7.29,30.38,13l2.86-3.25c3.23-3.64,6.54-7,12-7.11,4.28-.1,7.65,1.48,9.37,5.15a75.94,75.94,0,0,1,5.74,15.41,174.2,174.2,0,0,1,3.07,22.11,19,19,0,0,1-1.48,8.34c-2.62,6.58-10.27,8.4-15.72,3.88a43.37,43.37,0,0,1-5.26-5.57c-8.68-10.32-19.65-17.52-31.7-23.21-6.21-2.94-12.89-3.43-19.55-2.69C273,68.76,268.67,79,273.81,88.27c2.83,5.1,7.15,8.73,12,11.67,7,4.25,14.11,8.27,21.31,12.13,8.45,4.53,16.43,9.64,22.87,16.84,9.33,10.42,12.44,22.74,12.11,36.57-.8,33.39-23.09,50.78-48.74,55.6-19.4,3.64-38.15,1-55.64-8.38-11.26-6-17-16.42-19.52-28.39a51.58,51.58,0,0,1,.25-23.44,23,23,0,0,1,12.65-15.64c9.2-4.66,18.55-5.82,27.95-1.06a26.52,26.52,0,0,1,7.65,6.42,9.69,9.69,0,0,1,.66,11.71c-2.57,3.71-7.69,5.89-11.88,4.38-3-1.07-5.61-3.06-8.6-4.75-1.33,2.66-.77,5.8.1,8.91,3,10.72,15,18.91,28,19.25,8.68.23,15-3.53,18.86-11.21a31.35,31.35,0,0,0,3.1-9.55c1.55-11.7-1.21-22.16-10.12-30.45-6.1-5.67-13.73-7.15-21.7-8.15a69,69,0,0,1-15.36-3.85c-2.59-1-4.88-3.31-6.71-5.52-1.65-2-1.59-4.2.73-6.43a51.9,51.9,0,0,0,7.94-9.68c3.84-6.07,3.43-12.27-1-18a56.43,56.43,0,0,0-5.31-6c-4.62-4.59-9.34-9.08-14-13.64-3.23,7.12-9.65,10.73-17.2,13.27-9.39,3.15-17.17,8.66-21.93,17.66-3.21,6.09-.51,14.69,5.45,18.17,4.3,2.51,8.31,1.42,12.09-1.07,2.27-1.49,4.3-3.36,6.51-5.11-.63,9.06-5.37,13.81-14.21,14.16-6.54.26-13.12,0-19.63.57-9.39.78-14.52,5.3-16.47,14.58a34.67,34.67,0,0,0-.47,11.8c1.58,10.84,10.28,17.21,21.81,16.08-.67-1.06-1.23-1.93-1.77-2.82-2.55-4.17-4.41-8.54-3.54-13.6.74-4.29,3.33-6.9,7.46-8a16.73,16.73,0,0,1,14.11,2.1c3.81,2.48,4.55,5.39,2.37,9.42-3.61,6.67-7.25,13.33-8.17,21-1.37,11.37-1.88,22.65,3.57,33.32,1.3,2.57.53,5.11-2.43,6.34-3.53,1.47-7.37,2.91-11.11,3-9.59.27-19.21-.11-28.8-.47a19.44,19.44,0,0,1-6.45-1.79c-5.11-2.12-6.21-6.64-2.6-10.86a62.24,62.24,0,0,1,6.14-6c3.73-3.3,5.65-7.09,5.43-12.35-.38-9.51.08-19.05-.22-28.57a22.71,22.71,0,0,0-2.38-8.4c-1.36-3-4-4.43-7.47-4.4-6.14.07-12.29-.07-18.43,0-7.55,0-11.21,3-11.78,10.7-.58,7.84-.38,15.74-.46,23.62,0,2.76.24,5.53.15,8.29a16.25,16.25,0,0,0,4.11,11.25c1.57,1.89,3.21,3.74,4.6,5.75,2.87,4.18,2.16,8.29-2.41,10.53a26,26,0,0,1-10.51,2.81c-16.17.32-32.36.22-48.54.19a15.09,15.09,0,0,1-4.79-.89c-5.37-1.9-6.89-7.68-3-11.83,2.94-3.12,6.3-5.84,9.34-8.88a24.68,24.68,0,0,0,7.46-18.22c-.08-23.05-.08-46.09-.15-69.14,0-6.24,0-12.49-.34-18.73-.66-14.54-10.14-22.58-24.61-21C38,71.52,23,84.1,19,97.68c-2,6.63-.95,13,1.86,19.09.85,1.85,2.54,3.31,4,5.19a17.15,17.15,0,0,0,1.41-1.85c4.88-9.09,15.13-7.34,20.32-3.18a21.83,21.83,0,0,1,7,22.74C51.41,146.88,44.5,151.75,36,153c-12.52,1.9-28.85-6.69-31.9-25.73C-.47,98.64,15.7,69.74,42.64,57.88,55.58,52.17,69,50.41,83,50.9c12.88.45,25.8-.33,38.69-.09a36,36,0,0,1,12,2.8,7.2,7.2,0,0,1,4.72,8.13c-.53,3.57-2.27,6.26-5.93,7.47a30.55,30.55,0,0,0-5,2.25c-4,2.19-6.6,5.2-6.45,10.23.24,7.88,0,15.77.21,23.65a21.28,21.28,0,0,0,1.92,7.34A6.8,6.8,0,0,0,130,117c7.69-.07,15.37-.13,23,0,2.91.06,4.92-1.18,5.76-3.65a40.47,40.47,0,0,0,2.52-10.62c.39-7.15.08-14.34.13-21.51a12.53,12.53,0,0,0-6.43-11.45c-3.58-2.17-6.79-4.75-6.36-9.3s4.09-6.93,8.05-8.4a20.24,20.24,0,0,1,6.86-1.37c17.41,0,34.82.24,52.23.09,6.56-.06,12.22,1,15.84,7.37,9-8.19,19.47-12.85,30.78-15.81,3.53-.92,7.14-1.56,10.72-2.32Z"/><path class="cls-1" d="M.06,251.38h10.4v1.07c0,4.24,0,8.48,0,12.73,0,.77.15,1.09,1,1.08,4-.05,8.07,0,12.11,0,.74,0,.94-.24.94-1,0-4.25,0-8.49,0-12.73v-1.11H34.81v37.88c-.3,0-.55.06-.81.07-2.85,0-5.71,0-8.57,0-.72,0-1-.18-.95-.93,0-4.48,0-9,0-13.44V274h-14V289.4H.06Z"/><path class="cls-1" d="M359.94,289.4c-2.53,0-5.07,0-7.6,0-.7,0-.93-.21-.9-.9a13.64,13.64,0,0,0-.17-3.09c-.32.38-.65.76-.95,1.15-3.68,4.78-10.78,4.76-14.62,2.13a10.71,10.71,0,0,1-4-4.87,18.48,18.48,0,0,1,.12-15c3.31-7.29,12.05-7.7,16-5a30,30,0,0,1,3.45,3.25v-3.86h8.6ZM345.59,283c3.15,0,5.44-1.74,6-4.76a10.77,10.77,0,0,0,0-3.67,5.44,5.44,0,0,0-3.85-4.62c-4.37-1.38-8,1.16-8.32,5.8C339.13,280,341.62,283,345.59,283Z"/><path class="cls-1" d="M163.17,277.47c1.79,1.34,3.43,2.73,5.23,3.87a7.08,7.08,0,0,0,5.87.82,3.9,3.9,0,0,0,2.85-4.93,3.16,3.16,0,0,0-2-2.34c-1.7-.66-3.44-1.19-5.16-1.79-1.22-.43-2.46-.81-3.64-1.34-4.46-2-6.12-5.13-5.78-10.15.45-6.55,5.79-10.81,11.86-11.1a20.1,20.1,0,0,1,11.83,2.83c.25.15.49.32.78.51-1.06,2.45-2.12,4.87-3.2,7.35-.58-.4-1.08-.78-1.62-1.12a9.48,9.48,0,0,0-7.29-1.67,3.3,3.3,0,0,0-2.75,2.85,3,3,0,0,0,2.11,3.13c1.89.73,3.86,1.24,5.78,1.89,1.2.41,2.38.87,3.53,1.38a7.94,7.94,0,0,1,4.57,5.1,13.5,13.5,0,0,1-1.6,12.08,12.74,12.74,0,0,1-9,5.35,18.65,18.65,0,0,1-12.94-2.27,34.65,34.65,0,0,1-3.47-2.58.92.92,0,0,1-.24-.84C160.34,282.09,161.81,279.71,163.17,277.47Z"/><path class="cls-1" d="M328.45,263.23,323,269.06c-2,2.08-3.9,4.18-5.88,6.23-.48.5-.28.76.09,1.15q6,6.26,11.94,12.54a3.87,3.87,0,0,1,.25.36c-.34,0-.59.05-.84.05-3.45,0-6.89,0-10.34,0a1.67,1.67,0,0,1-1.43-.65c-2.89-3.43-5.8-6.82-8.71-10.22-.17-.19-.35-.36-.66-.68v11.45h-9.08V249.18h9v25.18l.2.08c.3-.34.62-.67.91-1,2.66-3.18,5.33-6.36,8-9.56a1.54,1.54,0,0,1,1.33-.65C321.25,263.24,324.72,263.23,328.45,263.23Z"/><path class="cls-1" d="M211.92,267.13c0-1.09,0-2.17,0-3.25,0-.22.31-.62.48-.62,2.62,0,5.23,0,7.92,0v26.09H212v-4.07a8.85,8.85,0,0,0-.65.71c-2.87,3.9-6.8,5.11-11.39,4.24-4.38-.83-7-3.77-8.25-7.86a18.65,18.65,0,0,1,.43-13c2.76-6.62,9.44-8,14.59-6.42a8.61,8.61,0,0,1,4.27,3.28c.24.32.47.65.71,1Zm-12.17,9.09.21.06c0,.44,0,.89.08,1.32.35,2.31,1.4,4.17,3.71,4.93s4.75.67,6.67-1.18,2.16-4.48,1.68-7.06a5.68,5.68,0,0,0-5.08-4.68,5.78,5.78,0,0,0-6.2,2.94A21.26,21.26,0,0,0,199.75,276.22Z"/><path class="cls-1" d="M53.87,290.43c-5.39,0-11.22-4.57-12.65-11.25a14,14,0,0,1,12.09-16.65c5-.57,9.4.54,13,4.15a13.67,13.67,0,0,1-.94,20.26C62.55,289.31,59.28,290.47,53.87,290.43Zm-3.82-13.8c.05.42.1,1.06.22,1.7a5.17,5.17,0,0,0,4.21,4.33,5.34,5.34,0,0,0,5.85-2.5,8.22,8.22,0,0,0,.78-5.23,5.5,5.5,0,0,0-8.44-4.11C50.61,272.08,50.13,274.16,50.05,276.63Z"/><path class="cls-1" d="M236.63,289.34h-9v-26h8.34v4.84l.22.1c.21-.28.43-.55.62-.84,3.43-5.37,9.45-5.94,14-4.18a7.42,7.42,0,0,1,4.92,7.21c.18,6.21.15,12.42.2,18.64a1.45,1.45,0,0,1-.07.25h-9.21v-1c0-4.25,0-8.49,0-12.73a16.85,16.85,0,0,0-.16-2.46c-.48-3.19-2.43-4.24-5.53-3.69a4.53,4.53,0,0,0-3.72,3.9,27.71,27.71,0,0,0-.55,5C236.58,282,236.63,285.59,236.63,289.34Z"/><path class="cls-1" d="M122.12,278.07H102.18a5.6,5.6,0,0,0,2.76,5.86c3,1.51,6.55.56,8.91-2.46l.71.26,6.14,2.48a8.39,8.39,0,0,1-2.73,3.55,13.69,13.69,0,0,1-7.48,2.61,20.28,20.28,0,0,1-7.78-.72c-6-1.89-9.42-6.67-9.42-13.18a13.67,13.67,0,0,1,10.65-13.64,15.88,15.88,0,0,1,9.8.55c5,2,7.36,6,8.11,11.11C122,275.62,122,276.77,122.12,278.07Zm-9.27-5.15a5.06,5.06,0,0,0-5.06-5c-3.15,0-5.57,2.15-5.46,5Z"/><path class="cls-1" d="M271.16,269.86v11.55c0,2.29,1.28,3.24,3.52,2.63l1-.29c.16,2,.31,3.91.47,5.89-3,.79-6,1.17-8.9,0-3.38-1.33-4.76-4.09-4.86-7.52-.11-3.67,0-7.36,0-11V270h-3.56v-5.6h3.53v-8.93h8.83v8.87h6.66v5.56Z"/><path class="cls-1" d="M75.78,269.92H72.14V268c0-.82,0-1.65,0-2.47,0-1.18,0-1.18,1.22-1.18h2.37V255.5a3.42,3.42,0,0,1,.66-.14c2.41,0,4.83,0,7.25,0,.73,0,1,.23.95,1,0,2.29,0,4.59,0,6.89v1.07h6.64v5.61c-1.93,0-3.81,0-5.68,0-.81,0-1,.25-1,1,0,3.48.08,7,0,10.44-.07,2.56,1.46,3.22,3.62,2.7.28-.07.55-.16.93-.27.14,1.87.29,3.68.4,5.49a.61.61,0,0,1-.35.48c-3.15.8-6.3,1.13-9.31-.43s-4-4.16-4-7.25c-.09-3.65,0-7.31,0-11Z"/><path class="cls-1" d="M127.82,289.33V249.19H137v40.14Z"/><path class="cls-1" d="M281.85,263.29H291v1.08c0,8,0,16,0,23.95,0,.84-.21,1.12-1.08,1.1-2.44-.06-4.89,0-7.33,0-.61,0-.81-.2-.81-.81q0-12.33,0-24.66A5.8,5.8,0,0,1,281.85,263.29Z"/><path class="cls-1" d="M291.47,254.91a5,5,0,0,1-5.1,5.18,5.14,5.14,0,0,1-5.1-5,5,5,0,0,1,5-5.12A5,5,0,0,1,291.47,254.91Z"/><path class="cls-1" d="M294.09,297.81,310,314.44l.22-.05V298.65h2.13V320l-16-16.72v15.9h-2.23Z"/><path class="cls-1" d="M265.84,309a10.77,10.77,0,1,1,11,10.57A10.72,10.72,0,0,1,265.84,309Zm2.26-.2a8.54,8.54,0,1,0,8.61-8.52A8.48,8.48,0,0,0,268.1,308.82Z"/><path class="cls-1" d="M338.38,302.7l-1.53,1.44-.64-.72a8.27,8.27,0,0,0-9.31-2.65,8.64,8.64,0,0,0,2.94,16.77,7.52,7.52,0,0,0,6.83-4.87A16.32,16.32,0,0,0,337,311H330.9v-2.05h8.4a10,10,0,0,1-1.11,5.83c-3.13,5.43-11.1,6.48-15.7,2.09-4.18-4-4.74-9.48-1.44-14.31C325,296.78,334.59,296.82,338.38,302.7Z"/><path class="cls-1" d="M20.66,298.6c2.32.11,4.58-.27,6.79.51a5.24,5.24,0,0,1,1.79,8.72,2.41,2.41,0,0,1-.44.24c.38.2.57.32.76.4a5.15,5.15,0,0,1,3.16,5,4.87,4.87,0,0,1-3,4.93,8.64,8.64,0,0,1-2.71.72c-1.79.13-3.59.1-5.38.13-.29,0-.58,0-.92-.05Zm2.21,18.73c1.74-.17,3.38-.21,5-.53a3.24,3.24,0,0,0,2.67-3.38A3.11,3.11,0,0,0,28,310.06a47.93,47.93,0,0,0-5.09-.59Zm0-9.53a33,33,0,0,0,3.69-.42,2.67,2.67,0,0,0,2-2.68c.1-1.36,0-2.72-1.36-3.48s-2.87-.58-4.37-.52Z"/><path class="cls-1" d="M58.18,319.08V298.64c4.24,0,8.58-.69,12.08,2.57,3.28,3.06,4,6.92,2.72,11A9.17,9.17,0,0,1,64.62,319,62.64,62.64,0,0,1,58.18,319.08Zm2.18-18.38v2.36c0,4.38,0,8.77,0,13.16,0,.8.24,1,1,1,1-.09,2-.06,3-.18A7.79,7.79,0,0,0,71,311.23a8.57,8.57,0,0,0-2.58-8.74C66.05,300.59,63.31,300.56,60.36,300.7Z"/><path class="cls-1" d="M231.63,319.24V298.63c2.6,0,5.2-.35,7.65.81,2.13,1,3,3,2.69,5.88a5.29,5.29,0,0,1-4.34,4.53l-.76.16,6.53,9.22c-.94,0-1.72,0-2.48,0-.25,0-.51-.35-.68-.6-1.82-2.6-3.61-5.23-5.44-7.83a3.27,3.27,0,0,0-.78-.57,3.28,3.28,0,0,0-.24.85c0,2.44,0,4.89,0,7.33,0,.65-.12.94-.81.87C232.57,319.21,232.16,319.24,231.63,319.24Zm2.23-10.86a33.1,33.1,0,0,0,4-.78,2.91,2.91,0,0,0,1.91-3.07,3.21,3.21,0,0,0-1.54-3.23,8.15,8.15,0,0,0-4.49-.6v6.78C233.77,307.68,233.81,307.88,233.86,308.38Z"/><path class="cls-1" d="M215.84,308.94v8.19h8.3v2H213.63V298.69h10.52v1.94h-8.28v6.24h8v2.07Z"/><path class="cls-1" d="M38.52,314.3l2.06-.57a16.54,16.54,0,0,0,.75,1.74,4.21,4.21,0,0,0,7.8-2.54,3,3,0,0,0-1.57-2.43c-1.33-.74-2.73-1.35-4.09-2.05a12.89,12.89,0,0,1-2-1.16,4.88,4.88,0,0,1-.11-7.72,6.1,6.1,0,0,1,9.21,1.83c-.36.23-.72.48-1.09.71a5.82,5.82,0,0,1-.59.33,16,16,0,0,0-1.15-1.27,3.75,3.75,0,0,0-5.4.58,2.66,2.66,0,0,0,.66,3.94,28.82,28.82,0,0,0,3,1.55c.73.37,1.5.67,2.22,1.07,2.54,1.4,3.46,3.2,3.11,6a6.38,6.38,0,0,1-4.68,5.11C42.82,320.33,39.48,318.28,38.52,314.3Z"/><path class="cls-1" d="M196,313.75a4.88,4.88,0,0,0,2.41,3.34,4.27,4.27,0,0,0,6.09-3.11,3.15,3.15,0,0,0-1.3-3.27,29.87,29.87,0,0,0-3.1-1.68c-.91-.47-1.87-.87-2.75-1.4a4.56,4.56,0,0,1-2.36-4.75,4.82,4.82,0,0,1,3-4.06,6,6,0,0,1,8,2.57l-1.67,1.1c-.32-.39-.57-.75-.87-1.06a3.76,3.76,0,0,0-5.61.22,2.67,2.67,0,0,0,.58,4c1.18.75,2.53,1.24,3.75,1.93a14.32,14.32,0,0,1,3.3,2.15c2.3,2.36,1.58,6.58-1.34,8.66a6.56,6.56,0,0,1-10-3.2c-.25-.7-.12-1,.62-1.16C195.13,314,195.52,313.87,196,313.75Z"/><path class="cls-1" d="M107.61,315a3.3,3.3,0,0,0,0,.72c.36,1.66-.57,2.39-1.94,3a10.72,10.72,0,0,1-14.86-8.5,10.1,10.1,0,0,1,4.64-10.11,10.28,10.28,0,0,1,11-.63,1.69,1.69,0,0,1,1.12,1.93,10.26,10.26,0,0,0,0,1.49,8.93,8.93,0,0,0-7.58-2.5,8.27,8.27,0,0,0-5.23,3.18,8.54,8.54,0,0,0,.51,11.24C98.43,318.26,102.5,318.34,107.61,315Z"/><path class="cls-1" d="M252,319.2h-2.25V298.5a53.22,53.22,0,0,1,6.65.42c2.77.5,4.33,3,4.11,6.05a5.48,5.48,0,0,1-5,5.07c-1.11.09-2.22.11-3.48.17Zm0-18.62c0,2.49,0,4.77,0,7.06a.71.71,0,0,0,.53.47,19.31,19.31,0,0,0,3.22-.32c1.78-.41,2.6-1.71,2.54-3.7a3.09,3.09,0,0,0-2.77-3.23C254.43,300.68,253.28,300.67,252,300.58Z"/><path class="cls-1" d="M139.29,298.68a1.8,1.8,0,0,1,.3-.06c2.16-.09,2.16-.09,3.23,1.8q2,3.52,4,7.05s.09.08.23.21c.19-.29.39-.56.55-.84,1.39-2.43,2.81-4.84,4.15-7.29a1.47,1.47,0,0,1,1.65-.95,11.93,11.93,0,0,0,1.49,0l-2.45,4.27c-1.28,2.25-2.59,4.48-3.85,6.75a3.58,3.58,0,0,0-.43,1.57c0,2.39,0,4.77,0,7.16v.82h-2.12c0-.32-.06-.66-.06-1,0-2.3,0-4.6,0-6.9a3.53,3.53,0,0,0-.46-1.65c-1.9-3.39-3.85-6.75-5.79-10.12C139.58,299.27,139.46,299,139.29,298.68Z"/><path class="cls-1" d="M130.26,319.19H128v-18.5h-4.92v-2h12.13v2h-5Z"/><path class="cls-1" d="M117.1,319.19H115V298.61h2.07Z"/><path class="cls-1" d="M171,313.54v-1.76h5.46v1.76Z"/></svg>